<?xml version="1.0" encoding="UTF-8" standalone="no"?>
<!-- Created with Inkscape (http://www.inkscape.org/) -->

<svg xmlns:dc="http://purl.org/dc/elements/1.1/" xmlns:cc="http://creativecommons.org/ns#" xmlns:rdf="http://www.w3.org/1999/02/22-rdf-syntax-ns#" xmlns:svg="http://www.w3.org/2000/svg" xmlns="http://www.w3.org/2000/svg" xmlns:xlink="http://www.w3.org/1999/xlink" xmlns:sodipodi="http://sodipodi.sourceforge.net/DTD/sodipodi-0.dtd" xmlns:inkscape="http://www.inkscape.org/namespaces/inkscape" version="1.1" width="750" height="600" viewBox="0 0 750 600" id="cards" inkscape:version="0.48.5 r10040" sodipodi:docname="back.svg">
  <sodipodi:namedview pagecolor="#ffffff" bordercolor="#666666" borderopacity="1" objecttolerance="10" gridtolerance="10" guidetolerance="10" inkscape:pageopacity="0" inkscape:pageshadow="2" inkscape:window-width="1280" inkscape:window-height="1002" id="namedview6787" showgrid="false" inkscape:zoom="2.828" inkscape:cx="614.7" inkscape:cy="452.3" inkscape:window-x="-8" inkscape:window-y="48" inkscape:window-maximized="1" inkscape:current-layer="cards" showguides="true" inkscape:guide-bbox="true">
    <sodipodi:guide orientation="1,0" position="250,230" id="guide4638" />
    <sodipodi:guide orientation="1,0" position="500,181" id="guide4640" />
    <sodipodi:guide orientation="1,0" position="750.4,294.2" id="guide4642" />
    <sodipodi:guide orientation="1,0" position="1000,300.6" id="guide4644" />
    <sodipodi:guide orientation="1,0" position="1250,184" id="guide4646" />
    <sodipodi:guide orientation="1,0" position="1500,176.5" id="guide4648" />
    <sodipodi:guide orientation="1,0" position="1750,157.5" id="guide4650" />
    <sodipodi:guide orientation="1,0" position="2000,221" id="guide4652" />
    <sodipodi:guide orientation="1,0" position="2250,110.3" id="guide4654" />
    <sodipodi:guide orientation="1,0" position="2500,195.9" id="guide4656" />
    <sodipodi:guide orientation="1,0" position="2750,157" id="guide4658" />
    <sodipodi:guide orientation="1,0" position="3000,154.5" id="guide4660" />
    <sodipodi:guide orientation="0,1" position="-115.5,225" id="guide4662" />
    <sodipodi:guide orientation="1,0" position="3240,277.2" id="guide5764" />
    <sodipodi:guide orientation="1,0" position="3010,310.1" id="guide5766" />
    <sodipodi:guide orientation="1,0" position="2990,190.8" id="guide5768" />
    <sodipodi:guide orientation="1,0" position="2760,132.8" id="guide5770" />
    <sodipodi:guide orientation="1,0" position="2740,275.1" id="guide5809" />
    <sodipodi:guide orientation="1,0" position="2510,333.6" id="guide5811" />
    <sodipodi:guide orientation="1,0" position="2490,312.5" id="guide5813" />
    <sodipodi:guide orientation="1,0" position="2260,266.6" id="guide5816" />
    <sodipodi:guide orientation="1,0" position="2240,212.2" id="guide6060" />
    <sodipodi:guide orientation="1,0" position="2010,188.8" id="guide6062" />
    <sodipodi:guide orientation="1,0" position="1990,194.5" id="guide6064" />
    <sodipodi:guide orientation="1,0" position="1760,222.1" id="guide6066" />
    <sodipodi:guide orientation="1,0" position="1740,222.1" id="guide6068" />
    <sodipodi:guide orientation="1,0" position="1510,236.2" id="guide6070" />
    <sodipodi:guide orientation="1,0" position="1490,236.9" id="guide6072" />
    <sodipodi:guide orientation="1,0" position="1260,259.5" id="guide6162" />
    <sodipodi:guide orientation="1,0" position="1240,243.3" id="guide6164" />
    <sodipodi:guide orientation="1,0" position="1010,183.2" id="guide6255" />
    <sodipodi:guide orientation="1,0" position="990.1,195.2" id="guide6257" />
    <sodipodi:guide orientation="1,0" position="760.3,176.8" id="guide6259" />
    <sodipodi:guide orientation="1,0" position="705.1,153.5" id="guide6261" />
    <sodipodi:guide orientation="1,0" position="545.1,135.5" id="guide6315" />
    <sodipodi:guide orientation="1,0" position="470.1,153.5" id="guide6317" />
    <sodipodi:guide orientation="1,0" position="280.1,194.1" id="guide6319" />
    <sodipodi:guide orientation="0,1" position="-21.22,74.96" id="guide3189" />
    <sodipodi:guide orientation="0,1" position="538.1,524.6" id="guide3251" />
    <sodipodi:guide orientation="0,1" position="331,299.9" id="guide3253" />
    <sodipodi:guide orientation="0,1" position="522.1,375.1" id="guide3255" />
    <sodipodi:guide orientation="0,1" position="199.8,450.1" id="guide3276" />
    <sodipodi:guide orientation="0,1" position="280.1,460.1" id="guide3278" />
    <sodipodi:guide orientation="0,1" position="300.5,440.1" id="guide3280" />
    <sodipodi:guide orientation="1,0" position="350.1,450.1" id="guide3286" />
    <sodipodi:guide orientation="1,0" position="390.1,413.1" id="guide3288" />
    <sodipodi:guide orientation="1,0" position="570.1,486.1" id="guide4060" />
    <sodipodi:guide orientation="1,0" position="680.1,474.6" id="guide4062" />
    <sodipodi:guide orientation="0,1" position="600.6,495.1" id="guide4064" />
    <sodipodi:guide orientation="0,1" position="570.1,405.6" id="guide4066" />
  </sodipodi:namedview>
  <rect width="249.5" height="299.5" ry="0" x="0.2496" y="300.2" id="rect8231" style="fill:url(#pattern6496);fill-opacity:1;fill-rule:evenodd;stroke:#000000;stroke-width:0.4991;stroke-linecap:butt;stroke-miterlimit:4;stroke-opacity:1;stroke-dasharray:none" rx="0" />
  <defs id="defs2680">
    <linearGradient id="linearGradient4800">
      <stop style="stop-color:#00727a;stop-opacity:1;" offset="0" id="stop4802" />
      <stop id="stop4804" offset="1" style="stop-color:#004a3f;stop-opacity:1;" />
    </linearGradient>
    <linearGradient id="linearGradient4782">
      <stop id="stop4790" offset="0" style="stop-color:#00727a;stop-opacity:1;" />
      <stop style="stop-color:#004a3f;stop-opacity:1;" offset="1" id="stop4796" />
    </linearGradient>
    <pattern patternTransform="matrix(0.944,0.3287,-0.3287,0.944,74.9,400)" id="pattern6496" xlink:href="#pattern6885" />
    <linearGradient id="linearGradient5830">
      <stop id="stop5832" style="stop-color:#ff0000;stop-opacity:1" offset="0" />
      <stop id="stop5834" style="stop-color:#6b0000;stop-opacity:1" offset="1" />
    </linearGradient>
    <linearGradient x1="1367" y1="219.7" x2="1413" y2="219.7" id="linearGradient5969" xlink:href="#linearGradient5830" gradientUnits="userSpaceOnUse" gradientTransform="matrix(1.073,0,0,0.9952,155,17.92)" />
    <pattern id="pattern6885" patternTransform="translate(74.9,100)" height="100.3" width="100.2" patternUnits="userSpaceOnUse">
      <path style="stroke:#000000;stroke-width:3.841;stroke-linecap:round" d="M 2.06,2.2 98.1,98.2" id="path6759" />
      <path style="stroke:#000000;stroke-width:3.841;stroke-linecap:round" d="M 2.06,11.8 88.5,98.2" id="path6761" />
      <path style="stroke:#000000;stroke-width:3.841;stroke-linecap:round" d="M 11.66,2.2 98.1,88.6" id="path6763" />
      <path style="stroke:#000000;stroke-width:3.841;stroke-linecap:round" d="M 2.06,21.4 78.9,98.2" id="path6765" />
      <path style="stroke:#000000;stroke-width:3.841;stroke-linecap:round" d="M 21.26,2.2 98.1,79" id="path6767" />
      <path style="stroke:#000000;stroke-width:3.841;stroke-linecap:round" d="M 2.06,88.6 11.66,98.2" id="path6769" />
      <path style="stroke:#000000;stroke-width:3.841;stroke-linecap:round" d="M 2.06,79 21.26,98.2" id="path6771" />
      <path style="stroke:#000000;stroke-width:3.841;stroke-linecap:round" d="M 88.5,2.2 98.1,11.8" id="path6773" />
      <path style="stroke:#000000;stroke-width:3.841;stroke-linecap:round" d="M 78.9,2.2 98.1,21.4" id="path6775" />
      <path style="stroke:#000000;stroke-width:3.841;stroke-linecap:round" d="M 98.1,2.2 2.06,98.2" id="path6777" />
      <path style="stroke:#000000;stroke-width:3.841;stroke-linecap:round" d="M 98.1,11.8 11.66,98.2" id="path6779" />
      <path style="stroke:#000000;stroke-width:3.841;stroke-linecap:round" d="M 88.5,2.2 2.06,88.6" id="path6781" />
      <path style="stroke:#000000;stroke-width:3.841;stroke-linecap:round" d="M 98.1,21.4 21.26,98.2" id="path6783" />
      <path style="stroke:#000000;stroke-width:3.841;stroke-linecap:round" d="M 78.9,2.2 2.06,79" id="path6785" />
      <path style="stroke:#000000;stroke-width:3.841;stroke-linecap:round" d="M 98.1,88.6 88.5,98.2" id="path6787" />
      <path style="stroke:#000000;stroke-width:3.841;stroke-linecap:round" d="M 98.1,79 78.9,98.2" id="path6789" />
      <path style="stroke:#000000;stroke-width:3.841;stroke-linecap:round" d="M 11.66,2.2 2.06,11.8" id="path6791" />
      <path style="stroke:#000000;stroke-width:3.841;stroke-linecap:round" d="M 21.26,2.2 2.06,21.4" id="path6793" />
      <path style="stroke:#000000;stroke-width:1.9205;stroke-linecap:round" d="M 2.06,50.2 50.1,98.2" id="path6795" />
      <path style="stroke:#000000;stroke-width:1.9205;stroke-linecap:round" d="M 2.06,59.8 40.5,98.2" id="path6797" />
      <path style="stroke:#000000;stroke-width:1.9205;stroke-linecap:round" d="M 2.06,40.6 59.7,98.2" id="path6799" />
      <path style="stroke:#000000;stroke-width:1.9205;stroke-linecap:round" d="M 50.1,2.2 98.1,50.2" id="path6801" />
      <path style="stroke:#000000;stroke-width:1.9205;stroke-linecap:round" d="M 40.5,2.2 98.1,59.8" id="path6803" />
      <path style="stroke:#000000;stroke-width:1.9205;stroke-linecap:round" d="M 59.7,2.2 98.1,40.6" id="path6805" />
      <path style="stroke:#000000;stroke-width:1.9205;stroke-linecap:round" d="M 98.1,50.2 50.1,98.2" id="path6807" />
      <path style="stroke:#000000;stroke-width:1.9205;stroke-linecap:round" d="M 98.1,40.6 40.5,98.2" id="path6809" />
      <path style="stroke:#000000;stroke-width:1.9205;stroke-linecap:round" d="M 50.1,2.2 2.06,50.2" id="path6811" />
      <path style="stroke:#000000;stroke-width:1.9205;stroke-linecap:round" d="M 59.7,2.2 2.06,59.8" id="path6813" />
      <path style="stroke:#000000;stroke-width:1.9205;stroke-linecap:round" d="M 40.5,2.2 2.06,40.6" id="path6815" />
      <path style="stroke:#000000;stroke-width:1.9205;stroke-linecap:round" d="M 98.1,59.8 59.7,98.2" id="path6817" />
    </pattern>
    <pattern patternTransform="matrix(0.944,0.3287,-0.3287,0.944,74.9,100)" id="pattern6496-1" xlink:href="#pattern6885-7" />
    <pattern id="pattern6885-7" patternTransform="translate(74.9,100)" height="100.3" width="100.2" patternUnits="userSpaceOnUse">
      <path style="stroke:#000000;stroke-width:3.841;stroke-linecap:round" d="M 2.06,2.2 98.1,98.2" id="path6759-4" />
      <path style="stroke:#000000;stroke-width:3.841;stroke-linecap:round" d="M 2.06,11.8 88.5,98.2" id="path6761-0" />
      <path style="stroke:#000000;stroke-width:3.841;stroke-linecap:round" d="M 11.66,2.2 98.1,88.6" id="path6763-9" />
      <path style="stroke:#000000;stroke-width:3.841;stroke-linecap:round" d="M 2.06,21.4 78.9,98.2" id="path6765-4" />
      <path style="stroke:#000000;stroke-width:3.841;stroke-linecap:round" d="M 21.26,2.2 98.1,79" id="path6767-8" />
      <path style="stroke:#000000;stroke-width:3.841;stroke-linecap:round" d="M 2.06,88.6 11.66,98.2" id="path6769-8" />
      <path style="stroke:#000000;stroke-width:3.841;stroke-linecap:round" d="M 2.06,79 21.26,98.2" id="path6771-2" />
      <path style="stroke:#000000;stroke-width:3.841;stroke-linecap:round" d="M 88.5,2.2 98.1,11.8" id="path6773-4" />
      <path style="stroke:#000000;stroke-width:3.841;stroke-linecap:round" d="M 78.9,2.2 98.1,21.4" id="path6775-5" />
      <path style="stroke:#000000;stroke-width:3.841;stroke-linecap:round" d="M 98.1,2.2 2.06,98.2" id="path6777-5" />
      <path style="stroke:#000000;stroke-width:3.841;stroke-linecap:round" d="M 98.1,11.8 11.66,98.2" id="path6779-1" />
      <path style="stroke:#000000;stroke-width:3.841;stroke-linecap:round" d="M 88.5,2.2 2.06,88.6" id="path6781-7" />
      <path style="stroke:#000000;stroke-width:3.841;stroke-linecap:round" d="M 98.1,21.4 21.26,98.2" id="path6783-1" />
      <path style="stroke:#000000;stroke-width:3.841;stroke-linecap:round" d="M 78.9,2.2 2.06,79" id="path6785-1" />
      <path style="stroke:#000000;stroke-width:3.841;stroke-linecap:round" d="M 98.1,88.6 88.5,98.2" id="path6787-5" />
      <path style="stroke:#000000;stroke-width:3.841;stroke-linecap:round" d="M 98.1,79 78.9,98.2" id="path6789-2" />
      <path style="stroke:#000000;stroke-width:3.841;stroke-linecap:round" d="M 11.66,2.2 2.06,11.8" id="path6791-7" />
      <path style="stroke:#000000;stroke-width:3.841;stroke-linecap:round" d="M 21.26,2.2 2.06,21.4" id="path6793-6" />
      <path style="stroke:#000000;stroke-width:1.9205;stroke-linecap:round" d="M 2.06,50.2 50.1,98.2" id="path6795-1" />
      <path style="stroke:#000000;stroke-width:1.9205;stroke-linecap:round" d="M 2.06,59.8 40.5,98.2" id="path6797-4" />
      <path style="stroke:#000000;stroke-width:1.9205;stroke-linecap:round" d="M 2.06,40.6 59.7,98.2" id="path6799-2" />
      <path style="stroke:#000000;stroke-width:1.9205;stroke-linecap:round" d="M 50.1,2.2 98.1,50.2" id="path6801-3" />
      <path style="stroke:#000000;stroke-width:1.9205;stroke-linecap:round" d="M 40.5,2.2 98.1,59.8" id="path6803-2" />
      <path style="stroke:#000000;stroke-width:1.9205;stroke-linecap:round" d="M 59.7,2.2 98.1,40.6" id="path6805-2" />
      <path style="stroke:#000000;stroke-width:1.9205;stroke-linecap:round" d="M 98.1,50.2 50.1,98.2" id="path6807-1" />
      <path style="stroke:#000000;stroke-width:1.9205;stroke-linecap:round" d="M 98.1,40.6 40.5,98.2" id="path6809-6" />
      <path style="stroke:#000000;stroke-width:1.9205;stroke-linecap:round" d="M 50.1,2.2 2.06,50.2" id="path6811-8" />
      <path style="stroke:#000000;stroke-width:1.9205;stroke-linecap:round" d="M 59.7,2.2 2.06,59.8" id="path6813-5" />
      <path style="stroke:#000000;stroke-width:1.9205;stroke-linecap:round" d="M 40.5,2.2 2.06,40.6" id="path6815-7" />
      <path style="stroke:#000000;stroke-width:1.9205;stroke-linecap:round" d="M 98.1,59.8 59.7,98.2" id="path6817-6" />
    </pattern>
    <pattern patternTransform="matrix(0.944,0.3287,-0.3287,0.944,74.9,100)" id="pattern6496-4" xlink:href="#pattern6885-5" />
    <pattern id="pattern6885-5" patternTransform="translate(74.9,100)" height="100.3" width="100.2" patternUnits="userSpaceOnUse">
      <path style="stroke:#000000;stroke-width:3.841;stroke-linecap:round" d="M 2.06,2.2 98.1,98.2" id="path6759-2" />
      <path style="stroke:#000000;stroke-width:3.841;stroke-linecap:round" d="M 2.06,11.8 88.5,98.2" id="path6761-9" />
      <path style="stroke:#000000;stroke-width:3.841;stroke-linecap:round" d="M 11.66,2.2 98.1,88.6" id="path6763-98" />
      <path style="stroke:#000000;stroke-width:3.841;stroke-linecap:round" d="M 2.06,21.4 78.9,98.2" id="path6765-3" />
      <path style="stroke:#000000;stroke-width:3.841;stroke-linecap:round" d="M 21.26,2.2 98.1,79" id="path6767-86" />
      <path style="stroke:#000000;stroke-width:3.841;stroke-linecap:round" d="M 2.06,88.6 11.66,98.2" id="path6769-9" />
      <path style="stroke:#000000;stroke-width:3.841;stroke-linecap:round" d="M 2.06,79 21.26,98.2" id="path6771-8" />
      <path style="stroke:#000000;stroke-width:3.841;stroke-linecap:round" d="M 88.5,2.2 98.1,11.8" id="path6773-6" />
      <path style="stroke:#000000;stroke-width:3.841;stroke-linecap:round" d="M 78.9,2.2 98.1,21.4" id="path6775-6" />
      <path style="stroke:#000000;stroke-width:3.841;stroke-linecap:round" d="M 98.1,2.2 2.06,98.2" id="path6777-2" />
      <path style="stroke:#000000;stroke-width:3.841;stroke-linecap:round" d="M 98.1,11.8 11.66,98.2" id="path6779-3" />
      <path style="stroke:#000000;stroke-width:3.841;stroke-linecap:round" d="M 88.5,2.2 2.06,88.6" id="path6781-8" />
      <path style="stroke:#000000;stroke-width:3.841;stroke-linecap:round" d="M 98.1,21.4 21.26,98.2" id="path6783-2" />
      <path style="stroke:#000000;stroke-width:3.841;stroke-linecap:round" d="M 78.9,2.2 2.06,79" id="path6785-6" />
      <path style="stroke:#000000;stroke-width:3.841;stroke-linecap:round" d="M 98.1,88.6 88.5,98.2" id="path6787-2" />
      <path style="stroke:#000000;stroke-width:3.841;stroke-linecap:round" d="M 98.1,79 78.9,98.2" id="path6789-7" />
      <path style="stroke:#000000;stroke-width:3.841;stroke-linecap:round" d="M 11.66,2.2 2.06,11.8" id="path6791-5" />
      <path style="stroke:#000000;stroke-width:3.841;stroke-linecap:round" d="M 21.26,2.2 2.06,21.4" id="path6793-7" />
      <path style="stroke:#000000;stroke-width:1.9205;stroke-linecap:round" d="M 2.06,50.2 50.1,98.2" id="path6795-8" />
      <path style="stroke:#000000;stroke-width:1.9205;stroke-linecap:round" d="M 2.06,59.8 40.5,98.2" id="path6797-2" />
      <path style="stroke:#000000;stroke-width:1.9205;stroke-linecap:round" d="M 2.06,40.6 59.7,98.2" id="path6799-7" />
      <path style="stroke:#000000;stroke-width:1.9205;stroke-linecap:round" d="M 50.1,2.2 98.1,50.2" id="path6801-8" />
      <path style="stroke:#000000;stroke-width:1.9205;stroke-linecap:round" d="M 40.5,2.2 98.1,59.8" id="path6803-0" />
      <path style="stroke:#000000;stroke-width:1.9205;stroke-linecap:round" d="M 59.7,2.2 98.1,40.6" id="path6805-20" />
      <path style="stroke:#000000;stroke-width:1.9205;stroke-linecap:round" d="M 98.1,50.2 50.1,98.2" id="path6807-8" />
      <path style="stroke:#000000;stroke-width:1.9205;stroke-linecap:round" d="M 98.1,40.6 40.5,98.2" id="path6809-9" />
      <path style="stroke:#000000;stroke-width:1.9205;stroke-linecap:round" d="M 50.1,2.2 2.06,50.2" id="path6811-2" />
      <path style="stroke:#000000;stroke-width:1.9205;stroke-linecap:round" d="M 59.7,2.2 2.06,59.8" id="path6813-8" />
      <path style="stroke:#000000;stroke-width:1.9205;stroke-linecap:round" d="M 40.5,2.2 2.06,40.6" id="path6815-2" />
      <path style="stroke:#000000;stroke-width:1.9205;stroke-linecap:round" d="M 98.1,59.8 59.7,98.2" id="path6817-0" />
    </pattern>
    <filter height="1" width="1" y="0" x="0" inkscape:label="Film grain" inkscape:menu="Image effects" inkscape:menu-tooltip="Adds a small scale graininess" color-interpolation-filters="sRGB" id="filter4976">
      <feTurbulence type="fractalNoise" numOctaves="3" baseFrequency="1" seed="0" result="result0" id="feTurbulence4978" />
      <feColorMatrix result="result4" values="0" type="saturate" id="feColorMatrix4980" />
      <feComposite in="SourceGraphic" in2="result4" operator="arithmetic" k1="1.25" k2="0.5" k3="0.5" result="result2" id="feComposite4982" k4="0" />
      <feBlend result="result5" mode="normal" in="result2" in2="SourceGraphic" id="feBlend4984" />
      <feComposite in="result5" in2="SourceGraphic" operator="in" result="result3" id="feComposite4986" />
    </filter>
    <radialGradient inkscape:collect="always" xlink:href="#linearGradient4800-8" id="radialGradient4946-7" cx="374.9" cy="150" fx="374.9" fy="150" r="125" gradientTransform="matrix(0.7692,0,0,2.33,87.4,-200.2)" gradientUnits="userSpaceOnUse" />
    <linearGradient id="linearGradient4800-8">
      <stop style="stop-color:#00727a;stop-opacity:1;" offset="0" id="stop4802-7" />
      <stop id="stop4804-8" offset="1" style="stop-color:#004a3f;stop-opacity:1;" />
    </linearGradient>
    <filter height="1" width="1" y="0" x="0" inkscape:label="Film grain" inkscape:menu="Image effects" inkscape:menu-tooltip="Adds a small scale graininess" color-interpolation-filters="sRGB" id="filter4976-1">
      <feTurbulence type="fractalNoise" numOctaves="3" baseFrequency="1" seed="0" result="result0" id="feTurbulence4978-6" />
      <feColorMatrix result="result4" values="0" type="saturate" id="feColorMatrix4980-0" />
      <feComposite k4="0" in="SourceGraphic" in2="result4" operator="arithmetic" k1="1.25" k2="0.5" k3="0.5" result="result2" id="feComposite4982-9" />
      <feBlend result="result5" mode="normal" in="result2" in2="SourceGraphic" id="feBlend4984-5" />
      <feComposite in="result5" in2="SourceGraphic" operator="in" result="result3" id="feComposite4986-8" />
    </filter>
  </defs>
  <metadata id="metadata97">
    <rdf:RDF>
      <cc:Work rdf:about="">
        <dc:format>image/svg+xml</dc:format>
        <dc:type rdf:resource="http://purl.org/dc/dcmitype/StillImage" />
        <dc:title />
      </cc:Work>
    </rdf:RDF>
  </metadata>
  <view id="BACK" viewBox="0 0 250 300" />
  <view id="CK" viewBox="250 0 250 300" />
  <view id="CQ" viewBox="500 0 250 300" />
  <view id="CJ" viewBox="750 0 250 300" />
  <view id="DK" viewBox="1000 0 250 300" />
  <view id="DQ" viewBox="1250 0 250 300" />
  <view id="DJ" viewBox="1500 0 250 300" />
  <view id="HK" viewBox="1750 0 250 300" />
  <view id="HQ" viewBox="2000 0 250 300" />
  <view id="HJ" viewBox="2250 0 250 300" />
  <view id="SK" viewBox="2500 0 250 300" />
  <view id="SQ" viewBox="2750 0 250 300" />
  <view id="SJ" viewBox="3000 0 250 300" />
  <g id="g3171" transform="matrix(1.679,0,0,1.613,-284.7,273.9)">
    <path style="fill:#000000;fill-opacity:1" d="m 358.5,154.2 -3.3,-1.4 0,-20.4 0,-20.4 18.6,-14.16 c 12.1,-9.14 19.6,-14.15 21.1,-14.15 1.6,0 8.7,4.84 20.4,13.71 l 17.9,13.7 0,19.1 c 0,18 -0.1,19.3 -2.1,21.4 -3.1,3.3 -6.1,4.1 -15.5,4.1 l -8.4,0 0,-12.8 c 0,-11.4 -0.2,-13.2 -2,-15.3 -4.7,-5.8 -5,-5.9 -12.6,-5.9 -6.3,0 -7.7,0.3 -10.1,2.4 -2.8,2.4 -2.8,2.4 -3.1,17 l -0.4,14.6 -8.6,0 c -5.2,-0.1 -10,-0.6 -11.9,-1.5 z m -20.3,-47.8 c 0,-0.3 12.1,-9.53 26.8,-20.59 21,-15.67 27.6,-20.12 29.9,-20.12 2.1,0 5.7,2.06 12.9,7.47 5.4,4.12 10.4,7.49 10.9,7.5 0.6,0 1.5,-0.98 2,-2.22 0.8,-1.9 1.9,-2.3 6.8,-2.55 l 5.7,-0.3 0,6.99 c 0,3.85 0.5,7.27 1,7.62 0.6,0.35 0.8,1.01 0.5,1.49 -0.3,0.47 3.1,3.64 7.5,7.04 7.5,5.77 8.9,7.97 5.4,7.97 -0.8,0 -13.1,-8.78 -27.4,-19.51 -14.2,-10.72 -26.4,-19.5 -27.1,-19.5 -0.7,0 -12.7,8.58 -26.6,19.06 -23.6,17.65 -28.3,20.95 -28.3,19.65 z" id="path3179" inkscape:connector-curvature="0" />
    <path style="fill:#0c0c0c" d="m 352.4,128.6 c -0.1,-12.8 0.1,-18 1.1,-19.1 0.6,-0.9 9.3,-7.7 19.1,-15.22 13.1,-9.97 18.6,-13.59 20.7,-13.59 1.5,0 3.1,0.44 3.4,0.99 0.3,0.55 0,0.74 -0.9,0.42 -0.8,-0.31 -2.5,0 -3.8,0.67 -2,1.05 -34.4,25.43 -37.3,28.13 -0.6,0.5 -1.2,8.6 -1.6,18.1 l -0.5,17.2 -0.2,-17.6 z" id="path3195" inkscape:connector-curvature="0" />
    <path style="fill:#000000;fill-opacity:1" d="m 336.2,104.3 c 0,-0.8 12.1,-10.43 26.8,-21.49 23.3,-17.45 27.4,-20.12 30.5,-20.12 2,0 3.8,0.36 4.1,0.8 0.3,0.44 -1,0.8 -2.9,0.8 -2.7,0 -7.9,3.42 -30.9,20.71 -15.2,11.39 -27.6,20.1 -27.6,19.3 z" id="path3193" inkscape:connector-curvature="0" />
    <path style="fill:#0c0c0c" d="m 418.2,77.64 c 0,-3.77 1.8,-4.95 7.6,-4.95 7.3,0 7.9,1.83 0.7,2.2 -5,0.26 -5.9,0.63 -7,2.8 l -1.3,2.5 0,-2.55 z" id="path3173" inkscape:connector-curvature="0" />
  </g>
  <g id="g3218" transform="matrix(1.259,0,0,1.173,-108.6,300.6)">
    <path style="fill:#000000;fill-opacity:1" d="m 535.8,189.4 c -1.8,-1.8 -2,-3.3 -2,-14.1 l 0,-12.1 -4.1,-4.6 c -17.3,-19.4 -11.5,-50 11.6,-61.19 8.8,-4.24 21.5,-4.91 30.5,-1.62 2.1,0.78 6,-5.67 6,-9.94 0,-3.4 0,-3.43 -4.5,-3.43 l -4.5,0 0,-4.5 0,-4.5 4.5,0 4.5,0 0,-5 0,-5 5,0 5,0 0,5 0,5 4.5,0 4.5,0 0,4.5 0,4.5 -4.5,0 c -4.5,0 -4.5,0 -4.5,3.43 0,4.28 3.9,10.72 6,9.93 5.2,-1.95 14.2,-2.67 20,-1.59 30.4,5.65 42.7,41.31 22.1,64.41 l -4.1,4.6 0,11.9 c 0,8.7 -0.4,12.4 -1.4,13.9 -1.4,1.8 -3.2,1.9 -47,2.2 -44.6,0.3 -45.6,0.2 -47.6,-1.8 z m 86.8,-14.3 c 0.3,-6.2 0.1,-6.8 -1.5,-6.3 -6.2,1.9 -12.1,2.6 -22.1,2.6 l -11.2,0 0,-23.4 0,-23.5 3.2,-1.8 c 4.9,-2.6 16.1,-2.4 21.4,0.4 11.4,6 16.2,17.9 12.8,31.3 -0.6,2.4 -0.5,2.3 3,-1 11.7,-11 11.9,-30.5 0.3,-41.7 -6.8,-6.6 -11.9,-8.8 -20.7,-8.8 -6.3,0 -8.4,0.5 -13.5,3 l -6,3 -0.3,6.8 -0.3,6.7 -4.9,0 -4.9,0 -0.3,-6.7 -0.3,-6.8 -6,-3 c -5.1,-2.5 -7.2,-3 -13.5,-3 -8.8,0 -13.9,2.2 -20.7,8.8 -11.6,11.2 -11.4,30.7 0.2,41.7 3.6,3.3 3.7,3.4 3.1,1 -3.4,-13.4 1.4,-25.2 12.8,-31.3 5.3,-2.8 16.5,-3 21.3,-0.4 l 3.3,1.8 0,23.5 0,23.4 -11.3,0 c -9.8,0 -15.8,-0.7 -22,-2.6 -1.5,-0.5 -1.7,0.2 -1.7,5.9 0,3.5 0.3,6.7 0.7,7 0.3,0.4 18.2,0.6 39.7,0.5 l 39.1,-0.3 0.3,-6.8 z" id="path3220" inkscape:connector-curvature="0" />
  </g>
  <path inkscape:connector-curvature="0" id="path3268" style="font-size:64px;font-style:normal;font-variant:normal;font-weight:normal;font-stretch:normal;line-height:125%;letter-spacing:0px;word-spacing:0px;fill:#000000;fill-opacity:1;stroke:none;font-family:Serif;-inkscape-font-specification:Serif" d="m 315.1,75.2 c 1.4,3.91 3.2,7.22 5.7,10.23 2.8,2.91 7.4,6.62 13.8,10.94 6.8,4.53 11.1,7.93 12.7,10.23 1.9,2.4 2.8,4.7 2.8,7.1 0,3.3 -1.7,6.2 -4.7,8.3 -3,2.3 -6.8,3.5 -11,3.5 -3.9,0 -7.6,-1 -11,-3.1 -2.8,-1.4 -5.1,-3.7 -7.4,-6.9 0,5 1,9.3 2.7,12.3 1.9,3.1 4.7,5.4 8.6,7.1 4.1,1.8 9.2,2.8 15.8,3.2 l 0.6,1.8 -57,0 0.6,-1.8 c 8.7,0 15.6,-2.1 20.4,-5.7 4.9,-3.7 7.2,-9.5 7,-16.9 -2.1,3.4 -4.9,5.7 -7.9,7.4 -3.2,1.8 -6.9,2.6 -10.8,2.6 -4.4,0 -8,-1.2 -11.3,-3.5 -3,-2.3 -4.6,-5 -4.6,-8 0,-2.7 0.7,-5 2.3,-7 2.1,-2.9 5.8,-5.7 10.6,-8.73 4.9,-2.91 8.5,-5.21 10.8,-7.32 3.5,-2.81 6,-5.32 7.6,-7.73 1.6,-2.1 3,-4.81 3.7,-8.02 z" />
  <path inkscape:connector-curvature="0" id="path3270" style="font-size:64px;font-style:normal;font-variant:normal;font-weight:normal;font-stretch:normal;line-height:125%;letter-spacing:0px;word-spacing:0px;fill:#000000;fill-opacity:1;stroke:none;font-family:Serif;-inkscape-font-specification:Serif" d="m 430,75.2 c 5,5.28 11.4,10.85 18.9,16.82 8.6,6.77 15.9,11.98 21.2,15.48 -4.5,2.7 -11.4,7.9 -21.2,15.6 -7.8,6.2 -14.2,11.8 -18.9,16.8 -1.7,-1.8 -3.7,-4 -6.5,-6.3 -4.7,-4.1 -10.5,-8.8 -17.6,-14.3 -1.3,-1.3 -6.6,-5.1 -15.8,-11.8 5.9,-4 13.4,-9.61 22.5,-16.87 7.1,-5.38 12.6,-10.45 17.4,-15.43 z" />
  <path inkscape:connector-curvature="0" id="path3272" style="font-size:64px;font-style:normal;font-variant:normal;font-weight:normal;font-stretch:normal;line-height:125%;letter-spacing:0px;word-spacing:0px;fill:#000000;fill-opacity:1;stroke:none;font-family:Serif;-inkscape-font-specification:Serif" d="m 315.3,225.2 c -1.4,-4.2 -3.3,-7.9 -5.8,-11.6 -2.4,-3.5 -7.2,-9.1 -14.3,-16.7 -5.3,-5.4 -8.4,-9.1 -9.5,-10.6 -2,-2.3 -3.6,-4.7 -4.4,-6.7 -0.8,-1.9 -1.2,-3.9 -1.2,-6.1 0,-3.8 1.4,-7 4.8,-9.6 3,-2.7 6.9,-3.8 11.7,-3.8 4.7,0 8.8,1.3 12.4,4 2.4,2 4.7,4.9 6.3,8.9 1.2,-3.8 3.4,-6.7 5.7,-8.7 3.8,-2.9 7.9,-4.4 12.3,-4.4 4.8,0 8.8,1.3 12,3.9 3.1,2.6 4.8,5.5 4.8,9.1 0,3.1 -0.8,6.5 -2.8,9.7 -1.7,3.4 -5.4,7.9 -11,13.5 -6.9,7.2 -12.2,13 -15.3,17.6 -2.5,3.7 -4.5,7.5 -5.7,11.5 z" />
  <path inkscape:connector-curvature="0" id="path3274" style="font-size:64px;font-style:normal;font-variant:normal;font-weight:normal;font-stretch:normal;line-height:125%;letter-spacing:0px;word-spacing:0px;fill:#000000;fill-opacity:1;stroke:none;font-family:Serif;-inkscape-font-specification:Serif" d="m 457.7,225.2 -54.9,0 0.6,-1.9 c 7.1,-1.2 11.8,-2.3 14,-3.7 3.6,-1.7 6.4,-4.4 8.6,-8 2.2,-3.6 3.5,-7.3 3.5,-11 0,-0.7 -0.2,-1.6 -0.2,-2.6 -2.5,4.4 -5.8,7.7 -9.6,9.7 -3.7,1.9 -7.6,2.9 -11.6,2.9 -5,0 -9.2,-1.4 -12.7,-4.3 -3.4,-2.8 -5.3,-6.4 -5.3,-10.5 0,-4 1.7,-7.5 4.7,-10.2 3.3,-2.9 6.9,-4.3 11,-4.3 2.5,0 6.1,0.9 10.6,2.7 -1.8,-2.5 -3.1,-4.2 -3.5,-5.6 -0.7,-1.2 -0.8,-2.7 -0.8,-4.1 0,-4 1.7,-7.4 5.1,-10.3 3.3,-2.7 7.7,-4.1 12.7,-4.1 5.2,0 9.3,1.4 12.9,4.1 3.5,2.9 5.2,6.3 5.2,10.2 0,3 -1.6,6.3 -4.4,9.8 3.5,-1.5 5.8,-2.2 6.4,-2.4 1.3,-0.3 2.5,-0.5 3.9,-0.5 4.4,0 8.2,1.4 11.5,4.3 3,2.7 4.5,6.1 4.7,10.2 -0.2,4.3 -1.9,7.9 -5.4,10.7 -3.4,2.9 -7.6,4.3 -12.5,4.3 -2.6,0 -5.3,-0.5 -8.3,-1.7 -2.8,-1 -5.3,-2.4 -7.5,-4.3 -1.6,-1.3 -3.5,-3.5 -5.7,-6.6 0.2,5.6 1.3,10 3.2,13.3 2,3.4 5,6.1 8.9,8.3 2.7,1.4 7.4,2.5 14.4,3.7 z" />
  <path sodipodi:type="arc" style="fill:none;stroke:#000000;stroke-width:28.4344;stroke-linecap:butt;stroke-linejoin:miter;stroke-miterlimit:0;stroke-opacity:1;stroke-dasharray:none;stroke-dashoffset:0" id="path3290" sodipodi:cx="641" sodipodi:cy="154.1" sodipodi:rx="78.87" sodipodi:ry="78.87" d="m 719.9,154.1 a 78.87,78.87 0 1 1 -157.8,0 78.87,78.87 0 1 1 157.8,0 z" transform="matrix(0.5612,0,0,0.5642,265.5,62.96)" />
</svg>
