<?xml version="1.0" encoding="UTF-8" standalone="no"?>
<!-- Created with Inkscape (http://www.inkscape.org/) -->

<svg
   xmlns:dc="http://purl.org/dc/elements/1.1/"
   xmlns:cc="http://creativecommons.org/ns#"
   xmlns:rdf="http://www.w3.org/1999/02/22-rdf-syntax-ns#"
   xmlns:svg="http://www.w3.org/2000/svg"
   xmlns="http://www.w3.org/2000/svg"
   xmlns:sodipodi="http://sodipodi.sourceforge.net/DTD/sodipodi-0.dtd"
   xmlns:inkscape="http://www.inkscape.org/namespaces/inkscape"
   version="1.1"
   width="250"
   height="300"
   viewBox="0 0 250 300"
   id="cards"
   inkscape:version="0.91 r13725"
   sodipodi:docname="back_stack.svg">
  <sodipodi:namedview
     pagecolor="#ffffff"
     bordercolor="#666666"
     
     objecttolerance="10"
     gridtolerance="10"
     guidetolerance="10"
     inkscape:pageopacity="0"
     inkscape:pageshadow="2"
     inkscape:window-width="1920"
     inkscape:window-height="978"
     id="namedview6787"
     showgrid="false"
     inkscape:zoom="0.707"
     inkscape:cx="573.93023"
     inkscape:cy="64.643195"
     inkscape:window-x="0"
     inkscape:window-y="1"
     inkscape:window-maximized="1"
     inkscape:current-layer="cards"
     showguides="true"
     inkscape:guide-bbox="true" />
  <defs
     id="defs2680" />
  <metadata
     id="metadata97">
    <rdf:RDF>
      <cc:Work
         rdf:about="">
        <dc:format>image/svg+xml</dc:format>
        <dc:type
           rdf:resource="http://purl.org/dc/dcmitype/StillImage" />
        <dc:title />
      </cc:Work>
    </rdf:RDF>
  </metadata>
  <g
     id="g3218"
     transform="matrix(1.259,0,0,1.173,-608.6,0.6)">
    <path
       style="fill:#000000"
       d="m 535.8,189.4 c -1.8,-1.8 -2,-3.3 -2,-14.1 l 0,-12.1 -4.1,-4.6 c -17.3,-19.4 -11.5,-50 11.6,-61.19 8.8,-4.24 21.5,-4.91 30.5,-1.62 2.1,0.78 6,-5.67 6,-9.94 0,-3.4 0,-3.43 -4.5,-3.43 l -4.5,0 0,-4.5 0,-4.5 4.5,0 4.5,0 0,-5 0,-5 5,0 5,0 0,5 0,5 4.5,0 4.5,0 0,4.5 0,4.5 -4.5,0 c -4.5,0 -4.5,0 -4.5,3.43 0,4.28 3.9,10.72 6,9.93 5.2,-1.95 14.2,-2.67 20,-1.59 30.4,5.65 42.7,41.31 22.1,64.41 l -4.1,4.6 0,11.9 c 0,8.7 -0.4,12.4 -1.4,13.9 -1.4,1.8 -3.2,1.9 -47,2.2 -44.6,0.3 -45.6,0.2 -47.6,-1.8 z m 86.8,-14.3 c 0.3,-6.2 0.1,-6.8 -1.5,-6.3 -6.2,1.9 -12.1,2.6 -22.1,2.6 l -11.2,0 0,-23.4 0,-23.5 3.2,-1.8 c 4.9,-2.6 16.1,-2.4 21.4,0.4 11.4,6 16.2,17.9 12.8,31.3 -0.6,2.4 -0.5,2.3 3,-1 11.7,-11 11.9,-30.5 0.3,-41.7 -6.8,-6.6 -11.9,-8.8 -20.7,-8.8 -6.3,0 -8.4,0.5 -13.5,3 l -6,3 -0.3,6.8 -0.3,6.7 -4.9,0 -4.9,0 -0.3,-6.7 -0.3,-6.8 -6,-3 c -5.1,-2.5 -7.2,-3 -13.5,-3 -8.8,0 -13.9,2.2 -20.7,8.8 -11.6,11.2 -11.4,30.7 0.2,41.7 3.6,3.3 3.7,3.4 3.1,1 -3.4,-13.4 1.4,-25.2 12.8,-31.3 5.3,-2.8 16.5,-3 21.3,-0.4 l 3.3,1.8 0,23.5 0,23.4 -11.3,0 c -9.8,0 -15.8,-0.7 -22,-2.6 -1.5,-0.5 -1.7,0.2 -1.7,5.9 0,3.5 0.3,6.7 0.7,7 0.3,0.4 18.2,0.6 39.7,0.5 l 39.1,-0.3 0.3,-6.8 z"
       id="path3220"
       inkscape:connector-curvature="0" />
  </g>
</svg>
