<?xml version="1.0" encoding="UTF-8" standalone="no"?>
<!-- Created with Inkscape (http://www.inkscape.org/) -->

<svg
   xmlns:dc="http://purl.org/dc/elements/1.1/"
   xmlns:cc="http://creativecommons.org/ns#"
   xmlns:rdf="http://www.w3.org/1999/02/22-rdf-syntax-ns#"
   xmlns:svg="http://www.w3.org/2000/svg"
   xmlns="http://www.w3.org/2000/svg"
   xmlns:sodipodi="http://sodipodi.sourceforge.net/DTD/sodipodi-0.dtd"
   xmlns:inkscape="http://www.inkscape.org/namespaces/inkscape"
   version="1.1"
   width="250"
   height="300"
   viewBox="0 0 250 300"
   id="cards"
   inkscape:version="0.91 r13725"
   sodipodi:docname="back_deck.svg">
  <sodipodi:namedview
     pagecolor="#ffffff"
     bordercolor="#666666"
     
     objecttolerance="10"
     gridtolerance="10"
     guidetolerance="10"
     inkscape:pageopacity="0"
     inkscape:pageshadow="2"
     inkscape:window-width="1920"
     inkscape:window-height="978"
     id="namedview6787"
     showgrid="false"
     inkscape:zoom="0.707"
     inkscape:cx="403.2948"
     inkscape:cy="89.923424"
     inkscape:window-x="0"
     inkscape:window-y="1"
     inkscape:window-maximized="1"
     inkscape:current-layer="cards"
     showguides="true"
     inkscape:guide-bbox="true" />
  <defs
     id="defs2680" />
  <metadata
     id="metadata97">
    <rdf:RDF>
      <cc:Work
         rdf:about="">
        <dc:format>image/svg+xml</dc:format>
        <dc:type
           rdf:resource="http://purl.org/dc/dcmitype/StillImage" />
        <dc:title />
      </cc:Work>
    </rdf:RDF>
  </metadata>
  <path
     inkscape:connector-curvature="0"
     id="path3268"
     style="fill:#000000"
     d="m 67.1,75.2 c 1.4,3.91 3.2,7.22 5.7,10.23 2.8,2.91 7.4,6.62 13.8,10.94 6.8,4.53 11.1,7.93 12.7,10.23 1.9,2.4 2.8,4.7 2.8,7.1 0,3.3 -1.7,6.2 -4.7,8.3 -3,2.3 -6.8,3.5 -11,3.5 -3.9,0 -7.6,-1 -11,-3.1 -2.8,-1.4 -5.1,-3.7 -7.4,-6.9 0,5 1,9.3 2.7,12.3 1.9,3.1 4.7,5.4 8.6,7.1 4.1,1.8 9.2,2.8 15.8,3.2 l 0.6,1.8 -57,0 0.6,-1.8 c 8.7,0 15.6,-2.1 20.4,-5.7 4.9,-3.7 7.2,-9.5 7,-16.9 -2.1,3.4 -4.9,5.7 -7.9,7.4 -3.2,1.8 -6.9,2.6 -10.8,2.6 -4.4,0 -8,-1.2 -11.3,-3.5 -3,-2.3 -4.6,-5 -4.6,-8 0,-2.7 0.7,-5 2.3,-7 2.1,-2.9 5.8,-5.7 10.6,-8.73 4.9,-2.91 8.5,-5.21 10.8,-7.32 3.5,-2.81 6,-5.32 7.6,-7.73 1.6,-2.1 3,-4.81 3.7,-8.02 z" />
  <path
     inkscape:connector-curvature="0"
     id="path3270"
     style="fill:#000000"
     d="m 182,75.2 c 5,5.28 11.4,10.85 18.9,16.82 8.6,6.77 15.9,11.98 21.2,15.48 -4.5,2.7 -11.4,7.9 -21.2,15.6 -7.8,6.2 -14.2,11.8 -18.9,16.8 -1.7,-1.8 -3.7,-4 -6.5,-6.3 -4.7,-4.1 -10.5,-8.8 -17.6,-14.3 -1.3,-1.3 -6.6,-5.1 -15.8,-11.8 5.9,-4 13.4,-9.61 22.5,-16.87 7.1,-5.38 12.6,-10.45 17.4,-15.43 z" />
  <path
     inkscape:connector-curvature="0"
     id="path3272"
     style="fill:#000000"
     d="m 67.3,225.2 c -1.4,-4.2 -3.3,-7.9 -5.8,-11.6 -2.4,-3.5 -7.2,-9.1 -14.3,-16.7 -5.3,-5.4 -8.4,-9.1 -9.5,-10.6 -2,-2.3 -3.6,-4.7 -4.4,-6.7 -0.8,-1.9 -1.2,-3.9 -1.2,-6.1 0,-3.8 1.4,-7 4.8,-9.6 3,-2.7 6.9,-3.8 11.7,-3.8 4.7,0 8.8,1.3 12.4,4 2.4,2 4.7,4.9 6.3,8.9 1.2,-3.8 3.4,-6.7 5.7,-8.7 3.8,-2.9 7.9,-4.4 12.3,-4.4 4.8,0 8.8,1.3 12,3.9 3.1,2.6 4.8,5.5 4.8,9.1 0,3.1 -0.8,6.5 -2.8,9.7 -1.7,3.4 -5.4,7.9 -11,13.5 -6.9,7.2 -12.2,13 -15.3,17.6 -2.5,3.7 -4.5,7.5 -5.7,11.5 z" />
  <path
     inkscape:connector-curvature="0"
     id="path3274"
     style="fill:#000000"
     d="m 209.7,225.2 -54.9,0 0.6,-1.9 c 7.1,-1.2 11.8,-2.3 14,-3.7 3.6,-1.7 6.4,-4.4 8.6,-8 2.2,-3.6 3.5,-7.3 3.5,-11 0,-0.7 -0.2,-1.6 -0.2,-2.6 -2.5,4.4 -5.8,7.7 -9.6,9.7 -3.7,1.9 -7.6,2.9 -11.6,2.9 -5,0 -9.2,-1.4 -12.7,-4.3 -3.4,-2.8 -5.3,-6.4 -5.3,-10.5 0,-4 1.7,-7.5 4.7,-10.2 3.3,-2.9 6.9,-4.3 11,-4.3 2.5,0 6.1,0.9 10.6,2.7 -1.8,-2.5 -3.1,-4.2 -3.5,-5.6 -0.7,-1.2 -0.8,-2.7 -0.8,-4.1 0,-4 1.7,-7.4 5.1,-10.3 3.3,-2.7 7.7,-4.1 12.7,-4.1 5.2,0 9.3,1.4 12.9,4.1 3.5,2.9 5.2,6.3 5.2,10.2 0,3 -1.6,6.3 -4.4,9.8 3.5,-1.5 5.8,-2.2 6.4,-2.4 1.3,-0.3 2.5,-0.5 3.9,-0.5 4.4,0 8.2,1.4 11.5,4.3 3,2.7 4.5,6.1 4.7,10.2 -0.2,4.3 -1.9,7.9 -5.4,10.7 -3.4,2.9 -7.6,4.3 -12.5,4.3 -2.6,0 -5.3,-0.5 -8.3,-1.7 -2.8,-1 -5.3,-2.4 -7.5,-4.3 -1.6,-1.3 -3.5,-3.5 -5.7,-6.6 0.2,5.6 1.3,10 3.2,13.3 2,3.4 5,6.1 8.9,8.3 2.7,1.4 7.4,2.5 14.4,3.7 z" />
</svg>
