<?xml version="1.0" encoding="UTF-8" standalone="no"?>
<!-- Created with Inkscape (http://www.inkscape.org/) -->

<svg
   xmlns:dc="http://purl.org/dc/elements/1.1/"
   xmlns:cc="http://creativecommons.org/ns#"
   xmlns:rdf="http://www.w3.org/1999/02/22-rdf-syntax-ns#"
   xmlns:svg="http://www.w3.org/2000/svg"
   xmlns="http://www.w3.org/2000/svg"
   xmlns:sodipodi="http://sodipodi.sourceforge.net/DTD/sodipodi-0.dtd"
   xmlns:inkscape="http://www.inkscape.org/namespaces/inkscape"
   version="1.1"
   width="250"
   height="300"
   viewBox="0 0 250 300"
   id="cards"
   inkscape:version="0.91 r13725"
   sodipodi:docname="face_SK.svg">
  <sodipodi:namedview
     pagecolor="#ffffff"
     bordercolor="#666666"
     
     objecttolerance="10"
     gridtolerance="10"
     guidetolerance="10"
     inkscape:pageopacity="0"
     inkscape:pageshadow="2"
     inkscape:window-width="1920"
     inkscape:window-height="978"
     id="namedview6787"
     showgrid="false"
     inkscape:zoom="1"
     inkscape:cx="153.73927"
     inkscape:cy="-64.63822"
     inkscape:window-x="0"
     inkscape:window-y="1"
     inkscape:window-maximized="1"
     inkscape:current-layer="cards"
     showguides="true"
     inkscape:guide-bbox="true" />
  <defs
     id="defs2680" />
  <metadata
     id="metadata97">
    <rdf:RDF>
      <cc:Work
         rdf:about="">
        <dc:format>image/svg+xml</dc:format>
        <dc:type
           rdf:resource="http://purl.org/dc/dcmitype/StillImage" />
        <dc:title />
      </cc:Work>
    </rdf:RDF>
  </metadata>
  <g
     id="g5595" />
  <path
     d="m 170.1,290.1 c 1.8,-19.8 26.8,-102.1 19.5,-103.9 2,-4.3 2,-7.2 0,-10.1 -34.4,-8.2 -102.4,-16.5 -121,10.1 -12.8,39.1 6.4,77.6 16.6,105.1 -23.8,-12 111.1,3.9 84.9,-1.2 z"
     id="path38183"
     style="fill:#ffffff;fill-rule:evenodd;stroke:#000000;stroke-width:2.99780011"
     inkscape:connector-curvature="0"
     sodipodi:nodetypes="cccccc" />
  <path
     style="fill:#91b0fb;fill-rule:evenodd;stroke:#000000;stroke-width:2.92540002"
     d="M 91.7,286.8 C 92.9,248 106,211 93.6,171.6 l 65.4,-5.5 c -28.4,38.5 -11.8,86.4 -15.2,122.2 z"
     id="polygon38165"
     inkscape:connector-curvature="0"
     sodipodi:nodetypes="ccccc" />
  <path
     d="m 138.6,195.7 c 5.8,0.8 4,-2.8 2.6,-4.3 -3.5,-1.2 -6.2,2.4 -2.6,4.3 z m -1.3,1.7 c 7.8,3.7 10.3,-5.2 4.9,-7.8 -5.8,-3.6 -12.2,4.9 -4.9,7.8 z"
     id="path83-1"
     style="fill:#ffff00;fill-rule:evenodd;stroke:#000000;stroke-width:0.91189998"
     inkscape:connector-curvature="0" />
  <path
     d="m 96.2,245.3 c -0.8,-0.4 22.5,7.3 46.4,1.7 l 1.1,17 c 0,0 -23.9,5.7 -50,-0.2 z"
     id="path38169"
     style="fill:#ffff00;fill-rule:evenodd;stroke:#000000;stroke-width:1.95029998"
     inkscape:connector-curvature="0"
     sodipodi:nodetypes="ccccc" />
  <path
     d="m 96.1,251.7 -0.3,2 c -0.2,-1.6 15.5,6.6 47.6,0.9 l -0.2,-1.7 c -28.6,5.9 -47.1,-2 -47.1,-1.2 z"
     id="path38173-1"
     style="fill:#000000;fill-rule:evenodd"
     inkscape:connector-curvature="0"
     sodipodi:nodetypes="ccccc" />
  <path
     d="m 95.6,248.6 0.2,1.5 c 4,0 19.4,6.4 47.4,0.9 l -0.2,-1.4 c -28.6,5.9 -46.7,-2.4 -47.4,-1 z"
     id="path38173"
     style="fill:#000000;fill-rule:evenodd"
     inkscape:connector-curvature="0"
     sodipodi:nodetypes="ccccc" />
  <path
     d="m 189.6,177.2 c 2,2.7 2,5.4 0,8.2 -1.9,41.3 -20.1,77.2 -20,113.4 l 74,0 c 4,-36.9 -11,-113.4 -54,-121.6 z"
     id="path38185"
     style="fill:#ff0000;fill-rule:evenodd;stroke:#000000;stroke-width:2.92540002"
     inkscape:connector-curvature="0"
     sodipodi:nodetypes="ccccc" />
  <path
     d="m 83.6,282.4 c 0,-1.4 -16,-51.9 -16,-51.9 -7,-26 -2.2,-39.2 0.8,-43.4 -13,8.3 -28.8,20.1 -29.8,32.4 -9,28.7 -24,24.4 -23,79 l 68,-1 2,-15.1 z"
     id="path38189"
     style="fill:#ff0000;fill-rule:evenodd;stroke:#000000;stroke-width:2.92540002"
     inkscape:connector-curvature="0"
     sodipodi:nodetypes="cccccccc" />
  <path
     d="m 52.6,215.4 c 6,13.8 13,28.7 18,42.3 l 0,0 c -6,-13.6 -12,-27.2 -18,-42.3 z"
     id="path38193"
     style="fill:#000000;fill-rule:evenodd"
     inkscape:connector-curvature="0" />
  <path
     d="m 44.6,222.2 c 4,15.2 11,30.1 16,43.8 l -1,0 c -5,-13.7 -11,-28.6 -15,-43.8 z"
     id="path38195"
     style="fill:#000000;fill-rule:evenodd"
     inkscape:connector-curvature="0" />
  <path
     d="m 42.6,237.4 c 2,10.8 7,23.1 11,32.7 l -1,1.4 c -4,-11 -8,-23.3 -10,-34.1 z"
     id="path38197"
     style="fill:#000000;fill-rule:evenodd"
     inkscape:connector-curvature="0" />
  <path
     d="m 209,270.1 c 0,0 11.9,4 15.9,28.6 l -46.6,0.3 c 0,0 0.2,-15.7 10.3,-20.7 -5.1,20.2 30.3,18.5 20.4,-8.2 z"
     id="path38199"
     style="fill:#91b0fb;fill-rule:evenodd;stroke:#000000;stroke-width:1.95029998"
     inkscape:connector-curvature="0"
     sodipodi:nodetypes="ccccc" />
  <path
     d="m 205.6,261.9 0,1.4 c 0,0 6,-2.8 13,0 9,2.7 15,16.4 21,35.5 l 0,0 c -5,-19.1 -12,-32.8 -21,-36.9 -7,-4.2 -13,0 -13,0 z"
     id="path38203"
     style="fill:#000000;fill-rule:evenodd"
     inkscape:connector-curvature="0" />
  <path
     d="m 203.6,257.7 2,0 c 1,-8 13,-24.4 13,-24.4 l 0,0 c 0,0 -13,14.9 -15,24.4 z"
     id="path38205"
     style="fill:#000000;fill-rule:evenodd"
     inkscape:connector-curvature="0" />
  <path
     d="m 118.3,254.5 c 0,0 -18.9,5.9 -18.9,34 2.1,29.7 0,0 0,0 l 39.9,0 c 0,0 5.2,-28.1 -21,-34 z"
     id="path38207"
     style="fill:#000000;fill-rule:evenodd"
     inkscape:connector-curvature="0" />
  <path
     d="m 104,283.6 c 0,4.7 -9,3.5 -9,0 1,-4.7 9,-3.5 9,0 z"
     id="path6546-4-9-11-4-45-7"
     style="fill:#ffff00;fill-rule:evenodd;stroke:#000000;stroke-width:1.13499999"
     inkscape:connector-curvature="0" />
  <path
     d="m 118.6,261.3 c -11.3,5.5 -12.4,21.2 -1.1,15 0.8,2.4 -1.3,4.8 -2.9,5.5 3,0 6.9,0.1 8.9,0.1 -2.2,-1.2 -2.9,-2.8 -2.9,-5.5 13.4,5.7 9.6,-10.2 -2,-15.1 z"
     id="path38279"
     style="fill:#ffff00;fill-rule:evenodd"
     inkscape:connector-curvature="0"
     sodipodi:nodetypes="cccccc" />
  <path
     d="m 73.2,190 c -0.9,3.5 -1.1,10.3 2,12 2.8,-1.9 2.9,-6.8 2.8,-10.9 -2.6,16.5 -4.5,7.4 -4.8,-1.1 z"
     id="path38283"
     style="fill:#000000;fill-rule:evenodd"
     inkscape:connector-curvature="0"
     sodipodi:nodetypes="cccc" />
  <path
     d="m 85.4,210.6 c 1.1,19 6.4,14 6.5,0.6 -2.6,14.2 -3.5,13.2 -6.5,-0.6 z"
     id="path38287"
     style="fill:#000000;fill-rule:evenodd"
     inkscape:connector-curvature="0"
     sodipodi:nodetypes="ccc" />
  <path
     d="m 73.4,226.8 c -2.3,9.6 7.3,15.6 5.3,0 -0.1,-1 -1,19.4 -5.3,0 z"
     id="path38291"
     style="fill:#000000;fill-rule:evenodd"
     inkscape:connector-curvature="0"
     sodipodi:nodetypes="csc" />
  <path
     d="m 84.5,244.4 c 2.4,11.1 3.3,8.9 5.5,-1.5 0.3,14.2 -5.2,15.2 -5.5,1.5 z"
     id="path38295"
     style="fill:#000000;fill-rule:evenodd"
     inkscape:connector-curvature="0"
     sodipodi:nodetypes="ccc" />
  <path
     d="m 162.1,199.1 c 1,15.7 2.3,15.7 5.4,1.5 1.1,14.3 -8.5,18.4 -5.4,-1.5 z"
     id="path38299"
     style="fill:#000000;fill-rule:evenodd"
     inkscape:connector-curvature="0"
     sodipodi:nodetypes="ccc" />
  <path
     d="m 164.7,223.7 c -0.4,-1.3 2.4,23.8 6.1,-1.1 0,0 -2.9,20 -6.1,1.1 z"
     id="path38303"
     style="fill:#000000;fill-rule:evenodd"
     inkscape:connector-curvature="0"
     sodipodi:nodetypes="ccc" />
  <path
     d="m 151.1,242.5 c 0,0 1.7,26 7.3,2.9 0,0 -4.5,17.6 -7.3,-2.9 z"
     id="path38307"
     style="fill:#000000;fill-rule:evenodd"
     inkscape:connector-curvature="0"
     sodipodi:nodetypes="ccc" />
  <path
     d="m 155.2,269.3 c 1.9,0.5 2.6,20.1 7.4,-1.9 0.4,5.6 -4.1,23.7 -7.4,1.9 z"
     id="path38311"
     style="fill:#000000;fill-rule:evenodd"
     inkscape:connector-curvature="0"
     sodipodi:nodetypes="ccc" />
  <path
     d="m 179.6,181.8 c -4.3,14.8 -1.2,9 5,2.7 -9.9,16 -8.9,4.6 -5,-2.7 z"
     id="path38319"
     style="fill:#000000;fill-rule:evenodd"
     inkscape:connector-curvature="0"
     sodipodi:nodetypes="ccc" />
  <path
     d="m 142.4,283.3 c -1,4.7 -8,3.5 -8,0 0,-4.6 8,-3.5 8,0 z"
     id="path6546-4-9-11-4-82-82"
     style="fill:#ffff00;fill-rule:evenodd;stroke:#000000;stroke-width:1.13499999"
     inkscape:connector-curvature="0" />
  <path
     d="m 81.6,290.3 -2.3,-7.4 c -0.9,1.7 42.9,6.2 90.5,0.9 l -1.6,16.1 -88.6,-0.5 z"
     id="path38321"
     style="fill:#ff0000;fill-rule:evenodd;stroke:#000000;stroke-width:1.67019999"
     inkscape:connector-curvature="0"
     sodipodi:nodetypes="cccccc" />
  <path
     style="fill:#fbddb9;fill-rule:evenodd"
     d="m 100.7,155.8 -1.2,-46.7 52.5,0 0,59.9 z"
     id="polygon38329"
     inkscape:connector-curvature="0"
     sodipodi:nodetypes="ccccc" />
  <path
     d="m 102.3,192.9 c 4.7,-2.9 8,1.2 5.1,3.6 -3.7,2 -6.2,-1.3 -5.1,-3.6 z m -0.8,-3.3 c -6.1,2.2 0.1,14.6 7.4,9.6 7.3,-4.8 -0.4,-12.4 -7.4,-9.6 z"
     id="path47-7-7"
     style="fill:#ffff00;fill-rule:evenodd;stroke:#000000;stroke-width:0.91189998"
     inkscape:connector-curvature="0"
     sodipodi:nodetypes="cccccc" />
  <path
     d="m 98.3,187 c -3.3,-1.6 -0.8,-4.7 1.5,-3.6 3.3,0.9 1.1,4.3 -1.5,3.6 z m -0.4,2.2 c 5.8,1.2 8.1,-6.8 2.5,-7.9 -7.7,-1 -7.8,6.4 -2.5,7.9 z"
     id="path89-2-3"
     style="fill:#ffff00;fill-rule:evenodd;stroke:#000000;stroke-width:0.91189998"
     inkscape:connector-curvature="0" />
  <path
     d="m 98.4,187.9 3.7,5.3 c 1.3,1.7 4.1,0.3 2.9,-1.3 l -4.2,-5.3 c -1.2,-2 -3.6,-0.7 -2.4,1.3 z"
     id="path69-5"
     style="fill:#ffff00;fill-rule:evenodd;stroke:#000000;stroke-width:0.72030002"
     inkscape:connector-curvature="0" />
  <path
     d="m 141.5,185.8 c -3.3,-1.6 -0.8,-4.6 1.5,-3.6 3.3,1 1.1,4.4 -1.5,3.6 z m -0.4,2.2 c 5.8,1.3 8.1,-6.7 2.5,-7.9 -7.7,-0.9 -7.8,6.5 -2.5,7.9 z"
     id="path89-2"
     style="fill:#ffff00;fill-rule:evenodd;stroke:#000000;stroke-width:0.91189998"
     inkscape:connector-curvature="0" />
  <path
     d="m 97.6,179.8 -0.2,4.1 c 0,1.3 3.1,1.7 3.1,0.4 l -0.2,-4.3 c 0.2,-1.5 -2.5,-1.8 -2.7,-0.2 z"
     id="path69-5-3"
     style="fill:#ffff00;fill-rule:evenodd;stroke:#000000;stroke-width:0.58130002"
     inkscape:connector-curvature="0" />
  <path
     style="fill:#ffffff;fill-rule:evenodd;stroke:#000000;stroke-width:0.4876"
     d="m 141.3,184 c 27.5,-18.4 21.3,6.9 36.5,-12.3 0,-10.7 -5,-0.9 -5,-10.7 0.8,-12 -4.6,-9.5 -5.4,-35.5 -5.3,-4.5 -11.4,-7.1 -17.8,-9.7 -1.9,5.6 -2,10.3 -2,16.3 1.1,3.9 -14.1,39.8 -20.8,28.3 -2,-13.3 -20.3,-17.9 -25.2,-3.7 -2,-4.9 0.5,-10.6 -0.5,-14.9 -3.2,-10.4 0.1,-21.1 -2.7,-30.4 1.5,5.2 1.2,13.4 1.2,23.1 -10.8,48.9 2.7,72.1 41.7,49.5 z"
     id="path5778"
     inkscape:connector-curvature="0"
     sodipodi:nodetypes="cccccccccccc" />
  <path
     d="m 115.6,205.9 c -6.4,-2.2 -0.7,-6.6 2,-5.1 5.4,2.1 2.1,6 -2,5.1 z m -3.3,-7.6 c -8.7,5.5 2.1,15.3 9.6,9.2 6.7,-3.7 -2.2,-13.1 -9.6,-9.2 z"
     id="path65-5"
     style="fill:#ffff00;fill-rule:evenodd;stroke:#000000;stroke-width:0.91189998"
     inkscape:connector-curvature="0" />
  <path
     style="fill:#000000;fill-rule:evenodd"
     d="m 100.1,109.6 c -4.9,7 -2.1,24.2 -3,31.6 2.7,-11.8 -1.7,-11.6 3,-31.6 z"
     id="path38331"
     inkscape:connector-curvature="0"
     sodipodi:nodetypes="ccc" />
  <path
     d="m 154.7,144.1 c 0,-4.1 1,-8.2 0,-10.9 -1,-1.4 -0.9,-3 -0.9,-4.3 0,-2.8 1.2,-4.4 1.2,-5.8 0,-5 -5.9,-7.5 -6,-10.9 l -0.6,0 c 2,2.7 -0.2,5.5 0.8,6.8 7.2,4.1 1,10.8 3.9,15 1,2.8 1.6,6 1.6,10.1 0,0.1 0.7,5.2 0,0 z"
     id="path38333"
     style="fill:#000000;fill-rule:evenodd"
     inkscape:connector-curvature="0"
     sodipodi:nodetypes="ccsccccccc" />
  <path
     style="fill:#000000;fill-rule:evenodd"
     d="m 121.6,123.8 c -2.1,0 -3.6,0.2 -3.6,0.2 l -1.1,2 c 0,0 0.5,-0.2 1.2,-0.3 -0.3,0.6 -0.8,1.3 -1.5,2.3 l 2,0 c 0,-2.1 0.6,-2.5 0.8,-2.7 0.1,0 0.1,0.1 0.1,0 0,0 0.1,0 0.2,0 3.4,-0.5 8.5,-0.2 9.8,1.5 0,0 0.1,-0.4 0,-0.7 0.8,0.4 1.5,1 2.1,1.6 l 1,0 c -2.5,-3.4 -7.6,-3.9 -11,-3.9 z m 7.8,2.7 c -0.8,3.9 -7.7,4.9 -10.4,2.6 1.5,1.3 5.3,3.3 10.6,0.3 z"
     id="path38349"
     inkscape:connector-curvature="0"
     sodipodi:nodetypes="sccccccccccccscccc" />
  <path
     d="m 120.6,125 c -0.4,7.1 5.9,3.4 6,0 z"
     id="path38353"
     style="fill:#000000;fill-rule:evenodd"
     inkscape:connector-curvature="0"
     sodipodi:nodetypes="ccc" />
  <path
     d="m 125.9,118 -8.8,0.5 -0.1,2.8 9,-2.2 c 0,0 6.6,-0.7 11.6,2.1 l 0,-1.3 c -5,-2.8 -11.7,-1.9 -11.7,-1.9 z"
     id="path38355"
     style="fill:#000000;fill-rule:evenodd"
     inkscape:connector-curvature="0"
     sodipodi:nodetypes="ccccccc" />
  <path
     d="m 113.2,119.4 c -2.1,0.2 -4.3,10.9 -6.3,24.9 2.3,5.4 5.7,1.9 12,1.4 l 0,0 c -0.6,-3 -5.7,-1.8 -5,0 l 0,0 0,0 c -11,6.7 -2.2,-21.7 -0.7,-26.3 z"
     id="path38357"
     style="fill:#000000;fill-rule:evenodd"
     inkscape:connector-curvature="0"
     sodipodi:nodetypes="cccccccc" />
  <path
     d="m 120.6,141.6 c -0.2,0.2 -0.1,4.2 -2,5.5 l 0,0 c 2,-1.4 3,-5.2 3,-5.2 z"
     id="path38359"
     style="fill:#000000;fill-rule:evenodd"
     inkscape:connector-curvature="0"
     sodipodi:nodetypes="ccccc" />
  <path
     d="m 100.6,125.3 0,0 c 0,0 5,-1.4 6,1.4 l 0,-1.4 c -1,-1.4 -6,0 -6,0 z"
     id="path38361"
     style="fill:#000000;fill-rule:evenodd"
     inkscape:connector-curvature="0" />
  <path
     d="m 100.3,129.7 c 0,0 2.8,3 7.2,0.3 l 0,-0.3 c -4.4,1.4 -7.2,-1.4 -7.2,-1.4 z"
     id="path38363"
     style="fill:#000000;fill-rule:evenodd"
     inkscape:connector-curvature="0"
     sodipodi:nodetypes="ccccc" />
  <path
     d="m 100.6,124.4 0,1.4 c 0,0 5,-2.7 6,0 l 1.9,0.2 c -2,-4.1 -7.9,-1.6 -7.9,-1.6 z"
     id="path38365"
     style="fill:#000000;fill-rule:evenodd"
     inkscape:connector-curvature="0"
     sodipodi:nodetypes="ccccc" />
  <path
     d="m 107.1,124.5 c -0.6,5.7 -5.6,5.5 -6,0 z"
     id="path38367"
     style="fill:#000000;fill-rule:evenodd"
     inkscape:connector-curvature="0"
     sodipodi:nodetypes="ccc" />
  <path
     d="m 109.5,152.3 -1,1.4 c 4.1,0.8 5.9,0 10,0 l 0.4,-0.9 c -2.8,-1.4 -6.4,0.3 -9.4,-0.5 z"
     id="path38377"
     style="fill:#000000;fill-rule:evenodd"
     inkscape:connector-curvature="0"
     sodipodi:nodetypes="ccccc" />
  <path
     d="m 147.6,132.1 c -3,-5.4 0,-10.9 1,-15 l 0,0 c -1,4.1 -4,9.6 -1,15 z"
     id="path38381"
     style="fill:#000000;fill-rule:evenodd"
     inkscape:connector-curvature="0" />
  <path
     d="m 144.6,168.5 c -0.8,-9.8 -5.6,-15.6 -4.1,-19.7 l 0.6,0.1 c 0.6,7 4.3,11.7 3.5,19.6 z"
     id="path38389"
     style="fill:#000000;fill-rule:evenodd"
     inkscape:connector-curvature="0"
     sodipodi:nodetypes="cccc" />
  <path
     d="m 151,159.6 c 0,-2.8 0,-6.9 -4,-8.3 -3.1,-0.9 -5.2,-13.5 -2.1,-17.6 l 1.4,5.6 c -1.7,5.2 -0.3,8.9 1.5,11.2 4,1.3 3.2,6.3 3.2,9.1 z"
     id="path38391"
     style="fill:#000000;fill-rule:evenodd"
     inkscape:connector-curvature="0"
     sodipodi:nodetypes="cccccc" />
  <path
     d="m 161,152.9 c -8.3,-8.6 4.4,-21.5 -1.9,-31 l 2.8,1.1 c 1.7,9.4 -6.8,21.8 -0.9,29.9 z"
     id="path38397"
     style="fill:#000000;fill-rule:evenodd"
     inkscape:connector-curvature="0"
     sodipodi:nodetypes="cccc" />
  <path
     d="m 156.8,147.4 c -1.5,-2.5 -3.6,1.9 -7.3,-5.9 0,-4.1 0.1,-5.9 -2.9,-8.5 -3.8,-7.1 3.5,-12.8 0,-17.8 l 3,0 c -4.1,10.6 -0.1,17.4 1.3,25.8 0.1,4.5 6.8,4.2 5.9,6.4 z"
     id="path38399"
     style="fill:#000000;fill-rule:evenodd"
     inkscape:connector-curvature="0"
     sodipodi:nodetypes="ccccccc" />
  <path
     d="m 118.6,173.1 c 2,-1.4 0,-4.1 -1,-5.5 l 0,0 c 1,1.4 3,4.1 1,5.5 z"
     id="path38417"
     style="fill:#000000;fill-rule:evenodd"
     inkscape:connector-curvature="0" />
  <path
     d="m 120.6,173.1 c 0,-2.8 0,-5.5 -2,-8.2 l 0,0 c 2,2.7 2,5.4 2,8.2 z"
     id="path38419"
     style="fill:#000000;fill-rule:evenodd"
     inkscape:connector-curvature="0" />
  <path
     d="m 113.5,181.1 c 0,-4 1,-7 1,-11.1 0,-2.8 -2.2,-5.2 -2.2,-9.3 l 2.3,0 c 0,4.1 0.7,7 0.7,9.7 0,4.1 -1.8,6.7 -1.8,10.7 z"
     id="path38421"
     style="fill:#000000;fill-rule:evenodd"
     inkscape:connector-curvature="0"
     sodipodi:nodetypes="csccsc" />
  <path
     d="m 97.6,170.3 c 1,-1.3 3,-2.7 4,-5.4 0,-1.4 0,-4.1 0,-5.5 0,-5.5 2,-8.2 5,-9.6 -3,1.4 -5,4.1 -6,9.6 0,1.4 1,4.1 0,5.5 0,1.4 -2,2.7 -5,4.1 -8.6,5 -6.1,19.2 -3,26 -1.1,-10.4 -3.6,-21.9 5,-24.7 z"
     id="path38429"
     style="fill:#000000;fill-rule:evenodd"
     inkscape:connector-curvature="0"
     sodipodi:nodetypes="ccscccccc" />
  <path
     d="m 140.3,179.6 c -7.6,-1.7 -12.7,-27 -21,-30.1 5.8,2.9 9,17.8 11,20.6 2.7,3 5.4,10.8 10,9.5 z"
     id="path38431"
     style="fill:#000000;fill-rule:evenodd"
     inkscape:connector-curvature="0"
     sodipodi:nodetypes="cccc" />
  <path
     d="m 104.8,196.6 7.8,6.5 c 2.3,0.9 3.2,-1.7 2.3,-2.4 l -7.5,-6.3 c -2.6,-0.9 -3.5,1.4 -2.6,2.2 z"
     id="path77-4"
     style="fill:#ffff00;fill-rule:evenodd;stroke:#000000;stroke-width:0.91189998"
     inkscape:connector-curvature="0" />
  <path
     style="fill:#ffff00;fill-rule:evenodd;stroke:#000000;stroke-width:1.91600001"
     d="m 168.3,299.6 13.4,-0.1 24.1,-87.4 -11.3,-3.7 z"
     id="polygon38449"
     inkscape:connector-curvature="0"
     sodipodi:nodetypes="ccccc" />
  <path
     d="m 204.6,211.3 -11,-2.7 c -4.3,-4.3 -0.3,-11 4,-9.5 l 10,2.6 c 6.8,4.3 2.5,11.9 -3,9.6 z"
     id="path38453"
     style="fill:#ffff00;fill-rule:evenodd;stroke:#000000;stroke-width:0.97509998"
     inkscape:connector-curvature="0"
     sodipodi:nodetypes="ccccc" />
  <path
     style="fill:#ffff00;fill-rule:evenodd;stroke:#000000;stroke-width:1.04530001"
     d="m 199.2,194 -7.1,3 22.1,6.2 -4.7,-6.3 z"
     id="polygon38457"
     inkscape:connector-curvature="0" />
  <polygon
     points="16286,5175 16794,5333 16045,7745 15537,7588 "
     transform="matrix(0.0152,0,0,0.0164,-31.2,55.47)"
     id="polygon38461"
     style="fill:#ffff00;fill-rule:evenodd;stroke:#000000;stroke-width:135.58149719" />
  <path
     d="m 213.28077,131.73694 c 0.49576,3.98926 -5.95374,10.34567 -5.95374,10.34567 2.61054,-3.76365 21.00116,-0.20342 23.54189,5.63735 0,0 -2.85093,-10.43466 -0.0901,-12.10131"
     id="path8108"
     style="fill:#ffff00;fill-rule:evenodd;stroke:#000000;stroke-width:4"
     inkscape:connector-curvature="0"
     sodipodi:nodetypes="cccc" />
  <path
     d="m 208.3,133.2 c 3.2,4.2 12.9,-1.6 14,-0.3 2.1,1.3 9.4,9.9 13.3,6.9 9.8,-6 -6.4,-29 -6.4,-29 0,0 -25.3,13.4 -20.9,22.4 z"
     id="path38465"
     style="fill:#ffff00;fill-rule:evenodd;stroke:#000000;stroke-width:2"
     inkscape:connector-curvature="0"
     sodipodi:nodetypes="ccccc" />
  <path
     d="m 211.1,185.9 -7.4,-2.5 c -1.8,-2.6 1.1,-5.9 2.3,-5 l 6.6,1.9 c 2.3,0.3 1.5,5.6 -1.5,5.6 z"
     id="path38469"
     style="fill:#ffff00;fill-rule:evenodd;stroke:#000000;stroke-width:1.95029998"
     inkscape:connector-curvature="0"
     sodipodi:nodetypes="ccccc" />
  <path
     d="m 203.1,199.5 c -12.3,-3.3 -5.5,-20.4 5.3,-16.9 13,3.9 6.8,20.7 -5.3,16.9 z"
     id="path38473"
     style="fill:#000000;fill-rule:evenodd;stroke:#000000;stroke-width:1.95029998"
     inkscape:connector-curvature="0"
     sodipodi:nodetypes="ccc" />
  <path
     d="m 212.2,206.1 -19.8,-5.5 c -2.1,-1.2 0.9,-4.3 0.8,-2.7 l 20,5.5 c 0.6,1.3 0.2,2.7 -1,2.7 z"
     id="path38477"
     style="fill:#ffff00;fill-rule:evenodd;stroke:#000000;stroke-width:0.97509998"
     inkscape:connector-curvature="0"
     sodipodi:nodetypes="ccccc" />
  <path
     d="m 207,213.4 -14.8,-4 c -1.8,-0.5 -0.7,-2.8 0.3,-2.8 l 15.4,4.2 c 1.6,0.5 0.9,2.7 -0.9,2.6 z"
     id="path38481"
     style="fill:#ffff00;fill-rule:evenodd;stroke:#000000;stroke-width:0.97509998"
     inkscape:connector-curvature="0"
     sodipodi:nodetypes="ccccc" />
  <path
     d="m 205.7,217 -14.2,-3.8 c -2.4,-1 -1.5,-3.6 0.7,-3.4 l 14.3,3.9 c 2.7,1.6 0.4,3.2 -0.8,3.3 z"
     id="path38485"
     style="fill:#ffff00;fill-rule:evenodd;stroke:#000000;stroke-width:0.97509998"
     inkscape:connector-curvature="0"
     sodipodi:nodetypes="ccccc" />
  <path
     d="m 204.3,223.9 -16.1,-4.2 c -2,-1.2 -0.7,-4.2 1.2,-4.2 l 16.2,4.4 c 1.9,1.5 0.4,4.3 -1.3,4 z"
     id="path38489"
     style="fill:#ffff00;fill-rule:evenodd;stroke:#000000;stroke-width:0.97509998"
     inkscape:connector-curvature="0"
     sodipodi:nodetypes="ccccc" />
  <path
     d="m 78.6,249.7 c 0,0 -6,-2.8 -7,6.7 l 5,5.5 2,-6.8 c 0,0 3,-2.8 0,-5.4 z"
     id="path38493"
     style="fill:#fbddb9;fill-rule:evenodd;stroke:#000000;stroke-width:0.97509998"
     inkscape:connector-curvature="0" />
  <path
     d="m 20.6,298.1 64,0 c 1,-8.3 2,-13.3 0,-21.4 -5,-20.6 -24,-31.4 -41,-27.3 -18,5.4 -29,27.3 -24,46.4 0,0 1,0.9 1,2.3 z"
     id="path38497"
     style="fill:#5e8bf9;fill-rule:evenodd;stroke:#000000;stroke-width:3.90059996"
     inkscape:connector-curvature="0"
     sodipodi:nodetypes="cccccc" />
  <path
     d="m 36.6,296 34,0 c 4,-5.5 7,-16.1 4,-25.4 -4,-16.2 -18,-24.2 -29,-20.2 -12,2.7 -18,17.4 -16,33.5 2,4 4,9.4 7,12.1 z"
     id="path38501"
     style="fill:#7e9eff;fill-rule:evenodd"
     inkscape:connector-curvature="0" />
  <path
     d="m 17.7,296.7 31.9,0 c 13,-2.7 24,-8.3 36,-17.8 -0.2,-6 -3.6,-11.6 -6,-16.3 -7,6.8 -14,9.5 -21,13.6 l -9,-30.1 c -2,0 -5,1.5 -6,1.5 -3,2.6 -5,2.6 -7,4 l 7,28.7 c -13,2.7 -22,0 -25,0 -1.6,6.6 -2.8,11.4 -0.9,16.4 z"
     id="path38503"
     style="fill:#ffff00;fill-rule:evenodd;stroke:#000000;stroke-width:1.95029998"
     inkscape:connector-curvature="0"
     sodipodi:nodetypes="ccccccccccc" />
  <path
     d="m 46.6,255.1 c 0,1.3 0,2.6 -2,2.6 -1,2.8 -2,0 -4,-1.3 0,-1.3 2,-2.7 3,-2.7 1,0 3,0 3,1.4 z"
     id="path38555"
     style="fill:#be0a29;fill-rule:evenodd"
     inkscape:connector-curvature="0" />
  <polygon
     points="4604,12147 5026,12035 5029,12046 4607,12158 "
     transform="matrix(0.0152,0,0,0.0164,-29.4,55.6)"
     id="polygon38557"
     style="fill:#ffffff;fill-rule:evenodd" />
  <polygon
     points="4607,12158 5029,12046 5034,12065 4612,12177 "
     transform="matrix(0.0152,0,0,0.0164,-29.4,55.6)"
     id="polygon38559"
     style="fill:#ffffff;fill-rule:evenodd" />
  <polygon
     points="4612,12177 5034,12065 5038,12084 4617,12196 "
     transform="matrix(0.0152,0,0,0.0164,-29.4,55.6)"
     id="polygon38561"
     style="fill:#f1e3e7;fill-rule:evenodd" />
  <polygon
     points="4617,12196 5038,12084 5044,12102 4622,12215 "
     transform="matrix(0.0152,0,0,0.0164,-29.4,55.6)"
     id="polygon38563"
     style="fill:#efc8cf;fill-rule:evenodd" />
  <polygon
     points="4622,12215 5044,12102 5049,12121 4627,12233 "
     transform="matrix(0.0152,0,0,0.0164,-29.4,55.6)"
     id="polygon38565"
     style="fill:#e7acb8;fill-rule:evenodd" />
  <polygon
     points="4627,12233 5049,12121 5053,12140 4632,12252 "
     transform="matrix(0.0152,0,0,0.0164,-29.4,55.6)"
     id="polygon38567"
     style="fill:#e193a0;fill-rule:evenodd" />
  <polygon
     points="4632,12252 5053,12140 5058,12158 4637,12271 "
     transform="matrix(0.0152,0,0,0.0164,-29.4,55.6)"
     id="polygon38569"
     style="fill:#d97787;fill-rule:evenodd" />
  <polygon
     points="4637,12271 5058,12158 5063,12177 4642,12289 "
     transform="matrix(0.0152,0,0,0.0164,-29.4,55.6)"
     id="polygon38571"
     style="fill:#d45c6f;fill-rule:evenodd" />
  <polygon
     points="4642,12289 5063,12177 5068,12196 4647,12308 "
     transform="matrix(0.0152,0,0,0.0164,-29.4,55.6)"
     id="polygon38573"
     style="fill:#cc4058;fill-rule:evenodd" />
  <polygon
     points="4647,12308 5068,12196 5073,12215 4652,12327 "
     transform="matrix(0.0152,0,0,0.0164,-29.4,55.6)"
     id="polygon38575"
     style="fill:#c42540;fill-rule:evenodd" />
  <polygon
     points="4652,12327 5073,12215 5078,12233 4657,12346 "
     transform="matrix(0.0152,0,0,0.0164,-29.4,55.6)"
     id="polygon38577"
     style="fill:#be0d29;fill-rule:evenodd" />
  <polygon
     points="5093,12287 4671,12399 4657,12346 5078,12233 "
     transform="matrix(0.0152,0,0,0.0164,-29.4,55.6)"
     id="polygon38579"
     style="fill:#be0d29;fill-rule:evenodd" />
  <path
     d="m 183.6,233.3 11,5.4 c 0,0 1,1.3 5,6.9 l 10,27.3 c 4.6,16.7 -15.8,26.5 -22,9.5 0,0 2,-5.5 0,-8.2 -14.1,-1.3 -21.1,-5.1 -15,-12.3 -1.5,-4.8 -0.2,-8 4,-9.6 -5.4,-1.6 -3.7,-10.1 2,-10.8 -2.5,-3.5 0.2,-8 5,-8.2 z"
     id="path38677"
     style="fill:#fbddb9;fill-rule:evenodd;stroke:#000000;stroke-width:1.06840003"
     inkscape:connector-curvature="0"
     sodipodi:nodetypes="cccccccccc" />
  <polygon
     points="13750,11428 14405,11627 14419,11583 13764,11384 "
     transform="matrix(0.0152,0,0,0.0164,-30,55.15)"
     id="polygon38681"
     style="fill:#000000;fill-rule:evenodd" />
  <polygon
     points="14233,12113 13561,12021 13555,12068 14227,12159 "
     transform="matrix(0.0152,0,0,0.0164,-29.4,55.26)"
     id="polygon38683"
     style="fill:#000000;fill-rule:evenodd" />
  <path
     d="m 195.6,240 c 0,1.5 2,5.6 -1,8.2 l 0,0 0,0 c 0,0 3,5.5 -1,8.2 l 0,0 0,0 c 0,0 2,5.5 -2,8.3 l 0,0 c 3,-1.4 3,-2.8 3,-4.2 0,-2.8 0,-4.1 0,-4.1 1,-1.3 1.5,-2.7 1.5,-4.1 0,-2.6 -0.5,-4.1 -0.5,-4.1 2,-1.3 2,-2.6 2,-4.1 0,-2.6 -2,-4.1 -2,-4.1 z"
     id="path38687"
     style="fill:#000000;fill-rule:evenodd"
     inkscape:connector-curvature="0"
     sodipodi:nodetypes="cccccccccscscscc" />
  <path
     d="m 25.6,263.3 c 0,0 2,-2.8 5,-1.4 0,0 8,2.8 10,1.4 0,0 2,-1.4 2,-2.8 3.1,2.3 9.2,4.7 10.6,1.4 0,0 1.4,4.1 5.4,4.1 0,0 2,0 2,-2.7 0,0 5,4.1 8,0 0,0 0,-13.6 -3,-17.7 0,0 -1,-1.5 -5,-1.5 0,0 -5,0 -5,4.1 0,0 -6,-6.7 -9,-4.1 0,0 -2,1.5 -2,4.1 0,0 -5,-2.6 -8,-1.3 0,0 -5,1.3 -5,5.4 0,0 -2,0 -4,1.4 0,0 -3,4 -2,9.6 z"
     id="path38689"
     style="fill:#fbddb9;fill-rule:evenodd;stroke:#000000;stroke-width:1.06840003"
     inkscape:connector-curvature="0"
     sodipodi:nodetypes="ccccccccccccccccc" />
  <path
     d="m 31.8,252.5 c 0,0 7.5,4.4 8.2,5.6 l 1.4,0.4 c -2.1,-1.6 -7.3,-5.3 -9.2,-6 l -0.4,0 z"
     id="path38693"
     style="fill:#000000;fill-rule:evenodd"
     inkscape:connector-curvature="0" />
  <path
     d="m 44.6,248.2 c 0,0 8,6.9 8,13.7 l 1,0 c 0,-6.8 -9,-13.7 -9,-13.7 l 0,0 z"
     id="path38695"
     style="fill:#000000;fill-rule:evenodd"
     inkscape:connector-curvature="0" />
  <path
     d="m 55.3,248 c 0,0 3.9,9.1 4.8,11.7 l 0.3,-0.6 C 59.5,256.5 55.6,247 55.6,247 l -0.3,1 z"
     id="path38697"
     style="fill:#000000;fill-rule:evenodd"
     inkscape:connector-curvature="0" />
  <path
     d="m 39,262.4 c -6,-2.3 0.3,-5.1 1.3,-1.4 -1.1,-6.5 -9.2,1.5 -1.3,1.4 z"
     id="path38699"
     style="fill:#000000;fill-rule:evenodd"
     inkscape:connector-curvature="0"
     sodipodi:nodetypes="ccc" />
  <path
     d="m 47.4,262.2 c -0.7,-5.5 3.1,-4.8 4.1,-2.3 -1.6,-6.3 -6.4,-1.2 -4.1,2.3 z"
     id="path38701"
     style="fill:#000000;fill-rule:evenodd"
     inkscape:connector-curvature="0"
     sodipodi:nodetypes="ccc" />
  <path
     d="m 55.6,263.3 c 0.5,-3.7 2.9,-2.9 4,-1.4 -2.5,-5.8 -5.1,0.5 -4,1.4 z"
     id="path38703"
     style="fill:#000000;fill-rule:evenodd"
     inkscape:connector-curvature="0"
     sodipodi:nodetypes="ccc" />
  <path
     d="m 62.7,262.5 c -0.5,-2.4 2.2,-6.5 4.5,-1.3 -0.2,-5.4 -6.7,-2.8 -4.5,1.3 z"
     id="path38705"
     style="fill:#000000;fill-rule:evenodd"
     inkscape:connector-curvature="0"
     sodipodi:nodetypes="ccc" />
  <path
     d="m 171.6,114.3 11,-16.29 C 150.1,80.24 108.1,75.5 87.3,85.41 c 1.2,5.71 7.2,12.46 10.3,16.69 0,0 46,-6.85 73,13.7 z"
     id="path38707"
     style="fill:#ff0000;fill-rule:evenodd;stroke:#000000;stroke-width:0.97509998"
     inkscape:connector-curvature="0"
     sodipodi:nodetypes="cccccc" />
  <path
     d="m 172.6,100.7 c -7.7,9.3 -9.1,2.6 -9,-5.45 l 2,-5.51 -4,4.18 c -5.5,8.38 -13.7,7.58 -14,-2.75 l 0,-2.76 -3,0 -1,1.33 c -6.3,8.78 -10,7.18 -13,-1.33 l -4,0 c -5.1,8.5 -6.9,6.97 -12,0 l -3,0 c -2.3,7.35 -9.6,8.49 -10.3,0.13 -2.1,-2.29 -3,19.06 -10.7,-0.13 0,0 0,0 -1,0 l 0,0 c -3,0 -3,1.33 -3,1.33 0.3,9.95 11.8,15.76 14.7,5.65 4.7,8.51 11.8,-2.98 11.7,-3.04 8.4,10.55 8.7,5.96 15.6,-1.18 1.6,8.35 7.1,12.53 15,2.75 -0.1,16.78 17.6,6.78 17,6.88 0,9.8 1.1,10.2 11,5.4 -0.4,0.3 -2.5,14.3 5,5.4 -2.6,-3.9 3.4,-7.7 1,-8.2 z"
     id="path38711"
     style="fill:#ffff00;fill-rule:evenodd;stroke:#000000;stroke-width:1.06840003"
     inkscape:connector-curvature="0"
     sodipodi:nodetypes="cccccccccccccccccccccccccc" />
  <path
     d="m 96.6,102.1 c 0,0 1,1.3 4,8.2 l 14,-1.5 20,1.5 19,5.5 16,9.5 c 0,0 -2,-6.9 2,-9.5 l -17,-8.3 -17,-4.1 -16,-2.7 -16,0 -9,1.4 z"
     id="path38715"
     style="fill:#000000;fill-rule:evenodd;stroke:#000000;stroke-width:0.97509998"
     inkscape:connector-curvature="0" />
  <path
     d="m 97.6,108.8 c -0.5,1.3 -0.4,2.1 0,2.8 3,0 34,-9.5 70,15.1 2.8,0.7 3,-1.8 2,-2.8 -37,-24.56 -72,-15.1 -72,-15.1 z"
     id="path38719"
     style="fill:#ffff00;fill-rule:evenodd;stroke:#000000;stroke-width:0.97509998"
     inkscape:connector-curvature="0"
     sodipodi:nodetypes="ccccc" />
  <path
     d="m 93.4,100.6 c -0.7,1.3 -0.5,1.8 0.2,2.7 1.4,0.1 37,-9.5 77,13.7 2.6,0.9 4.2,-1.5 1.1,-2.7 -40,-24.56 -78.3,-13.7 -78.3,-13.7 z"
     id="path38723"
     style="fill:#ffff00;fill-rule:evenodd;stroke:#000000;stroke-width:0.97509998"
     inkscape:connector-curvature="0"
     sodipodi:nodetypes="ccccc" />
  <path
     d="m 186.6,98.01 c 0,4.09 -3,6.79 -8,6.79 -2,0 -7,-2.7 -7,-6.79 0,-4.09 5,-6.84 7,-6.84 5,0 8,2.75 8,6.84 z"
     id="path38727"
     style="fill:#ffff00;fill-rule:evenodd;stroke:#000000;stroke-width:1.06840003"
     inkscape:connector-curvature="0" />
  <path
     sodipodi:nodetypes="ccc"
     d="m 144.9,92.89 c 11.2,0.78 11.1,-13.22 1.8,-13.75 -10.6,-0.2 -9.3,13.63 -1.8,13.75 z"
     id="path38731"
     style="fill:#ffff00;fill-rule:evenodd;stroke:#000000;stroke-width:1.06840003"
     inkscape:connector-curvature="0" />
  <path
     d="m 161.5,97.7 c 8.6,2.5 13.1,-11.4 3.4,-13.53 -10.9,-1.13 -11.7,11.09 -3.4,13.53 z"
     id="path38735"
     style="fill:#ffff00;fill-rule:evenodd;stroke:#000000;stroke-width:1.06840003"
     inkscape:connector-curvature="0"
     sodipodi:nodetypes="scs" />
  <polygon
     points="10964,14690 10797,14501 10976,14324 11323,14335 11491,14524 11312,14702 "
     transform="matrix(0.0152,0,0,0.0164,-31.8,56.71)"
     id="polygon38751"
     style="fill:#ffaa00;fill-rule:evenodd" />
  <polygon
     points="10976,14324 10975,14325 11312,14701 11491,14524 11323,14335 "
     transform="matrix(0.0152,0,0,0.0164,-31.8,56.71)"
     id="polygon38753"
     style="fill:#fff5ab;fill-rule:evenodd" />
  <polygon
     points="11018,14637 10900,14504 11026,14380 11270,14388 11387,14521 11262,14645 "
     transform="matrix(0.0152,0,0,0.0164,-31.8,56.71)"
     id="polygon38755"
     style="fill:#ffe400;fill-rule:evenodd" />
  <polygon
     points="8318,14338 8665,14321 8848,14496 8684,14687 8337,14704 8155,14529 "
     transform="matrix(0.0152,0,0,0.0164,-29.4,55.6)"
     id="polygon38757"
     style="fill:#ffaa00;fill-rule:evenodd" />
  <polygon
     points="8317,14339 8685,14687 8848,14496 8665,14321 8318,14338 "
     transform="matrix(0.0152,0,0,0.0164,-29.4,55.6)"
     id="polygon38759"
     style="fill:#fff5ab;fill-rule:evenodd" />
  <polygon
     points="8373,14390 8617,14378 8745,14501 8630,14635 8386,14647 8258,14524 "
     transform="matrix(0.0152,0,0,0.0164,-29.4,55.6)"
     id="polygon38761"
     style="fill:#ffe400;fill-rule:evenodd" />
  <path
     d="m 103.8,277.9 c 0,4.7 -8,3.5 -8,0 0,-4.7 8,-3.5 8,0 z"
     id="path6546-4-9-11-4-62-1"
     style="fill:#ffff00;fill-rule:evenodd;stroke:#000000;stroke-width:1.13499999"
     inkscape:connector-curvature="0" />
  <path
     d="m 141.8,276.8 c -1,4.7 -7,3.6 -7,0 0,-4.6 7,-3.5 7,0 z"
     id="path6546-4-9-11-4-8-4"
     style="fill:#ffff00;fill-rule:evenodd;stroke:#000000;stroke-width:1.13499999"
     inkscape:connector-curvature="0" />
  <path
     d="m 130.2,254.4 c 0,4.7 -9,3.5 -9,0 1,-4.7 9,-3.5 9,0 z"
     id="path6546-4-9-11-4-81-0"
     style="fill:#ffff00;fill-rule:evenodd;stroke:#000000;stroke-width:1.13499999"
     inkscape:connector-curvature="0" />
  <path
     d="m 135,259.3 c 0,4.6 -8,3.5 -8,0 1,-4.7 8,-3.6 8,0 z"
     id="path6546-4-9-11-4-2-9"
     style="fill:#ffff00;fill-rule:evenodd;stroke:#000000;stroke-width:1.13499999"
     inkscape:connector-curvature="0" />
  <path
     d="m 138.4,264.5 c 0,4.6 -7,3.5 -7,0 1,-4.7 7,-3.5 7,0 z"
     id="path6546-4-9-11-4-1-4"
     style="fill:#ffff00;fill-rule:evenodd;stroke:#000000;stroke-width:1.13499999"
     inkscape:connector-curvature="0" />
  <path
     d="m 140.6,270.5 c -1,4.6 -7,3.5 -7,0 0,-4.7 7,-3.5 7,0 z"
     id="path6546-4-9-11-4-49-8"
     style="fill:#ffff00;fill-rule:evenodd;stroke:#000000;stroke-width:1.13499999"
     inkscape:connector-curvature="0" />
  <path
     d="m 105.7,272.2 c 0,4.6 -9,3.5 -9,0 1,-4.7 9,-3.5 9,0 z"
     id="path6546-4-9-11-4-81-0-4"
     style="fill:#ffff00;fill-rule:evenodd;stroke:#000000;stroke-width:1.13499999"
     inkscape:connector-curvature="0" />
  <path
     d="m 106.6,266.4 c -1,4.6 -7,3.5 -7,0 0,-4.7 7,-3.5 7,0 z"
     id="path6546-4-9-11-4-49-8-5"
     style="fill:#ffff00;fill-rule:evenodd;stroke:#000000;stroke-width:1.13499999"
     inkscape:connector-curvature="0" />
  <path
     d="m 109.6,261 c 0,4.6 -7,3.5 -7,0 1,-4.7 7,-3.6 7,0 z"
     id="path6546-4-9-11-4-1-4-5"
     style="fill:#ffff00;fill-rule:evenodd;stroke:#000000;stroke-width:1.13499999"
     inkscape:connector-curvature="0" />
  <path
     d="m 113.8,256.1 c 0,4.7 -7,3.5 -7,0 1,-4.6 7,-3.5 7,0 z"
     id="path6546-4-9-11-4-1-4-1"
     style="fill:#ffff00;fill-rule:evenodd;stroke:#000000;stroke-width:1.13499999"
     inkscape:connector-curvature="0" />
  <path
     d="m 121.2,254 c 0,4.7 -8,3.5 -8,0 1,-4.6 8,-3.5 8,0 z"
     id="path6546-4-9-11-4-2-9-7"
     style="fill:#ffff00;fill-rule:evenodd;stroke:#000000;stroke-width:1.13499999"
     inkscape:connector-curvature="0" />
  <polygon
     points="13555,12068 14227,12159 14233,12113 13561,12021 "
     transform="matrix(0.0152,0,0,0.0133,-33.7,101.6)"
     id="polygon38683-1"
     style="fill:#000000;fill-rule:evenodd" />
  <path
     d="m 112.8,118.9 c 0.9,0 0,2.9 -1.2,3.3 -0.4,0.1 -1.4,-0.8 -1.6,-1.1 -1.6,-1.8 -6.6,-2.7 -9.3,-2 l -0.4,-0.7 c 1.8,-1.2 10.5,-0.4 12.5,0.5 z"
     id="path38355-2"
     style="fill:#000000;fill-rule:evenodd"
     inkscape:connector-curvature="0"
     sodipodi:nodetypes="cssccc" />
  <path
     inkscape:connector-curvature="0"
     d="m 25.8,297.6 -5,-1.6 -1,-6.3 7,-4.8 5,3.6 0,5.7 z"
     id="polygon7689-9-8-1-9-7"
     style="fill:#c42540;fill-rule:evenodd" />
  <path
     inkscape:connector-curvature="0"
     d="m 20.8,296 0,0 11,-7.5 -5,-3.6 -7,3.3 z"
     id="polygon7691-4-2-7-5-6"
     style="fill:#f1204e;fill-rule:evenodd"
     sodipodi:nodetypes="cccccc" />
  <path
     inkscape:connector-curvature="0"
     d="m 26.8,295.9 -5,-2.9 -1,-2.6 5,-3.8 4,2.7 0,3 z"
     id="polygon7693-8-4-4-5-1"
     style="fill:#a0203c;fill-rule:evenodd" />
  <path
     inkscape:connector-curvature="0"
     d="m 61.3,290.4 -5,-1.6 -1,-6.2 7,-4.8 5,3.6 0,5.7 z"
     id="polygon7689-9-8-1-9-7-4"
     style="fill:#c42540;fill-rule:evenodd" />
  <path
     inkscape:connector-curvature="0"
     d="m 56.3,288.8 0,0 11,-7.4 -5,-3.6 -7,3.2 z"
     id="polygon7691-4-2-7-5-6-2"
     style="fill:#f1204e;fill-rule:evenodd"
     sodipodi:nodetypes="cccccc" />
  <path
     inkscape:connector-curvature="0"
     d="m 62.3,288.7 -5,-2.8 -1,-2.7 5,-3.7 4,2.7 0,3 z"
     id="polygon7693-8-4-4-5-1-3"
     style="fill:#a0203c;fill-rule:evenodd" />
  <path
     inkscape:connector-curvature="0"
     d="m 75.9,282.2 -5,-1.6 -1,-6.3 7,-4.8 5,3.6 0,5.7 z"
     id="polygon7689-9-8-1-9-7-2"
     style="fill:#c42540;fill-rule:evenodd" />
  <path
     inkscape:connector-curvature="0"
     d="m 70.9,280.6 0,0 11,-7.5 -5,-3.6 -7,3.3 z"
     id="polygon7691-4-2-7-5-6-21"
     style="fill:#f1204e;fill-rule:evenodd"
     sodipodi:nodetypes="cccccc" />
  <path
     inkscape:connector-curvature="0"
     d="m 76.9,280.5 -5,-2.9 -1,-2.7 5,-3.7 4,2.7 0,3 z"
     id="polygon7693-8-4-4-5-1-6"
     style="fill:#a0203c;fill-rule:evenodd" />
  <path
     inkscape:connector-curvature="0"
     d="m 44.7,294.9 -5,-1.6 -1,-6.3 7,-4.7 5,3.6 0,5.7 z"
     id="polygon7689-9-8-1-9-7-8"
     style="fill:#c42540;fill-rule:evenodd" />
  <path
     inkscape:connector-curvature="0"
     d="m 39.7,293.3 0,0 11,-7.4 -5,-3.6 -7,3.2 z"
     id="polygon7691-4-2-7-5-6-5"
     style="fill:#f1204e;fill-rule:evenodd"
     sodipodi:nodetypes="cccccc" />
  <path
     inkscape:connector-curvature="0"
     d="m 45.7,293.2 -5,-2.8 -1,-2.7 5,-3.7 4,2.6 0,3.1 z"
     id="polygon7693-8-4-4-5-1-7"
     style="fill:#a0203c;fill-rule:evenodd" />
  <path
     inkscape:connector-curvature="0"
     d="m 49.3,276.5 -3.8,-1.3 -0.8,-4.7 5.4,-3.6 3.8,2.7 0,4.3 z"
     id="polygon7689-9-8-1-9-7-4-6"
     style="fill:#c42540;fill-rule:evenodd" />
  <path
     inkscape:connector-curvature="0"
     d="m 45.5,275.2 0,0 8.4,-5.6 -3.8,-2.7 -5.4,2.4 z"
     id="polygon7691-4-2-7-5-6-2-1"
     style="fill:#f1204e;fill-rule:evenodd"
     sodipodi:nodetypes="cccccc" />
  <path
     inkscape:connector-curvature="0"
     d="m 50.1,275.1 -3.9,-2.2 -0.7,-1.9 3.8,-2.8 3,2 0,2.3 z"
     id="polygon7693-8-4-4-5-1-3-8"
     style="fill:#a0203c;fill-rule:evenodd" />
  <path
     inkscape:connector-curvature="0"
     d="m 118.5,298.4 -4.3,-1.1 -0.9,-4.4 6.1,-3.3 4.4,2.6 0,3.9 z"
     id="polygon7689-9-8-1-9-7-4-9"
     style="fill:#c42540;fill-rule:evenodd" />
  <path
     inkscape:connector-curvature="0"
     d="m 114.2,297.3 0,0 9.6,-5.1 -4.4,-2.6 -6.1,2.3 z"
     id="polygon7691-4-2-7-5-6-2-2"
     style="fill:#f1204e;fill-rule:evenodd"
     sodipodi:nodetypes="cccccc" />
  <path
     inkscape:connector-curvature="0"
     d="m 119.4,297.3 -4.4,-2 -0.8,-1.9 4.3,-2.7 3.6,1.9 0,2.2 z"
     id="polygon7693-8-4-4-5-1-3-7"
     style="fill:#a0203c;fill-rule:evenodd" />
  <path
     inkscape:connector-curvature="0"
     d="m 157.8,297 -4.2,-1.2 -0.9,-4.3 6,-3.3 4.3,2.5 0,3.9 z"
     id="polygon7689-9-8-1-9-7-4-9-9"
     style="fill:#c42540;fill-rule:evenodd" />
  <path
     inkscape:connector-curvature="0"
     d="m 153.6,295.8 0,0 9.4,-5.1 -4.3,-2.5 -6,2.2 z"
     id="polygon7691-4-2-7-5-6-2-2-5"
     style="fill:#f1204e;fill-rule:evenodd"
     sodipodi:nodetypes="cccccc" />
  <path
     inkscape:connector-curvature="0"
     d="m 158.7,295.8 -4.3,-2 -0.8,-1.9 4.2,-2.6 3.5,1.9 0,2.1 z"
     id="polygon7693-8-4-4-5-1-3-7-4"
     style="fill:#a0203c;fill-rule:evenodd" />
  <path
     style="fill:#000000;fill-rule:evenodd"
     d="m 143.3,222.6 0.5,18.7 -2.9,-0.6 -0.5,-18.7 z"
     id="polygon38681-8-7"
     inkscape:connector-curvature="0" />
  <path
     style="fill:#000000;fill-rule:evenodd"
     d="m 18.3,298.1 13.2,0 -0.4,-2.2 -13.2,0 z"
     id="polygon38681-8-4"
     inkscape:connector-curvature="0" />
  <path
     style="fill:#000000;fill-rule:evenodd"
     d="m 100.2,136.6 c -0.6,9.7 -2.1,7.7 -1.4,33.1 -1.3,-13.2 -1.6,-19.3 1.4,-33.1 z"
     id="path5782"
     inkscape:connector-curvature="0"
     sodipodi:nodetypes="ccc" />
  <path
     d="m 148.7,159.6 c -0.2,-1.2 0.5,-6.5 -0.1,-8.8 -5.3,-19.2 -4,-16.4 -2.4,-20 l 1.5,2.2 c -1.3,12.7 3.3,16.5 1,26.6 z"
     id="path38393"
     style="fill:#000000;fill-rule:evenodd"
     inkscape:connector-curvature="0"
     sodipodi:nodetypes="csccc" />
  <path
     d="M 142.8,169.8 C 142,160 137.2,154.2 138.7,150 l 0.6,0.1 c 0.6,7 4.3,11.8 3.5,19.7 z"
     id="path38389-7"
     style="fill:#000000;fill-rule:evenodd"
     inkscape:connector-curvature="0"
     sodipodi:nodetypes="cccc" />
  <path
     d="m 140.8,171.5 c -0.8,-9.8 -5.6,-15.6 -4.1,-19.8 l 0.6,0.1 c 0.6,7 4.3,11.8 3.5,19.7 z"
     id="path38389-6"
     style="fill:#000000;fill-rule:evenodd"
     inkscape:connector-curvature="0"
     sodipodi:nodetypes="cccc" />
  <path
     d="m 139,172.7 c -0.8,-9.8 -5.6,-15.6 -4.1,-19.8 l 0.6,0.1 c 0.6,7.1 4.3,11.8 3.5,19.7 z"
     id="path38389-7-3"
     style="fill:#000000;fill-rule:evenodd"
     inkscape:connector-curvature="0"
     sodipodi:nodetypes="cccc" />
  <path
     d="M 136.8,173.8 C 136,164 131.2,158.2 132.7,154 l 0.6,0.1 c 0.6,7 4.3,11.8 3.5,19.7 z"
     id="path38389-6-6"
     style="fill:#000000;fill-rule:evenodd"
     inkscape:connector-curvature="0"
     sodipodi:nodetypes="cccc" />
  <path
     d="m 135,175 c -0.8,-9.8 -5.6,-15.6 -4.1,-19.8 l 0.6,0.1 c 0.6,7.1 4.3,11.8 3.5,19.7 z"
     id="path38389-7-3-1"
     style="fill:#000000;fill-rule:evenodd"
     inkscape:connector-curvature="0"
     sodipodi:nodetypes="cccc" />
  <path
     d="m 133.1,176.1 c -0.8,-9.8 -5.6,-15.6 -4.1,-19.8 l 0.6,0.1 c 0.6,7 4.3,11.8 3.5,19.7 z"
     id="path38389-6-6-5"
     style="fill:#000000;fill-rule:evenodd"
     inkscape:connector-curvature="0"
     sodipodi:nodetypes="cccc" />
  <path
     d="m 131.3,177.3 c -0.8,-9.8 -5.6,-15.6 -4.1,-19.8 l 0.6,0.1 c 0.6,7 4.3,11.8 3.5,19.7 z"
     id="path38389-7-3-1-4"
     style="fill:#000000;fill-rule:evenodd"
     inkscape:connector-curvature="0"
     sodipodi:nodetypes="cccc" />
  <path
     d="m 131.5,198.8 c 5.9,2 -1.2,8.4 -3.6,3.4 -1.6,-1.5 1.7,-4.3 3.6,-3.4 z m -5,-2.2 c -7.5,5.3 4.2,15.2 10.1,8.2 4.6,-6.3 -5.1,-12.2 -10.1,-8.2 z"
     id="path95-0"
     style="fill:#ffff00;fill-rule:evenodd;stroke:#000000;stroke-width:0.91189998"
     inkscape:connector-curvature="0" />
  <path
     d="m 140.3,185.5 -1.9,6 c 0,1.7 2.2,2 3.1,0.8 l 1.9,-6.1 c 0.2,-2 -2,-2.4 -3.1,-0.7 z"
     id="path99-01"
     style="fill:#ffff00;fill-rule:evenodd;stroke:#000000;stroke-width:0.91189998"
     inkscape:connector-curvature="0" />
  <path
     d="m 126.8,200.3 -8.7,0.9 c -3.2,0.3 -2.4,4.3 0.7,3.9 l 8.5,-0.8 c 3.2,-1.1 1.2,-4.1 -0.5,-4 z"
     id="path107-4"
     style="fill:#ffff00;fill-rule:evenodd;stroke:#000000;stroke-width:0.91189998"
     inkscape:connector-curvature="0" />
  <path
     d="m 136,194.4 -5.7,5 c -1.1,1.9 1.3,3.2 3,2.1 l 5.8,-5 c 1.6,-2.1 -0.5,-3.4 -3.1,-2.1 z"
     id="path99-0-7"
     style="fill:#ffff00;fill-rule:evenodd;stroke:#000000;stroke-width:1.11989999"
     inkscape:connector-curvature="0" />
  <path
     inkscape:connector-curvature="0"
     style="fill:#ffff00;fill-rule:evenodd;stroke:#000000;stroke-width:1.06840003"
     id="path38731-8"
     d="m 127.6,89.75 c 11.2,0.8 11.1,-13.2 1.8,-13.77 -10.6,-0.2 -9.3,13.67 -1.8,13.77 z"
     sodipodi:nodetypes="ccc" />
  <path
     inkscape:connector-curvature="0"
     style="fill:#ffff00;fill-rule:evenodd;stroke:#000000;stroke-width:0.97610003"
     id="path38731-8-3"
     d="m 86.9,93.63 c 8.4,-0.52 6.2,-10.62 -0.3,-10.42 -6.9,1.23 -4.8,10.66 0.3,10.42 z"
     sodipodi:nodetypes="ccc" />
  <path
     inkscape:connector-curvature="0"
     style="fill:#ffff00;fill-rule:evenodd;stroke:#000000;stroke-width:1.06840003"
     id="path38731-8-3-5"
     d="m 110.2,90.37 c 11.2,0.8 11.1,-13.21 1.8,-13.78 -10.6,-0.2 -9.3,13.68 -1.8,13.78 z"
     sodipodi:nodetypes="ccc" />
  <path
     inkscape:connector-curvature="0"
     style="fill:#ffff00;fill-rule:evenodd;stroke:#000000;stroke-width:1.13119996"
     id="path38731-8-3-1"
     d="m 98,91.19 c 10,-0.58 7.3,-11.9 -0.3,-11.68 -8.3,1.38 -5.8,11.95 0.3,11.68 z"
     sodipodi:nodetypes="ccc" />
  <path
     d="m 156.9,150.9 c -8.3,-8.6 4.4,-21.5 -1.9,-31 l 2.8,1.1 c 1.7,9.4 -6.8,21.8 -0.9,29.9 z"
     id="path38397-2"
     style="fill:#000000;fill-rule:evenodd"
     inkscape:connector-curvature="0"
     sodipodi:nodetypes="cccc" />
  <path
     d="m 164.9,154.9 c -8.3,-8.6 4.4,-21.5 -1.9,-31 l 2.8,1.1 c 1.7,9.4 -6.8,21.8 -0.9,29.9 z"
     id="path38397-2-0"
     style="fill:#000000;fill-rule:evenodd"
     inkscape:connector-curvature="0"
     sodipodi:nodetypes="cccc" />
  <path
     d="m 168.3,157 c -8.3,-8.6 4.4,-21.5 -1.9,-31 l 2.8,1.1 c 1.7,9.4 -6.8,21.8 -0.9,29.9 z"
     id="path38397-2-1"
     style="fill:#000000;fill-rule:evenodd"
     inkscape:connector-curvature="0"
     sodipodi:nodetypes="cccc" />
  <path
     d="m 175.6,170.9 c 1,-3.4 -4,-6.7 -7,-7.6 -2,-0.3 -6,-1.4 -6,-6.1 1,-3.6 2,-7.8 1,-11.8 -1,-3.9 -4,-6.7 -8,-8.9 l -1,1.3 c 2,1.9 6,4.6 8,8 1,3.8 0,7.1 0,11.4 0,2.2 0,4.5 2,5.4 2,0.9 3,0.7 4,1 3,0.7 8,3.9 7,7.3 z"
     id="path25532-2-6"
     style="fill:#000000;fill-rule:evenodd"
     inkscape:connector-curvature="0" />
  <path
     d="m 170.6,158.7 c -2,-4 -0.8,-7.5 -0.1,-11.9 1,-6.8 -7.6,-11.6 -10.9,-17.6 -1.8,-3.4 -1,-7.3 -5,-10.4 3.8,1.6 3.9,7 6,10.4 3.4,5.3 10.7,10.2 10.8,15.7 0,3.9 -2.8,9.8 -0.8,13.8 z"
     id="path25606-3-4"
     style="fill:#000000;fill-rule:evenodd"
     inkscape:connector-curvature="0"
     sodipodi:nodetypes="csacacc" />
  <path
     d="m 153,181.7 c 0,-6.4 1,-11.6 3,-17.4 2,-5.9 2,-15.2 -2,-19.1 l 0,0.7 c 2,3.8 4,11.9 2,17.9 -2,6.3 -3,11.5 -3,17.9 z"
     id="path25570-6-6"
     style="fill:#000000;fill-rule:evenodd"
     inkscape:connector-curvature="0" />
  <path
     d="m 158.3,186.1 c 0,-6.4 1,-11.6 3,-17.4 2,-5.9 2,-15.2 -2,-19.1 l 0,0.7 c 2,3.8 4,11.9 2,17.9 -2,6.3 -3,11.5 -3,17.9 z"
     id="path25570-6-6-1"
     style="fill:#000000;fill-rule:evenodd"
     inkscape:connector-curvature="0" />
  <path
     d="m 165.3,189.9 c 0,-6.4 1,-11.6 3,-17.4 2,-5.9 2,-15.2 -2,-19.1 l 0,0.7 c 2,3.8 4,11.9 2,17.9 -2,6.3 -3,11.5 -3,17.9 z"
     id="path25570-6-6-8"
     style="fill:#000000;fill-rule:evenodd"
     inkscape:connector-curvature="0" />
  <path
     d="m 148.7,188.9 c 0,-6.4 1,-11.6 3,-17.4 2,-5.9 2,-15.2 -2,-19.1 l 0,0.7 c 2,3.8 4,11.9 2,17.9 -2,6.3 -3,11.5 -3,17.9 z"
     id="path25570-6-6-9"
     style="fill:#000000;fill-rule:evenodd"
     inkscape:connector-curvature="0" />
  <path
     d="m 120.6,199.5 c 0,-6.4 1,-11.6 3,-17.4 2,-5.9 2,-15.2 -2,-19.1 l 0,0.7 c 2,3.8 4,11.9 2,17.9 -2,6.3 -3,11.5 -3,17.9 z"
     id="path25570-6-8"
     style="fill:#000000;fill-rule:evenodd"
     inkscape:connector-curvature="0" />
  <path
     d="m 106.4,199.3 c 0,-6.4 -1,-11.6 -3,-17.4 -2,-5.9 -2,-15.2 2,-19.1 l 0,0.7 c -2,3.8 -4,11.9 -2,17.9 2,6.3 3,11.5 3,17.9 z"
     id="path25570-6-8-4"
     style="fill:#000000;fill-rule:evenodd"
     inkscape:connector-curvature="0" />
  <path
     d="m 119.8,186.7 c 0,-6.3 1,-11.5 3,-17.4 2,-5.8 2,-15.1 -2,-19 l 0,0.7 c 2,3.8 4,11.9 2,17.8 -2,6.3 -3,11.5 -3,17.9 z"
     id="path25570-6-6-9-1"
     style="fill:#000000;fill-rule:evenodd"
     inkscape:connector-curvature="0" />
  <path
     d="m 107.8,185.8 c 0,-6.3 -1,-11.5 -3,-17.4 -2,-5.8 -2,-15.1 2,-19 l 0,0.7 c -2,3.8 -4,11.9 -2,17.8 2,6.3 3,11.5 3,17.9 z"
     id="path25570-6-6-9-1-4"
     style="fill:#000000;fill-rule:evenodd"
     inkscape:connector-curvature="0" />
  <path
     d="m 133,193.6 c 2,-5.1 2,-10.5 2,-15.6 1,-5.6 -2,-10.6 -5,-13.2 -3,-1 -5,-3.2 -5,-5.8 -1,-2.9 -1,-5 -5,-6.4 -1,-1.3 -4.7,-2.1 -6.7,-3.8 0,-0.7 -1,-1.3 -2,-0.9 0,0.5 -2.6,0.8 -4.6,0.8 2.1,-4.2 13.3,2.6 16.3,3 1,1.3 2,4.7 2,6.8 2,2.5 2,4.4 5,5.6 4,2.7 6,8.1 5,13.9 0,5.1 0,10.5 -2,15.6 z"
     id="path25544-6-3"
     style="fill:#000000;fill-rule:evenodd"
     inkscape:connector-curvature="0"
     sodipodi:nodetypes="ccccccccccccc" />
  <path
     d="m 92.5,193.6 c -2,-5.1 -2,-10.5 -2,-15.6 -1,-5.6 2,-10.6 5,-13.2 3,-1 5,-3.2 5,-5.8 1,-2.9 1,-5 5,-6.4 1,-1.3 4.7,-2.1 6.7,-3.8 0,-0.7 1,-1.3 2,-0.9 0,0.5 2.6,0.8 4.6,0.8 -2.1,-4.2 -13.3,2.6 -16.3,3 -1,1.3 -2,4.7 -2,6.8 -2,2.5 -2,4.4 -5,5.6 -4,2.7 -6,8.1 -5,13.9 0,5.1 0,10.5 2,15.6 z"
     id="path25544-6-3-9"
     style="fill:#000000;fill-rule:evenodd"
     inkscape:connector-curvature="0"
     sodipodi:nodetypes="ccccccccccccc" />
  <path
     style="fill:#000000;fill-rule:evenodd"
     d="m 98.9,181.1 c 10.7,24.9 33.2,7 54.4,-3.3 -0.5,-1.6 -3.7,-1.7 -5.4,-1.1 0,0 -13.5,10.8 -21.7,11.8 -9.4,1.1 -27.3,-7.4 -27.3,-7.4 z"
     id="path5434-8-8"
     inkscape:connector-curvature="0"
     sodipodi:nodetypes="cccac" />
  <path
     d="m 133.1,210.9 c 0,0 -2.6,2.2 -8.3,3.3 1.4,-5.4 2,-8.2 2,-8.2 l -8.6,0 c 0,0 0.6,3.3 2,8.2 -5.7,-1.1 -9.1,-3.1 -9.1,-3.1 l 0,12.4 c 0,0 3.1,-3.5 8.8,-4.5 -1.5,5 -2.8,14.9 -2.8,14.9 l 9.7,0 c 0,0 -0.9,-10 -2.3,-14.8 5.7,1 8.6,4.4 8.6,4.4 z"
     id="path25264-5-8"
     style="fill:#ffff00;fill-rule:evenodd;stroke:#000000;stroke-width:2.63820004"
     inkscape:connector-curvature="0"
     sodipodi:nodetypes="ccccccccccccc" />
  <path
     style="fill:#000000;fill-rule:evenodd"
     d="m 150.33142,171.38328 c 4.7,0.5 10.1,2.5 16.1,5.3 1.4,0.6 10.1,-6.1 6.9,-16.1 1.08593,-0.44045 9.04877,11.1587 -5.9,21.4 -6.3,-4 -9.7,-4.2 -17.1,-10.6 z"
     id="path5438-5-1"
     inkscape:connector-curvature="0"
     sodipodi:nodetypes="csccc" />
  <path
     d="m 214.71129,191.44604 c -2.5,13.6 -16.9,9.5 -16.9,-0.4 1.7,-13.5 16.9,-9.4 16.9,0.4 z"
     id="path423-0"
     style="fill:#1c6f8f;fill-rule:evenodd"
     inkscape:connector-curvature="0"
     sodipodi:nodetypes="ccc" />
  <path
     d="m 210.31129,194.14604 c -2.4,4.2 -11,-0.4 -7.7,-5.6 3.6,-5.3 10.9,0.1 7.7,5.6 z"
     id="path427-9"
     style="fill:#33cfda;fill-rule:evenodd"
     inkscape:connector-curvature="0" />
  <path
     d="m 201.21129,192.84604 c -1.4,-5 0.8,-8.4 5.4,-7.5 0.6,1.8 -4.1,8.6 -5.4,7.5 z"
     id="path429-4"
     style="fill:#ffffff;fill-rule:evenodd"
     inkscape:connector-curvature="0" />
  <path
     d="m 212.47373,130.64976 c 2.35929,1.31981 10.44446,-2.76445 11.2125,-1.70942 1.46626,0.90768 7.75071,9.34978 9.84878,7.75512 5.90505,-4.06431 -5.71856,-20.18581 -5.71856,-20.18581 0.0321,0.12825 -17.71162,10.04422 -15.34272,14.14011 z"
     id="path38465-8"
     style="fill:#000000;fill-rule:evenodd;stroke:#000000;stroke-width:1.39643502"
     inkscape:connector-curvature="0"
     sodipodi:nodetypes="ccccc" />
</svg>
