<?xml version="1.0" encoding="UTF-8" standalone="no"?>
<!-- Created with Inkscape (http://www.inkscape.org/) -->

<svg
   xmlns:dc="http://purl.org/dc/elements/1.1/"
   xmlns:cc="http://creativecommons.org/ns#"
   xmlns:rdf="http://www.w3.org/1999/02/22-rdf-syntax-ns#"
   xmlns:svg="http://www.w3.org/2000/svg"
   xmlns="http://www.w3.org/2000/svg"
   xmlns:sodipodi="http://sodipodi.sourceforge.net/DTD/sodipodi-0.dtd"
   xmlns:inkscape="http://www.inkscape.org/namespaces/inkscape"
   version="1.1"
   width="250"
   height="300"
   viewBox="0 0 250 300"
   id="cards"
   inkscape:version="0.91 r13725"
   sodipodi:docname="face_CJ.svg">
  <sodipodi:namedview
     pagecolor="#ffffff"
     bordercolor="#666666"
     
     objecttolerance="10"
     gridtolerance="10"
     guidetolerance="10"
     inkscape:pageopacity="0"
     inkscape:pageshadow="2"
     inkscape:window-width="1920"
     inkscape:window-height="978"
     id="namedview6787"
     showgrid="false"
     inkscape:zoom="1"
     inkscape:cx="153.73927"
     inkscape:cy="15.36178"
     inkscape:window-x="0"
     inkscape:window-y="1"
     inkscape:window-maximized="1"
     inkscape:current-layer="cards"
     showguides="true"
     inkscape:guide-bbox="true" />
  <defs
     id="defs2680" />
  <metadata
     id="metadata97">
    <rdf:RDF>
      <cc:Work
         rdf:about="">
        <dc:format>image/svg+xml</dc:format>
        <dc:type
           rdf:resource="http://purl.org/dc/dcmitype/StillImage" />
        <dc:title />
      </cc:Work>
    </rdf:RDF>
  </metadata>
  <g
     id="g6263"
     transform="matrix(1.4996876,0,0,0.93679101,-1106.3547,18.73629)">
    <rect
       style="fill:#ffffff;fill-rule:evenodd"
       id="rect4533"
       y="172.5"
       x="799"
       ry="15.27"
       rx="8.8339996"
       height="121.5"
       width="57.77" />
    <path
       inkscape:connector-curvature="0"
       style="fill:#fbddb9"
       id="path16102"
       d="m 827.5,93.96 c -27.4,-17.19 -24.7,87.24 2.6,100.34 20.4,-4.7 23,-111.99 -2.6,-100.34 z" />
    <path
       inkscape:connector-curvature="0"
       style="fill:#000000;stroke:#000000;stroke-width:0.37779999"
       id="path16106"
       d="m 809.8,117.2 c 11.5,-2 6.2,6.6 5.3,24.4 -0.9,5.8 1.7,5.8 6.2,2.7 -5.3,-2 -8,10.1 -4.5,-17.4 1.8,-8.1 -0.8,-13.6 -7,-9.7 z" />
    <path
       inkscape:connector-curvature="0"
       style="fill:#000000"
       id="path16108"
       d="m 822.1,141.2 c 1,6.2 -1.8,3.1 -1.8,4.6 2.8,2 3.7,-5.2 1.8,-4.6 z" />
    <path
       inkscape:connector-curvature="0"
       style="fill:#000000"
       id="path16114"
       d="m 827.7,125.3 c -2.1,-0.3 -2.6,4.7 -0.1,5.2 3.9,-0.4 2,-5.9 0.1,-5.2 z" />
    <path
       inkscape:connector-curvature="0"
       style="fill:#000000"
       id="path16120"
       d="m 817.8,147.4 c 0,0 0.8,-1.2 2.5,0.9 2.8,4.6 7.2,1.8 8,1.8 0,0 0.9,0 0,2.2 -3.5,7.1 -7,6 -8.8,1.3 -4.4,-3.5 -5.3,7.5 -8.8,-0.7 2.6,-9.1 2.6,-2.8 7.1,-5.5 z" />
    <path
       inkscape:connector-curvature="0"
       style="fill:none;stroke:#000000;stroke-width:1.13240004"
       id="path16130"
       d="m 823.1,119.6 c -1.8,-7.2 9.7,0 11.4,2.8" />
    <path
       inkscape:connector-curvature="0"
       style="fill:#000000;stroke-width:84.66699982"
       id="path16140"
       d="m 816.8,175.2 c 4.3,8.2 14.1,-4.5 17.7,-8.1 -4.4,3.5 -9.2,9.8 -17.7,8.1 z" />
    <path
       inkscape:connector-curvature="0"
       style="fill:#00bd00;stroke:#000000;stroke-width:0.75459999"
       id="path16144"
       d="m 849.6,110.1 c -4.5,-35.7 -52.2,-23.11 -40.7,4.1 6.2,-8.5 23.9,-23.18 40.7,-4.1 z" />
    <path
       inkscape:connector-curvature="0"
       style="fill:#54c500;stroke:#000000;stroke-width:3.37472391"
       id="path16152"
       d="m 815.1,85.14 c -7,11.68 -14.2,-2.39 -12.3,32.06 0,9.7 1.6,19.5 6.1,8.6 -4.5,-42.18 46.8,-44.28 41.6,-1 19.4,-15.1 7,-41.84 -6.3,-42.98 -8.8,-4.02 -20.2,-2.98 -29.1,3.32 z m 35.4,99.26 c 0,39 1.6,79.6 2.6,112.2 9.7,0 8.7,-11.8 10.6,-25.3 18.8,-18.5 22.1,8.9 2.5,12.7 -4.3,20.9 1.3,13.2 23.9,15.2 2.5,-6.3 1,-12.5 1.6,-18 0,-9 -5.3,-28.2 -8.8,-34.2 -5,-73.3 -17.2,-58.5 -32.4,-62.6 z M 787.7,270 c 5.3,38.4 14.2,26.6 28.3,26.6 -1.8,-41.5 -6.2,-80.2 -13.2,-112.8 -41.6,1.6 -24.8,78.7 -32.7,115.8 l 12.3,0 c -0.9,-13.3 1.8,-19.3 5.3,-29.6 z"
       sodipodi:nodetypes="cccccccccccccccccccc" />
    <path
       inkscape:connector-curvature="0"
       style="fill:#beb100;stroke:#000000;stroke-width:1.51030004"
       id="path16160"
       d="m 750.6,299.6 16,0 c 12.3,-47.5 20.3,-81.7 12.3,-116.1 -13.3,19.6 -26.5,79 -28.3,116.1 z" />
    <path
       inkscape:connector-curvature="0"
       style="fill:#ffff00;stroke:#000000;stroke-width:1.76520002"
       id="path16186"
       d="m 777.2,275.7 6.1,7.4 4.4,-13.1 c -8.5,-17.9 -6.8,-15.5 -10.5,5.7 z" />
    <path
       inkscape:connector-curvature="0"
       style="fill:#beb100;stroke:#000000;stroke-width:2.2901001"
       id="path16166"
       d="m 778,183.5 c 4.4,34.4 3.5,55.3 -10.6,116.1 l 3.6,0 c 9.4,-36.9 17.6,-81.4 9.6,-118.4 -1.2,-2.6 -2.6,-0.4 -2.6,2.3 z" />
    <path
       inkscape:connector-curvature="0"
       style="fill:#beb100;stroke:#000000;stroke-width:0.56669998"
       id="path16172"
       d="m 776.3,192.7 c 0,4.6 1.7,3.1 1.7,0 0,-3.1 -1.7,-3.1 -1.7,0 z" />
    <path
       inkscape:connector-curvature="0"
       style="fill:#beb100;stroke:#000000;stroke-width:0.56669998"
       id="path16174"
       d="m 776.3,217.9 c 0,1.5 3.4,3 2.6,-1.5 0,-1.5 -2.6,-2.9 -2.6,1.5 z" />
    <path
       inkscape:connector-curvature="0"
       style="fill:#beb100;stroke:#000000;stroke-width:0.56669998"
       id="path16176"
       d="m 773.6,249.2 c 0,2.9 2.7,2.9 2.7,0 0,-4.6 -2.7,-3.1 -2.7,0 z" />
    <path
       inkscape:connector-curvature="0"
       style="fill:#beb100;stroke:#000000;stroke-width:0.56669998"
       id="path16178"
       d="m 768.3,280.3 c 0,4.5 2.7,2.8 2.7,0 0,-3 -2.7,-1.5 -2.7,0 z" />
    <path
       inkscape:connector-curvature="0"
       style="fill:#ffff00;stroke:#000000;stroke-width:2.2650001"
       id="path16180"
       d="m 750.6,292.2 c 2.7,-4.4 5.3,-9.1 5.3,-14.9 2.6,0 6.2,-6 7.2,-8.9 -2.8,-1.5 -1.9,-4.4 -2.8,-5.9 0.9,-2.9 1.8,-10.4 2.8,-13.3 0,2.9 0.7,4.4 2.5,4.4 0,-7.5 0,-14.8 4.5,-14.8 6.2,-20.9 -6.3,-9 0,-22.4 -1.8,-4.3 -1.8,-8.8 0,-13.3 -11.6,14.8 -17.7,69.8 -19.5,89.1 z" />
    <path
       inkscape:connector-curvature="0"
       style="fill:#462d17;stroke:#000000;stroke-width:0.75919998"
       id="path16192"
       d="m 806.3,130.5 c 0.8,5 -1.9,9.7 -1.9,14.8 6.3,44.3 -7,5.6 -8.8,31.9 0,14 5.3,3.6 8,7.6 5.3,4.8 8,-11 11.5,-12.5 -2.7,-12.9 -7,-29.6 -5.3,-41.4 0,-8.9 -1.7,-0.8 -3.5,-0.4 z m 33.5,-1.1 c -0.9,4.1 -0.9,9.3 1.8,10.8 -3.6,9.5 0,10.7 0,16.2 -1.8,10.7 -1.8,22 5.3,23.6 0,2 1.8,9.6 6.2,9.6 6.2,0 10.6,-11.9 7,-18 -1.7,-18 -8,-12.2 -5.3,-31.9 -2.7,-22.6 -3.8,-36.6 -20.3,-38.8 3.5,8.8 0.9,23.9 5.3,28.5 z" />
    <path
       inkscape:connector-curvature="0"
       style="fill:#beb100;stroke:#000000;stroke-width:1.51030004"
       id="path16202"
       d="m 793.9,293.5 0,6.1 66.2,0 0,-8.7 c -22.1,4.2 -46.8,2.6 -66.2,2.6 z" />
    <path
       inkscape:connector-curvature="0"
       style="fill:#ffffff;stroke:#000000;stroke-width:1.13240004"
       id="path16208"
       d="m 866.4,280.3 c 0,0 0,-3 -0.9,-5.9 m 0.9,5.9 c 3.5,17.9 4.3,4.5 8.8,14.8 7.9,9 5.3,-16.3 8.8,-20.7 -6.2,-11.9 -7.1,1.4 -17.6,5.9 z" />
    <path
       inkscape:connector-curvature="0"
       style="fill:#000000"
       id="path16230"
       d="m 885.8,277.3 c 0,0 3.5,7.5 3.5,12 l 0.9,0 c 0,-4.5 -3.6,-12 -4.4,-12 l 0,0 z" />
    <path
       inkscape:connector-curvature="0"
       style="fill:#ffff00;stroke:#000000;stroke-width:1.76520002"
       id="path16238"
       d="m 874.3,156.8 -4.4,-2.4 c -7.1,50.3 -12.4,97.7 -17.8,145.2 l 4.5,0 c 5.2,-47.5 12.4,-98 17.7,-142.8 z" />
    <path
       inkscape:connector-curvature="0"
       style="fill:#ffffff;stroke:#000000;stroke-width:1.13129997"
       id="path16246"
       d="m 814.2,171.6 c -2.6,2.5 -4.4,6.6 -6.1,10.3 13.2,46.5 31.7,31.6 40.6,3.5 -0.9,-8.6 -4.5,-5 -7.1,-12.7 -7.9,27.4 -15.9,26 -27.4,-1.1 z" />
    <path
       inkscape:connector-curvature="0"
       style="fill:#ffffff;stroke:#000000;stroke-width:0.75459999"
       id="path16254"
       d="m 829.2,192.7 c -4.4,3.1 -7.9,7.4 -9.7,13.4 0.8,31.3 4.5,60.8 4.5,87.4 7,-1.3 12.2,0 19.4,-1.3 -2.6,-32.6 -1.8,-57.9 -1.8,-90.6 -3.6,11.9 -6.2,-4.3 -9.7,-8.9 -0.9,0 -2.7,0 -2.7,0 z" />
    <path
       inkscape:connector-curvature="0"
       style="fill:#ffff00;stroke:#000000;stroke-width:2.64770007"
       id="path16344"
       d="m 861.8,191.2 c 0,1.5 4.6,11.9 13.4,1.5 0.8,-10.8 2.6,-25.6 -4.5,-29.2 -8.9,0.4 -8.9,17.7 -8.9,27.7 z" />
    <path
       inkscape:connector-curvature="0"
       style="fill:#ffff00;stroke:#000000;stroke-width:3.43510008"
       id="path16356"
       d="m 877.8,168.7 3.6,19.2 c 23.5,-15.2 26.6,-52.4 10.5,-87.9 -3.5,5.7 -5.3,11.3 -7.9,16.3 4.4,31.2 -17.6,19.2 -19.4,2.6 -2.8,7.6 0,9.5 -5.3,15.6 2.5,3.5 0.8,13 1.7,16.5 11.5,-22.8 29.2,8.3 16.8,17.7 z" />
    <path
       inkscape:connector-curvature="0"
       style="fill:#ffff00;stroke:#000000;stroke-width:2.2901001"
       id="path16362"
       d="m 869,156.4 5.3,2 c 1.7,-18.2 1.5,-25.7 2.3,-45.3 -2.7,18.8 -5.9,24.5 -7.6,43.3 z m 4.4,-38.4 c 3.5,0 2.6,0.3 5.3,1.8 -0.9,-8.7 2.7,-37.49 1.8,-40.96 -2.7,2.22 -3.6,28.06 -7.1,39.16 z" />
    <path
       inkscape:connector-curvature="0"
       style="fill:#000000"
       id="path16374"
       d="m 871.8,193.2 c 0.8,-13 0,-22.8 0,-22.8 4,-3.2 0,31.8 0,22.8 z" />
    <path
       inkscape:connector-curvature="0"
       style="fill:none;stroke:#000000;stroke-width:1.13240004;stroke-linecap:butt;stroke-linejoin:miter"
       id="path4238-7"
       d="m 774.5,191.2 c 2.6,40.1 -3.5,77.2 -12.4,108.4" />
    <path
       inkscape:connector-curvature="0"
       style="fill:none;stroke:#000000;stroke-width:1.63849998;stroke-linecap:butt;stroke-linejoin:miter"
       id="path4225"
       d="m 829.2,192.7 c 1.8,37.1 4.5,63.9 4.5,100.8" />
    <path
       inkscape:connector-curvature="0"
       style="opacity:0.98999999;fill:none;stroke:#000000;stroke-width:1.13240004;stroke-linecap:butt;stroke-linejoin:miter"
       id="path4227"
       d="m 816,157.8 c 1.8,0.5 2.6,0 3.5,-0.7" />
    <path
       inkscape:connector-curvature="0"
       style="fill:none;stroke:#000000;stroke-width:1.13240004;stroke-linecap:butt;stroke-linejoin:miter"
       id="path4231"
       d="m 816,160.2 c 2.6,3 5.3,-0.5 5.3,-0.5" />
    <path
       inkscape:connector-curvature="0"
       style="fill:none;stroke:#000000;stroke-width:1.32389998;stroke-linecap:butt;stroke-linejoin:miter"
       id="path4238-5-8"
       d="m 796.5,238.8 c -1.7,14.8 -4.3,22.1 -8.8,29.6 3.5,-16.3 4.5,-32.6 4.5,-42.9" />
    <path
       inkscape:connector-curvature="0"
       style="fill:#fbddb9;stroke:#000000;stroke-width:1.55610001"
       id="path16220"
       d="m 866.4,220.9 c 0,3 0.8,7.5 -8,0 -0.9,3 -1.8,6.2 -1.8,7.5 -0.9,4.3 -1.8,7.4 -0.9,10.4 0,2.9 -0.9,5.8 -0.9,7.3 -1.7,16.4 5.3,7.5 11.6,28.3 3.5,-3.1 7,-6 9.6,-10.4 -6.1,-13.5 3.6,-36.9 -9.6,-43.1 z" />
    <path
       inkscape:connector-curvature="0"
       style="fill:#000000"
       id="path16222"
       d="m 867.2,232.7 c 0,-8.8 -4.4,-7.2 -7.9,-11.8 3.5,7.5 6.2,4.6 7.9,11.8 z" />
    <path
       inkscape:connector-curvature="0"
       style="fill:#000000;fill-rule:evenodd"
       id="path16370-1"
       d="m 862.5,194 c 3.1,-18.3 7.1,-24.4 4.4,-23.7 0,0 -3.2,9.4 -4.4,23.7 z" />
    <path
       inkscape:connector-curvature="0"
       style="fill:#000000;fill-rule:evenodd"
       id="path16370-1-7"
       d="m 866.5,196.3 c 0,5.9 5.3,-20.9 2.6,-19.8 0,0 0,6.1 -2.6,19.8 z" />
    <path
       inkscape:connector-curvature="0"
       style="fill:none;stroke:#000000;stroke-width:1.04879999px;stroke-linecap:butt;stroke-linejoin:miter"
       id="path3868"
       d="m 856.6,228.4 c 3.5,5.9 3.5,5.9 3.5,5.9" />
    <path
       inkscape:connector-curvature="0"
       style="fill:none;stroke:#000000;stroke-width:1.04879999px;stroke-linecap:butt;stroke-linejoin:miter"
       id="path3868-4"
       d="m 855.7,237.4 c 3.6,5.8 3.6,5.8 3.6,5.8" />
    <path
       inkscape:connector-curvature="0"
       style="fill:none;stroke:#000000;stroke-width:0.8976px;stroke-linecap:butt;stroke-linejoin:miter"
       id="path3868-4-0"
       d="m 854.8,246.1 c 3.6,4.4 3.6,4.4 3.6,4.4" />
    <path
       inkscape:connector-curvature="0"
       style="fill:none;stroke:#000000;stroke-width:3.43510008;stroke-linecap:butt;stroke-linejoin:miter"
       id="path3868-1"
       d="m 826.6,212.1 c 1.7,0 7.9,-1.5 7.9,-1.5" />
    <path
       inkscape:connector-curvature="0"
       style="fill:none;stroke:#000000;stroke-width:3.43510008;stroke-linecap:butt;stroke-linejoin:miter"
       id="path3868-1-4"
       d="m 827.5,231.3 c 1.7,0 7.9,-1.5 7.9,-1.5" />
    <path
       inkscape:connector-curvature="0"
       style="fill:none;stroke:#000000;stroke-width:3.43510008;stroke-linecap:butt;stroke-linejoin:miter"
       id="path3868-1-9"
       d="m 828.3,252.1 c 1.8,0 7.9,-1.6 7.9,-1.6" />
    <path
       inkscape:connector-curvature="0"
       style="fill:none;stroke:#000000;stroke-width:3.43510008;stroke-linecap:butt;stroke-linejoin:miter"
       id="path3868-1-48"
       d="m 829.2,274.4 c 1.8,0 8,-1.5 8,-1.5" />
    <path
       inkscape:connector-curvature="0"
       style="fill:none;stroke:#000000;stroke-width:0.86330003"
       id="path16112-1"
       d="m 824,128.1 c 3.2,7.7 7,0.8 9.7,1.5 -2.8,-2.6 -6.7,-8.1 -9.7,-1.5 z" />
    <path
       inkscape:connector-curvature="0"
       style="fill:none;stroke:#000000;stroke-width:0.81529999"
       id="path16112-1-7"
       d="m 816.4,126.6 c -4.8,5.3 -5.8,-1.7 -7.4,-1 2.3,-2 4.3,-4.4 7.4,1 z" />
    <path
       inkscape:connector-curvature="0"
       style="fill:#000000"
       id="path16114-4"
       d="m 813.2,123.2 c -1.9,-0.2 -2.3,3.8 -0.2,4.2 3.3,-0.3 1.6,-4.7 0.2,-4.2 z" />
    <path
       inkscape:connector-curvature="0"
       style="fill:none;stroke:#000000;stroke-width:1.32389998;stroke-linecap:butt;stroke-linejoin:miter"
       id="path4231-0"
       d="m 808.7,113.2 c 0.8,-13.37 8.9,-22.08 8.9,-21.97" />
  </g>
  <g
     id="g5595" />
</svg>
