<?xml version="1.0" encoding="UTF-8" standalone="no"?>
<!-- Created with Inkscape (http://www.inkscape.org/) -->

<svg
   xmlns:dc="http://purl.org/dc/elements/1.1/"
   xmlns:cc="http://creativecommons.org/ns#"
   xmlns:rdf="http://www.w3.org/1999/02/22-rdf-syntax-ns#"
   xmlns:svg="http://www.w3.org/2000/svg"
   xmlns="http://www.w3.org/2000/svg"
   xmlns:xlink="http://www.w3.org/1999/xlink"
   xmlns:sodipodi="http://sodipodi.sourceforge.net/DTD/sodipodi-0.dtd"
   xmlns:inkscape="http://www.inkscape.org/namespaces/inkscape"
   version="1.1"
   width="250"
   height="300"
   viewBox="0 0 250 300"
   id="cards"
   inkscape:version="0.91 r13725"
   sodipodi:docname="face_DJ.svg">
  <sodipodi:namedview
     pagecolor="#ffffff"
     bordercolor="#666666"
     
     objecttolerance="10"
     gridtolerance="10"
     guidetolerance="10"
     inkscape:pageopacity="0"
     inkscape:pageshadow="2"
     inkscape:window-width="1920"
     inkscape:window-height="978"
     id="namedview6787"
     showgrid="false"
     inkscape:zoom="1"
     inkscape:cx="153.73927"
     inkscape:cy="15.36178"
     inkscape:window-x="0"
     inkscape:window-y="1"
     inkscape:window-maximized="1"
     inkscape:current-layer="cards"
     showguides="true"
     inkscape:guide-bbox="true" />
  <defs
     id="defs2680">
    <linearGradient
       id="linearGradient5830">
      <stop
         id="stop5832"
         style="stop-color:#ff0000;stop-opacity:1"
         offset="0" />
      <stop
         id="stop5834"
         style="stop-color:#6b0000;stop-opacity:1"
         offset="1" />
    </linearGradient>
    <linearGradient
       inkscape:collect="always"
       xlink:href="#linearGradient5830"
       id="linearGradient6160"
       gradientUnits="userSpaceOnUse"
       gradientTransform="matrix(1.112,0,0,0.9952,-1406,17.5)"
       x1="1367"
       y1="219.7"
       x2="1413"
       y2="219.7" />
  </defs>
  <metadata
     id="metadata97">
    <rdf:RDF>
      <cc:Work
         rdf:about="">
        <dc:format>image/svg+xml</dc:format>
        <dc:type
           rdf:resource="http://purl.org/dc/dcmitype/StillImage" />
        <dc:title />
      </cc:Work>
    </rdf:RDF>
  </metadata>
  <path
     d="m 152.1,177.5 2,-0.3 -2,-0.3 c 0,0.3 -2,0.5 -2,0.3 0,0 -2,4.7 -6,12.7 0,0.2 -2,1.4 -3,1 -3,-0.6 -9,-2.1 -14,-6.1 -2,-1.8 -5,-5 -6,-8.7 l 0,2.5 c 0,6.4 -4,10.6 -4,10.6 -1,1.3 -1,3.1 -1,3.1 1,2.2 -1,4.8 -2,6 16,40.9 20,89.5 20,98.1 5,0 11,0 16,0 4,-10.4 30,-81.4 2,-118.9 z"
     id="path10796"
     style="fill:url(#linearGradient6160);fill-rule:evenodd"
     inkscape:connector-curvature="0" />
  <path
     d="m 236.1,134.2 c 0,0 -12,-32.7 -12,-55 l 0,0 0,0 0,0 c 0,22.3 -13,55 -13,55 5,-0.2 10,-2.8 13,-3.5 0,0.7 7,3.3 12,3.5 z"
     id="path10802"
     style="fill:#ffff00;fill-rule:evenodd;stroke:#000000;stroke-width:3.15569997"
     inkscape:connector-curvature="0" />
  <path
     d="m 74.1,178.7 c -6,3.2 -11,8 -17,10.1 -12,11.7 -26,41.9 -28,57.3 0,0 -11,29.5 -10,51.9 l 44,0 c 0,0 0,-9.5 5,-14.4 98,53.9 44,-77 6,-104.9 z"
     id="path10808"
     style="fill:#804040;fill-rule:evenodd;stroke:#000000;stroke-width:4.20790005"
     inkscape:connector-curvature="0" />
  <path
     d="m 164.1,112.1 c 0,0 0,6 0,7.9 1,5.3 0,8.6 1,12.8 1,4.6 3,8.8 4,13.1 0,0 0,2.2 -3,3.2 0,0 0,1.8 -2,1.7 -3,4 0,5.5 -6,7.9 0,0 3,3.9 -1,4.3 0,7 -5,12.9 -8,14.2 0,0 -1,4.7 -5,12.7 -54,6.2 -44,-87.4 20,-77.8 z"
     id="path10822"
     style="fill:#fbddb9;fill-rule:evenodd;stroke:#000000;stroke-width:1.05180001"
     inkscape:connector-curvature="0"
     sodipodi:nodetypes="ccccccccccc" />
  <path
     d="m 134.1,174.6 c 5,1.4 13,3.2 16,3.2 l 0,-0.9 c 0,0 -10,-1.7 -16,-3 z"
     id="path10826"
     style="fill:#000000;fill-rule:evenodd"
     inkscape:connector-curvature="0"
     sodipodi:nodetypes="ccccc" />
  <path
     d="m 147.1,133.6 -3,0 3,0.5 c 0,1.4 1,4.9 10,3.6 l 0,-0.8 -3,0.5 c -6,0.3 -6,-2.3 -7,-3.3 1,-1 11,-1.9 11,-1.9 l 0,-0.8 c -1,0 -10,1.1 -11,2.2 z"
     id="path10828"
     style="fill:#000000;fill-rule:evenodd"
     inkscape:connector-curvature="0" />
  <path
     d="m 157.1,127.7 c -5,0 -10,5 -10,5.1 l 0,0.8 c 0,-0.2 5,-4.8 10,-5.1 0,0.4 0,1.6 0,1.6 l 0,0 0,-2.4 z"
     id="path10830"
     style="fill:#000000;fill-rule:evenodd"
     inkscape:connector-curvature="0" />
  <path
     d="m 157.1,132.3 c -1,6.2 -5,5.5 -5,0.3 z"
     id="path10832"
     style="fill:#000000;fill-rule:evenodd"
     inkscape:connector-curvature="0" />
  <path
     d="m 157.1,149.1 c 0,0.6 1,0.9 4,0.7 0,0 4,-0.6 4,0 l 0,-0.6 c 0,-0.9 -4,-0.1 -4,-0.1 -3,0.1 -4,0 -4,-0.7 0,-0.6 0,-1.9 0,-1.9 l -2,-0.1 c 0,0 0,1.5 2,2.7 z"
     id="path10834"
     style="fill:#000000;fill-rule:evenodd"
     inkscape:connector-curvature="0" />
  <path
     d="m 152.1,159.8 c 1,1 7,-0.6 6,-1.6 0,0 -4,0.3 -6,1.6 z"
     id="path10836"
     style="fill:#000000;fill-rule:evenodd"
     inkscape:connector-curvature="0" />
  <path
     d="m 161.1,151.2 c 0,0 0,1.8 0,3 0,0 -4,0.7 -6,0.9 0,0 -1,0.8 -1,2.5 0,0 -2,2.8 -6,-0.5 0,0 2,1.3 4,-0.9 0,0 2,-3.9 3,-3.9 0,0 3,-1.1 6,-1.1 z"
     id="path10838"
     style="fill:#000000;fill-rule:evenodd"
     inkscape:connector-curvature="0" />
  <path
     d="m 143.1,126.3 c 0,0 5,-3.1 12,-2.8 0,0 3,1.3 6,0.6 l -3,2 c 0,0 -1,0.8 -3,-0.2 0,0 -7,-1.7 -12,0.4 z"
     id="path10840"
     style="fill:#000000;fill-rule:evenodd"
     inkscape:connector-curvature="0" />
  <path
     d="m 93.1,102.20363 c 0,0 -4,7.56324 -8,10.92468 0,0 -6,6.3027 -5,11.42889 0,0 1,4.28584 3,6.47078 0,0 4,2.353 4,3.36144 0,0 1,4.4539 5,2.68915 0,0 17,-3.36144 25,-20.58882 4,-4.11776 37,-13.19365 48,-6.55481 4.22456,-38.75811 -71.56081,-24.70304 -72,-7.73131 z"
     id="path10844"
     style="fill:#804040;fill-rule:evenodd;stroke:#000000;stroke-width:3.85743022"
     inkscape:connector-curvature="0"
     sodipodi:nodetypes="ccccccccc" />
  <path
     d="m 115.1,112.8 c 5,0.4 9,-11.2 12,-14 -9,4.5 -12,13.9 -12,14 z"
     id="path10848"
     style="fill:#000000;fill-rule:evenodd"
     inkscape:connector-curvature="0" />
  <path
     d="m 152.1,102.1 c -24,1.8 -35,10.4 -35,10.4 -3,5.6 -5,10.3 -8,13.5 l 0,0.2 c 0,0 11,-14.6 55,-14.1 0,0 2,-0.1 1,-7.4 -4,-3.5 -13,-2.6 -13,-2.6 z"
     id="path10852"
     style="fill:#ff8000;fill-rule:evenodd;stroke:#000000;stroke-width:1.05180001"
     inkscape:connector-curvature="0" />
  <path
     d="m 121.1,175.9 c -6,15.9 -5,16.6 6,26.9 l 0,0.7 0,-0.7 c 0,0 5,-10.9 14,-11.5 l 0,-0.8 c -11,-1.5 -15,-7.5 -20,-14.6 z"
     id="path10868"
     style="fill:#ff8000;fill-rule:evenodd;stroke:#000000;stroke-width:1.05180001"
     inkscape:connector-curvature="0" />
  <path
     d="m 166.1,180.4 c -2,0.3 -12,-3.6 -12,-3.6 l -2,0.7 c 28,37.5 2,108.5 -2,118.9 5,0 11,0 14,0 39,-76.3 2,-116 2,-116 z m -84,3.2 c 7,13.2 31,55.6 33,112.8 6,0 12,0 19,0 0,-8.6 -4,-57.2 -20,-98.1 4,-11.8 -25,-11.9 -32,-14.7 z"
     id="path10878"
     style="fill:#ff8000;fill-rule:evenodd;stroke:#000000;stroke-width:2.18510008"
     inkscape:connector-curvature="0" />
  <path
     d="m 152.1,177.4 c 20,35.4 13,82.3 -2,119 l 0,0 0,0 c 6,0 13,0 16,0 16,-34.3 28,-83.9 0,-116.3 l 0,-0.1 0,0 c -5,0.2 -10,-4.7 -14,-2.6 z"
     id="path10880"
     style="fill:#ff8000;fill-rule:evenodd;stroke:#000000;stroke-width:2.18510008"
     inkscape:connector-curvature="0"
     sodipodi:nodetypes="ccccccccc" />
  <path
     d="m 55.1,200.2 c 26,21.2 25,53.1 12,82.1 l 2,0.7 c 20,-37.3 12,-64.5 -12,-83.6 z"
     id="path10884"
     style="fill:#000000;fill-rule:evenodd"
     inkscape:connector-curvature="0" />
  <path
     d="m 236.1,272.1 c -15,13.8 -12,-0.7 -12,25.9 l 16,0 c 2,-6.6 -4,-29.4 -4,-25.9 z m -70,-91.7 c 33,39.5 -15.4,131.1 9,116 7,-12.1 15,-7 18,1.6 l 25,0 0,-36.2 c -29,-26.2 -17,-63.1 -52,-81.4 z"
     id="path10902"
     style="fill:#804040;fill-rule:evenodd;stroke:#000000;stroke-width:4.20790005"
     inkscape:connector-curvature="0"
     sodipodi:nodetypes="cccccccccc" />
  <polygon
     points="12421,14692 12422,14738 12621,14733 12619,14687 "
     transform="matrix(0.0164,0,0,0.0173,-43.9,41.8)"
     id="polygon10904"
     style="fill:#000000;fill-rule:evenodd" />
  <path
     d="m 211.1,230.6 c 10,-10.7 10,-2.3 19,-1.8 0,0 6,3.5 6,7 3,11.4 1,19.9 -2,27.7 l 2,8.6 c 0,0 -5,7 -12,7 l 0,-13.9 c -4,-5.9 -11,-3.1 -11,-10.5 0,0 -2,-3.2 0,-5.1 0,0 -2,-3.5 -2,-5.1 0,0 -4,-5.3 -7,-7 0,0 -1,-3.6 0,-6.9 0,0 3,-3.5 7,0 z"
     id="path10888"
     style="fill:#fbddb9;fill-rule:evenodd;stroke:#000000;stroke-width:2.18510008"
     inkscape:connector-curvature="0" />
  <path
     d="m 215.1,232.4 c -1,1.7 -2,10.1 0,10.4 -1,2.3 -1,8.5 3,8.7 0,0 -6,3.5 -3,6.9 0,0 -3,0 -1,-8.5 0,0 -2,-5.2 0,-7.1 0,0 -2,-6.8 -2,-8.6 0,0 -1,-1.8 0,-3.4 l 2,-2.6 c 0,0 0,2.6 1,4.2 z"
     id="path10910"
     style="fill:none;stroke:#000000;stroke-width:1.0927"
     inkscape:connector-curvature="0" />
  <path
     d="m 215.1,232.8 c 0,0 10,1.4 14,3.2 l 0,-1.8 c -4,0 -14,-2.6 -14,-2.6 z"
     id="path10912"
     style="fill:#000000;fill-rule:evenodd"
     inkscape:connector-curvature="0" />
  <polygon
     points="15671,11572 15669,11618 16487,11658 16490,11612 "
     transform="matrix(0.0164,0,0,0.0173,-43.9,41.8)"
     id="polygon10914"
     style="fill:#000000;fill-rule:evenodd" />
  <path
     d="m 215.1,250.9 c 0,0 10,2 14,2 l 0,0 c -4,-2 -14,-2 -14,-2 z"
     id="path10916"
     style="fill:#000000;fill-rule:evenodd"
     inkscape:connector-curvature="0" />
  <path
     d="m 228.1,169.7 c 0,-17.2 -3,-37.4 -4,-53.4 -3,18 -4,36.8 -4,53.4 z"
     id="path10934"
     style="fill:#ffff00;fill-rule:evenodd;stroke:#000000;stroke-width:3.27780008"
     inkscape:connector-curvature="0" />
  <polygon
     points="15647,9068 15647,9845 "
     transform="matrix(0.0164,0,0,0.0173,-43.9,41.8)"
     id="polygon10940"
     style="fill:#ff7e00;fill-rule:evenodd" />
  <polygon
     points="15841,9443 15841,9955 "
     transform="matrix(0.0164,0,0,0.0173,-43.9,41.8)"
     id="polygon10946"
     style="fill:#ff7e00;fill-rule:evenodd" />
  <path
     d="m 206.1,141.9 c -7,-9.5 2,-15.9 2,-15.9 l -7,-17.1 c -25,9.2 -25,40.4 -25,43.5 l 0,0.2 c 0,3.4 0,34.4 25,43.7 l 7,-17.4 c 0,0 -9,-6.1 -2,-15.9 0,0 7,-3.5 14,-0.9 0,-5 1,-12.8 1,-20.1 -7,3.4 -15,-0.1 -15,-0.1 z m 29,6 c -1,-1.7 -1,-3.2 -1,-3.2 0,-3.8 -4,-4.5 -8,-4.8 2,9.8 2,18.5 2,24.2 6,-9.8 12,4.5 12,4.5 12,-15.2 -5,-20.7 -5,-20.7 z"
     id="path10976"
     style="fill:#ffff00;fill-rule:evenodd;stroke:#000000;stroke-width:3.15569997"
     inkscape:connector-curvature="0" />
  <path
     d="m 150.1,177.2 c -2,4.7 -3,8.8 -6,12.5 0,0.2 0,0.4 -1,0.6 l -2,0.5 2,0.5 1,0.1 c 3,0.3 6,1.6 10,12.6 l 0,0.5 0,0.5 0,-0.2 c 1,-0.3 4,-4.5 7,-11.9 l 0,-0.1 0,0 c -5,-5 -6,-16.8 -11,-15.6 z"
     id="path10982"
     style="fill:#ff8000;fill-rule:evenodd;stroke:#000000;stroke-width:1.05180001"
     inkscape:connector-curvature="0" />
  <path
     d="m 60.1,203 c -25,48.5 -27,95 -27,95 l 16,0 c 3,-50.1 18,-79.5 19,-83.4 -2,-3.9 -5,-7.8 -8,-11.6 z"
     id="path10986"
     style="fill:#ff8000;fill-rule:evenodd;stroke:#000000;stroke-width:1.05180001"
     inkscape:connector-curvature="0" />
  <path
     d="m 206.1,286.2 0,0 c 0,-11.7 1,-16.2 8,-20.6 l 0,0 c -12,4.3 -11,9.6 -8,20.6 z"
     id="path10990"
     style="fill:#000000;fill-rule:evenodd"
     inkscape:connector-curvature="0" />
  <path
     d="m 218.1,280.7 0,0 0,-8.6 0,0 c -7,5.3 0,8.6 0,8.6 z m 17,-13.7 c 2,7.4 -6,11.9 -11,12.1 l 0,3.5 c 7,2.5 23,-12.3 11,-15.6 z"
     id="path10994"
     style="fill:#d9e8ec;fill-rule:evenodd;stroke:#000000;stroke-width:1.0927"
     inkscape:connector-curvature="0" />
  <path
     d="m 138.1,114 c -20,0.4 -28,15.6 -43,21.9 1,15.8 -23,10.6 -16,25.1 0,0 -7,0 -7,5.1 -22,21.9 40,33.7 44,30.2 1,-2.8 -1,-4.9 1,-7.1 10,-11.1 -3,-21.9 4,-26.4 17,-3 3,-20.9 11,-27.2 8,-4.9 5,-20.3 6,-21.6 z"
     id="path10858"
     style="fill:#000000;fill-rule:evenodd;stroke:#000000;stroke-width:1.05180001"
     inkscape:connector-curvature="0" />
  <path
     d="m 218.1,213.8 0,11.7 c 3,-1.1 5,1.5 6,1.6 l 0,-13.9 z m 0,48 0,36.2 6,0 0,-32.8 c 0,-2.5 -4,-3.3 -6,-3.4 z"
     id="path10894"
     style="fill:#ffff00;fill-rule:evenodd;stroke:#000000;stroke-width:2.18510008"
     inkscape:connector-curvature="0" />
  <path
     d="m 81.1,300.8 c 0,0 -4,-9.9 -1,-9.9 0,0 85,9.7 100,1.8 0,0 -1,0.2 -1,8.1 z"
     id="path10872"
     style="fill:#000000;fill-rule:evenodd"
     inkscape:connector-curvature="0" />
  <path
     d="m 228.1,170.2 c 0,0 8,19.4 5,39.4 0,0 -9,12.3 -22,0.5 0,0 2,-32.7 9,-39.9 z"
     id="polygon10970"
     style="fill:#ff0000;fill-rule:evenodd;stroke:#000000;stroke-width:2.18510008"
     inkscape:connector-curvature="0" />
  <path
     d="m 224.1,215 -1,-17.2 c -3,1.4 -2,17.2 1,17.2 z"
     id="polygon10948"
     style="fill:#000000;fill-rule:evenodd"
     inkscape:connector-curvature="0" />
  <path
     d="m 226.1,187 3,25.8 c 1,-0.3 0,-25.6 -3,-25.8 z"
     id="polygon10960"
     style="fill:#000000;fill-rule:evenodd"
     inkscape:connector-curvature="0" />
  <path
     d="m 216.1,213.9 2,-22.4 c -3,1.6 -4,22.4 -2,22.4 z"
     id="polygon10960-4"
     style="fill:#000000;fill-rule:evenodd"
     inkscape:connector-curvature="0" />
  <g
     id="g5595" />
</svg>
