<?xml version="1.0" encoding="UTF-8" standalone="no"?>
<!-- Created with Inkscape (http://www.inkscape.org/) -->

<svg
   xmlns:dc="http://purl.org/dc/elements/1.1/"
   xmlns:cc="http://creativecommons.org/ns#"
   xmlns:rdf="http://www.w3.org/1999/02/22-rdf-syntax-ns#"
   xmlns:svg="http://www.w3.org/2000/svg"
   xmlns="http://www.w3.org/2000/svg"
   xmlns:sodipodi="http://sodipodi.sourceforge.net/DTD/sodipodi-0.dtd"
   xmlns:inkscape="http://www.inkscape.org/namespaces/inkscape"
   version="1.1"
   width="250"
   height="300"
   viewBox="0 0 250 300"
   id="cards"
   inkscape:version="0.91 r13725"
   sodipodi:docname="face_HQ.svg">
  <sodipodi:namedview
     pagecolor="#ffffff"
     bordercolor="#666666"
     objecttolerance="10"
     gridtolerance="10"
     guidetolerance="10"
     inkscape:pageopacity="0"
     inkscape:pageshadow="2"
     inkscape:window-width="1920"
     inkscape:window-height="978"
     id="namedview6787"
     showgrid="false"
     inkscape:zoom="2.8284271"
     inkscape:cx="100.49199"
     inkscape:cy="22.989945"
     inkscape:window-x="0"
     inkscape:window-y="1"
     inkscape:window-maximized="1"
     inkscape:current-layer="cards"
     showguides="true"
     inkscape:guide-bbox="true" />
  <defs
     id="defs2680" />
  <metadata
     id="metadata97">
    <rdf:RDF>
      <cc:Work
         rdf:about="">
        <dc:format>image/svg+xml</dc:format>
        <dc:type
           rdf:resource="http://purl.org/dc/dcmitype/StillImage" />
        <dc:title />
      </cc:Work>
    </rdf:RDF>
  </metadata>
  <path
     d="m 77.81438,227.93247 c 0,0 -9.68479,6.68777 -11.62175,16.71941 0,0 -11.62174,10.03165 -12.59022,11.56028 43.58155,45.85894 30.99132,13.5666 24.21197,-28.27969 z"
     id="path28929"
     style="fill:#7e9eff;fill-rule:evenodd;stroke:#000000;stroke-width:1.01578164"
     inkscape:connector-curvature="0"
     sodipodi:nodetypes="cccc" />
  <path
     d="m 16.73969,298.79885 c 0,0 1.029,-14.02039 8.77683,-17.45981 0,0 11.62175,-19.87221 22.27502,-16.62387 0,0 6.77935,-16.71941 20.33805,-8.50301 0,0 4.8424,5.25467 4.8424,8.50301 0,0 4.84239,11.56027 13.5587,16.62387 l 7.96183,17.34163 z"
     id="path28935"
     style="fill:#bee3ff;fill-rule:evenodd;stroke:#000000;stroke-width:1.92382896"
     inkscape:connector-curvature="0"
     sodipodi:nodetypes="cccccccc" />
  <path
     style="fill:#ff0000;fill-rule:evenodd;stroke:#000000;stroke-width:0.76183623"
     d="m 56.50785,261.75345 c -13.55871,6.87884 -16.46414,7.26099 -24.21197,18.72573 l 1.93695,17.29264 43.58155,-0.38215 z"
     id="polygon28947"
     inkscape:connector-curvature="0"
     sodipodi:nodetypes="ccccc" />
  <path
     d="m 114.61658,105.45088 c -13.55871,4.1082 -7.74784,16.05063 -9.68479,19.68113 0,0 -4.8424,3.72604 -4.8424,8.59855 0,0 0,3.53496 1.93696,4.87251 0,0 2.90544,2.67511 0,5.15914 0,0 -2.90544,2.57956 0,7.73869 0,0 0,4.5859 -1.93696,6.87884 0,0 -0.96848,2.96173 0,4.5859 0,0 -2.90543,9.07625 9.68479,13.18444 0,0 -4.84239,3.24835 -2.90544,6.11453 0,0 -9.68478,3.6305 -1.93695,10.50934 4.84239,-2.38848 6.77935,-3.24834 6.77935,-3.24834 3.87391,-0.66878 11.62174,-3.6305 11.62174,-3.6305 30.02285,-5.73237 -16.46414,-50.25376 -8.7163,-80.44423 z"
     id="path28965"
     style="fill:#000000;fill-rule:evenodd;stroke:#000000;stroke-width:1.01578164"
     inkscape:connector-curvature="0"
     sodipodi:nodetypes="cccccccccccccc" />
  <path
     d="m 110.74266,107.93491 c 0,3.34388 0,6.11452 0,9.4584 -0.96848,1.4331 -0.96848,3.24835 -0.96848,3.91712 0,0 -1.24997,2.7587 -1.24997,5.33827 0,0 0.0625,7.55955 1.24997,8.89711 1.15207,0.53177 -2.62082,15.77247 5.81087,24.45811 0,0 3.53042,9.52996 3.53042,10.77197 0,0 1.65548,1.43318 7.46635,2.48412 0,0 1.59346,10.62877 -3.24894,12.6351 0,0 -7.74783,2.96172 -11.62174,3.82158 0,0 -14.52718,2.96172 -15.49566,12.70675 l -1.93696,5.06359 8.71631,10.50934 29.05436,6.68776 27.11741,-5.06359 20.33806,-8.50301 3.87391,-6.30561 -12.59022,-70.2215 -17.43262,-25.60458 -19.36958,-5.35021 -18.4011,1.14647 z"
     id="path28953"
     style="fill:#fbddb9;fill-rule:evenodd;stroke:#000000;stroke-width:1.01578164"
     inkscape:connector-curvature="0"
     sodipodi:nodetypes="cccccccccccccccccccccc" />
  <circle
     style="opacity:1;fill:#ffffff;fill-opacity:1;stroke:#000000;stroke-width:1.5;stroke-miterlimit:4;stroke-dasharray:none;stroke-opacity:1"
     id="circle8336"
     cx="166.1544"
     cy="190.90625"
     r="6.805903" />
  <path
     d="m 148.51333,119.87734 c 0,0 -0.96848,6.11453 2.90544,11.3692 0,0 2.90544,5.35021 0.96848,10.4138 0,0 -4.8424,5.82791 0,11.84689 0,0 5.81087,4.29928 0.96848,8.12086 0,0 -3.87392,6.40114 4.84239,10.22272 0,0 0.96848,1.91079 0,4.39481 0,0 -3.87391,4.39482 6.77935,8.2164 0,0 7.74783,5.63683 8.71631,1.43309 4.8424,-27.99306 -6.77935,-86.84537 -30.02284,-78.34236 1.93696,0.38216 4.84239,3.43942 4.84239,12.32459 z"
     id="path28959"
     style="fill:#000000;fill-rule:evenodd;stroke:#000000;stroke-width:1.01578164"
     inkscape:connector-curvature="0"
     sodipodi:nodetypes="ccccccccccc" />
  <path
     d="m 106.86874,113.4762 c 0,2.6751 0,4.77697 0,7.16546 -0.96847,2.96172 -3.87391,4.77697 -4.84239,7.64315"
     id="path28991"
     style="fill:none"
     inkscape:connector-curvature="0"
     sodipodi:nodetypes="ccc" />
  <path
     d="m 133.01767,172.42405 c -0.96848,0.19107 -3.87391,0.19107 -3.87391,0.19107 -0.96848,0.0955 -1.93696,0.0955 -1.93696,0 l 0,0.66878 c 0,0.19108 0.96848,0.19108 1.93696,0.19108 0,0 2.90543,0 3.87391,-0.19108 2.90544,-0.57324 8.71631,-2.00633 14.52718,-6.3056 l -1.93695,-0.57324 c -3.87392,4.20374 -9.68479,5.44575 -12.59023,6.01899 z"
     id="path29019"
     style="fill:#000000;fill-rule:evenodd"
     inkscape:connector-curvature="0"
     sodipodi:nodetypes="sccscsccs" />
  <path
     d="m 109.77418,121.88367 0,0.57324 c 10.65327,-1.91079 13.5587,1.91078 12.59023,5.06359 0,0.28662 -5.81088,13.18444 -5.81088,15.19077 0,0.0955 0,0.4777 0,1.05094 0,1.05093 0.96848,2.57956 1.93696,3.53496 l 2.90544,1.33755 0,0 c 0,0 1.93695,0.4777 1.93695,-0.57324 l 0,0.0955 c 0,-0.0955 1.93696,-1.62417 1.93696,-0.28662 0,0.19108 1.93696,1.05094 2.90544,0.57324 0,-0.28662 0,-1.24201 0,-3.24834 l 0,0 c 0,2.29295 -0.96848,2.6751 -0.96848,2.6751 0,0.19108 0,-0.38215 0,-0.57323 -1.93696,-1.52864 -3.87392,-0.38216 -3.87392,0.19108 l 0,0 0,0 c 0,0.57323 -1.93695,0.57323 -1.93695,0.38215 l -2.90544,-1.24201 c -0.96848,-0.85986 -0.96848,-2.00633 -0.96848,-2.86618 0,-0.38216 0,-0.9554 0,-0.9554 l 0,0 0,-0.0955 c 0,-1.91079 5.81087,-17.29264 5.81087,-17.38818 0,-4.68143 -10.65326,-4.96805 -13.5587,-3.43942 z"
     id="path29021"
     style="fill:#000000;fill-rule:evenodd"
     inkscape:connector-curvature="0"
     sodipodi:nodetypes="cccsscccccsccccccccccsccssc" />
  <path
     d="m 117.52201,155.32248 c 0,0 3.87392,-0.4777 5.81087,1.05094 0,0 4.8424,-2.00633 8.71631,-0.28662"
     id="path29025"
     style="fill:none"
     inkscape:connector-curvature="0"
     sodipodi:nodetypes="ccc" />
  <path
     d="m 132.04919,156.0868 c 0,-0.19108 -3.87391,-0.85986 -8.71631,0.0955 0,1.05093 -1.93695,-0.85986 -4.84239,-0.66878 0,-0.19108 -0.96848,0 -0.96848,-0.19108 0,0 0,-0.28662 0.96848,-0.28662 2.90544,-0.0955 4.84239,1.71971 4.84239,0.4777 4.8424,-0.95539 8.71631,0 8.71631,0.57324 z"
     id="path29027"
     style="fill:#000000;fill-rule:evenodd"
     inkscape:connector-curvature="0"
     sodipodi:nodetypes="ccccccc" />
  <path
     d="m 121.39593,159.14406 c 0,0 1.93695,1.43309 5.81087,0"
     id="path29031"
     style="fill:none"
     inkscape:connector-curvature="0"
     sodipodi:nodetypes="cc" />
  <path
     d="m 127.2068,159.14406 c 0,0 -1.93696,0.85986 -3.87392,0.85986 0,0 -1.93695,-0.66878 -1.93695,-0.85986 0,-0.0955 1.93695,0.19108 1.93695,0.19108 1.93696,0.28662 3.87392,-0.28662 3.87392,-0.19108 z"
     id="path29033"
     style="fill:#000000;fill-rule:evenodd"
     inkscape:connector-curvature="0"
     sodipodi:nodetypes="ccscc" />
  <path
     d="m 128.17528,127.71158 0.96848,0.28661 c 2.90543,-3.91711 8.71631,-1.33755 12.59022,0.85986 l 0.96848,-0.76432 c -5.81087,-2.38848 -10.65327,-5.25467 -14.52718,-0.38215 z"
     id="path29039"
     style="fill:#000000;fill-rule:evenodd"
     inkscape:connector-curvature="0"
     sodipodi:nodetypes="ccccc" />
  <path
     d="m 128.17528,123.60338 0,0.38216 c 3.87391,-3.82158 14.52718,-1.4331 14.52718,-1.4331 l 0,-0.76431 c -0.96848,0 -10.65327,-2.57957 -14.52718,1.81525 z"
     id="path29041"
     style="fill:#000000;fill-rule:evenodd;stroke:#000000;stroke-width:0.50798702"
     inkscape:connector-curvature="0"
     sodipodi:nodetypes="ccccc" />
  <path
     d="m 109.77418,126.18294 0,0.66878 c 0,0 6.77935,-2.10187 10.65327,0.9554 l 0,-0.57324 c -3.87392,-3.6305 -10.65327,-1.24201 -10.65327,-1.05094 z"
     id="path29043"
     style="fill:#000000;fill-rule:evenodd"
     inkscape:connector-curvature="0"
     sodipodi:nodetypes="scccs" />
  <path
     d="m 96.21548,200.70373 c 0,0 -27.11741,16.14617 -21.30654,33.91651 0,0 3.87392,11.65581 3.87392,33.34327 0,0 0,12.4158 8.71631,22.44745 0,0 3.51074,6.82677 3.51074,8.3554 l 24.57514,-0.0435 z"
     id="path28941"
     style="fill:#bee3ff;fill-rule:evenodd;stroke:#000000;stroke-width:1.92382896"
     inkscape:connector-curvature="0"
     sodipodi:nodetypes="ccccccc" />
  <path
     d="m 153.5611,299.31021 c 40.67611,-13.47106 59.64662,-63.92566 29.81747,-92.01426 0,-0.0955 0,-0.38216 0,-0.57324 -9.68479,6.30561 -47.45546,31.14587 -92.00549,2.00633 l -0.96848,1.71971 c 0,0 -9.68478,6.11453 -5.81087,20.92315 0,0 -9.68479,19.8722 11.62175,36.59161 0,0 13.5587,11.65582 15.49566,29.99939 l 31.23865,1.29314 c 3.77948,-0.0261 5.43388,-0.0462 10.61131,0.0542 z"
     id="path29129"
     style="fill:#ff0000;fill-rule:evenodd;stroke:#000000;stroke-width:1.01578164"
     inkscape:connector-curvature="0"
     sodipodi:nodetypes="cccccccccc" />
  <path
     d="m 96.21548,201.46804 c 0,0 6.95613,14.78917 36.97897,16.50888 0,0 34.4195,1.44739 47.00972,-16.89619 l 5.11136,5.35537 c 0,0 -11.62175,10.4138 -20.33806,13.66214 0,0 0,13.37552 -13.5587,33.43881 0,0 -16.13767,19.82999 -9.35831,43.23716 l -25.50693,0.0422 c 0,0 1.93696,-18.34358 -10.65326,-43.27938 0,0 -11.62175,-16.81494 -3.87392,-36.87823 0,0 -6.77935,-4.20374 -10.65327,-8.59855 z"
     id="path29135"
     style="fill:#feff00;fill-rule:evenodd;stroke:#000000;stroke-width:1.01578164"
     inkscape:connector-curvature="0"
     sodipodi:nodetypes="cccccccccccc" />
  <path
     d="m 153.35573,111.66095 c 0.96848,0.57323 4.84239,3.24834 4.84239,4.77697 0.96848,1.91079 0,4.01266 0.96848,6.01899 0,2.29294 0.96848,3.53496 1.93696,5.25467 2.90543,2.38848 3.87391,4.87251 3.87391,7.83423 0,0 1.93696,15.19078 5.81088,20.54099 0,0 2.90543,11.36919 2.90543,18.53465 -0.96848,7.06992 -0.96848,17.19711 9.68479,32.6745 0,0 12.59023,10.70042 10.65327,27.32429 0,0 0,11.65581 -10.65327,25.12688"
     id="path29141"
     style="fill:none"
     inkscape:connector-curvature="0"
     sodipodi:nodetypes="cccccccccc" />
  <path
     d="m 228.89707,297.9629 c 0,0 10.65327,-8.31193 8.71631,-41.75074 0,0 -5.81087,-43.0883 -21.30653,-55.60397"
     id="path29149"
     style="fill:none"
     inkscape:connector-curvature="0"
     sodipodi:nodetypes="ccc" />
  <line
     id="line29151"
     y2="183.31555"
     x2="200.81116"
     y1="200.60818"
     x1="216.30682"
     class="fil8"
     style="fill:none" />
  <path
     d="m 201.77967,183.31554 c 0,0 -12.59023,-18.72573 -16.46414,-28.94845"
     id="path29153"
     style="fill:none"
     inkscape:connector-curvature="0"
     sodipodi:nodetypes="cc" />
  <path
     d="m 173.69378,123.22122 c 0,0 -0.96848,-3.05726 -0.96848,-7.92977 0,0 -7.74783,-18.24804 -23.24349,-28.47077"
     id="path29157"
     style="fill:none"
     inkscape:connector-curvature="0"
     sodipodi:nodetypes="ccc" />
  <path
     d="m 110.74266,98.66758 c -0.96848,0.38216 -8.71631,3.34388 -8.71631,9.84056 -0.96848,13.08891 10.65327,-7.261 21.30653,-1.81525 6.77936,-3.1528 10.65327,1.14648 19.36958,0.38216 2.90544,0.38216 5.81087,4.29928 10.65327,3.34388 5.81087,5.44575 4.84239,4.1082 4.84239,10.79596 0.96848,1.71971 0.96848,2.96173 1.93696,4.1082 l 0.96848,1.52863 c 2.90543,2.10187 2.90543,4.29928 3.87391,7.54762 0,0.57324 1.93696,15.47739 5.81088,20.63652 0,0.57324 1.93695,10.22273 1.93695,17.10157 0,0.28662 0,0.76431 0,1.33755 0,1.24201 0,2.77064 0,4.49035 0,6.68777 0.96848,15.66848 10.65327,28.47077 l 0,0 0,0 c 0,0.19107 10.65327,9.36286 10.65327,23.78932 -4.8424,38.31133 -24.15144,35.89895 -25.11992,50.32541 -4.8424,12.32459 -15.26565,14.09802 -15.26565,18.30176 l 75.31133,0.0418 c 9.19467,-21.85683 9.68556,-22.76171 8.71631,-43.47045 0,-3.24835 -5.81087,-43.47046 -21.30653,-55.89059 l -14.58771,-17.65094 c -14.52718,-19.29897 -20.33806,-37.92916 -28.08589,-60.09432 -0.96848,-3.53496 -0.96848,-4.87251 -0.96848,-7.92978 C 167.05809,90.93335 120.42507,80.1962 110.74266,98.66754 Z"
     id="path29163"
     style="fill:#ffffff;fill-rule:evenodd;stroke:#000000;stroke-width:1.92382896"
     inkscape:connector-curvature="0"
     sodipodi:nodetypes="ccccccccccsssccccccccccccc" />
  <path
     d="m 196.93727,267.96351 c 4.8424,-8.21639 8.71631,-19.96775 7.74783,-31.62356 0,-13.37553 -12.59022,-20.25437 -19.36957,-27.70645 l 0,-0.28662 c 6.77935,7.16546 19.36957,14.61754 20.33805,27.99307 0,11.65581 -3.87391,23.40717 -8.71631,31.62356 z"
     id="path29169"
     style="fill:#000000;fill-rule:evenodd"
     inkscape:connector-curvature="0"
     sodipodi:nodetypes="cccccc" />
  <path
     d="m 118.49049,97.90326 c -1.93696,0.85986 -3.87391,1.43309 -7.74783,2.67511 l 0,-0.57324 c 3.87392,-1.05093 5.81087,-1.43309 7.74783,-2.10187 z"
     id="path29175"
     style="fill:#000000;fill-rule:evenodd"
     inkscape:connector-curvature="0"
     sodipodi:nodetypes="cccc" />
  <path
     d="m 170.78835,140.51386 c 0,-7.35653 -7.74783,-9.9361 -11.62175,-16.2417 l 0,-0.28662 c 5.81087,4.87251 11.62175,9.55394 11.62175,16.52832 z"
     id="path29187"
     style="fill:#000000;fill-rule:evenodd"
     inkscape:connector-curvature="0"
     sodipodi:nodetypes="cccc" />
  <path
     d="m 175.63074,161.9147 c 1.93696,4.68144 -1.93696,8.88517 -1.93696,13.37553 l -0.96848,-0.19108 c 0.96848,-4.49035 2.90544,-8.50301 2.90544,-13.18445 z"
     id="path29193"
     style="fill:#000000;fill-rule:evenodd"
     inkscape:connector-curvature="0"
     sodipodi:nodetypes="cccc" />
  <path
     d="m 221.14924,267.96351 c -2.90543,11.65582 -2.90543,21.3053 -8.7163,31.14587 l -0.96848,-1.14648 c 4.84239,-8.31193 6.77935,-18.34357 9.68478,-29.99939 z"
     id="path29199"
     style="fill:#000000;fill-rule:evenodd"
     inkscape:connector-curvature="0"
     sodipodi:nodetypes="cccc" />
  <path
     d="m 207.59054,190.67208 c -5.81087,-7.45207 -16.46414,-8.31193 -21.30653,-17.38818"
     id="path29203"
     style="fill:none"
     inkscape:connector-curvature="0"
     sodipodi:nodetypes="cc" />
  <path
     d="m 186.28401,173.2839 c 4.84239,9.36287 15.49566,9.36287 21.30653,17.10157 l 0,0.38215 c -5.81087,-7.54761 -16.46414,-8.02531 -21.30653,-17.48372 z"
     id="path29205"
     style="fill:#000000;fill-rule:evenodd"
     inkscape:connector-curvature="0"
     sodipodi:nodetypes="cccc" />
  <path
     d="m 72.00351,181.21368 c 0,0 -1.93696,4.29927 -1.93696,7.64315 0,0 3.87391,-0.85985 7.74783,-5.63682 z"
     id="path29221"
     style="fill:#33a02b;fill-rule:evenodd;stroke:#000000;stroke-width:0.24436073"
     inkscape:connector-curvature="0"
     sodipodi:nodetypes="cccc" />
  <path
     d="m 60.38176,202.51898 c 0,0 7.74783,-8.31194 1.93696,-17.29265 0,0 -8.71631,-7.83423 -14.52718,-0.76431 0,0 5.81087,-1.14648 6.77935,3.34388 0,0 -1.93696,-1.24201 -3.87392,0 0,0 6.77936,2.00633 6.77936,4.29928 0,0 -2.90544,-1.81525 -3.87392,-1.4331 0,0 5.81087,3.24835 5.81087,6.68777 0,0 -1.93695,4.96805 0.96848,5.15913 z"
     id="path29227"
     style="fill:#33a02b;fill-rule:evenodd;stroke:#000000;stroke-width:0.24436073"
     inkscape:connector-curvature="0"
     sodipodi:nodetypes="ccccccccc" />
  <path
     d="m 68.12959,197.07323 c 0,0 4.8424,-6.97438 9.68479,-2.19741 0,0 8.71631,-2.77064 2.90544,12.32459 0,0 -1.93696,-6.59222 -5.81088,-3.91712 0,0 -2.90543,-5.35021 -2.90543,-1.81525 0,0 -3.87392,-4.68143 -3.87392,-2.57956 0,0 -3.87391,-0.19108 0,-1.81525 z"
     id="path29233"
     style="fill:#33a02b;fill-rule:evenodd;stroke:#000000;stroke-width:0.24436073"
     inkscape:connector-curvature="0"
     sodipodi:nodetypes="ccccccc" />
  <path
     d="m 57.47633,206.4361 c 0,0 -0.96848,-6.59223 -9.68479,-12.61121 0,0 -1.93696,1.91079 0,5.35021 0,0 0,2.38848 -1.93696,2.10186 0,0 7.74783,7.64316 4.84239,11.8469 z"
     id="path29241"
     style="fill:#33a02b;fill-rule:evenodd;stroke:#000000;stroke-width:0.24436073"
     inkscape:connector-curvature="0"
     sodipodi:nodetypes="cccccc" />
  <path
     d="m 60.38176,206.62717 c 0,0 7.74783,-6.21006 12.59023,-1.24201 0,0 0,2.10187 1.93695,2.96172 0,0 -1.93695,2.67511 -0.96848,4.39482 0,0 -4.84239,1.62417 -5.81087,-0.76432 0,0 0,2.29295 -1.93696,3.43942 0,0 -1.93695,-1.81524 -6.77935,-0.19107 0,0 0.96848,-3.05727 -4.84239,-2.67511 z"
     id="path29247"
     style="fill:#33a02b;fill-rule:evenodd;stroke:#000000;stroke-width:0.24436073"
     inkscape:connector-curvature="0"
     sodipodi:nodetypes="ccccccccc" />
  <path
     d="m 32.29588,259.74712 c -4.8424,2.96172 0.96847,13.47106 -0.96848,25.03134 0,0 2.90543,-1.71971 6.77935,-8.50302 1.93696,0 7.74783,5.0636 10.65327,8.50302 3.87391,-6.21007 4.84239,-19.01236 7.74783,-15.19078 0,0 3.87391,4.96805 7.74783,3.43942 -0.96848,-6.3056 -9.68479,-12.22905 -9.68479,-20.06329 0,0 -0.96848,-4.96805 -5.81087,-4.96805 z"
     id="path29253"
     style="fill:#ffffff;fill-rule:evenodd;stroke:#000000;stroke-width:1.01578164"
     inkscape:connector-curvature="0"
     sodipodi:nodetypes="ccccccccc" />
  <path
     d="m 48.76002,214.27033 c 0,0 19.36957,-18.34358 21.30653,-26.17781 0,0 -9.68479,20.8276 -17.43262,26.46443 l -3.87391,4.96805 -0.96848,-4.39481 z"
     id="path29259"
     style="fill:#33a02b;fill-rule:evenodd;stroke:#000000;stroke-width:0.24436073"
     inkscape:connector-curvature="0"
     sodipodi:nodetypes="cccccc" />
  <path
     d="m 20.67413,205.4807 c 0,0 0,6.11453 0,7.83424 0,0 -3.87391,6.3056 1.93696,12.89782 0,0 3.87391,3.43943 4.84239,8.40748 0,0 0,6.7833 2.90544,8.40747 l 1.93696,19.96775 c 0,0 5.81087,6.59222 15.49566,0 0,0 5.81087,-5.06359 0.96848,-14.9997 l -0.96848,-3.34388 c 0,0 0,-1.62417 0.96848,-3.24834 0,0 4.84239,-1.81525 4.84239,-10.03164 0,0 0,-3.43943 0.96848,-5.15914 0,0 1.93696,-3.24834 1.93696,-4.96805 0,0 0.96848,-5.82791 0.96848,-7.06992 0,0 -4.8424,-0.57323 -6.77936,3.82158 0,0 -1.93695,-6.59222 -2.90543,-9.55395 0,0 -6.00457,-3.34388 -6.97305,0.9554 -2.03381,-0.4777 -7.0699,0.28662 -8.52261,3.05726 0,0 -3.87392,-1.33755 -5.81088,1.81525 0,0 0.96848,-4.20374 -2.90543,-9.64948 0,0 -2.90544,-2.86619 -2.90544,0.85985 z"
     id="path29265"
     style="fill:#fbddb9;fill-rule:evenodd;stroke:#000000;stroke-width:1.01578164"
     inkscape:connector-curvature="0"
     sodipodi:nodetypes="ccccccccccccccccccccc" />
  <path
     d="m 23.57957,216.08558 c 0.29796,1.99217 2.53048,4.04908 3.87391,5.15913 -2.51594,3.33081 0.4461,0.61332 3.69223,4.00061 l -3.08695,-4.00061 c -3.24055,-5.32561 -4.99153,-3.42855 -1.57376,-6.68776 l -0.96848,-0.38216 c 0,0 -1.93695,1.33755 -1.93695,1.91079 z"
     id="path29269"
     style="fill:#000000;fill-rule:evenodd"
     inkscape:connector-curvature="0"
     sodipodi:nodetypes="ccccccc" />
  <path
     d="m 48.76002,217.51867 c 1.93695,5.44575 -0.96848,8.69409 -0.96848,8.69409 0,3.43943 -1.93696,1.71971 -1.93696,1.71971 l 0,0 0,0 c -0.96848,1.71972 -0.96848,1.71972 -1.93696,1.71972 -0.96848,0 -0.96848,0 -0.96848,0 l -0.96848,0 0,0 c -2.90543,1.71971 -5.81087,-4.96806 -7.74783,-6.68777 l 0,0 0,0 c -1.93695,0 -2.90543,-1.71971 -5.81087,-3.43942 l 0,0 0,0 c 0,1.71971 -0.96848,1.71971 -0.96848,1.71971 l 0,0 0.96848,0 c 1.93696,0 3.68022,1.91079 5.61718,1.91079 0,1.71971 3.09913,6.49669 5.03609,6.49669 2.90543,0 2.90543,0 2.90543,0 0.96848,0 1.93696,1.71971 1.93696,1.71971 0.96848,-1.71971 1.93696,-1.71971 1.93696,-1.71971 0,0 1.93696,0 2.90544,-3.43943 0,0 1.93695,-3.24834 1.93695,-8.69409 z"
     id="path29271"
     style="fill:#000000;fill-rule:evenodd"
     inkscape:connector-curvature="0"
     sodipodi:nodetypes="cccccscccccccccccscscccccc" />
  <path
     d="m 32.29588,212.7417 c 0,0.28662 10.65326,8.50301 9.68478,16.91049 l 0.96848,0 C 43.91762,221.24471 34.23283,212.55062 32.29588,212.264 Z"
     id="path29273"
     style="fill:#000000;fill-rule:evenodd"
     inkscape:connector-curvature="0"
     sodipodi:nodetypes="scccs" />
  <path
     d="m 41.01219,210.16213 c 0,0 6.77935,7.83424 4.84239,17.77034 l 0,0 c 1.93696,-10.4138 -4.55185,-18.05695 -4.55185,-18.24803 z"
     id="path29275"
     style="fill:#000000;fill-rule:evenodd"
     inkscape:connector-curvature="0"
     sodipodi:nodetypes="ccccc" />
  <path
     d="m 38.10675,226.21276 0,0 c 0,0 0,-1.52863 0.96848,-1.52863 l 0,0 c -0.96848,0 -0.96848,1.52863 -0.96848,1.52863 z"
     id="path29277"
     style="fill:#000000;fill-rule:evenodd"
     inkscape:connector-curvature="0"
     sodipodi:nodetypes="ccccc" />
  <path
     d="m 42.94914,224.68413 0,0 c 0,0 0.96848,0 1.93696,0 l 0.87163,0.28662 c -0.96848,-1.71971 -2.80859,-0.28662 -2.80859,-0.28662 z"
     id="path29279"
     style="fill:#000000;fill-rule:evenodd"
     inkscape:connector-curvature="0"
     sodipodi:nodetypes="ccccc" />
  <path
     d="m 47.79154,222.96442 0,0 0,0 0,0 c 0,-1.71971 0,0 0,0 z"
     id="path29281"
     style="fill:#000000;fill-rule:evenodd"
     inkscape:connector-curvature="0"
     sodipodi:nodetypes="ccccc" />
  <path
     d="m 54.57089,221.24471 0.27237,-1.62417 c -0.96848,-1.62417 0.12106,-3.31402 0.12106,-3.31402 l -0.39343,-0.50756 c 0,0.19108 -0.96848,2.19741 0,5.44575 z"
     id="path29283"
     style="fill:#000000;fill-rule:evenodd"
     inkscape:connector-curvature="0"
     sodipodi:nodetypes="ccccc" />
  <path
     d="m 44.8861,247.99576 0.96848,0 c 0,0 1.93696,-1.71971 1.93696,-3.34388 l 0,0 c 0,0 -2.90544,1.62417 -2.90544,3.34388 z"
     id="path29285"
     style="fill:#000000;fill-rule:evenodd"
     inkscape:connector-curvature="0"
     sodipodi:nodetypes="ccccc" />
  <path
     d="m 41.98066,237.86858 c 0,0 0,3.53496 -2.90543,5.15913 l 0,0 c 3.87391,-1.62417 2.90543,-5.15913 2.90543,-5.15913 z"
     id="path29287"
     style="fill:#000000;fill-rule:evenodd;stroke:#000000;stroke-width:1.01578164"
     inkscape:connector-curvature="0"
     sodipodi:nodetypes="ccccc" />
  <polygon
     points="3920,12525 4082,12534 5038,10676 4939,10612 "
     transform="matrix(0.01472088,0,0,0.01605063,-34.14177,58.541)"
     id="polygon29291"
     style="fill:#33a02b;fill-rule:evenodd" />
  <path
     d="m 72.00351,173.57052 c 0,0 -7.74783,2.29295 -5.81088,-6.11453 l 1.93696,-4.87251 c 0,0 3.87392,-5.54129 6.77935,4.39482 0,0 -6.77935,-10.8915 4.8424,-9.07625 0,0 7.74783,1.52863 4.84239,10.03164 0,0 0,-11.84689 3.87392,-3.24834 l 2.90543,6.3056 c 0,0 0.96848,6.40115 -5.81087,3.34388 0,0 8.71631,2.19741 1.93696,6.87885 0,0 -5.81087,4.96805 -7.74783,-2.10187 0,0 4.84239,8.88517 -4.8424,4.39481 0,0 -0.96848,-1.14647 -2.90543,-1.24201 0,0 -8.71631,-4.68143 0,-8.69409 z"
     id="path29297"
     style="fill:#ff0000;fill-rule:evenodd;stroke:#800000;stroke-width:0.73308218"
     inkscape:connector-curvature="0"
     sodipodi:nodetypes="cccccccccccccc" />
  <path
     d="m 81.6883,172.32851 c 0,2.10186 -0.96848,3.91711 -2.90544,3.91711 -0.96848,0 -4.8424,-1.81525 -4.8424,-3.91711 0,-2.29295 3.87392,-4.01266 4.8424,-4.01266 1.93696,0 2.90544,1.71971 2.90544,4.01266 z"
     id="path29303"
     style="fill:#ffff00;fill-rule:evenodd;stroke:#800000;stroke-width:0.97744292"
     inkscape:connector-curvature="0"
     sodipodi:nodetypes="sssss" />
  <path
     d="m 101.9295,217.13652 7.31316,4.35819 c 0,0 -2.99892,33.3441 21.0261,34.68882 0,0 24.24349,0.15363 24.08697,-33.21911 l 13.72088,-3.34388 c -5.71403,21.49638 -21.11284,37.64255 -26.82687,56.6549 -1.93696,6.78331 -1.28041,15.9819 0.65654,22.57413 l -25.74014,-0.1689 c 0,0 1.25902,-22.5963 -8.23207,-40.93988 0,0 -13.84925,-23.02501 -6.00457,-40.60427 z"
     id="path29309"
     style="fill:#7e9eff;fill-rule:evenodd;stroke:#000000;stroke-width:1.92382896"
     inkscape:connector-curvature="0"
     sodipodi:nodetypes="cccccccccc" />
  <path
     d="m 84.59373,229.65219 c 0,0 0.96848,-6.68777 7.74783,-10.03165"
     id="path29329"
     style="fill:none"
     inkscape:connector-curvature="0"
     sodipodi:nodetypes="cc" />
  <path
     d="m 84.59373,229.65219 c 0,0 0.96848,-6.68777 7.74783,-10.03165"
     id="path29333"
     style="fill:none"
     inkscape:connector-curvature="0"
     sodipodi:nodetypes="cc" />
  <path
     d="m 96.21548,219.14284 c -5.81088,2.86619 -11.62175,10.98704 -12.59023,16.52833 l 0,0 c 0.96848,-8.12085 6.77935,-13.66214 12.59023,-16.52833 z"
     id="path29335"
     style="fill:#000000;fill-rule:evenodd"
     inkscape:connector-curvature="0"
     sodipodi:nodetypes="cccc" />
  <polygon
     points="14089,2616 14179,2738 13944,2980 13764,2694 "
     transform="matrix(0.01471482,-0.00414137,0.00462321,0.01598601,-50.91885,109.23994)"
     id="polygon29349"
     style="fill:#ffff00;fill-rule:evenodd;stroke:#000000;stroke-width:63.80179977" />
  <polygon
     points="14182,3476 14044,3167 14377,3137 14448,3271 "
     transform="matrix(0.01471482,-0.00414137,0.00462321,0.01598601,-51.38951,108.55346)"
     id="polygon29355"
     style="fill:#ffff00;fill-rule:evenodd;stroke:#000000;stroke-width:63.80179977" />
  <polygon
     points="13671,2562 13441,2314 13746,2178 13857,2282 "
     transform="matrix(0.01471482,-0.00414137,0.00462321,0.01598601,-52.70442,108.75075)"
     id="polygon29421"
     style="fill:#ffff00;fill-rule:evenodd;stroke:#000000;stroke-width:63.80179977" />
  <path
     style="fill:#ffff00;fill-rule:evenodd;stroke:#000000;stroke-width:2.03165936"
     d="m 128.93594,80.96066 -5.37245,9.13809 c 6.22565,3.99547 28.04521,9.44543 47.05752,22.49902 0.0532,0.18375 -1.34867,-3.61632 5.75647,-6.90758 C 162.75971,94.29863 142.92886,84.40101 128.93594,80.96066 Z"
     id="path29427"
     inkscape:connector-curvature="0"
     sodipodi:nodetypes="ccccc" />
  <path
     d="m 178.01338,101.30702 c -5.80047,0.83768 -6.59622,-5.39621 -1.83335,-6.33928 4.78945,-0.85119 6.38366,4.66122 1.83335,6.33928 z"
     id="path29505"
     style="fill:#ffff00;fill-rule:evenodd;stroke:#000000;stroke-width:1.01578164"
     inkscape:connector-curvature="0"
     sodipodi:nodetypes="ccc" />
  <path
     d="m 173.17334,91.05373 c 1.35509,4.68556 -6.25488,6.23122 -7.29112,2.64815 -1.35508,-4.68555 6.49402,-5.40436 7.29112,-2.64815 z"
     id="path29511"
     style="fill:#ffff00;fill-rule:evenodd;stroke:#000000;stroke-width:1.01578164"
     inkscape:connector-curvature="0"
     sodipodi:nodetypes="ccc" />
  <path
     d="m 158.08061,87.29505 c 1.6791,4.59368 7.56323,2.26642 6.39906,-1.31056 -1.45644,-3.67985 -8.31041,-2.88011 -6.39906,1.31056 z"
     id="path29517"
     style="fill:#ffff00;fill-rule:evenodd;stroke:#000000;stroke-width:1.14197409"
     inkscape:connector-curvature="0"
     sodipodi:nodetypes="ccc" />
  <path
     d="m 111.71114,129.62237 c 0,4.01265 5.81087,2.48402 5.81087,0 0,-3.43943 -5.81087,-2.77065 -5.81087,0 z"
     id="path261-8-5"
     style="fill:#000000;fill-rule:evenodd"
     inkscape:connector-curvature="0"
     sodipodi:nodetypes="sss" />
  <path
     d="m 132.04919,129.52683 c 0,4.10819 5.81088,3.1528 5.81088,0.0955 0,-2.67511 -6.77936,-3.34389 -5.81088,-0.0955 z"
     id="path263-8-1"
     style="fill:#000000;fill-rule:evenodd"
     inkscape:connector-curvature="0"
     sodipodi:nodetypes="csc" />
  <path
     d="m 129.14376,130.1956 c 4.84239,5.25467 9.68479,1.71971 12.59022,-0.0955 -5.81087,-2.86618 -9.68479,-3.53496 -12.59022,0.0955 z"
     id="path16112-1-1-2-7"
     style="fill:none;stroke:#000000;stroke-width:0.91814739"
     inkscape:connector-curvature="0"
     sodipodi:nodetypes="ccc" />
  <path
     d="m 120.42745,130.10006 c -5.81087,4.87252 -10.65327,1.62417 -10.65327,0.19108 0,-3.24834 5.81087,-4.20373 10.65327,-0.19108 z"
     id="path16112-1-1-4-4-1"
     style="fill:none;stroke:#000000;stroke-width:0.87986314"
     inkscape:connector-curvature="0"
     sodipodi:nodetypes="csc" />
  <circle
     style="fill:#ff0000;fill-rule:evenodd;stroke:#000000;stroke-width:1.08909202;stroke-linecap:butt;stroke-linejoin:miter;stroke-miterlimit:0;stroke-dasharray:none;stroke-dashoffset:0"
     id="path7330"
     cx="100.2793"
     cy="206.599"
     r="4.6318283" />
  <path
     inkscape:connector-curvature="0"
     d="m 152.70593,93.92063 c 1.22222,4.22619 -5.40329,5.69348 -6.2801,2.66165 -0.37062,-4.76392 5.42985,-5.60161 6.2801,-2.66165 z"
     id="path433-0-8-4-1-7"
     style="fill:#1c008f;fill-rule:evenodd"
     sodipodi:nodetypes="scs" />
  <path
     inkscape:connector-curvature="0"
     d="m 147.19772,95.76893 c 1.49066,-1.81046 6.33324,-2.4779 2.31433,1.03763 0.37198,1.28622 -2.95337,0.23509 -2.31433,-1.03763 z"
     id="path437-9-8-5-7-6"
     style="fill:#3300da;fill-rule:evenodd"
     sodipodi:nodetypes="ccc" />
  <path
     inkscape:connector-curvature="0"
     d="m 147.72913,97.6064 c -1.01104,-0.0135 -0.95653,-3.30745 0.87954,-3.92355 -0.0265,-0.0919 -0.79984,4.19916 -0.87954,3.92355 z"
     id="path439-4-2-5-1-3"
     style="fill:#ffffff;fill-rule:evenodd"
     sodipodi:nodetypes="ccc" />
  <path
     inkscape:connector-curvature="0"
     d="m 162.26187,98.5955 c 1.22223,4.22619 -4.47196,5.43137 -5.34878,2.39954 -0.3972,-4.85579 4.47196,-5.43137 5.34878,-2.39954 z"
     id="path433-0-8-4-1-6"
     style="fill:#1c008f;fill-rule:evenodd"
     sodipodi:nodetypes="scs" />
  <path
     inkscape:connector-curvature="0"
     d="m 157.68498,100.18169 c 2.42197,-2.07257 6.33324,-2.4779 3.24566,0.77551 0.37198,1.28624 -3.8847,0.49721 -3.24566,-0.77551 z"
     id="path437-9-8-5-7-1"
     style="fill:#3300da;fill-rule:evenodd"
     sodipodi:nodetypes="ccc" />
  <path
     inkscape:connector-curvature="0"
     d="m 158.21639,102.01916 c -1.01103,-0.0135 -0.95653,-3.30745 1.81086,-4.18566 -0.0265,-0.0919 -1.73115,4.46128 -1.81086,4.18566 z"
     id="path439-4-2-5-1-5"
     style="fill:#ffffff;fill-rule:evenodd"
     sodipodi:nodetypes="ccc" />
  <path
     inkscape:connector-curvature="0"
     d="m 169.32156,103.56679 c 1.22222,4.22619 -3.54066,5.16925 -4.41747,2.13742 -1.30193,-4.5018 3.56722,-5.07738 4.41747,-2.13742 z"
     id="path433-0-8-4-1-4"
     style="fill:#1c008f;fill-rule:evenodd"
     sodipodi:nodetypes="sss" />
  <path
     inkscape:connector-curvature="0"
     d="m 164.74467,105.15297 c 2.42197,-2.07257 6.33324,-2.47789 3.24564,0.77552 0.37199,1.28623 -2.95337,0.2351 -3.24564,-0.77552 z"
     id="path437-9-8-5-7-2"
     style="fill:#3300da;fill-rule:evenodd"
     sodipodi:nodetypes="ccc" />
  <path
     inkscape:connector-curvature="0"
     d="m 165.27607,106.99044 c -0.0797,-0.27561 -0.95652,-3.30744 1.81087,-4.18566 -0.0265,-0.0919 -1.73116,4.46128 -1.81087,4.18566 z"
     id="path439-4-2-5-1-0"
     style="fill:#ffffff;fill-rule:evenodd"
     sodipodi:nodetypes="scs" />
  <g
     id="g5595" />
  <path
     d="m 46.33882,225.06629 0,0 c 0,0 0.58109,0.19108 1.25902,0.38216 l 0.38739,0.38216 c -0.19369,-1.24202 -1.64641,-0.76432 -1.64641,-0.76432 z"
     id="path29279-5"
     style="fill:#000000;fill-rule:evenodd"
     inkscape:connector-curvature="0"
     sodipodi:nodetypes="ccccc" />
  <polygon
     points="14089,2616 14179,2738 13944,2980 13764,2694 "
     transform="matrix(0.01229829,-0.00898205,0.0100271,0.01336072,-57.45818,170.90778)"
     id="polygon29349-8"
     style="fill:#ffff00;fill-rule:evenodd;stroke:#000000;stroke-width:63.80179977" />
  <polygon
     points="14044,3167 14377,3137 14448,3271 14182,3476 "
     transform="matrix(0.01147599,-0.0099851,0.01114685,0.01246737,-49.40007,186.95639)"
     id="polygon29355-6"
     style="fill:#ffff00;fill-rule:evenodd;stroke:#000000;stroke-width:63.80179977" />
  <polygon
     points="13441,2314 13746,2178 13857,2282 13671,2562 "
     transform="matrix(0.01316675,-0.00769125,0.00858613,0.0143042,-66.40824,151.26721)"
     id="polygon29421-5"
     style="fill:#ffff00;fill-rule:evenodd;stroke:#000000;stroke-width:63.80179977" />
  <path
     d="m 154.55155,84.32811 c -5.19106,2.68707 -7.77972,-2.42751 -3.60301,-4.87471 3.51063,-0.9447 7.33218,1.8036 3.60301,4.87471 z"
     id="path29505-0"
     style="fill:#ffff00;fill-rule:evenodd;stroke:#000000;stroke-width:1.01578164"
     inkscape:connector-curvature="0"
     sodipodi:nodetypes="ccc" />
  <path
     d="m 145.4461,76.4156 c 3.64381,3.28945 -1.58744,7.44324 -4.37388,4.92778 -3.49122,-3.28944 0.71367,-6.09494 4.37388,-4.92778 z"
     id="path29511-2"
     style="fill:#ffff00;fill-rule:evenodd;stroke:#000000;stroke-width:1.01578164"
     inkscape:connector-curvature="0"
     sodipodi:nodetypes="ccc" />
  <path
     d="m 132.18811,78.98857 c 3.87092,3.04364 7.64514,-1.98106 4.75299,-4.42516 -3.19571,-2.38058 -8.60753,1.84483 -4.75299,4.42516 z"
     id="path29517-8"
     style="fill:#ffff00;fill-rule:evenodd;stroke:#000000;stroke-width:1.14197409"
     inkscape:connector-curvature="0"
     sodipodi:nodetypes="ccc" />
  <path
     inkscape:connector-curvature="0"
     d="m 134.22871,85.19651 c 2.5732,3.58759 -2.39409,6.58663 -4.24009,4.01293 -2.00637,-4.45139 2.39409,-6.58663 4.24009,-4.01293 z"
     id="path433-0-8-4-1-6-4"
     style="fill:#1c008f;fill-rule:evenodd"
     sodipodi:nodetypes="scs" />
  <path
     inkscape:connector-curvature="0"
     d="m 130.44357,88.18966 c 1.58863,-2.74738 5.14257,-4.40878 3.32275,-0.32966 0.78315,1.09187 -3.498,1.73938 -3.32275,0.32966 z"
     id="path437-9-8-5-7-1-8"
     style="fill:#3300da;fill-rule:evenodd"
     sodipodi:nodetypes="ccc" />
  <path
     inkscape:connector-curvature="0"
     d="m 131.56236,89.74948 c -0.9584,0.31788 -2.01382,-2.80768 0.30202,-4.54118 -0.0559,-0.0781 -0.1342,4.77514 -0.30202,4.54118 z"
     id="path439-4-2-5-1-5-6"
     style="fill:#ffffff;fill-rule:evenodd"
     sodipodi:nodetypes="ccc" />
  <path
     inkscape:connector-curvature="0"
     d="m 142.88055,88.98858 c 2.57319,3.58759 -1.60352,6.03479 -3.4495,3.46109 -2.74101,-3.82155 1.65945,-5.9568 3.4495,-3.46109 z"
     id="path433-0-8-4-1-4-5"
     style="fill:#1c008f;fill-rule:evenodd"
     sodipodi:nodetypes="sss" />
  <path
     inkscape:connector-curvature="0"
     d="m 139.09541,91.98172 c 1.58862,-2.74737 5.14256,-4.40877 3.32273,-0.32964 0.78316,1.09186 -2.7074,1.18755 -3.32273,0.32964 z"
     id="path437-9-8-5-7-2-0"
     style="fill:#3300da;fill-rule:evenodd"
     sodipodi:nodetypes="ccc" />
  <path
     inkscape:connector-curvature="0"
     d="m 140.2142,93.54154 c -0.16782,-0.23396 -2.01381,-2.80766 0.30202,-4.54117 -0.0559,-0.0781 -0.13422,4.77515 -0.30202,4.54117 z"
     id="path439-4-2-5-1-0-9"
     style="fill:#ffffff;fill-rule:evenodd"
     sodipodi:nodetypes="scs" />
  <g
     id="g5555-9-4"
     transform="matrix(0.07674779,0,0,0.07014256,76.53612,251.17232)">
    <path
       style="fill:#b00303;stroke:#000000;stroke-width:58.28229904"
       d="m 545.1,-248 c -8.2074,-63.3476 26.57031,-100.55608 73.9,-106.5 37.49589,-3.04348 66.39888,24.44231 93.5,45.7 39.73554,-35.43115 99.3434,-61.45988 134.57227,-39.81938 C 969.77357,-224.98761 769.16736,-71.113889 706.2,-20.208108 650.53491,-84.692808 563.91401,-153.29997 545.1,-248 Z"
       id="path5557-0-4"
       inkscape:connector-curvature="0"
       sodipodi:nodetypes="cccccc" />
    <path
       style="fill:#faa5a6"
       d="m 593.3,-333.6 c 39.52679,-22.64419 84.08034,-5.02199 113.35693,25.96417 30.87563,-11.23062 54.9598,-36.59502 82.34307,-37.26417 163.30226,11.02029 -4.09438,238.61015 -86.21578,311.701898 C 593.53901,-152.07985 488.04155,-264.79797 593.3,-333.6 Z"
       id="path5569-5-6"
       inkscape:connector-curvature="0"
       sodipodi:nodetypes="ccccc" />
    <path
       style="fill:#e20405"
       d="m 592.3,-349.1 c 51.66732,-8.87059 75.2751,-2.84164 119.3,39.1 59.9453,-61.24802 128.61222,-59.43901 154.53351,-25.07193 47.90535,63.51407 -0.11347,235.186481 -165.76271,304.072355 C 646.47168,-78.738976 451.09824,-279.59706 592.3,-349.1 Z m 93.8,230.1 c -32.67466,-48.04299 -131.82485,-163.66206 -15.7,-170.6 6.3,0 16.68262,-0.44186 16.9342,-4.09019 C 690.89485,-345.3258 595.87167,-345.92206 577.9,-319.8 521.18819,-237.36861 735.33402,8.4494719 686.1,-119 Z m 157.10004,-134.8 c 13.46138,-29.15913 -0.13879,-52.75543 -19.88587,-71.63006 C 769.11851,-367.14602 689.38794,-276.21405 692.1,-223.8 c 2.3,6.1 8.5,8.1 13.9,4.4 86.26146,-129.95585 119.50074,-28.62992 137.20004,-34.4 z"
       id="path5561-2-1"
       inkscape:connector-curvature="0"
       sodipodi:nodetypes="ccsccccsscccccc" />
  </g>
  <circle
     style="opacity:1;fill:#ffffff;fill-opacity:1;stroke:#000000;stroke-width:1.5;stroke-miterlimit:4;stroke-dasharray:none;stroke-opacity:1"
     id="path8324"
     cx="110.1544"
     cy="194.90625"
     r="6.805903" />
  <circle
     r="6.805903"
     cy="200.90625"
     cx="120.1544"
     id="circle8326"
     style="opacity:1;fill:#ffffff;fill-opacity:1;stroke:#000000;stroke-width:1.5;stroke-miterlimit:4;stroke-dasharray:none;stroke-opacity:1" />
  <circle
     r="6.805903"
     cy="196.90625"
     cx="156.1544"
     id="circle8334"
     style="opacity:1;fill:#ffffff;fill-opacity:1;stroke:#000000;stroke-width:1.5;stroke-miterlimit:4;stroke-dasharray:none;stroke-opacity:1" />
  <circle
     style="opacity:1;fill:#ffffff;fill-opacity:1;stroke:#000000;stroke-width:1.5;stroke-miterlimit:4;stroke-dasharray:none;stroke-opacity:1"
     id="circle8332"
     cx="144.1544"
     cy="200.90625"
     r="6.805903" />
  <circle
     r="6.805903"
     cy="202.90625"
     cx="132.1544"
     id="circle8330"
     style="opacity:1;fill:#ffffff;fill-opacity:1;stroke:#000000;stroke-width:1.5;stroke-miterlimit:4;stroke-dasharray:none;stroke-opacity:1" />
  <circle
     r="4.6318283"
     cy="212.599"
     cx="110.2793"
     id="circle8338"
     style="fill:#ff0000;fill-rule:evenodd;stroke:#000000;stroke-width:1.08909202;stroke-linecap:butt;stroke-linejoin:miter;stroke-miterlimit:0;stroke-dasharray:none;stroke-dashoffset:0" />
  <circle
     style="fill:#ff0000;fill-rule:evenodd;stroke:#000000;stroke-width:1.08909202;stroke-linecap:butt;stroke-linejoin:miter;stroke-miterlimit:0;stroke-dasharray:none;stroke-dashoffset:0"
     id="circle8340"
     cx="122.2793"
     cy="216.599"
     r="4.6318283" />
  <circle
     r="4.6318283"
     cy="218.24544"
     cx="135.04187"
     id="circle8342"
     style="fill:#ff0000;fill-rule:evenodd;stroke:#000000;stroke-width:1.08909202;stroke-linecap:butt;stroke-linejoin:miter;stroke-miterlimit:0;stroke-dasharray:none;stroke-dashoffset:0" />
  <circle
     style="fill:#ff0000;fill-rule:evenodd;stroke:#000000;stroke-width:1.08909202;stroke-linecap:butt;stroke-linejoin:miter;stroke-miterlimit:0;stroke-dasharray:none;stroke-dashoffset:0"
     id="circle8344"
     cx="147.98122"
     cy="217.36156"
     r="4.6318283" />
  <circle
     r="4.6318283"
     cy="213.89189"
     cx="160.8651"
     id="circle8346"
     style="fill:#ff0000;fill-rule:evenodd;stroke:#000000;stroke-width:1.08909202;stroke-linecap:butt;stroke-linejoin:miter;stroke-miterlimit:0;stroke-dasharray:none;stroke-dashoffset:0" />
  <circle
     style="fill:#ff0000;fill-rule:evenodd;stroke:#000000;stroke-width:1.08909202;stroke-linecap:butt;stroke-linejoin:miter;stroke-miterlimit:0;stroke-dasharray:none;stroke-dashoffset:0"
     id="circle8348"
     cx="172.35558"
     cy="208.05826"
     r="4.6318283" />
</svg>
