<?xml version="1.0" encoding="UTF-8" standalone="no"?>
<!-- Created with Inkscape (http://www.inkscape.org/) -->

<svg
   xmlns:dc="http://purl.org/dc/elements/1.1/"
   xmlns:cc="http://creativecommons.org/ns#"
   xmlns:rdf="http://www.w3.org/1999/02/22-rdf-syntax-ns#"
   xmlns:svg="http://www.w3.org/2000/svg"
   xmlns="http://www.w3.org/2000/svg"
   xmlns:sodipodi="http://sodipodi.sourceforge.net/DTD/sodipodi-0.dtd"
   xmlns:inkscape="http://www.inkscape.org/namespaces/inkscape"
   version="1.1"
   width="250"
   height="300"
   viewBox="0 0 250 300"
   id="cards"
   inkscape:version="0.91 r13725"
   sodipodi:docname="face_HJ.svg">
  <sodipodi:namedview
     pagecolor="#ffffff"
     bordercolor="#666666"
     
     objecttolerance="10"
     gridtolerance="10"
     guidetolerance="10"
     inkscape:pageopacity="0"
     inkscape:pageshadow="2"
     inkscape:window-width="1920"
     inkscape:window-height="978"
     id="namedview6787"
     showgrid="false"
     inkscape:zoom="1"
     inkscape:cx="153.73927"
     inkscape:cy="55.36178"
     inkscape:window-x="0"
     inkscape:window-y="1"
     inkscape:window-maximized="1"
     inkscape:current-layer="cards"
     showguides="true"
     inkscape:guide-bbox="true" />
  <defs
     id="defs2680" />
  <metadata
     id="metadata97">
    <rdf:RDF>
      <cc:Work
         rdf:about="">
        <dc:format>image/svg+xml</dc:format>
        <dc:type
           rdf:resource="http://purl.org/dc/dcmitype/StillImage" />
        <dc:title />
      </cc:Work>
    </rdf:RDF>
  </metadata>
  <path
     d="m 235.5884,138.35963 c 0,0 0.93583,-4.2423 -2.80747,-9.33306 0.10512,-0.035 -1.33162,7.96353 -7.48659,7.25905 l 0,16.5921 c 0,0 6.55077,-1.50837 7.48659,6.69341 0,0 2.80747,-1.7912 2.80747,-9.05024 0,0 1.87165,-1.69692 3.7433,-5.75067 0,0 -1.87165,-4.14803 -3.7433,-6.41059 z m -19.09147,-18.6703 -4.30412,-17.24783 c -32.89577,17.337 -22.65458,70.65596 -2.80747,82.48915 l 7.48659,-16.02647 c -8.62704,-6.5964 -5.27917,-19.44256 4.65767,-16.61406 0,-4.71366 0.89645,-9.02777 0.89645,-15.6269 -12.15331,0.50775 -13.10638,-11.38336 -5.92912,-16.97389 z"
     id="path22180"
     style="fill:#ffff00;fill-rule:evenodd;stroke:#000000;stroke-width:3"
     inkscape:connector-curvature="0"
     sodipodi:nodetypes="ccccccccccccccc" />
  <path
     d="m 229.59511,125.21654 c 0,0 -2.98659,-16.27579 -4.42577,-30.88815 -3.08876,12.12193 -3.27703,23.22264 -7.11159,31.16678 2.80747,-0.0943 4.86494,-2.32192 5.80077,-2.88755 0.93582,0.65991 2.92912,2.13755 5.73659,2.60892 z"
     id="path22188"
     style="fill:#ffff00;fill-rule:evenodd;stroke:#000000;stroke-width:2"
     inkscape:connector-curvature="0"
     sodipodi:nodetypes="ccccc" />
  <path
     d="m 225.29434,201.3342 c 0,-6.22204 0.0451,-81.52249 -0.89071,-89.2529 -2.52111,28.48983 -4.26007,59.49771 -4.72423,89.06435 z"
     id="path22194"
     style="fill:#ffff00;fill-rule:evenodd;stroke:#000000;stroke-width:1.5"
     inkscape:connector-curvature="0"
     sodipodi:nodetypes="cccc" />
  <path
     d="m 118.61043,117.33668 c 0,0 -2.80748,6.22204 -0.93583,10.08725 0,0 -1.87165,4.2423 -1.87165,5.84494 0,0 0,1.88547 1.87165,2.73393 0,0 -1.87165,3.29956 -1.87165,4.05375 0,0 0,19.4203 1.87165,21.96568 2.80747,65.42568 58.02108,35.63531 42.11207,-15.178 0,0 -6.55076,-13.10399 -6.55076,-26.4908 0,0 -13.10154,-9.14451 -34.62548,-3.01675 z"
     id="path22206"
     style="fill:#fbddb9;fill-rule:evenodd;stroke:#000000;stroke-width:0.99393773"
     inkscape:connector-curvature="0"
     sodipodi:nodetypes="ccccccccc" />
  <path
     d="m 149.27386,139.34336 c -0.0898,-0.10537 -7.49611,-4.3589 -12.88278,-2.08493 l 0,2e-5 0,0.11256 0,0.22506 c 0,0 -0.93583,3.8261 3.74329,4.95142 3.63758,0.26059 7.16787,0.42282 8.76449,-2.17585"
     id="path22210"
     style="fill:none;stroke:#000000;stroke-width:0.75"
     inkscape:connector-curvature="0"
     sodipodi:nodetypes="ccccccc" />
  <path
     d="m 136.57355,133.23919 c -0.11105,0.90683 -0.17863,1.44214 -0.18247,2.29433 3.72882,-2.94859 9.69723,0.13268 13.41089,2.20948 0.78287,-2.04905 -11.41957,-4.77259 -13.22842,-4.50381 z"
     id="path22212"
     style="fill:#000000;fill-rule:evenodd"
     inkscape:connector-curvature="0"
     sodipodi:nodetypes="cccc" />
  <path
     d="m 117.6746,133.45742 0,0.56564 c 0,0 5.61494,-0.47137 6.55077,1.13128 l 1.87165,-0.56564 c -2.80748,-1.79119 -8.42242,-1.4141 -8.42242,-1.13128 z"
     id="path22216"
     style="fill:#000000;fill-rule:evenodd"
     inkscape:connector-curvature="0" />
  <path
     d="m 117.6746,135.90852 0,0.56564 c 0,0 2.80747,-0.75418 6.55077,0.56564 l 1.87165,-0.75418 c -5.61495,-1.4141 -8.42242,-0.3771 -8.42242,-0.3771 z"
     id="path22218"
     style="fill:#000000;fill-rule:evenodd"
     inkscape:connector-curvature="0" />
  <path
     d="m 117.6746,140.81074 c 0,0.0943 2.80747,1.79119 6.55077,1.22555 l 0,-0.65991 c -3.7433,0.56564 -6.55077,-1.31983 -6.55077,-1.31983 l 0,0.75419 z"
     id="path22220"
     style="fill:#000000;fill-rule:evenodd"
     inkscape:connector-curvature="0" />
  <path
     d="m 118.61043,136.28562 c 0,0 0,3.77093 0.93582,3.8652 3.74329,0.47137 3.74329,-1.69692 3.74329,-3.8652 0,0 -3.74329,-0.56564 -4.67911,0 z"
     id="path22222"
     style="fill:#000000;fill-rule:evenodd"
     inkscape:connector-curvature="0" />
  <path
     d="m 117.6746,127.70675 0,0.56564 c 7.02798,1.13675 10.26308,-0.0239 6.55077,13.19826 0,0.28282 -0.93583,3.77093 -0.93583,5.75067 0,0.84846 0,2.73393 0,3.58239 l 0,0 c 0,0 0,0.28282 0,0.56564 0,0.75418 0,3.77093 0.93583,4.33657 0,0 2.80747,0.75419 3.74329,-0.37709 1.87165,-0.18855 1.87165,-0.18855 1.87165,0.28282 0.82387,0.36448 2.50102,0.14081 2.80747,0.0943 1.94959,-1.48534 1.61814,-2.9425 1.54353,-3.34484 0,1.60265 -1.54353,2.49641 -1.54353,2.68496 -1.44354,-0.66337 -3.66518,-0.76652 -4.67912,-0.3771 -0.93582,0.94274 -3.74329,0.47137 -3.74329,0.47137 0,-0.47137 -0.60437,-2.45111 -0.60437,-3.48811 0.36786,-5.23313 1.95806,-15.00882 3.49249,-19.49706 -2.40198,-5.8124 -9.43889,-4.44838 -9.43889,-4.44838 z"
     id="path22224"
     style="fill:#000000;fill-rule:evenodd"
     inkscape:connector-curvature="0"
     sodipodi:nodetypes="cccsccscccccccccccc" />
  <path
     d="m 134.51943,128.83803 c 0,0 10.27857,-1.72623 16.82934,4.40154 -0.16565,0.53009 -11.61619,-7.16958 -16.82934,-1.57334 0,0 0,-2.54538 0,-2.8282 z"
     id="path22226"
     style="fill:#000000;fill-rule:evenodd"
     inkscape:connector-curvature="0"
     sodipodi:nodetypes="cccc" />
  <path
     d="m 127.03284,162.21078 0,0.65991 c 0,0.18855 0,0.65991 2.80747,0.18855 l 0,-0.84846 c -2.80747,0.37709 -2.80747,0.0943 -2.80747,0 z"
     id="path22230"
     style="fill:#000000;fill-rule:evenodd"
     inkscape:connector-curvature="0" />
  <path
     d="m 132.64778,158.34557 c 0,0 -4.67912,1.13128 -2.80747,2.8282 0,0 0.93582,4.90221 5.61494,4.90221 0,0 7.48659,-0.18854 10.29407,-2.26256 0,0 -5.61495,1.13128 -6.55077,-1.037 0,0 -3.7433,-4.43085 -6.55077,-4.43085 z"
     id="path22232"
     style="fill:#000000;fill-rule:evenodd"
     inkscape:connector-curvature="0" />
  <path
     d="m 123.28954,157.87421 c 0,0 3.7433,-0.65992 3.7433,4.05375 0,0 -2.80747,4.90221 -8.42241,3.67666 0,0 -4.67912,-2.73393 -0.93583,-2.54538 0,0 1.87165,0.75418 2.80747,-2.26256 0,0 2.80747,-2.73393 2.80747,-2.92247 z"
     id="path22234"
     style="fill:#000000;fill-rule:evenodd"
     inkscape:connector-curvature="0" />
  <path
     d="m 192.54051,177.76587 c 0,0 -2.80747,-2.73392 -2.80747,-2.73392 0,0 -0.93583,-0.65992 -2.80748,-2.92247 0,0 1.87165,-7.91896 -4.67912,-11.02998 0,0 -4.67911,-5.75067 -4.67911,-13.95245 0,0 -1.87165,-6.59913 -2.80748,-7.54187 0,0 0,-1.4141 0.93583,-1.69692 0,0 -13.10154,-15.64937 -22.45977,-17.53483 0,13.38681 6.55076,26.4908 6.55076,26.4908 -0.93582,6.31631 1.87165,22.81414 1.87165,24.69961 0.93582,0.0943 2.80747,1.037 0.93582,2.16828 0,0 2.80748,17.91193 26.20307,15.64937 0,0 8.42242,-3.29956 3.7433,-11.68989 z"
     id="path22240"
     style="fill:#000000;fill-rule:evenodd;stroke:#000000;stroke-width:0.99393773"
     inkscape:connector-curvature="0" />
  <path
     d="m 126.09702,180.87689 0,0.56564 c 0,0 10.29406,10.18152 28.07471,-10.9357 l -0.93582,-0.56564 c -16.84483,20.74013 -27.13889,11.12425 -27.13889,10.9357 z"
     id="path22244"
     style="fill:#000000;fill-rule:evenodd"
     inkscape:connector-curvature="0" />
  <path
     d="m 119.54625,279.20395 0,0 c 8.42241,-8.20177 16.84483,-18.10047 24.33142,-27.9049 -7.48659,9.80443 -15.90901,19.70313 -24.33142,27.9049 z m 38.36878,-71.74198 c 0,-0.3771 0,-1.03701 -1.87165,-1.4141 0,0.37709 0,1.037 -1.87165,1.13128 0,0.18854 0,0 0,-0.0943 -4.67912,-12.25553 -17.78065,-10.27579 -17.78065,-10.27579 -18.71648,1.03701 -17.78065,7.82469 -17.78065,7.82469 -0.93583,-0.56564 -0.93583,-0.84846 -0.93583,-1.50838 l -6.55077,56.37544 16.84483,-14.61236 c 4.67912,-3.29957 11.22989,0 11.22989,0 l 7.48659,3.11102 c 2.80747,-4.90221 7.48659,-9.71015 11.22989,-14.61236 l 0,-25.92516 z m -11.22989,40.53752 0,0 c -0.93582,0 -0.93582,1.79119 -2.80747,3.29956 1.87165,-1.50837 1.87165,-3.29956 2.80747,-3.29956 z"
     id="path22420"
     style="fill:#ffffff;fill-rule:evenodd"
     inkscape:connector-curvature="0" />
  <path
     d="m 154.17173,207.17915 c 3.7433,-1.88547 12.16571,-10.37007 15.90901,-22.15423 -5.61495,-4.71367 -7.4866,-11.3128 -7.4866,-11.3128 1.87165,-1.13128 0,-2.07401 -0.93582,-2.16828 0,0 0,0 0,0 -1.87165,0.37709 -12.16571,14.70663 -12.16571,14.70663 -5.61494,11.59562 -9.35824,10.46434 -9.35824,10.46434 -13.10153,-0.18855 -14.03735,-15.5551 -14.03735,-15.5551 -1.87165,-0.28282 -1.87165,-0.84846 -2.80748,-1.69692 0,0 0,0.28282 0,0.28282 0,0 0,0 0,0 -2.80747,7.0705 -5.61494,5.46786 -7.48659,4.99649 -1.87164,4.80794 -3.74329,11.50134 2.80748,19.89167 0,0 -0.93583,-6.78768 17.78065,-7.82469 0,0 13.10153,-1.97974 17.78065,10.27579 0,0.0943 0,0.28282 0,0.0943 z"
     id="path22266"
     style="fill:#ffffff;fill-rule:evenodd;stroke:#000000;stroke-width:2"
     inkscape:connector-curvature="0" />
  <path
     d="m 117.6746,162.02223 c -1.87165,-2.54538 -1.87165,-21.96568 -1.87165,-21.96568 0,-0.75419 1.87165,-4.05375 1.87165,-4.05375 -1.87165,-0.84846 -1.87165,-2.73393 -1.87165,-2.73393 0,-1.50837 1.87165,-5.84494 1.87165,-5.84494 -1.87165,-3.01675 0,-7.63614 0,-9.33306 l 0,0 c 0,0 -3.74329,8.76742 -5.61494,9.71015 0,0 -3.7433,6.78768 -2.80747,10.55861 0,0 0,9.8987 -0.93583,12.16126 0,0 -3.74329,1.88546 -0.93582,6.88195 0,0 0,5.37358 -3.7433,6.78768 0,0 -1.87164,1.13128 -0.93582,3.58238 0,0 1.87165,4.33658 -0.93582,3.2053 0,0 -4.67912,-1.03701 -4.67912,3.11101 0,0 1.87164,5.18504 -0.93583,5.93922 0,0 -7.48659,5.18504 0,11.02998 0,0 0.93583,0.56564 2.80747,-0.65991 0,0 3.7433,-3.2053 4.67912,-3.2053 0,0 4.67912,0.47137 7.48659,-1.41409 0,0 2.80748,-2.16829 4.67912,-1.13128 0,0 4.67912,3.29956 7.48659,-4.90222 0,0 0,0 0,0 -3.74329,-4.71366 -5.61494,-17.72338 -5.61494,-17.72338 z"
     id="path22248"
     style="fill:#000000;fill-rule:evenodd;stroke:#000000;stroke-width:0.99393773"
     inkscape:connector-curvature="0" />
  <path
     d="m 117.6746,118.09087 c 0.93583,-0.47137 0.93583,-0.75419 0.93583,-0.75419 21.52394,-6.12776 34.62548,3.01675 34.62548,3.01675 2.80747,0.47137 4.67912,1.69692 6.55076,3.29956 l 1.87165,0 c 4.67912,-1.31982 0.93582,-5.2793 0.93582,-5.2793 -26.20306,-16.40356 -44.91954,-6.59913 -44.91954,-6.59913 l 0,6.31631 0,0 c 0,0 0,0 0,0 z"
     id="path22254"
     style="fill:#ffff00;fill-rule:evenodd;stroke:#000000;stroke-width:0.99393773"
     inkscape:connector-curvature="0" />
  <path
     d="m 117.6746,117.52523 0,-0.18855 0,-5.56212 c 0,0 18.71648,-9.80443 44.91954,6.59913 0,0 4.62718,4.04787 -0.0519,5.36769 -2.28822,3.06121 10.66319,10.93372 13.15348,14.14688 l 0,0 c 5.61494,1.4141 9.35824,-1.97974 9.35824,-1.97974 3.74329,-6.78767 0,-15.36654 0,-15.36654 -6.93217,-35.07432 -62.26542,-39.00396 -75.80173,-21.87141 -6.55077,15.83791 8.42241,18.85466 8.42241,18.85466 z"
     id="path22260"
     style="fill:#4d4d4d;fill-rule:evenodd;stroke:#000000;stroke-width:0.99393773"
     inkscape:connector-curvature="0"
     sodipodi:nodetypes="ccccccccccc" />
  <path
     d="m 188.79721,285.70881 c -17.78065,9.71015 -84.22414,4.90221 -89.83909,4.90221 -1.87164,3.29957 -2.80747,6.59914 -5.61494,9.71016 l 98.2615,0 c 0.93583,-14.61237 -2.80747,-14.61237 -2.80747,-14.61237 z"
     id="path22374"
     style="fill:#beb100;fill-rule:evenodd;stroke:#000000;stroke-width:0.99393773"
     inkscape:connector-curvature="0" />
  <path
     d="m 202.83457,198.69455 c 0,0 -9.35824,-4.05375 -13.10153,-10.46434 -0.93583,0.65991 -0.93583,1.13128 -0.93583,1.13128 -1.87165,0.18855 -3.74329,0.18855 -6.55077,0.18855 -0.93582,6.12776 -29.01053,68.34815 -71.12261,102.7579 8.42242,0 21.52395,0 34.62549,0 3.74329,-3.29956 23.39559,-23.00268 57.08525,-92.01075 0,-0.18854 0,-0.28282 0,-0.47136 l 0,-1.13128 z"
     id="path22380"
     style="fill:#ff0000;fill-rule:evenodd;stroke:#000000"
     inkscape:connector-curvature="0" />
  <path
     d="m 118.61043,280.8066 c -0.93583,0 -0.93583,0 -0.93583,1.60265 0,-1.60265 0,-1.60265 0.93583,-1.60265 z m -11.22989,9.80442 c 1.87165,-3.20529 6.55077,-4.90221 10.29406,-8.20177 -14.03736,-0.47137 -11.22988,-15.64937 -8.42241,-22.90842 l 1.87164,0 c -3.74329,-1.60264 -7.48659,0 -9.35823,1.60265 0.93582,7.91896 -1.87165,22.43705 -2.80748,29.50754 l 0,0 c 5.61495,0.47137 7.4866,0.84846 8.42242,0 z"
     id="path22412"
     style="fill:#ff0000;fill-rule:evenodd"
     inkscape:connector-curvature="0"
     sodipodi:nodetypes="ccccccccccc" />
  <path
     d="m 204.70622,199.54301 c 0,-0.28282 -1.87165,0 -1.87165,0.75418 -33.68966,69.00807 -53.34196,88.71121 -57.08525,92.01071 0.93582,0 2.80747,0 3.74329,0 8.42242,-8.2017 25.26724,-29.5075 55.21361,-90.59661 0.93582,-0.56564 0.93582,-1.60264 0,-1.97974 z m -23.3956,-10.18152 c -5.61494,10.65288 -34.62548,70.13934 -73.93008,101.24951 0,0 0,0 0,0 0.93582,0 1.87165,1.6969 3.74329,1.6969 42.11208,-34.40971 70.18679,-96.6301 71.12261,-102.75786 0,0 -0.93582,-0.18855 -0.93582,-0.18855 z"
     id="path22386"
     style="fill:#ff0000;fill-rule:evenodd;stroke:#000000"
     inkscape:connector-curvature="0" />
  <path
     d="m 136.39108,196.80908 c -0.93583,0 -1.87165,0.18855 -3.7433,0.28282 l -4.67912,49.30494 0,-1.50837 c 2.80747,-1.79119 8.42242,-1.79119 8.42242,0 l 6.55076,-47.89084 c -2.80747,-0.47137 -6.55076,-0.18855 -6.55076,-0.18855 z"
     id="path22430"
     style="fill:#ffffff;fill-rule:evenodd;stroke:#000000"
     inkscape:connector-curvature="0" />
  <path
     d="m 115.80295,184.7421 0,0 c 0,-0.0943 0,-0.0943 0,-0.0943 -1.87164,-1.03701 -4.67912,1.13128 -4.67912,1.13128 -2.80747,1.88546 -7.48659,1.41409 -7.48659,1.41409 -0.93582,0 -4.67912,3.2053 -4.67912,3.2053 -1.87164,0.65991 -1.87164,0.84846 -2.80747,0.84846 -3.74329,1.97974 -4.67912,3.29956 -4.67912,3.29956 -4.67911,3.01675 -7.48659,2.54538 -7.48659,2.54538 -3.74329,-0.0943 -7.48659,2.07401 -11.22988,3.01675 l 23.39559,41.48025 c 0,0 5.61495,8.20178 5.61495,19.51458 l 0,0 c 1.87164,-1.60265 5.61494,-3.20529 9.35823,-1.60265 l 0,0 6.55077,-56.37544 c 0,0.65992 0,0.94274 0.93583,1.50838 -6.55077,-8.39033 -4.67912,-15.08373 -2.80748,-19.89167 z m 65.50767,4.61939 0,0 0,0 z m -11.22988,-4.33657 c -3.7433,10.27579 -10.29407,17.81765 -14.03736,21.02295 1.87165,0.47136 1.87165,1.037 1.87165,1.4141 l -0.625,23.55016 c 12.16571,-20.83441 21.21312,-36.37133 24.02059,-41.65064 -5.61494,-0.75419 -8.42241,-2.26256 -11.22988,-4.33657 z"
     id="path22474"
     style="fill:#4d4d4d;fill-rule:evenodd;stroke:#000000;stroke-width:2"
     inkscape:connector-curvature="0"
     sodipodi:nodetypes="ccccccccccccccccccccccccscccc" />
  <polygon
     points="13509,8135 13513,8089 13445,8084 13440,8130 "
     transform="matrix(0.01450527,0,0,0.01640356,-13.34073,56.71895)"
     id="polygon22482"
     style="fill:#000000;fill-rule:evenodd" />
  <path
     d="m 204.70622,202.55975 c -29.94637,60.24065 -46.79119,81.54642 -55.21361,89.74819 8.42242,0 14.97318,-1.69692 20.58813,-1.69692 35.5613,-47.51374 43.04789,-78.24684 43.04789,-78.24684 -0.93582,-2.16829 -7.48659,-8.4846 -8.42241,-9.80443 z m -56.14943,89.74819 c 0,0 0,0 0.93582,0 -0.93582,0 -0.93582,0 -0.93582,0 l 0,0 z"
     id="path22490"
     style="fill:#ffff00;fill-rule:evenodd"
     inkscape:connector-curvature="0" />
  <path
     d="m 203.83122,204.51191 c -0.038,0.0863 7.36159,8.54291 7.98659,11.50343 l 0.40457,-1.125 c -1.84207,-3.61887 -8.26616,-10.37948 -8.26616,-10.6623 z"
     id="path22496"
     style="fill:#000000;fill-rule:evenodd"
     inkscape:connector-curvature="0"
     sodipodi:nodetypes="scccs" />
  <path
     d="m 202.36279,207.51793 c 3.53481,3.04421 8.18079,11.35535 8.23728,11.9272 0.0215,0.21725 0.34389,-0.0822 0.40524,-0.53699 -2.53244,-4.70549 -4.92915,-7.53899 -8.21493,-11.92786 z"
     id="path22498"
     style="fill:#000000;fill-rule:evenodd"
     inkscape:connector-curvature="0"
     sodipodi:nodetypes="csccc" />
  <path
     d="m 200.58792,211.45217 c 2.27811,2.87109 6.04029,8.37386 7.86159,13.73318 l 0.4375,-0.5 c -2.63574,-5.39399 -4.56362,-9.34456 -7.92409,-13.73527 z"
     id="path22500"
     style="fill:#000000;fill-rule:evenodd"
     inkscape:connector-curvature="0"
     sodipodi:nodetypes="ccccc" />
  <path
     d="m 198.15545,215.28665 c 2.81137,3.85789 8.10786,12.1591 8.82816,14.29354 0.0415,0.12291 0.0319,-0.21369 0.13786,-0.22736 -2.74554,-5.39492 -5.05933,-9.87977 -8.96602,-14.72609 z"
     id="path22502"
     style="fill:#000000;fill-rule:evenodd"
     inkscape:connector-curvature="0"
     sodipodi:nodetypes="csccc" />
  <path
     d="m 196.28213,219.05706 c 2.65646,4.81031 7.77514,9.25132 8.64284,14.90094 l 0.0921,-0.59375 c -0.98569,-6.56183 -5.69458,-9.04689 -8.45366,-14.56033 z"
     id="path22504"
     style="fill:#000000;fill-rule:evenodd"
     inkscape:connector-curvature="0"
     sodipodi:nodetypes="ccccc" />
  <path
     d="m 194.42945,222.99515 c 0.0966,0.2173 -0.36093,0.32755 -0.22469,0.51143 3.42393,4.62099 6.91123,8.21878 8.62981,14.78276 0.14473,-0.2474 0.28947,-0.49479 0.4342,-0.74219 -1.26376,-5.08105 -5.72207,-10.46094 -8.83932,-14.552 z"
     id="path22506"
     style="fill:#000000;fill-rule:evenodd"
     inkscape:connector-curvature="0"
     sodipodi:nodetypes="csccc" />
  <path
     d="m 192.07343,227.31924 c 6.12412,5.58772 4.12827,9.36078 8.67924,14.98856 l 0.2622,-0.58054 c -4.61453,-5.07604 -2.61637,-9.63393 -8.47436,-14.93927 z"
     id="path22508"
     style="fill:#000000;fill-rule:evenodd"
     inkscape:connector-curvature="0"
     sodipodi:nodetypes="ccccc" />
  <path
     d="m 190.29554,230.61881 c -0.0512,-0.0166 -0.39416,0.49096 -0.1871,0.73459 3.95891,4.65825 6.54115,14.89125 8.37513,15.13719 l 0.28125,-0.51562 c -1.96904,0.0721 -4.38191,-10.09485 -8.46928,-15.35616 z"
     id="path22510"
     style="fill:#000000;fill-rule:evenodd"
     inkscape:connector-curvature="0"
     sodipodi:nodetypes="csccc" />
  <path
     d="m 188.42816,233.98375 c 3.50613,5.60158 3.69718,11.83691 7.75384,16.28403 0.17882,0.0558 0.25693,0.0971 0.3029,-0.0681 -4.4201,-5.14898 -4.49604,-11.97459 -7.68769,-16.81259 z"
     id="path22512"
     style="fill:#000000;fill-rule:evenodd"
     inkscape:connector-curvature="0"
     sodipodi:nodetypes="ccccc" />
  <path
     d="m 185.85716,238.73128 c 1.35808,1.67539 7.45723,16.32047 8.01692,16.30928 l 0.13258,-0.7513 c -3.19372,-4.6933 -3.18785,-7.59941 -7.57498,-16.49772 z"
     id="path22514"
     style="fill:#000000;fill-rule:evenodd"
     inkscape:connector-curvature="0"
     sodipodi:nodetypes="ccccc" />
  <path
     d="m 183.95037,242.35721 c 3.82792,4.62727 4.82746,13.66817 7.52173,16.61329 l 0.22097,-0.58617 c -2.90276,-4.99917 -4.11996,-11.65119 -7.28062,-16.60663 z"
     id="path22516"
     style="fill:#000000;fill-rule:evenodd"
     inkscape:connector-curvature="0"
     sodipodi:nodetypes="ccccc" />
  <path
     d="m 182.21687,245.57597 c 1.53139,0.97325 5.74763,16.42756 7.04742,16.72443"
     id="path22520"
     style="fill:none;stroke:#000000;stroke-width:0.54289931"
     inkscape:connector-curvature="0"
     sodipodi:nodetypes="cc" />
  <path
     d="m 180.43562,248.71824 c 2.74486,5.61219 5.14789,13.04711 6.86494,16.69422"
     id="path22522"
     style="fill:none;stroke:#000000;stroke-width:0.54289931"
     inkscape:connector-curvature="0"
     sodipodi:nodetypes="cc" />
  <path
     d="m 178.50315,251.29905 c 1.91463,3.69026 4.89569,15.95169 7.48659,16.40356"
     id="path22524"
     style="fill:none;stroke:#000000;stroke-width:0.54289931"
     inkscape:connector-curvature="0"
     sodipodi:nodetypes="cc" />
  <path
     d="m 176.91108,254.37045 c 2.94847,4.79707 4.04506,13.92365 8.14284,16.63173"
     id="path22526"
     style="fill:none;stroke:#000000;stroke-width:0.54289931"
     inkscape:connector-curvature="0"
     sodipodi:nodetypes="cc" />
  <path
     d="m 174.75985,256.20127 c 1.10708,2.79529 5.47786,15.75204 7.83034,16.1223"
     id="path22528"
     style="fill:none;stroke:#000000;stroke-width:0.54289931"
     inkscape:connector-curvature="0"
     sodipodi:nodetypes="cc" />
  <path
     d="m 172.88821,259.50083 c -0.48001,3.80997 8.32032,14.63978 8.42241,16.40356"
     id="path22530"
     style="fill:none;stroke:#000000;stroke-width:0.54289931"
     inkscape:connector-curvature="0"
     sodipodi:nodetypes="cc" />
  <path
     d="m 171.81206,262.73866 c 1.35995,5.4125 5.28291,9.76218 7.00045,14.90095"
     id="path22532"
     style="fill:none;stroke:#000000;stroke-width:0.54289931"
     inkscape:connector-curvature="0"
     sodipodi:nodetypes="cc" />
  <path
     d="m 170.43429,265.64048 c 2.32263,5.63661 2.85906,11.42739 7.13304,15.16612"
     id="path22534"
     style="fill:none;stroke:#000000;stroke-width:0.54289931"
     inkscape:connector-curvature="0"
     sodipodi:nodetypes="cc" />
  <path
     d="m 168.39361,268.49811 c 2.31082,3.35377 3.22128,11.54693 6.50657,14.17631"
     id="path22536"
     style="fill:none;stroke:#000000;stroke-width:0.54289931"
     inkscape:connector-curvature="0"
     sodipodi:nodetypes="cc" />
  <path
     d="m 166.50647,271.5767 c 0.72724,4.53581 4.26769,11.2795 6.79497,13.15984"
     id="path22538"
     style="fill:none;stroke:#000000;stroke-width:0.54289931"
     inkscape:connector-curvature="0"
     sodipodi:nodetypes="cc" />
  <path
     d="m 164.77515,274.10742 c 1.21434,3.99107 4.305,11.88254 6.74304,13.02726"
     id="path22540"
     style="fill:none;stroke:#000000;stroke-width:0.54289931"
     inkscape:connector-curvature="0"
     sodipodi:nodetypes="cc" />
  <path
     d="m 162.59414,275.90439 c 0,0 2.80748,13.10399 7.4866,14.70663"
     id="path22542"
     style="fill:none;stroke:#000000;stroke-width:0.54289931"
     inkscape:connector-curvature="0" />
  <path
     d="m 160.44958,279.46912 c 0.003,-10e-4 3.4861,10.69262 5.03016,11.2669 l 0.31963,-0.125 c -0.93583,-1.60264 -4.75977,-8.29016 -4.75977,-11.49546 z"
     id="path22544"
     style="fill:#000000;fill-rule:evenodd"
     inkscape:connector-curvature="0"
     sodipodi:nodetypes="ccccc" />
  <path
     d="m 159.42537,281.31483 c 0.82556,3.00703 2.12012,6.11782 3.58861,9.71148 l -0.58524,0.0488 c -0.007,0.0945 -1.72375,-4.68855 -3.38438,-9.4676 z"
     id="path22546"
     style="fill:#000000;fill-rule:evenodd"
     inkscape:connector-curvature="0"
     sodipodi:nodetypes="ccccc" />
  <path
     d="m 156.69963,284.48117 c 1.51136,1.55117 1.99868,5.28663 3.14954,7.01427 l 0.3125,-0.13442 c 0.32639,-0.40391 -2.01067,-4.42955 -2.80914,-7.4736 z"
     id="path22548"
     style="fill:#000000;fill-rule:evenodd"
     inkscape:connector-curvature="0"
     sodipodi:nodetypes="ccccc" />
  <path
     d="m 154.51548,287.06146 c 0,0 0.99665,2.95581 2.8683,4.65273 l 0.4375,-0.16567 c -0.95238,-0.25182 -2.61006,-3.38903 -2.96205,-4.83971 z"
     id="path22550"
     style="fill:#000000;fill-rule:evenodd"
     inkscape:connector-curvature="0"
     sodipodi:nodetypes="ccccc" />
  <path
     d="m 152.95466,288.97713 c 0,1.60264 1.09375,2.48706 1.31082,3.08081 l 0.375,-0.125 c -0.59375,-1.41567 -1.37332,-1.69692 -1.37332,-3.29956 z"
     id="path22552"
     style="fill:#000000;fill-rule:evenodd"
     inkscape:connector-curvature="0"
     sodipodi:nodetypes="ccccc" />
  <path
     d="m 229.03764,201.14565 c 0,0 -7.48659,-4.61939 -7.48659,-5.56212 0,0 -8.42242,-4.05375 -8.42242,6.88195 0,3.10031 0,4.99991 0,8.29605 0,2.16829 0,4.33657 0,6.50486 0,0 0,4.61939 0,7.91896 4.03848,1.49904 7.13418,3.81381 10.29406,6.59913 -4.64861,17.07636 6.88578,23.3807 13.10154,11.3128 l 0,-14.61237 c 0,0 0,-10.18151 -0.93583,-14.23527 l 0,-5.93921 c 0,0 0,-3.95948 -6.55076,-7.16478 z"
     id="path22556"
     style="fill:#fbddb9;fill-rule:evenodd;stroke:#000000;stroke-width:1.5"
     inkscape:connector-curvature="0"
     sodipodi:nodetypes="cccccccccccc" />
  <path
     d="m 213.12863,202.7483 c 4.67912,0.37709 10.29406,1.4141 10.29406,2.16829 l 0.93583,-0.75419 c -0.93583,-1.03701 -7.48659,-1.97974 -11.22989,-1.97974 l 0,0.56564 z"
     id="path22560"
     style="fill:#000000;fill-rule:evenodd"
     inkscape:connector-curvature="0" />
  <path
     d="m 213.12863,211.2329 c 0,0 8.42242,0.0943 11.22989,1.037 l 0,-0.65991 c -2.80747,-0.94273 -11.22989,-1.13128 -11.22989,-1.13128 l 0,0.75419 z"
     id="path22562"
     style="fill:#000000;fill-rule:evenodd"
     inkscape:connector-curvature="0" />
  <path
     d="m 213.12863,217.64348 c 4.67912,0.75419 10.29406,2.63966 10.29406,4.2423 l 0.93583,-1.60264 c -0.93583,-0.75419 -7.48659,-3.2053 -11.22989,-3.29957 l 0,0.65991 z"
     id="path22564"
     style="fill:#000000;fill-rule:evenodd"
     inkscape:connector-curvature="0" />
  <path
     d="m 219.6794,228.48491 -0.70711,71.17336 5.37848,-0.0442 -0.0531,-67.51709 c -1.87164,-1.69692 -4.61829,-3.61207 -4.61829,-3.61207 z"
     id="path22568"
     style="fill:#ffff00;fill-rule:evenodd;stroke:#000000"
     inkscape:connector-curvature="0"
     sodipodi:nodetypes="ccccc" />
  <path
     d="m 241.20335,260.63211 c -4.67912,-4.90221 -3.7433,-13.10399 -3.7433,-13.10399 1.87165,-3.11102 -0.93582,-4.90221 -0.93582,-6.41058 l 0,1.50837 c -4.67912,9.80442 -11.72838,4.48906 -11.72838,4.48906 0.39622,3.31265 0.10314,6.11366 0.12684,10.95725 l -0.25,15.60138 c 8.42242,0 15.59483,-9.74192 15.59483,-9.74192 3.7433,-1.60265 0.93583,-3.29957 0.93583,-3.29957 z m -22.673,13.10399 0.0884,0 -0.17678,0 z m -0.11612,-26.11959 c -6.55077,3.29957 -9.02889,11.41296 -9.02889,11.41296 -1.87165,1.60264 -0.93583,4.90221 -0.93583,4.90221 3.7433,6.59913 3.70685,8.20178 10.25762,9.80442 0.16566,-3.81972 0.63284,-25.73885 -0.2929,-26.11959 z"
     id="path22574"
     style="fill:#ffff00;fill-rule:evenodd;stroke:#000000;stroke-width:1.5"
     inkscape:connector-curvature="0"
     sodipodi:nodetypes="cccccccccccccccccc" />
  <path
     d="m 219.6794,274.20747 c 0,0 0,0 0,0 l 0,0 0,0 c 0,0 0,0 0,0 0,0 0,0 0,0 l 0,0 0,0 0,0 c 0,0 0,0 0,0 0,0 0,0 0,0 z"
     id="path22578"
     style="fill:#000000;fill-rule:evenodd"
     inkscape:connector-curvature="0" />
  <path
     d="m 219.70149,228.44072 -6.57286,-3.25537 c 0,-3.29957 0,-7.91896 0,-7.91896 0,-0.84846 0,-3.58239 0,-3.58239 0,-0.28282 0,-0.47136 0,-0.75418 l 0,-0.0943 c 0,2.8282 -8.42241,33.5613 -43.04789,77.77548 8.42241,-1.60264 14.97318,-3.29956 18.71647,-4.90221 l 0,0 c -1.87165,-3.29956 -1.87165,-11.50134 3.7433,-21.30577 0,0 0.93582,-3.29956 0.93582,-1.60264 0,0 2.59425,30.04953 7.27337,36.46012 l 17.51549,0 0.35355,-25.58338 c -6.55077,-1.60265 -6.42593,-2.67496 -10.16923,-9.2741 0,0 -0.93582,-3.29956 0.93583,-4.90221 0,0 1.96924,-7.61339 8.52001,-10.91295 l 1.02901,-20.3612 c 6.55083,2.89317 6.80158,8.61867 6.36147,18.5461 -0.38422,-10.42919 2.58213,-12.58795 -5.59434,-18.33204 z m 4.5962,45.89175 0.31825,24.70707 8.60249,0.40664 c 0,0 4.24162,-13.73737 6.11327,-33.34622 -2.80747,3.2053 -9.41906,8.23251 -15.03401,8.23251 z"
     id="path22584"
     style="fill:#4d4d4d;fill-rule:evenodd;stroke:#000000;stroke-width:2"
     inkscape:connector-curvature="0"
     sodipodi:nodetypes="ccccscccccccccccccccccccc" />
  <path
     d="m 166.33744,290.61102 0,0 0,0 0,0 c 0,0 0,0 0,0 0,0 0,0 0,0 l 2.80747,0 -2.80747,0 z"
     id="path22586"
     style="fill:#000000;fill-rule:evenodd"
     inkscape:connector-curvature="0" />
  <path
     d="m 200.96292,277.50703 0,0 c 0.93583,-6.50485 6.55077,-13.10399 7.48659,-13.10399 l -0.93582,-1.60264 c 0,0 -5.61494,8.20178 -6.55077,14.70663 z"
     id="path22592"
     style="fill:#000000;fill-rule:evenodd"
     inkscape:connector-curvature="0" />
  <path
     d="m 227.65987,201.49321 c 0,0 0,2.16829 -2.80747,3.29957 3.28568,0.89215 3.57463,-0.56195 2.80747,-3.58239 z"
     id="path22594"
     style="fill:#000000;fill-rule:evenodd"
     inkscape:connector-curvature="0"
     sodipodi:nodetypes="cccc" />
  <path
     d="m 224.98498,211.17094 c 2.81998,-1.69578 1.63103,-4.34041 0.44194,-4.63705 0.86767,2.57376 -0.0539,3.38802 -0.44194,4.63705 z"
     id="path22596"
     style="fill:#000000;fill-rule:evenodd"
     inkscape:connector-curvature="0"
     sodipodi:nodetypes="ccc" />
  <path
     d="m 224.18948,218.85716 c 2.80747,-2.26256 0.53034,-5.54448 0.53034,-5.73302 0.32191,1.82458 0.28396,4.33391 -0.53034,5.73302 z"
     id="path22598"
     style="fill:#000000;fill-rule:evenodd"
     inkscape:connector-curvature="0"
     sodipodi:nodetypes="ccc" />
  <path
     d="m 224.09335,222.8314 c -0.0101,2.02294 -0.30875,3.88156 -1.28162,5.45919 3.14783,-1.33708 1.78512,-5.39897 1.28162,-5.45919 z"
     id="path22600"
     style="fill:#000000;fill-rule:evenodd"
     inkscape:connector-curvature="0"
     sodipodi:nodetypes="ccc" />
  <path
     d="m 113.93131,282.40925 3.74329,0 c 10.29406,-11.40707 21.52395,-22.90842 29.01054,-34.40976 l -7.48659,-3.11102 c 0,0 -6.55077,-3.29957 -11.22989,0 l -18.71647,14.61236 c 0,0 -7.48659,18.0062 4.67912,22.90842 z"
     id="path22394"
     style="fill:#fbddb9;fill-rule:evenodd;stroke:#000000;stroke-width:1.5"
     inkscape:connector-curvature="0" />
  <path
     d="m 53.87287,298.32118 51.47031,0 c 8.42242,-16.21501 8.42242,-31.01592 8.42242,-31.01592 1.87164,-13.10399 -5.61495,-27.71636 -5.61495,-27.71636 L 80.07594,184.34474 c -13.10153,11.3128 -31.30864,9.91047 -37.43295,9.05024 -2.32271,5.36885 -13.791,20.18198 -28.3672,25.16057 10.33885,23.91018 22.14545,61.92138 39.59708,79.76563 z"
     id="path22200"
     style="fill:#ffff00;fill-rule:evenodd;stroke:#000000;stroke-width:3.9758451"
     inkscape:connector-curvature="0"
     sodipodi:nodetypes="cccccccc" />
  <path
     d="m 124.22537,165.51034 c 0,0.0943 1.87165,1.60265 5.61494,0.65992 l 0,-0.65992 c -3.74329,0.65992 -3.74329,-0.56564 -3.74329,-0.56564 l -1.87165,0.56564 z"
     id="path22228"
     style="fill:#000000;fill-rule:evenodd"
     inkscape:connector-curvature="0" />
  <path
     d="m 126.09702,170.78965 c 0,0.18855 0.93582,1.50837 3.74329,0.84846 l 0,-0.65991 c -1.87165,0.56564 -2.80747,-0.56564 -2.80747,-0.56564 l -0.93582,0.37709 z"
     id="path22236"
     style="fill:#000000;fill-rule:evenodd"
     inkscape:connector-curvature="0" />
  <path
     d="m 88.49835,292.38196 c 22.45977,-28.37627 -0.93582,-57.78954 -14.97318,-83.62043 -7.48659,2.73393 -14.97318,3.77093 -22.45977,3.77093 -1.87165,5.56213 -8.84887,10.66454 -15.39963,15.66103 10.29406,30.92165 28.50116,67.20521 52.83258,64.18847 z"
     id="path22366"
     style="fill:#666666;fill-rule:evenodd;stroke:#000000;stroke-width:4"
     inkscape:connector-curvature="0"
     sodipodi:nodetypes="ccccc" />
  <polygon
     points="10396,8567 10149,11391 10195,11395 10441,8571 "
     transform="matrix(0.01449755,4.7312164e-4,-5.3503859e-4,0.01639483,-8.67105,51.81028)"
     id="polygon22434"
     style="fill:#000000;fill-rule:evenodd" />
  <path
     d="m 134.51943,251.29905 0,1.60265 c 1.87165,-1.60265 8.42241,0 8.42241,0 l 0,0 c 0,0 -6.55076,-1.60265 -8.42241,-1.60265 z"
     id="path22398"
     style="fill:#000000;fill-rule:evenodd"
     inkscape:connector-curvature="0" />
  <path
     d="m 149.49261,292.30794 -0.93582,0 0,0 0,0 c 0,0 0,0 0,0 0,0 0,0 0,0 l 0.93582,0 0,0 z"
     id="path22494"
     style="fill:#000000;fill-rule:evenodd"
     inkscape:connector-curvature="0" />
  <path
     d="m 132.64778,261.10348 c 1.87165,0 3.7433,0 3.7433,0 l 0,0 c 0,0 -1.87165,-1.60265 -3.7433,-1.60265 l 0,1.60265 z"
     id="path22400"
     style="fill:#000000;fill-rule:evenodd"
     inkscape:connector-curvature="0" />
  <path
     d="m 127.03284,267.70261 0,0 c 0.93582,0 0.93582,0 2.80747,0 l 0,0 c 0,0 -1.87165,0 -2.80747,0 z"
     id="path22402"
     style="fill:#000000;fill-rule:evenodd"
     inkscape:connector-curvature="0" />
  <path
     d="m 126.09702,251.29905 c 0,0 0,1.60265 0,3.29957 l 0,0 c 0.93582,-1.69692 0,-3.29957 0,-3.29957 l 0,0 z"
     id="path22404"
     style="fill:#000000;fill-rule:evenodd"
     inkscape:connector-curvature="0" />
  <path
     d="m 126.09702,259.50083 c 0,0 0,1.60265 0,1.60265 l 0,1.69692 c 0.93582,-1.69692 0,-3.29957 0,-3.29957 l 0,0 z"
     id="path22406"
     style="fill:#000000;fill-rule:evenodd"
     inkscape:connector-curvature="0" />
  <polygon
     points="9647,12792 9601,12792 9601,12884 9647,12884 "
     transform="matrix(0.01450527,0,0,0.01640356,-13.34073,56.71895)"
     id="polygon22408"
     style="fill:#000000;fill-rule:evenodd" />
  <path
     d="m 117.6746,280.8066 0,0 0,1.60265 0.93583,-1.60265 0,0 0,0 c 0,0 0,0 0,0 0,0 -0.93583,0 -0.93583,0 l 0,0 z"
     id="path22414"
     style="fill:#000000;fill-rule:evenodd"
     inkscape:connector-curvature="0" />
  <g
     id="g5595" />
  <path
     d="m 137.95778,137.0248 c 0,0 0,3.77093 1.09832,3.8652 4.39329,0.47137 4.39329,-1.69692 4.39329,-3.8652 0,0 -4.39329,-0.56564 -5.49161,0 z"
     id="path22222-3"
     style="fill:#000000;fill-rule:evenodd"
     inkscape:connector-curvature="0" />
  <ellipse
     style="fill:none;stroke:#000000;stroke-width:1.5"
     id="path8074-8"
     cx="47.875"
     cy="204.625"
     rx="3.2703688"
     ry="3.1819804" />
  <ellipse
     style="fill:none;stroke:#000000;stroke-width:1.5"
     id="path8074-0"
     cx="62"
     cy="202.625"
     rx="3.2703688"
     ry="3.1819804" />
  <ellipse
     style="fill:none;stroke:#000000;stroke-width:1.5"
     id="path8074-1"
     cx="37.491882"
     cy="214.31879"
     rx="3.2703688"
     ry="3.1819804" />
  <ellipse
     style="fill:none;stroke:#000000;stroke-width:1.5"
     id="path8074-2"
     cx="76"
     cy="199.5"
     rx="3.2703688"
     ry="3.1819804" />
  <ellipse
     style="fill:none;stroke:#000000;stroke-width:1.5"
     id="path8074-5"
     cx="26.036621"
     cy="223.26514"
     rx="3.2703688"
     ry="3.1819804" />
  <ellipse
     style="fill:none;stroke:#000000;stroke-width:1.5"
     id="path8074-09"
     cx="83.804993"
     cy="213.01886"
     rx="3.2703688"
     ry="3.1819804" />
  <ellipse
     style="fill:none;stroke:#000000;stroke-width:1.5"
     id="path8074-4"
     cx="91.782532"
     cy="227.45569"
     rx="3.2703688"
     ry="3.1819804" />
  <ellipse
     style="fill:none;stroke:#000000;stroke-width:1.5"
     id="path8074-7"
     cx="98.962341"
     cy="241.87445"
     rx="3.2703688"
     ry="3.1819804" />
  <ellipse
     style="fill:none;stroke:#000000;stroke-width:1.5"
     id="path8074-83"
     cx="31.390747"
     cy="238.48169"
     rx="3.2703688"
     ry="3.1819804" />
  <ellipse
     style="fill:none;stroke:#000000;stroke-width:1.5"
     id="path8074-4-5"
     cx="38.25"
     cy="254"
     rx="3.2703688"
     ry="3.1819804" />
  <ellipse
     style="fill:none;stroke:#000000;stroke-width:1.5"
     id="path8074-7-1"
     cx="45.5"
     cy="269.5"
     rx="3.2703688"
     ry="3.1819804" />
  <ellipse
     style="fill:none;stroke:#000000;stroke-width:1.5"
     id="path8074-7-2"
     cx="104.5"
     cy="257.5"
     rx="3.2703688"
     ry="3.1819804" />
  <ellipse
     style="fill:none;stroke:#000000;stroke-width:1.5"
     id="path8074-7-0"
     cx="54.5"
     cy="284"
     rx="3.2703688"
     ry="3.1819804" />
  <ellipse
     style="fill:none;stroke:#000000;stroke-width:1.5"
     id="path8074-7-16"
     cx="104.5"
     cy="277"
     rx="3.2703688"
     ry="3.1819804" />
  <ellipse
     style="fill:none;stroke:#000000;stroke-width:1.5"
     id="path8074-7-4"
     cx="66"
     cy="295.75"
     rx="3.2703688"
     ry="3.1819804" />
  <ellipse
     style="fill:none;stroke:#000000;stroke-width:1.5"
     id="path8074-7-06"
     cx="97.5"
     cy="293.25"
     rx="3.2703688"
     ry="3.1819804" />
  <rect
     style="fill:#000000;stroke:#000000;stroke-width:2"
     id="rect8294"
     width="5.6568542"
     height="7.9549513"
     x="144.83444"
     y="200.88412"
     rx="0"
     ry="7.9549513"
     transform="matrix(0.99579068,0.09165649,-0.09165649,0.99579068,0,0)"
     inkscape:transform-center-x="-1.0606602" />
  <rect
     style="fill:#000000;stroke:#000000;stroke-width:2"
     id="rect8294-1"
     width="5.6568542"
     height="7.9549513"
     x="158.86252"
     y="200.92429"
     rx="0"
     ry="7.9549513"
     transform="matrix(0.99579068,0.09165649,-0.09165649,0.99579068,0,0)"
     inkscape:transform-center-x="-1.0606602" />
  <rect
     style="fill:#000000;stroke:#000000;stroke-width:2"
     id="rect8294-8"
     width="5.6568542"
     height="7.9549513"
     x="144.25754"
     y="221.61876"
     rx="0"
     ry="7.9549513"
     transform="matrix(0.99579068,0.09165649,-0.09165649,0.99579068,0,0)"
     inkscape:transform-center-x="-1.0606602" />
  <rect
     style="fill:#000000;stroke:#000000;stroke-width:2"
     id="rect8294-9"
     width="5.6568542"
     height="7.9549513"
     x="158.80563"
     y="221.52232"
     rx="0"
     ry="7.9549513"
     transform="matrix(0.99579068,0.09165649,-0.09165649,0.99579068,0,0)"
     inkscape:transform-center-x="-1.0606602" />
  <path
     sodipodi:nodetypes="cccscccccccccccccscccccccsccccccccscccccccccccsc"
     inkscape:connector-curvature="0"
     id="path5557-0-41"
     d="m 74.99233,262.07224 c -0.84978,-0.18596 -1.81786,-0.43567 -2.12761,-0.5669 -0.39567,-0.0723 -1.15522,-0.30936 -1.7209,-0.47462 -0.66264,-0.1263 -1.22352,-0.28288 -1.25956,-0.34796 -0.0361,-0.0651 -0.16521,-0.0843 -0.26987,-0.0592 -0.11955,-0.002 -0.42642,-0.12785 -2.86235,-0.82336 -2.48735,-0.78837 -2.9181,-0.92403 -3.53887,-1.12455 -0.31119,-0.13383 -1.07717,-0.4467 -1.77105,-0.62941 -0.60798,-0.24162 -1.56397,-0.61936 -2.14792,-0.8176 -0.48842,-0.23979 -1.2592,-0.56135 -1.63605,-0.74953 -2.58509,-1.02907 -4.28855,-2.28558 -5.83098,-4.10753 -0.54404,-0.6399 -1.33913,-1.96856 -1.72847,-2.86423 -0.22485,-0.55585 -0.54119,-1.85482 -0.51619,-2.15216 0.006,-0.11692 -0.0129,-0.34438 -0.0626,-0.4983 -0.0454,-0.16762 -0.0423,-0.61157 0.008,-0.99112 0.0276,-0.37818 0.11717,-0.85866 0.0403,-0.99751 0.0138,-0.18909 0.11355,-0.4371 0.18505,-0.52205 0.0667,-0.0936 0.19045,-0.29825 0.14719,-0.37635 -0.048,-0.0868 0.15622,-0.57412 0.27939,-0.99385 0.41233,-0.81801 0.5457,-1.00527 1.35935,-1.95482 0.95825,-1.05231 1.03936,-1.1199 1.87342,-1.60449 0.5443,-0.30143 1.0027,-0.54395 1.10783,-0.56816 0.0144,0.026 0.10514,-0.0242 0.18144,-0.10048 0.25131,-0.25257 2.15173,-0.73805 3.07452,-0.78417 1.61445,-0.14567 3.51667,0.0142 4.83294,0.46458 1.27783,0.38094 1.41499,0.35034 1.48168,0.25671 0.0667,-0.0936 0.2277,-0.65906 0.25114,-0.8308 -0.14418,-0.26034 0.70434,-2.4312 1.26128,-3.35197 0.16642,-0.34164 0.50304,-0.86825 0.61239,-1.0989 0.43798,-0.70748 1.72924,-1.86483 2.82104,-2.52617 1.32712,-0.81434 3.32788,-1.33271 4.8474,-1.22169 2.08846,0.0681 4.92184,1.48128 5.81995,2.88896 0.13938,0.25166 0.49442,0.67872 0.76776,0.95824 0.51365,0.71344 1.00445,1.81372 1.17865,2.55638 0.0583,0.31926 0.19284,0.56225 0.21206,0.59696 0.024,0.0434 0.0913,0.16488 0.0679,0.33662 0.0577,0.10413 0.0637,0.54306 0.13635,0.88835 0.38789,1.40676 0.10004,4.52582 -0.6712,8.18473 -0.38332,1.44831 -0.76444,3.17888 -0.9537,3.90737 -0.15681,0.35899 -0.21329,0.6851 -0.27517,0.78741 -0.24352,1.33687 -2.42401,8.44444 -2.58749,8.64157 0.005,0.009 -0.0853,0.27404 -0.1615,0.56457 -0.16546,0.34337 -0.22722,0.65993 -0.36685,0.83591 -0.0494,0.12487 -0.0618,0.31657 -0.1025,0.45706 -0.0364,0.1483 -0.0752,0.29226 -0.15104,0.3694 -0.0773,0.0745 -0.13032,0.25701 -0.15856,0.42006 -0.0297,0.16045 -0.1544,0.36334 -0.14912,0.37288 0.005,0.009 -0.6737,-0.14626 -1.49771,-0.34988 z"
     style="fill:#b00303;stroke:#000000;stroke-width:5.91128492" />
  <path
     inkscape:connector-curvature="0"
     id="path5569-5-4"
     d="m 76.18236,261.31001 c -0.22283,0.004 -3.57493,-0.84717 -3.67892,-0.92793 -0.0345,-0.0195 -0.33216,-0.10747 -0.6743,-0.19015 -0.57325,-0.13611 -1.44562,-0.36285 -2.70963,-0.76165 -2.07475,-0.64266 -3.72355,-1.15835 -4.43293,-1.41185 -0.45905,-0.16534 -1.1268,-0.40788 -1.48816,-0.52527 -0.78303,-0.25807 -2.45857,-0.92904 -3.41084,-1.34286 -0.3667,-0.14845 -0.76171,-0.32658 -0.90529,-0.3718 -0.1249,-0.0329 -0.74837,-0.34531 -1.36277,-0.66275 -5.36091,-2.72361 -7.73219,-8.22551 -5.43366,-12.59417 0.76548,-1.42181 2.19919,-2.77144 3.73502,-3.50859 2.09028,-0.99885 5.36887,-1.13628 7.8466,-0.36526 0.83855,0.27268 0.87057,0.26629 1.04596,-0.46586 0.23029,-0.93265 0.62442,-1.93336 1.12904,-2.92721 0.38727,-0.71342 0.63161,-1.06419 1.25373,-1.76025 0.80938,-0.93584 1.03509,-1.1062 2.2,-1.78535 0.81592,-0.47453 2.40358,-0.96824 3.46299,-1.06734 1.2526,-0.0927 2.49517,0.16036 3.9647,0.86604 0.74302,0.31425 2.33335,1.64475 2.6932,2.08049 0.0817,0.14752 0.25952,0.46861 0.48054,0.67506 0.41326,0.55357 0.99483,1.79637 1.17751,2.31888 0.0246,0.25851 0.12026,0.60244 0.20677,0.75864 0.30342,0.95459 0.392,2.71988 0.3352,3.79458 -0.0576,0.28135 -0.0958,0.9829 -0.18208,1.59767 -0.027,0.5933 -0.17041,1.31905 -0.17516,1.50311 -0.0858,0.25167 -0.24412,1.12175 -0.4344,1.99822 -0.22004,1.35788 -1.77462,7.41237 -2.28213,8.9147 -0.0991,0.2919 -0.27259,0.85629 -0.40729,1.2552 -0.13422,0.39978 -0.30678,0.94439 -0.38206,1.21515 -0.34373,1.07031 -1.19057,3.50105 -1.2721,3.58929 -0.0439,0.0492 -0.18624,0.0918 -0.29954,0.10126 z"
     style="fill:#faff00" />
</svg>
