<?xml version="1.0" encoding="UTF-8" standalone="no"?>
<!-- Created with Inkscape (http://www.inkscape.org/) -->

<svg
   xmlns:dc="http://purl.org/dc/elements/1.1/"
   xmlns:cc="http://creativecommons.org/ns#"
   xmlns:rdf="http://www.w3.org/1999/02/22-rdf-syntax-ns#"
   xmlns:svg="http://www.w3.org/2000/svg"
   xmlns="http://www.w3.org/2000/svg"
   xmlns:sodipodi="http://sodipodi.sourceforge.net/DTD/sodipodi-0.dtd"
   xmlns:inkscape="http://www.inkscape.org/namespaces/inkscape"
   version="1.1"
   width="250"
   height="300"
   viewBox="0 0 250 300"
   id="cards"
   inkscape:version="0.91 r13725"
   sodipodi:docname="face_SJ.svg">
  <sodipodi:namedview
     pagecolor="#ffffff"
     bordercolor="#666666"
     
     objecttolerance="10"
     gridtolerance="10"
     guidetolerance="10"
     inkscape:pageopacity="0"
     inkscape:pageshadow="2"
     inkscape:window-width="1920"
     inkscape:window-height="978"
     id="namedview6787"
     showgrid="false"
     inkscape:zoom="1.4142136"
     inkscape:cx="-321.19935"
     inkscape:cy="50.338181"
     inkscape:window-x="0"
     inkscape:window-y="1"
     inkscape:window-maximized="1"
     inkscape:current-layer="cards"
     showguides="true"
     inkscape:guide-bbox="true" />
  <defs
     id="defs2680" />
  <metadata
     id="metadata97">
    <rdf:RDF>
      <cc:Work
         rdf:about="">
        <dc:format>image/svg+xml</dc:format>
        <dc:type
           rdf:resource="http://purl.org/dc/dcmitype/StillImage" />
        <dc:title />
      </cc:Work>
    </rdf:RDF>
  </metadata>
  <view
     id="CK"
     viewBox="0 0 250 300" />
  <g
     id="g5595" />
  <path
     d="m 104.37842,290.14414 3.89389,0 c 0.97347,0 1.94695,-1.73606 3.89389,-1.73606 5.84085,0 9.89571,0.3125 13.78961,0.3125 -4.44937,-28.69771 -34.27712,-97.0639 -34.44839,-98.93015 -3.875,0.80266 -5.625,2.31217 -5.625,2.2208 -1.94695,0.54823 -7.78779,2.28429 -16.54905,5.57366 0,0 15.57558,15.71588 21.41642,49.34057 z"
     id="path35210"
     style="fill:#0000ff;fill-rule:evenodd;stroke:#000000;stroke-width:3"
     inkscape:connector-curvature="0"
     sodipodi:nodetypes="csscccccc" />
  <path
     d="m 108.39382,121.75612 c 0,0 -2.33139,4.47785 -2.33139,10.96523 -0.73765,4.95673 21.17951,30.15939 2.33139,-10.96523 z"
     id="path35292"
     style="fill:#000000;fill-rule:evenodd;stroke:#000000;stroke-width:2"
     inkscape:connector-curvature="0"
     sodipodi:nodetypes="ccc" />
  <path
     d="m 108.46039,121.50226 -1.50945,17.60581 c 1.8279,1.31385 -1.9042,32.87094 15.13807,45.16636 0,0 4.86737,7.0356 8.76127,8.13205 l 0,0.18275 c 4.86736,0.27411 6.81431,-0.45686 8.76126,-1.18783 8.2071,-7.60281 16.93092,-15.52931 17.67742,-24.35806 1.34557,-15.91389 6.2401,-27.32482 -7.94269,-43.53091 0,0 -16.54905,-10.41634 -40.88588,-2.01017 z"
     id="path35238"
     style="fill:#fbddb9;fill-rule:evenodd;stroke:#000000"
     inkscape:connector-curvature="0"
     sodipodi:nodetypes="ccccccscc" />
  <path
     d="m 165.7132,141.5742 c -2.01845,-4.41666 -1.62804,-9.93458 -3.89389,-14.25394 -2.30009,1.59971 -4.84095,1.26052 -6.81431,0.82234 0,0 -5.88503,-6.823 -7.83198,-5.63517 9.13847,17.55516 -3.41882,20.47642 8.61263,32.40401 3.32334,-2.159 8.18384,0.0111 9.81919,-1.56231 3.83337,-3.68825 1.18235,-9.96763 0.10836,-11.77493 z"
     id="path35286"
     style="fill:#000000;fill-rule:evenodd;stroke:#000000;stroke-width:2"
     inkscape:connector-curvature="0"
     sodipodi:nodetypes="cccccsc" />
  <path
     d="m 193.99699,146.78237 0,-10.50771 c 0,0 6.81431,9.22851 9.73473,6.76149 l 2.92042,17.81742 c 0,0 -7.78778,-0.45685 -7.78778,8.40617 0,0 -0.97348,-1.64468 -3.8939,-9.31988 0,0 -0.97347,-1.46194 -4.86737,-5.20817 0,0 0.97348,-5.1168 3.8939,-7.94932 z m 23.36336,-8.13205 c 4.86737,-10.69046 -3.89389,-15.62452 -3.89389,-15.62452 l 2.92042,-18.5484 c 25.31031,5.39092 30.17768,39.47246 30.17768,39.47246 0,3.28937 4.86736,33.80743 -17.52253,48.51823 l -7.78778,-16.26412 c 0,0 6.81431,-7.6752 0,-16.26411 0,0 -4.86737,-3.47211 -7.78779,0 -2.92042,-5.02543 -2.92042,-11.78691 -3.8939,-18.73114 4.86737,2.37565 7.78779,-2.5584 7.78779,-2.5584 z"
     id="path35172"
     style="fill:#ffff00;fill-rule:evenodd;stroke:#000000;stroke-width:3.11908865"
     inkscape:connector-curvature="0"
     sodipodi:nodetypes="cccccccccccccccccc" />
  <path
     d="m 213.46646,212.75254 c 0,-6.67011 -12.65516,-91.91965 -11.68168,-100.78268 l 0,0 c 3.89389,8.04069 19.46947,92.65063 20.44294,99.22937 z"
     id="path35180"
     style="fill:#ffff00;fill-rule:evenodd;stroke:#000000;stroke-width:3.11908865"
     inkscape:connector-curvature="0"
     sodipodi:nodetypes="ccccc" />
  <path
     d="m 198.86436,96.1626 -0.97348,0 0,0 c -6.81431,32.89372 2.92042,33.99017 2.92042,33.99017 -1.94694,6.76149 0,10.2336 0.97348,11.33006 l 0,1.2792 c 1.94694,2.10154 3.89389,1.00509 4.86736,0.6396 0,0.18274 3.8939,0.18274 3.8939,-2.10154 l 0,-1.37057 c 0,-1.46195 0,-5.20817 -3.8939,-10.8732 0,0 9.73474,-4.4772 -7.78778,-32.89372 z"
     id="path35186"
     style="fill:#ffff00;fill-rule:evenodd;stroke:#000000;stroke-width:3.11908865"
     inkscape:connector-curvature="0"
     sodipodi:nodetypes="cccccccsscc" />
  <polygon
     points="8553,14005 8074,14005 8074,13397 8553,13397 "
     transform="matrix(0.01528353,0,0,0.01599,-26.98149,61.6242)"
     id="polygon35190"
     style="fill:#000000;fill-rule:evenodd" />
  <path
     d="m 47.00249,272.50946 c 13.62863,-15.99 34.07158,-6.396 34.07158,-6.396 l 0,0 0,0 c 2.92042,-14.34532 10.7082,-19.188 10.7082,-19.188 l 0,0 C 86.91491,217.41249 75.23322,201.6966 71.33933,198.22449 c -2.92042,1.64468 -21.41642,9.50263 -24.33684,28.05102 0,0 -3.89389,19.09663 -5.84084,20.64995 -4.86736,11.14731 -2.92042,19.91897 -5.84084,31.52314 0,0 -3.89389,5.20817 -3.89389,6.85286 8.76126,-8.04069 15.57557,-12.792 15.57557,-12.792 z"
     id="path35194"
     style="fill:#000080;fill-rule:evenodd;stroke:#000000;stroke-width:2.76919079"
     inkscape:connector-curvature="0"
     sodipodi:nodetypes="cccccccccccc" />
  <path
     d="m 102.49048,206.63066 -2.92042,-0.54823 0,-0.18274 c 9.73474,21.83777 25.87754,71.39233 27.82448,82.53961 7.78779,0 17.92877,-0.031 27.66351,-0.031 9.73473,-25.40122 14.4146,-69.80774 15.38807,-83.60482 l -0.78597,0.27411 c -32.12462,9.95949 -56.46146,4.38583 -67.16967,1.55332 z"
     id="path35200"
     style="fill:#ffff00;fill-rule:evenodd"
     inkscape:connector-curvature="0"
     sodipodi:nodetypes="ccccccccc" />
  <polygon
     points="12912,8941 12919,8863 12874,8858 12866,8937 "
     transform="matrix(0.01528353,0,0,0.01599,-26.98149,61.6242)"
     id="polygon35202"
     style="fill:#000000;fill-rule:evenodd" />
  <polygon
     points="10126,14251 10126,14205 10017,14203 10016,14249 "
     transform="matrix(0.01528353,0,0,0.01599,-26.98149,61.6242)"
     id="polygon35206"
     style="fill:#000000;fill-rule:evenodd" />
  <path
     d="m 210.54604,219.78814 c -3.8939,-4.11171 -6.81432,-12.06102 -6.81432,-12.06102 -1.61425,-5.34799 -12.91322,-13.78431 -16.9038,-13.94967 -0.24648,28.92689 -10.09394,65.47094 -17.16777,93.16869 2.92042,-1.18783 19.46947,-0.0914 16.54905,-4.93406 0,-7.85794 4.86737,-12.60925 4.86737,-12.60925 0,1.55331 2.92042,3.10663 2.92042,3.10663 l 0,6.396 0,6.396 c 4.86737,-8.86303 9.73473,-22.02052 19.46947,-26.95457 -1.94695,-7.58383 -5.84084,-25.67538 -2.92042,-38.55875 z"
     id="path35216"
     style="fill:#000080;fill-rule:evenodd;stroke:#000000;stroke-width:2.76919079"
     inkscape:connector-curvature="0"
     sodipodi:nodetypes="ccccccccccc" />
  <polygon
     points="12606,14172 12622,14171 12619,14125 12603,14126 "
     transform="matrix(0.01528353,0,0,0.01599,-26.98149,61.6242)"
     id="polygon35218"
     style="fill:#000000;fill-rule:evenodd" />
  <polygon
     points="15786,9403 16697,14847 17164,14847 16240,9327 "
     transform="matrix(0.01528353,0,0,0.01599,-26.98149,61.6242)"
     id="polygon35224"
     style="fill:#ffff00;fill-rule:evenodd;stroke:#000000;stroke-width:128.51179504" />
  <path
     d="m 94.27748,238.79574 c -2.16654,-9.25621 -12.42178,-1.66057 -7.47563,2.70283 -5.68474,5.50573 -1.9222,8.64787 0.11306,8.62489 1.79059,-0.88799 2.92042,-2.64035 2.92042,0 8.4227,12.44196 0.0608,-2.46405 8.40181,-5.21812 2.42473,-0.80061 4.14318,-6.6811 -3.95966,-6.1096 z m 11.13342,35.3584 -4.86737,0 c 0,1.55332 -0.97347,1.55332 -1.94694,1.55332 l 1.94694,7.94931 7.78779,-3.198 z"
     id="path35230"
     style="fill:#ffff00;fill-rule:evenodd;stroke:#000000;stroke-width:1.03979051"
     inkscape:connector-curvature="0"
     sodipodi:nodetypes="ccccsccccccc" />
  <path
     d="m 109.3048,129.14769 0.97347,0.82234 c 19.32888,-0.45967 4.17527,24.52836 9.73473,27.32006 2.27837,-0.061 11.17179,-1.25869 11.68169,-1.46191 0,-1.00509 0,-1.82743 -1.94695,-2.83252 -24.62207,16.19558 8.21532,-26.61507 -20.44294,-23.84797 z"
     id="path35242"
     style="fill:#000000;fill-rule:evenodd"
     inkscape:connector-curvature="0"
     sodipodi:nodetypes="cccccc" />
  <path
     d="m 126.82732,166.06174 0,0 0,0 c -0.97347,0.91372 -1.94695,0 -1.94695,-0.18274 l 0,0 0,0 -4.86737,-0.27411 0,0.73097 c 0,0 4.86737,0.18274 4.86737,0.36548 0,0.0914 0.97348,0.91372 2.92042,0.0914 0,-0.0914 3.8939,-0.0914 4.86737,-0.73098 l 0,-0.6396 c -0.97347,0.45686 -5.84084,0.6396 -5.84084,0.6396 z"
     id="path35244"
     style="fill:#000000;fill-rule:evenodd"
     inkscape:connector-curvature="0"
     sodipodi:nodetypes="ccccccccsccccc" />
  <path
     d="m 123.9069,169.35112 0,0.45685 c 0,0 1.94695,3.01526 5.84084,-0.73097 l 0,-0.6396 c -3.89389,3.28937 -5.84084,1.00509 -5.84084,0.91372 z"
     id="path35246"
     style="fill:#000000;fill-rule:evenodd"
     inkscape:connector-curvature="0"
     sodipodi:nodetypes="ccccc" />
  <path
     d="m 132.66816,138.28483 0,0 0,0.18274 0,1.9188 c 0,1.09646 1.94695,1.9188 1.94695,1.9188 l 0,0 0,0 c 0.97347,1.2792 4.86736,1.46195 5.84084,0.36549 2.92042,-1.09646 2.92042,-2.28429 2.92042,-2.46703 l 0,-0.18274 0,-0.0914 c -5.84084,-3.38075 -8.76126,-1.64469 -10.70821,-1.64469 z m 10.70821,2.10154 c 0,0.27412 0,1.09646 -2.92042,1.55332 -0.97348,0.91371 -4.86737,0.82234 -5.84084,-0.36549 0,0 -1.94695,-0.54823 -1.94695,-1.37057 l 0,0 c 0,-0.36548 0,-0.82234 1.94695,-1.2792 0,0 2.92042,-1.55331 8.76126,1.46194 z"
     id="path35248"
     style="fill:#000000;fill-rule:evenodd"
     inkscape:connector-curvature="0"
     sodipodi:nodetypes="cccsccccsccccccccccc" />
  <path
     d="m 131.69469,136.54877 0,0.45686 c 3.89389,-5.02543 12.65515,1.73606 12.65515,1.73606 l 0.97347,-0.6396 c -0.97347,-0.27412 -9.73473,-7.12697 -13.62862,-1.55332 z"
     id="path35250"
     style="fill:#000000;fill-rule:evenodd"
     inkscape:connector-curvature="0"
     sodipodi:nodetypes="ccccc" />
  <path
     d="m 147.27026,132.80255 c 0,0 -6.81431,-3.8376 -15.57557,-3.38075 l -3.8939,3.65486 c 0,0 3.8939,-5.02543 19.46947,-0.27411 z"
     id="path35252"
     style="fill:#000000;fill-rule:evenodd"
     inkscape:connector-curvature="0"
     sodipodi:nodetypes="cccc" />
  <path
     d="m 127.88684,163.42493 c 0,0 4.86736,5.84777 15.57557,2.64977 0,0 0.97348,-0.91371 0,-1.64468 0,0 -8.76126,1.37057 -11.68168,-4.93406 0,0 -5.84084,-2.37566 -3.89389,3.92897 z"
     id="path35254"
     style="fill:#000000;fill-rule:evenodd"
     inkscape:connector-curvature="0"
     sodipodi:nodetypes="ccccc" />
  <path
     d="m 124.88037,161.4018 c 0,0 -0.97347,7.6752 -13.62863,2.5584 0,0 -0.97347,-0.82234 0,-1.00508 0,0 5.84084,0.91371 8.76126,-3.01526 0,0 4.86737,-2.28429 4.86737,1.46194 z"
     id="path35256"
     style="fill:#000000;fill-rule:evenodd"
     inkscape:connector-curvature="0"
     sodipodi:nodetypes="ccccc" />
  <path
     d="m 112.46122,138.69069 c 0,0 0,3.56349 2.92042,3.56349 0,0 2.92042,0.45686 2.92042,-3.92897 0,0 -3.8939,-0.27412 -5.84084,0.36548 z"
     id="path35262"
     style="fill:#000000;fill-rule:evenodd"
     inkscape:connector-curvature="0"
     sodipodi:nodetypes="cccc" />
  <path
     d="m 109.3048,136.27466 0,0.73097 c 0,0 5.84084,-2.83251 10.7082,-0.45686 l 0.97348,-0.82234 c -5.84084,-2.37566 -11.68168,0.54823 -11.68168,0.54823 z"
     id="path35264"
     style="fill:#000000;fill-rule:evenodd"
     inkscape:connector-curvature="0"
     sodipodi:nodetypes="ccccc" />
  <path
     d="m 120.94669,182.93692 0,0.6396 c 0,0 15.57557,3.38074 26.28378,-12.51789 l 0,-0.36549 c -10.70821,15.44178 -26.28378,12.24378 -26.28378,12.24378 z"
     id="path35266"
     style="fill:#000000;fill-rule:evenodd;stroke:#000000;stroke-width:0.47156033"
     inkscape:connector-curvature="0"
     sodipodi:nodetypes="ccccc" />
  <path
     d="M 179.66125,132.34569 C 138.45647,51.92886 74.66844,123.6002 107.62421,116.17295 c 0,0 27.25726,-12.97475 52.56757,8.13205 0,0 2.92042,1.73606 2.92042,3.01526 l 0,0 c 0,6.03051 5.84084,12.70063 5.84084,12.70063 10.70821,7.76657 10.70821,-7.6752 10.70821,-7.6752 z"
     id="path35276"
     style="fill:#000080;fill-rule:evenodd;stroke:#000000;stroke-width:1.88624132"
     inkscape:connector-curvature="0"
     sodipodi:nodetypes="ccccccc" />
  <path
     d="m 151.16416,109.41146 c 5.84084,4.4772 8.76126,14.34531 8.76126,14.61943 l 0.97347,-0.45686 c 0,-0.27411 -3.89389,-10.2336 -9.73473,-14.89354 z"
     id="path35280"
     style="fill:#000000;fill-rule:evenodd"
     inkscape:connector-curvature="0"
     sodipodi:nodetypes="ccccc" />
  <path
     d="m 139.48247,107.76677 c 5.84084,3.198 10.70821,9.77675 10.70821,9.77675 l 0,-0.27412 c 0,-0.36548 -2.92042,-6.94423 -9.73473,-10.14223 z"
     id="path35282"
     style="fill:#000000;fill-rule:evenodd"
     inkscape:connector-curvature="0"
     sodipodi:nodetypes="ccscc" />
  <path
     d="m 210.54604,256.51946 c 0,0 -3.8939,-9.594 -3.8939,-14.34532 l 0,-11.23868 c 0,0 0,-3.198 2.92042,-4.65995 l 4.86737,-11.69554 c 0,0 0,-1.64468 1.94695,0.54823 0,0 2.92042,4.65994 0,11.14731 l 8.76126,-3.28937 c 0,0 3.89389,0 5.84084,1.64469 0.97347,1.64468 0.97347,4.75131 0,6.30463 0,0 4.86737,3.198 2.92042,4.75131 0,0 0,4.84269 -1.94695,4.84269 l 0,6.396 c 0,1.64468 0,3.198 -0.97347,3.198 0,0 2.92042,6.396 -1.94695,8.04068 l -7.78778,-4.75131 3.89389,20.74131 c 0,0 -10.70821,-3.198 -11.68168,-6.396 l 0,-1.64468 c -2.92042,-3.10663 0,-7.94932 0,-7.94932 0,0 -2.92042,0 -2.92042,-1.64468 z"
     id="path35298"
     style="fill:#fbddb9;fill-rule:evenodd;stroke:#000000;stroke-width:0.92303216"
     inkscape:connector-curvature="0"
     sodipodi:nodetypes="csccccccccccscccccccc" />
  <path
     d="m 215.37743,226.65051 c 0,0 -8.72529,7.48295 -1.91097,7.48295 0,0 14.6021,-4.75132 17.52252,-3.198"
     id="path35304"
     style="fill:none;stroke:#000000;stroke-width:0.55068815"
     inkscape:connector-curvature="0"
     sodipodi:nodetypes="ccc" />
  <path
     d="m 214.43993,234.13346 c 2.92042,-1.55332 13.76121,-5.6352 16.68163,-2.4372 l -0.13258,-0.7608 c -6.75336,-1.56437 -29.50101,8.13644 -14.6021,-4.65995 -4.83038,2.81375 -8.6704,7.7836 -1.94695,7.85795 z"
     id="path35306"
     style="fill:#000000;fill-rule:evenodd"
     inkscape:connector-curvature="0"
     sodipodi:nodetypes="ccccc" />
  <path
     d="m 214.43993,234.13346 c 0,0 -0.97347,3.28937 1.94695,3.28937 0,0 14.6021,0 15.57557,3.10663"
     id="path35310"
     style="fill:none;stroke:#000000;stroke-width:0.55068815"
     inkscape:connector-curvature="0"
     sodipodi:nodetypes="ccc" />
  <path
     d="m 216.38688,237.42283 c 5.84084,0 14.6021,1.46194 15.57557,3.10663 l 0,0 c -0.97347,-3.10663 -14.6021,-3.10663 -15.57557,-3.10663 -1.495,-1.091 -1.94695,-1.56088 -1.94695,-3.28937 l 0,-1.55332 c -0.43668,2.80741 -0.36154,4.83997 1.94695,4.84269 z"
     id="path35312"
     style="fill:#000000;fill-rule:evenodd"
     inkscape:connector-curvature="0"
     sodipodi:nodetypes="ccccccc" />
  <path
     d="m 217.36035,237.42283 c 0,0 -2.92042,3.10663 0,6.396 0,0 11.68168,4.75131 13.62863,6.30463"
     id="path35316"
     style="fill:none;stroke:#000000;stroke-width:0.55068815"
     inkscape:connector-curvature="0"
     sodipodi:nodetypes="ccc" />
  <path
     d="m 217.36035,243.81883 0,0 0,0 c 0,0 10.70821,4.75131 13.62863,7.94931 l 0,-1.64468 c -1.94695,-1.55332 -11.68168,-6.30463 -13.62863,-6.30463 -0.97347,-1.64469 -0.97347,-1.64469 -0.97347,-3.28937 0,-1.64469 0.97347,-3.10663 0.97347,-3.10663 l -0.97347,0 c 0,0 -1.94695,3.10663 0.97347,6.396 z"
     id="path35318"
     style="fill:#000000;fill-rule:evenodd"
     inkscape:connector-curvature="0"
     sodipodi:nodetypes="ccccccsccc" />
  <path
     d="m 221.25425,245.37214 c 0,0 -7.78779,3.198 0,8.04069"
     id="path35322"
     style="fill:none;stroke:#000000;stroke-width:0.55068815"
     inkscape:connector-curvature="0"
     sodipodi:nodetypes="cc" />
  <line
     id="line35330"
     y2="292.88525"
     x2="85.941406"
     y1="295.6264"
     x1="83.994453"
     class="fil9 str0"
     style="fill:none;stroke:#000000;stroke-width:0.55068815" />
  <path
     d="m 86.91491,293.25077 c 0,0 8.76126,-6.30463 9.73473,-9.594 0,0 0.97347,-4.75131 0,-6.396 0,0 3.89389,-1.55331 3.89389,-3.10663 0,0 5.84085,-1.64468 7.78779,0 0,0 2.92042,3.10663 2.92042,-1.64468 0,0 -0.97347,-4.75132 -4.86736,-4.75132 0,0 3.89389,-6.396 0,-7.94931 0,0 0,-6.396 -2.92042,-8.04069 0,0 0.97347,-6.396 -3.8939,-6.396 0,0 -5.84084,-1.55331 -7.78779,1.55332 0,0 -7.78778,4.84268 -10.7082,19.188 l 0,1.64468 c -1.94695,14.25394 -5.84085,12.70063 -7.78779,15.89863 3.89389,7.85794 7.78779,17.08646 13.62863,9.594 z"
     id="path35332"
     style="fill:#fbddb9;stroke:#000000;stroke-width:0.55068815"
     inkscape:connector-curvature="0"
     sodipodi:nodetypes="ccccccccccccccc" />
  <path
     d="m 91.78227,255.423 0,0 c 4.86737,-3.28937 11.68169,-3.28937 11.68169,-3.28937 l 0,0 c 0,0 -6.81432,0 -11.68169,3.28937 z"
     id="path35336"
     style="fill:#000000;fill-rule:evenodd"
     inkscape:connector-curvature="0"
     sodipodi:nodetypes="ccccc" />
  <path
     d="m 93.72922,261.72763 0,0 c 2.92042,-1.55332 11.68168,-1.55332 11.68168,-1.55332 l 0,0 c 0,0 -8.76126,0 -11.68168,1.55332 z"
     id="path35338"
     style="fill:#000000;fill-rule:evenodd"
     inkscape:connector-curvature="0"
     sodipodi:nodetypes="ccccc" />
  <path
     d="m 94.70269,269.67694 0.97348,0 c 0,0 7.78779,-1.46194 12.65515,-1.46194 l 0,-1.64469 c -2.92042,0 -12.65515,1.64469 -13.62863,3.10663 z"
     id="path35340"
     style="fill:#000000;fill-rule:evenodd"
     inkscape:connector-curvature="0"
     sodipodi:nodetypes="ccccc" />
  <path
     d="m 130.72121,192.28534 c -3.66862,-2.77542 -12.4403,-11.12171 -15.84074,-15.27096 -1.94695,0.82234 -8.49609,10.51965 -9.46957,11.43336 2.92042,3.198 8.76126,10.14223 16.54905,13.52298 2.71539,-3.76189 5.42883,-6.6559 8.76126,-9.68538 z"
     id="path35344"
     style="fill:#0000ff;fill-rule:evenodd;stroke:#000000;stroke-width:2"
     inkscape:connector-curvature="0"
     sodipodi:nodetypes="ccccc" />
  <path
     d="m 160.89889,187.99089 c -7.12845,-7.40369 0.73527,-14.45369 -3.71711,-16.11938 -10.56734,15.46996 -15.90113,16.71648 -17.69931,18.95189 4.86737,1.9188 9.73474,6.67012 11.68169,10.50772 l 12.65515,-10.69046 c 0,-1.09646 -2.92042,-2.01017 -2.92042,-2.64977 z"
     id="path35350"
     style="fill:#0000ff;fill-rule:evenodd;stroke:#000000;stroke-width:2"
     inkscape:connector-curvature="0"
     sodipodi:nodetypes="cccccc" />
  <path
     d="m 86.67155,294.28969 c -6.16095,6.45172 -12.53096,-5.99375 -13.62863,-10.40858 l 0,0 c -1.53335,-3.60039 -3.70519,-2.80265 -4.86737,0 0,0 2.92042,12.19291 10.70821,15.66243 l 9.73473,0 c -1.2227,-3.82353 0.87771,-1.79159 -1.94694,-5.25385 z"
     id="path35356"
     style="fill:#0000ff;fill-rule:evenodd;stroke:#000000;stroke-width:1.08303297"
     inkscape:connector-curvature="0"
     sodipodi:nodetypes="ccccccc" />
  <path
     d="m 185.23573,298.89296 0,-9.68538 c -5.84084,0 -57.43494,6.48738 -92.47998,0 -0.97348,1.73606 -3.8939,3.28938 -5.84084,4.84269 l 0,0 c 2.92042,3.198 1.94694,4.84269 1.94694,4.84269 z"
     id="path35362"
     style="fill:#0000ff;fill-rule:evenodd;stroke:#000000;stroke-width:1.88624132"
     inkscape:connector-curvature="0"
     sodipodi:nodetypes="ccccccc" />
  <path
     d="m 92.75575,288.40808 1.94694,0 0.97348,-1.46194 -0.97348,0 c 0,0 -0.97347,0 -1.94694,1.46194 z m 93.45345,-1.46194 c 0,-1.64468 0,-1.64468 -0.97347,-1.64468 0,0 -37.96547,4.84268 -72.03704,3.10662 -1.94695,0 -2.92042,1.73606 -3.89389,1.73606 35.04504,3.10663 75.93093,-1.73606 76.9044,-1.73606 z"
     id="path35380"
     style="fill:#0000ff;fill-rule:evenodd;stroke:#000000;stroke-width:0.94312066"
     inkscape:connector-curvature="0"
     sodipodi:nodetypes="cccccsccccs" />
  <path
     d="m 120.98648,277.26077 c -11.68168,15.99 -27.25726,12.88337 -28.23073,12.88337 -0.97348,0 -0.97348,0 -0.97348,1.55332 l 0,0 c 0.97348,0 18.496,4.75131 32.12463,-12.792 l 0,-1.64469 z"
     id="path35368"
     style="fill:#ffff00;fill-rule:evenodd;stroke:#000000;stroke-width:0.94312066"
     inkscape:connector-curvature="0"
     sodipodi:nodetypes="csccccc" />
  <path
     d="m 120.013,278.90546 -5.84084,-1.64469 -8.76126,3.198 0,0 -0.97347,0 0,0 0,0 -7.78779,4.84269 -2.92042,4.84268 c 3.89389,0 16.54905,0 26.28378,-11.23868 z"
     id="path35374"
     style="fill:#ffff00;fill-rule:evenodd;stroke:#000000;stroke-width:0.94312066"
     inkscape:connector-curvature="0"
     sodipodi:nodetypes="cccccccccc" />
  <path
     d="m 94.70269,285.30146 -1.94694,3.10662 0,0 1.94694,0 0,0 1.94695,-1.46194 -1.94695,-1.64468 z m 0,1.64468 0.97348,0 c -0.97348,0 -0.97348,1.46194 -0.97348,1.46194 l -0.97347,0 z"
     id="path35382"
     style="fill:#000000;fill-rule:evenodd"
     inkscape:connector-curvature="0"
     sodipodi:nodetypes="ccccccccccccc" />
  <path
     d="m 171.78267,189.98867 c -0.97347,11.69555 -6.81311,71.86911 -16.54784,97.27036 4.33184,0.20275 9.91301,0.0808 14.69049,-0.93161 1.94695,-8.04068 17.60971,-61.91668 17.60971,-93.25708 -5.92322,-2.00907 -8.67408,-3.35766 -15.75236,-3.08167 z"
     id="path35388"
     style="fill:#0000ff;fill-rule:evenodd;stroke:#000000;stroke-width:3"
     inkscape:connector-curvature="0"
     sodipodi:nodetypes="ccccc" />
  <path
     d="m 225.39814,271.45614 0,0 0,3.198 c 0,0 -10.70821,-3.198 -11.68168,-6.396 l 0,-1.64468 0,0 0,0 c 0,0 -3.8939,0 -2.92042,3.28937 0,0 3.89389,6.30463 14.6021,7.85794 z"
     id="path35394"
     style="fill:#0000ff;fill-rule:evenodd;stroke:#000000"
     inkscape:connector-curvature="0"
     sodipodi:nodetypes="cccccccccc" />
  <path
     d="m 211.54604,272.33114 0,-1.55331 c -0.97348,-3.28937 2.92042,-3.28937 2.92042,-3.28937 l 0,0 c -2.92042,-3.10663 -2.92042,-4.75132 -2.92042,-6.30463 l 0,0 c 0,0 -16.54905,15.89863 -22.38989,38.28463 l 17.52252,0 c 0,0 -3.89389,-16.08138 4.86737,-27.13732 z"
     id="path35400"
     style="fill:#0000ff;fill-rule:evenodd;stroke:#000000;stroke-width:0.94312066"
     inkscape:connector-curvature="0"
     sodipodi:nodetypes="ccccccccc" />
  <path
     d="m 195.94393,299.70763 3.8939,0 c 3.89389,-17.63469 10.70821,-24.03069 10.70821,-24.03069 l 0,0 c 0,0 -8.76126,6.396 -14.60211,24.03069 z"
     id="path35404"
     style="fill:#000000;fill-rule:evenodd"
     inkscape:connector-curvature="0"
     sodipodi:nodetypes="ccccc" />
  <path
     d="m 229.18471,259.98737 7.78779,39.92932 5.84084,0 c -0.97348,-23.93932 -10.70821,-36.73132 -13.62863,-39.92932 z"
     id="path35408"
     style="fill:#0000ff;fill-rule:evenodd;stroke:#000000"
     inkscape:connector-curvature="0"
     sodipodi:nodetypes="cccc" />
  <path
     d="m 224.89814,276.82361 0,1.55331 c -8.76126,-1.55331 -14.6021,-6.30463 -14.6021,-6.30463 l 0,0 0,1.55332 c -6.81432,12.792 -4.86737,25.584 -4.86737,25.584 l 22.38989,0 z"
     id="path35414"
     style="fill:#000000;fill-rule:evenodd;stroke:#000000;stroke-width:1.88624132"
     inkscape:connector-curvature="0"
     sodipodi:nodetypes="cccccccc" />
  <path
     d="m 190.63586,261.72763 c 0,0 -0.53277,3.28937 -0.53277,6.48737 l 0,1.46194 1.94695,0 c 0,-3.10663 1.94695,-7.94931 1.94695,-7.94931 l 0,0 -1.24997,0 c -1.95578,-9.2168 0.77326,-34.60517 2.96056,-43.57066 l -1.66675,-0.20551 c -2.62688,16.14457 -3.31828,28.68199 -3.40497,43.77617 z"
     id="path35418"
     style="fill:#000000;fill-rule:evenodd"
     inkscape:connector-curvature="0"
     sodipodi:nodetypes="cscccccccc" />
  <path
     d="m 192.06261,261.72763 1.93438,0 c 1.75917,-7.35582 5.52051,-13.61012 7.78779,-20.74132 l -1.13769,-0.35354 c -2.8392,6.00268 -6.05555,15.81589 -8.58448,21.09486 z"
     id="path35420"
     style="fill:#000000;fill-rule:evenodd"
     inkscape:connector-curvature="0"
     sodipodi:nodetypes="ccccc" />
  <path
     style="fill:#0000ff;stroke:#000000;stroke-width:2"
     d="m 125.93218,263.5133 c 0.93276,0.2786 1.96876,7.41251 1.96876,7.41251 l 12.12587,6.87142 c 2.509,-1.5809 11.90993,-5.87559 11.94194,-6.41779 l 1.4856,-8.99208 c 12.85365,-6.84907 14.96786,-20.47412 0.16282,-28.93102 l -0.18276,-3.52375 c 6.81432,0 10.16639,-1.51828 14.06028,-1.51828 1.36301,-7.5333 4.70067,-18.71891 1.72411,-23.00811 -25.31525,7.9141 -46.27531,-1.89953 -69.40632,0.84157 2.99144,12.6072 7.83806,15.26033 7.42195,22.23653 2.92042,0 8.74346,1.5313 16.53125,1.5313 l 0,3.3125 c -11.30891,5.53084 -9.71957,25.06224 2.1665,30.1852 z m 1.51304,-28.01839 c -0.37886,-3.55407 -0.23609,-5.32982 -0.36751,-8.91367 -7.24695,-0.3662 -11.06075,-0.75204 -16.4349,-1.59284 -0.4794,-7.60374 -2.93632,-11.06962 -3.39846,-12.25802 17.37222,2.24724 37.18695,2.85814 58.35784,-1.91401 -0.96509,6.59876 -1.06619,8.99132 -1.14579,13.67604 -2.51344,0.84269 -4.62545,0.71681 -14.52432,2.02347 l -0.71323,8.77512 c 12.93907,6.21488 13.95556,18.47544 0.96875,23.6777 L 147.96885,269.5 c -4.85093,1.9892 -5.97668,2.6211 -8.58839,3.4643 -3.89389,-1.7361 -7.75536,-4.2143 -7.75536,-4.2143 l -2.92862,-8.72066 c -10.39025,-3.28248 -13.32108,-19.17755 -1.25126,-24.53443 z"
     id="path35422"
     inkscape:connector-curvature="0"
     sodipodi:nodetypes="cccccccccccccccccccccccccccc" />
  <path
     d="m 170.89038,190.96659 c 0,0 -4.06587,-0.78765 -7.07107,-0.32593 l -12.65515,10.69046 c -1.94695,-3.8376 -6.81432,-8.58892 -11.68169,-10.50772 l 0,0 c -1.77579,0.3362 -8.31497,1.66917 -8.76126,1.64469 -0.6338,-0.11553 -7.65531,7.92939 -8.26386,9.78816 -7.78779,-3.38075 -14.12603,-10.61051 -17.04645,-13.80851 -4.00607,-0.34524 -9.06874,0.49475 -12.38398,1.23887 0.97348,1.82743 5.56967,13.65468 6.54314,16.39582 l 2.92042,0.54823 c 10.70821,2.83251 35.04505,8.40617 67.16967,-1.55332 l 0.97347,-0.27411 c 1.35935,-5.27279 0.71218,-9.78083 0.25676,-13.83664 z"
     id="path35434"
     style="fill:#000080;fill-rule:evenodd;stroke:#000000;stroke-width:2"
     inkscape:connector-curvature="0"
     sodipodi:nodetypes="cccccccccccccc" />
  <path
     d="m 80.10061,266.22024 c 0,0 -20.44294,-9.95291 -34.07157,6.63528 0,0 -15.57558,8.2467 -22.38989,26.5411 l 33.0981,0 c 0,0 0,-10.0477 10.70821,-14.97676 l 0,0 c 1.94694,-4.92907 5.84084,-1.70622 5.84084,-1.70622 l 0,0 0,0 c 1.94694,-1.61142 4.86736,-3.22285 6.81431,-14.78718 l 0,-1.70622 0,0 z"
     id="path35440"
     style="fill:#0000ff;fill-rule:evenodd;stroke:#000000;stroke-width:1.88624132"
     inkscape:connector-curvature="0"
     sodipodi:nodetypes="ccccccccccccc" />
  <path
     d="m 52.84333,277.71763 0.97348,1.64468 C 62.57807,266.57031 79.12712,265.017 79.12712,265.017 l 0,0 c 0,0 -16.54905,1.55331 -26.28379,12.70063 z"
     id="path35446"
     style="fill:#000000;fill-rule:evenodd"
     inkscape:connector-curvature="0"
     sodipodi:nodetypes="ccccc" />
  <path
     d="m 68.41891,283.65677 c -9.73473,5.17795 -10.70821,13.94065 -10.70821,15.73302 l 19.46947,0 c -5.84084,-3.48516 -7.78779,-13.94065 -8.76126,-15.73302 z"
     id="path35450"
     style="fill:#000000;fill-rule:evenodd;stroke:#000000;stroke-width:0.98455393"
     inkscape:connector-curvature="0"
     sodipodi:nodetypes="cccc" />
  <path
     d="m 61.2561,210.74237 c 0,0.0914 9.26125,20.64994 11.2082,52.62994 l 1.52661,0.17677 c -0.97347,-31.98 -11.41284,-53.08082 -11.41284,-53.17219 z"
     id="path35454"
     style="fill:#000000;fill-rule:evenodd"
     inkscape:connector-curvature="0"
     sodipodi:nodetypes="ccccc" />
  <path
     d="m 54.94181,225.12131 c 6.63645,14.35209 14.0248,26.01699 15.49419,37.52333 l 2.24707,0.14547 c -1.34873,-13.9841 -9.7984,-26.47827 -17.74126,-37.6688 z"
     id="path35456"
     style="fill:#000000;fill-rule:evenodd"
     inkscape:connector-curvature="0"
     sodipodi:nodetypes="cccc" />
  <path
     d="m 137.53553,234.40757 c -4.46699,5.68253 -7.68957,10.52454 -7.78779,16.17274 3.39796,7.47816 12.57409,-5.89706 4.86737,7.94932 l 9.73473,0 c -10.24567,-13.59821 5.85654,-0.92446 4.86737,-9.594 -1.94695,-4.75132 -4.86737,-9.594 -11.68168,-14.52806 z"
     id="path35460"
     style="fill:#000000;fill-rule:evenodd"
     inkscape:connector-curvature="0"
     sodipodi:nodetypes="cccccc" />
  <path
     d="m 93.72922,261.45351 0.97347,0 c 0,0 7.78779,-1.46194 11.68169,-1.46194 l 0,-1.73606 c -1.94695,0 -11.68169,1.73606 -12.65516,3.198 z"
     id="path35340-1"
     style="fill:#000000;fill-rule:evenodd"
     inkscape:connector-curvature="0"
     sodipodi:nodetypes="ccccc" />
  <path
     d="m 91.78227,254.60066 0,0 c 0,0 6.81432,-1.46195 11.68169,-1.46195 l 0,-1.73605 c -2.92043,0 -11.68169,1.73605 -11.68169,3.198 z"
     id="path35340-5"
     style="fill:#000000;fill-rule:evenodd"
     inkscape:connector-curvature="0"
     sodipodi:nodetypes="ccccc" />
  <path
     d="m 120.67303,138.31169 0,0 0,0.18274 0,1.9188 c 0,1.09646 -1.94695,1.9188 -1.94695,1.9188 l 0,0 0,0 c -0.97347,1.2792 -4.86737,1.46194 -5.84084,0.36548 -2.92042,-1.09645 -2.92042,-2.28428 -2.92042,-2.46702 l 0,-0.18275 0,-0.0914 c 5.84084,-3.38074 8.76126,-1.64468 10.70821,-1.64468 z m -10.70821,2.10154 c 0,0.27411 0,1.09646 2.92042,1.55331 0.97347,0.91372 4.86737,0.82235 5.84084,-0.36548 0,0 1.94695,-0.54823 1.94695,-1.37057 l 0,0 c 0,-0.36549 0,-0.82235 -1.94695,-1.2792 0,0 -2.92042,-1.55332 -8.76126,1.46194 z"
     id="path35248-8"
     style="fill:#000000;fill-rule:evenodd"
     inkscape:connector-curvature="0"
     sodipodi:nodetypes="cccsccccsccccccccccc" />
  <path
     d="m 134.66173,138.82283 c 0,0 0,3.56348 2.92042,3.56348 0,0 2.92042,0.45686 2.92042,-3.92897 0,0 -3.8939,-0.27411 -5.84084,0.36549 z"
     id="path35262-2"
     style="fill:#000000;fill-rule:evenodd"
     inkscape:connector-curvature="0"
     sodipodi:nodetypes="cccc" />
  <path
     d="m 160.89889,124.305 c -25.31031,-21.1068 -52.56757,-8.13205 -52.56757,-8.13205 -1.94694,1.46194 0,5.20817 0,5.20817 24.33684,-8.40617 40.88589,2.01017 40.88589,2.01017 1.94695,-1.18783 7.34586,8.99384 7.34586,8.99384 8.76126,2.10155 4.33582,-8.08013 4.33582,-8.08013 z"
     id="path35270"
     style="fill:#0000ff;fill-rule:evenodd;stroke:#000000;stroke-width:1.00310314"
     inkscape:connector-curvature="0"
     sodipodi:nodetypes="cccccc" />
  <ellipse
     style="fill:none;stroke:#000000;stroke-width:1.5"
     id="path8070"
     cx="117.5437"
     cy="219.90973"
     rx="3.5355339"
     ry="3.2703688" />
  <ellipse
     style="fill:none;stroke:#000000;stroke-width:1.5"
     id="path8072"
     cx="137.31238"
     cy="220.84912"
     rx="3.5355339"
     ry="3.3587573" />
  <ellipse
     style="fill:none;stroke:#000000;stroke-width:1.5"
     id="path8074"
     cx="156.90948"
     cy="219.13678"
     rx="3.2703688"
     ry="3.1819804" />
  <path
     style="fill:#ffff00;fill-rule:evenodd;stroke:#000000;stroke-width:0.56900257"
     d="m 114.13994,292.39025 -3.28621,-5.75605 -9.11313,3.24929 1.05743,2.43422 z"
     id="polygon35224-6"
     inkscape:connector-curvature="0"
     sodipodi:nodetypes="ccccc" />
</svg>
