<?xml version="1.0" encoding="UTF-8" standalone="no"?>
<!-- Created with Inkscape (http://www.inkscape.org/) -->

<svg
   xmlns:dc="http://purl.org/dc/elements/1.1/"
   xmlns:cc="http://creativecommons.org/ns#"
   xmlns:rdf="http://www.w3.org/1999/02/22-rdf-syntax-ns#"
   xmlns:svg="http://www.w3.org/2000/svg"
   xmlns="http://www.w3.org/2000/svg"
   xmlns:sodipodi="http://sodipodi.sourceforge.net/DTD/sodipodi-0.dtd"
   xmlns:inkscape="http://www.inkscape.org/namespaces/inkscape"
   version="1.1"
   width="250"
   height="300"
   viewBox="0 0 250 300"
   id="cards"
   inkscape:version="0.91 r13725"
   sodipodi:docname="face_DQ.svg">
  <sodipodi:namedview
     pagecolor="#ffffff"
     bordercolor="#666666"
     objecttolerance="10"
     gridtolerance="10"
     guidetolerance="10"
     inkscape:pageopacity="0"
     inkscape:pageshadow="2"
     inkscape:window-width="1920"
     inkscape:window-height="978"
     id="namedview6787"
     showgrid="false"
     inkscape:zoom="2"
     inkscape:cx="236.41828"
     inkscape:cy="81.172496"
     inkscape:window-x="0"
     inkscape:window-y="1"
     inkscape:window-maximized="1"
     inkscape:current-layer="cards"
     showguides="true"
     inkscape:guide-bbox="true" />
  <defs
     id="defs2680" />
  <metadata
     id="metadata97">
    <rdf:RDF>
      <cc:Work
         rdf:about="">
        <dc:format>image/svg+xml</dc:format>
        <dc:type
           rdf:resource="http://purl.org/dc/dcmitype/StillImage" />
        <dc:title />
      </cc:Work>
    </rdf:RDF>
  </metadata>
  <path
     d="m 190.46223,184.00546 c 31.483,20.04635 35.08106,-22.66924 20.68883,-19.20329 -1.79903,-1.96716 -8.99515,-4.96475 -11.69369,0.46838 -6.2966,3.27861 -8.09563,3.6533 -6.2966,8.89908 -5.39708,3.55963 -2.69854,8.52438 -2.69854,9.83583 z"
     id="path16430"
     style="fill:#ff0000;fill-rule:evenodd"
     inkscape:connector-curvature="0" />
  <path
     d="m 218.34717,205.1759 c 0,0 4.49757,-14.3322 15.29174,-16.20569 0,0 -0.89951,8.61806 -15.29174,16.20569 z m -0.89951,5.1521 c 0,0 -2.69855,-8.61805 -13.49272,-2.06084 0,0 -1.79903,2.43554 -6.2966,1.96717 0,0 9.89466,6.65089 19.78932,0.0937 z m -3.59806,-11.24094 c 0,0 -12.5932,-16.5804 -25.1864,-2.81024 0,0 -2.69854,3.46596 -5.39709,2.62289 0,0 7.19612,3.46596 14.39223,-0.56205 0,0 9.89466,-4.68373 16.19126,0.7494 z m 3.59806,1.77981 c 0,0 -9.89466,-22.66924 15.29174,-26.41622 0,0 -15.29174,14.14486 -15.29174,26.41622 z M 207.553,186.72202 c 0,0 21.58834,29.97585 4.49757,60.88845 l 2.69854,3.27861 c 0,0 18.8898,-25.0111 -6.2966,-64.91646 z m 14.39223,38.12554 c 0,0 7.19611,-9.9295 11.69368,-23.98069 0,0 -5.39708,-1.49879 -11.69368,23.98069 z"
     id="path16142"
     style="fill:#33a02b;fill-rule:evenodd;stroke:#000000;stroke-width:0.23344059"
     inkscape:connector-curvature="0" />
  <path
     d="m 33.94674,285.36132 c 4.49757,-6.46355 13.49272,-16.39305 22.48786,-22.95027 0,0 24.28689,-37.56349 26.98543,-68.94446 0,0 0,-0.93675 0.89951,-2.90392 -5.39708,4.02801 -17.99028,14.61323 -21.58834,15.73733 0,0 -8.09563,1.21777 -8.09563,10.58522 0,0 -2.69854,2.81024 -4.49757,2.81024 0,0 -8.09563,3.37228 -9.89466,6.74457 0,0 -4.49757,4.87107 -0.89951,6.46354 0,0 1.79903,1.68614 0,4.96475 0,0 -3.59806,4.87108 -0.89952,6.46355 0,0 -2.69854,4.96475 0,6.55721 0,0 -8.09563,3.37229 -7.19611,9.83583 0,0 5.39708,16.29937 2.69854,24.63641 z"
     id="path16154"
     style="fill:#fede58;fill-rule:evenodd;stroke:#000000;stroke-width:1.48366833"
     inkscape:connector-curvature="0" />
  <path
     d="m 119.4006,299.0378 c 43.17669,0 76.45871,-0.0937 118.73589,-0.0937 0,-13.11444 0,-22.20087 0,-35.22163 -91.75046,-36.72043 -146.62083,-87.02366 -118.73589,35.3153 z"
     id="polygon16160"
     style="fill:#ff0000;fill-rule:evenodd;stroke:#000000;stroke-width:2.03112817"
     inkscape:connector-curvature="0" />
  <path
     d="m 149.98409,178.57233 c 74.65968,-31.56832 -58.46843,-189.34436 -41.37766,17.23612 1.79903,7.77499 4.49757,16.29937 3.59806,23.60599 18.8898,4.30902 53.97085,10.49154 73.76017,0.46837 0,-5.71415 -41.37766,-39.06229 -35.98057,-41.31048 z"
     id="path16166-5"
     style="fill:#fbddb9;fill-rule:evenodd;stroke:#000000;stroke-width:0.98908156"
     inkscape:connector-curvature="0" />
  <circle
     style="opacity:1;fill:#ffffff;fill-opacity:1;stroke:#000000;stroke-width:1.5;stroke-miterlimit:4;stroke-dasharray:none;stroke-opacity:1"
     id="circle5040"
     cx="111.0769"
     cy="204.71967"
     r="5.4759517" />
  <path
     d="m 133.79283,128.6438 c 0,0 8.09563,-2.15452 11.69368,0.65572 0.89952,-2.06084 -11.69368,-3.55963 -11.69368,-0.65572 z"
     id="path16174-1"
     style="fill:#000000;fill-rule:evenodd;stroke:#000000;stroke-width:1.0156101"
     inkscape:connector-curvature="0" />
  <path
     d="m 153.74083,132.30798 c 1.33622,5.90771 2.09647,13.87393 3.40592,17.80102 0.53958,1.61823 -1.45762,2.55581 -4.29414,2.98385 -5.39709,-3.84065 -4.04369,0.97188 -4.94321,-3.33715 0,5.24577 1.34515,0.43324 3.14418,2.58776 2.5225,1.92017 4.3366,0.17462 6.86461,-1.03637 0.5799,0.68036 -5.34428,-16.31798 -3.63282,-22.21761 0.58598,-2.01995 4.30152,-2.55981 9.24416,-0.83367 -11.56534,-3.97296 -9.2113,2.00304 -9.7887,4.05217 z"
     id="path16176-7"
     style="fill:#000000;fill-rule:evenodd;stroke:#000000;stroke-width:0.50780505"
     inkscape:connector-curvature="0"
     sodipodi:nodetypes="csccccscc" />
  <path
     d="m 144.587,160.02477 c 0,0 3.59806,0.0937 3.59806,0.56205 0,0 3.59805,2.15451 6.2966,-0.0937 0,0 0.89951,-0.74939 2.69854,-0.74939"
     id="path16180-1"
     style="fill:none"
     inkscape:connector-curvature="0" />
  <path
     d="m 157.1802,159.74375 c 0,0.28102 0,0.28102 -1.79903,0.56204 -0.89951,-0.18734 -0.89951,1.96717 -4.49757,1.4988 -2.69854,-1.68614 -6.2966,-1.68614 -6.2966,-1.77982 0,-0.28102 3.59806,-0.28102 6.2966,1.1241 0.89951,0.65572 3.59806,-1.59247 4.49757,-1.40512 1.79903,-0.18735 1.79903,0 1.79903,0 z"
     id="path16182"
     style="fill:#000000;fill-rule:evenodd;stroke:#000000;stroke-width:0.50780505"
     inkscape:connector-curvature="0" />
  <path
     d="m 149.98409,164.98952 c 0,0 1.79902,0.46838 4.49757,-0.3747"
     id="path16186-1"
     style="fill:none"
     inkscape:connector-curvature="0" />
  <path
     d="m 154.48166,164.61482 c 0,0.18735 -2.69855,0.84308 -3.59806,0.84308 -0.89951,0 -0.89951,-0.28103 -0.89951,-0.46838 0,-0.0937 0,-0.0937 0.89951,-0.0937 0.89951,0 3.59806,-0.56205 3.59806,-0.28103 z"
     id="path16188"
     style="fill:#000000;fill-rule:evenodd;stroke:#000000;stroke-width:0.50780505"
     inkscape:connector-curvature="0" />
  <path
     d="m 185.96466,216.51052 c 0,0 -2.69855,-2.90391 0.89951,-1.77981 0,0 9.89466,4.12168 12.5932,14.89425 0,0 0,4.96475 2.69854,6.65089 0,0 5.39709,4.87108 4.49758,16.39305 0,0 -17.99029,27.82134 -39.57863,45.71318 l -9.89466,0 c 7.19611,-32.41139 38.67911,-57.23515 28.78446,-81.87156 z"
     id="path16202-2"
     style="fill:#d0c9ff;fill-rule:evenodd;stroke:#000000;stroke-width:2.03112817"
     inkscape:connector-curvature="0" />
  <path
     d="m 114.90303,256.60323 c -9.89466,23.13762 -53.07135,29.97586 -60.26746,42.52825 l 75.5592,0 C 119.4006,281.14596 114.90303,256.60323 114.90303,256.60323 Z m 93.54948,-5.5268 c -1.79902,3.27861 -21.58834,31.662 -41.37765,48.05505 13.49271,0 24.28688,0 36.88008,0 17.99029,-15.26895 25.1864,-46.83728 4.49757,-48.05505 z"
     id="path16286"
     style="fill:#7e9eff;fill-rule:evenodd;stroke:#000000;stroke-width:1.97834682"
     inkscape:connector-curvature="0"
     sodipodi:nodetypes="cccccccc" />
  <path
     d="m 140.98894,170.61 c 0.89952,3.37228 3.59806,5.43312 7.19612,4.87107 0,4.40271 -6.2966,-0.93674 -7.19612,-4.87107 z"
     id="path16216"
     style="fill:#000000;fill-rule:evenodd"
     inkscape:connector-curvature="0" />
  <path
     d="m 172.47194,164.98952 c -2.69854,-4.028 2.69855,-8.33703 0,-13.02076 5.39709,-8.43071 -0.89951,-16.67407 -0.89951,-24.16803 0.38334,-15.29248 -6.02284,-18.89189 -17.96919,-30.25482 -21.31059,-20.76361 -45.50044,-1.35849 -46.79584,28.475 3.59806,6.83824 -3.59806,27.35297 0,32.97344 5.39709,15.26895 1.79903,24.35538 1.79903,37.28247 6.2966,4.59005 11.69368,-2.99758 13.49271,-9.74215 12.5932,6.36987 14.39223,-4.68373 14.39223,-4.68373 -3.59806,5.71415 -9.20322,-6.08884 -5.60516,-8.52438 5.39708,-5.24578 -2.00711,-12.56449 -2.00711,-12.56449 2.69854,-6.18252 3.79048,-14.92446 1.09194,-20.63861 -3.59806,-5.80782 5.52689,-11.5945 -0.76971,-19.55683 3.59806,-5.9015 7.29004,0.20851 9.98858,-7.75383 6.2966,-1.39575 9.89466,-3.79382 11.69369,-6.68836 2.69854,3.5971 12.52725,10.12408 14.32628,8.25059 1.59135,11.15895 2.53678,16.68201 -0.0218,28.97567 -0.69554,3.34203 -2.20343,6.03615 -3.22578,10.04267 -1.65693,6.49344 -3.64485,13.84117 -5.31132,19.07455 -0.6908,2.16938 -5.33618,3.44323 -8.46596,3.66887 -1.79903,9.64848 16.19126,20.51473 20.68883,24.44906 -3.59806,-20.04635 2.69854,-22.20087 3.59805,-35.59633 z"
     id="path16220-6"
     style="fill:#ffffff;fill-rule:evenodd;stroke:#000000;stroke-width:0.93376237"
     inkscape:connector-curvature="0"
     sodipodi:nodetypes="ccccccccccccccccssscccc" />
  <path
     d="m 153.31438,94.21922 c -0.14977,4.7082 -10.68369,3.98356 -39.45955,22.59058 -6.58996,4.2612 -6.51136,29.61239 -7.04743,43.02762 6.2966,11.89667 0,32.0367 2.69854,40.37373 5.39709,17.32979 -0.89951,39.53066 5.39709,56.57943 0,9.9295 -9.89466,8.61806 -10.79417,13.11444 0,0 -1.79903,11.42829 -15.29175,11.42829 -1.79902,-3.18493 -4.49757,0.18735 -4.49757,3.18494 -8.09563,2.24819 -24.28688,12.17769 -29.68397,12.83341 -3.59806,3.84066 -23.38737,1.59247 -29.68397,1.59247 5.39708,-11.4283 16.53164,-25.19854 27.32581,-32.6925 34.50447,-45.53097 26.92091,-117.84898 57.11404,-150.18998 1.85347,-1.98532 2.34574,0.64 1.87237,-0.23945 -9.09978,-16.90621 16.55789,-34.71878 42.05056,-21.60298 z"
     id="path16208-7"
     style="fill:#d0c9ff;fill-rule:evenodd;stroke:#000000;stroke-width:2.03112817"
     inkscape:connector-curvature="0"
     sodipodi:nodetypes="cscccccccccssc" />
  <path
     d="m 122.09914,186.34732 c 0,0 -1.79903,0.18735 -3.59805,-3.65331"
     id="path16232-4"
     style="fill:none"
     inkscape:connector-curvature="0" />
  <path
     d="m 118.50109,182.69401 c 0.89951,1.77982 1.79902,3.37229 3.59805,3.37229 l 0,0.65572 c -1.79903,-0.18735 -2.69854,-1.96717 -3.59805,-4.02801 z"
     id="path16234"
     style="fill:#000000;fill-rule:evenodd"
     inkscape:connector-curvature="0" />
  <path
     d="m 185.96466,220.44486 c -17.09077,11.52197 -64.76503,1.77981 -72.86066,-0.0937 0,3.18494 0,10.86625 0.89951,17.51714 1.79903,1.87349 6.2966,3.09126 10.79418,3.65331 0,0 8.09562,39.71801 5.39708,56.11105 8.09563,0.0937 15.29174,0 26.08592,0 2.69854,-6.65089 12.5932,-41.77884 15.29174,-54.89328 0,0 6.2966,0 13.49271,-3.27861 0.89952,-4.21536 1.79903,-17.23612 0.89952,-19.01593 z"
     id="path16298"
     style="fill:#ffffff;fill-rule:evenodd;stroke:#000000;stroke-width:2.03112817"
     inkscape:connector-curvature="0" />
  <path
     d="m 38.44431,244.98759 c 0,0 5.39709,1.49879 7.19612,4.7774 0,-10.39788 -0.89952,-2.43554 -7.19612,-4.7774 z"
     id="path16322"
     style="fill:#000000;fill-rule:evenodd"
     inkscape:connector-curvature="0" />
  <path
     d="m 60.93217,221.94365 c 5.39709,0.74939 5.39709,5.71415 7.19612,9.83583 l 0,0 c -1.79903,-6.2762 -0.89952,-8.05602 -7.19612,-11.52197 z"
     id="path16326"
     style="fill:#000000;fill-rule:evenodd"
     inkscape:connector-curvature="0" />
  <path
     d="m 43.8414,236.55688 c 5.39708,0.0937 -1.79903,-1.77982 -1.79903,-3.18494 0,1.87349 1.79903,2.34187 1.79903,3.18494 z"
     id="path16328"
     style="fill:#000000;fill-rule:evenodd"
     inkscape:connector-curvature="0" />
  <path
     d="m 88.81711,278.89777 c 0,0 -2.69854,-39.43698 -0.89951,-62.94929"
     id="path16332"
     style="fill:none"
     inkscape:connector-curvature="0" />
  <path
     d="m 87.9176,215.94848 c -0.89951,20.32737 0,41.5915 0.89951,62.94929 l 0,0 C 87.9176,257.53998 86.11857,236.27585 87.9176,215.94848 Z"
     id="path16334"
     style="fill:#000000;fill-rule:evenodd"
     inkscape:connector-curvature="0" />
  <path
     d="m 84.31954,280.49024 c 0,0 -0.89951,-37.75084 1.79903,-62.29357"
     id="path16338"
     style="fill:none"
     inkscape:connector-curvature="0" />
  <path
     d="m 86.11857,218.19667 c -1.79903,21.26412 -1.79903,42.52824 -1.79903,62.29357 -0.89951,-21.91984 -0.89951,-43.83969 1.79903,-62.29357 z"
     id="path16340"
     style="fill:#000000;fill-rule:evenodd"
     inkscape:connector-curvature="0" />
  <path
     d="m 108.60643,264.0972 c 0,0 -6.2966,-18.07919 -3.59806,-63.41767"
     id="path16344-2"
     style="fill:none"
     inkscape:connector-curvature="0" />
  <path
     d="m 105.00837,200.67953 c -0.89951,20.79575 -1.79903,42.05987 3.59806,63.41767 -4.49757,10.11685 -4.49757,-58.73395 -3.59806,-63.41767 z"
     id="path16346"
     style="fill:#000000;fill-rule:evenodd"
     inkscape:connector-curvature="0" />
  <path
     d="m 101.41031,139.79107 c 0,0 -1.79902,34.65958 -7.19611,45.9942"
     id="path16350"
     style="fill:none"
     inkscape:connector-curvature="0" />
  <path
     d="m 101.41031,139.79107 c 0,0 -1.79902,34.65958 -7.19611,45.9942"
     id="path16354"
     style="fill:none"
     inkscape:connector-curvature="0" />
  <path
     d="m 94.2142,185.78527 c 4.49757,-16.01835 5.39709,-28.47706 7.19611,-45.9942 -1.79902,16.29937 -1.79902,29.32013 -7.19611,45.9942 z"
     id="path16356-2"
     style="fill:#000000;fill-rule:evenodd"
     inkscape:connector-curvature="0" />
  <path
     d="m 99.61129,148.31545 c 0,0 -2.69855,24.54273 -10.79418,35.87736"
     id="path16360"
     style="fill:none"
     inkscape:connector-curvature="0" />
  <path
     d="m 99.61129,148.31545 c 0,0 -2.69855,24.54273 -10.79418,35.87736"
     id="path16364"
     style="fill:none"
     inkscape:connector-curvature="0" />
  <path
     d="m 87.01809,184.19281 c 12.5932,-14.05119 9.89465,-38.21922 10.79417,-35.87736 -2.69855,12.64607 -2.69855,24.35539 -10.79417,35.87736 z"
     id="path16366"
     style="fill:#000000;fill-rule:evenodd"
     inkscape:connector-curvature="0" />
  <path
     d="m 199.45737,229.62496 c 0,0 0,8.24336 -6.2966,21.26412"
     id="path16380"
     style="fill:none"
     inkscape:connector-curvature="0" />
  <path
     d="m 199.45737,229.62496 c 0,0 0,8.24336 -6.2966,21.26412"
     id="path16384"
     style="fill:none"
     inkscape:connector-curvature="0" />
  <path
     d="m 193.16077,250.88908 c 3.59806,-6.55721 6.2966,-14.61323 6.2966,-21.26412 l 0,0 c 0,8.24336 -2.69854,14.70691 -6.2966,21.26412 z"
     id="path16386"
     style="fill:#000000;fill-rule:evenodd"
     inkscape:connector-curvature="0" />
  <path
     d="m 213.8496,204.89488 c 0,0 4.49757,3.84066 8.09563,4.02801 0.89951,6.46354 2.69854,7.58763 -4.49757,4.68372 -2.69855,0.7494 -5.39709,4.40271 -3.59806,5.9015 -1.79903,-0.18735 -2.69854,5.1521 -1.79903,5.33945 l 2.69854,4.7774 c -3.59805,3.93433 -0.89951,3.18494 0,8.24336 0,3.65331 7.19612,12.64607 4.49758,16.39305 4.49757,11.33462 13.49271,6.46354 14.39222,-1.59247 -1.79902,-7.02559 1.79903,-22.66924 -0.89951,-27.82134 0,0 -3.59806,-11.4283 -3.59806,-13.86383 -3.59805,-7.21294 -11.69368,-10.39788 -17.99028,-11.24095 -4.49757,3.09126 0.89951,5.62047 2.69854,5.1521 z"
     id="path16390"
     style="fill:#fbddb9;fill-rule:evenodd;stroke:#000000;stroke-width:1.0156101"
     inkscape:connector-curvature="0" />
  <path
     d="m 222.84474,225.7843 c 0.89952,-2.06084 -6.2966,-5.33944 -8.99514,-6.74456 0,2.34186 6.2966,5.24577 8.99514,6.74456 z"
     id="polygon16394"
     style="fill:#000000;fill-rule:evenodd"
     inkscape:connector-curvature="0" />
  <path
     d="m 219.24669,232.52887 c 0,-1.49879 -2.69855,-2.90391 -4.49758,-3.93433 -0.89951,1.49879 3.59806,3.09126 4.49758,3.93433 z"
     id="polygon16396"
     style="fill:#000000;fill-rule:evenodd"
     inkscape:connector-curvature="0" />
  <path
     d="m 239.036,250.88908 c -9.89466,-0.37469 -1.79903,14.70691 -19.78931,4.96476 0,0 -11.69369,13.11443 2.69854,8.24336 5.39708,5.1521 8.09563,4.96475 9.89466,0 6.2966,1.77981 7.19611,-3.09126 7.19611,-13.20812 z"
     id="path16400"
     style="fill:#ffffff;fill-rule:evenodd;stroke:#000000;stroke-width:2.03112817"
     inkscape:connector-curvature="0" />
  <path
     d="m 208.45251,160.58682 c 0,0 5.39709,9.36745 3.59806,14.98793"
     id="path16436"
     style="fill:none"
     inkscape:connector-curvature="0" />
  <path
     d="m 217.44766,165.4579 c 0,0 0,4.49637 -2.69855,6.65089"
     id="path16442"
     style="fill:none"
     inkscape:connector-curvature="0" />
  <path
     d="m 203.95494,160.30579 c 0,0 3.59806,7.68132 2.69855,14.33221"
     id="path16448"
     style="fill:none"
     inkscape:connector-curvature="0" />
  <path
     d="m 196.75883,166.58199 c 0,0 5.39708,3.55963 8.09563,11.33462"
     id="path16454"
     style="fill:none"
     inkscape:connector-curvature="0" />
  <path
     d="m 193.16077,174.16963 c 0,0 8.99514,2.15451 8.99514,7.40029"
     id="path16460"
     style="fill:none"
     inkscape:connector-curvature="0" />
  <path
     d="m 202.15591,181.56992 c -2.69854,-3.27861 -8.99514,-4.02801 -8.99514,-7.21294 0,5.80782 8.09563,4.59005 8.99514,7.21294 z m 4.49758,-7.02559 c -1.79903,-4.87108 -1.79903,-6.55722 -5.39709,-8.89909 5.39709,-0.65572 3.59806,5.62048 5.39709,8.89909 z m 5.39708,1.03042 c 1.79903,-5.05843 0.89952,-5.99517 -0.89951,-10.58523 2.69854,3.84066 2.69854,6.08885 0.89951,10.58523 z"
     id="path16462"
     style="fill:#800000;fill-rule:evenodd;stroke:#800000;stroke-width:0.50780505"
     inkscape:connector-curvature="0" />
  <path
     d="m 193.16077,180.25847 c 0,0 4.49757,-0.37469 8.09563,2.71657"
     id="path16466"
     style="fill:none"
     inkscape:connector-curvature="0" />
  <rect
     style="opacity:1;fill:#ff0000;fill-opacity:1;stroke:#000000;stroke-width:2;stroke-miterlimit:4;stroke-dasharray:none;stroke-opacity:1"
     id="rect5060"
     width="20.360834"
     height="20.360821"
     x="253.36618"
     y="53.455845"
     ry="0"
     transform="matrix(0.7151039,0.69901817,-0.69901817,0.7151039,0,0)" />
  <path
     style="fill:#ffff00;fill-rule:evenodd;stroke:#000000;stroke-width:1.40064359"
     d="m 148.99802,90.15471 c -17.90913,7.73442 -18.47653,6.39787 -38.30461,20.28855 1.15913,4.09441 1.91659,6.89185 2.36541,8.11372 13.45379,-10.1422 32.9163,-18.65981 40.73501,-22.11351 -0.58205,-1.16357 -2.61029,-2.64362 -4.79581,-6.28876 z"
     id="path16474"
     inkscape:connector-curvature="0"
     sodipodi:nodetypes="ccccc" />
  <path
     style="fill:#ffff00;fill-rule:evenodd;stroke:#000000;stroke-width:1.40064359"
     d="m 144.41378,84.85917 c -5.6651,9.47375 -5.7052,10.4426 -11.16827,1.65257 -0.34806,-2.07816 1.14296,-5.01999 1.72655,-6.10813 -2.73388,-0.99765 -4.96112,-2.63542 -7.9328,-4.20364 -0.48745,1.46298 -1.21258,6.72101 -1.5594,8.18433 1.18583,0.88618 3.16385,1.86518 5.05009,2.90807 -2.18141,11.70458 -2.80333,11.96843 -10.28688,6.76001 -0.16281,-2.55584 -0.42386,-7.8302 -0.42386,-7.8302 l -8.8939,-1.91196 0.23798,9.75295 c 0,0 3.86029,1.04472 6.73739,1.15914 2.30023,10.10614 2.30526,10.94771 -8.35355,8.2666 -1.07398,-1.24314 -0.55585,-4.39646 -0.44376,-5.10948 -3.60226,-0.80531 -7.13873,-1.5615 -9.27471,-2.29194 -0.4321,1.78224 -0.23091,7.75463 -0.66642,9.62846 1.0504,0.13533 5.76409,0.13283 8.43512,1.18031 3.96423,4.3174 1.88265,4.74162 1.88265,4.74162 18.56869,-12.14268 21.00297,-13.63813 40.24684,-21.30697 0,0 -1.30325,1.19093 -1.52616,-4.6833 1.69984,-1.53341 2.82883,-4.77818 3.57063,-5.11607 -1.90865,-2.19874 -4.76914,-5.04172 -6.12175,-6.61185 -0.98344,0.69918 -3.55264,5.5424 -4.91248,6.55218 1.17406,1.94369 2.1118,2.44649 3.67669,4.3873 z"
     id="path16480"
     inkscape:connector-curvature="0"
     sodipodi:nodetypes="ccccccccccccccccccccccc" />
  <path
     d="m 57.33411,224.28551 c 0,7.21294 3.59806,6.2762 8.09563,6.83824 -2.69854,-2.15451 0,-6.65089 -8.09563,-6.83824 z"
     id="path16112-1-78"
     style="fill:#000000;stroke:#000000;stroke-width:0.96760184"
     inkscape:connector-curvature="0" />
  <path
     d="m 138.2904,134.07692 c 0,3.93433 4.49757,2.43554 4.49757,0 0,-3.55963 -4.49757,-2.71656 -4.49757,0 z"
     id="path261-1"
     style="fill:#000000;fill-rule:evenodd"
     inkscape:connector-curvature="0"
     sodipodi:nodetypes="sss" />
  <path
     d="m 158.36775,132.29232 c -0.95475,2.80964 2.06614,3.95828 3.18234,1.69223 1.24023,-2.51784 -2.38969,-3.83462 -3.18234,-1.69223 z"
     id="path263-7"
     style="fill:#000000;fill-rule:evenodd"
     inkscape:connector-curvature="0"
     sodipodi:nodetypes="csc" />
  <path
     d="m 155.09031,133.37438 c 5.39708,5.15228 6.2966,1.85935 8.99514,-0.0937 -3.59806,-2.71657 -5.39708,-3.65331 -8.99514,0.0937 z"
     id="path16112-1-1-40"
     style="fill:none;stroke:#000000;stroke-width:0.7617076"
     inkscape:connector-curvature="0"
     sodipodi:nodetypes="ccc" />
  <path
     d="m 144.587,134.63897 c -3.47543,5.04203 -8.97867,1.70767 -10.79417,-0.18735 6.2966,-3.46596 8.99514,-4.30903 10.79417,0.18735 z"
     id="path16112-1-1-4-9"
     style="fill:none;stroke:#000000;stroke-width:0.7617076"
     inkscape:connector-curvature="0"
     sodipodi:nodetypes="ccc" />
  <g
     id="g5595" />
  <path
     d="m 119.19985,111.95849 c -0.93079,4.028 -6.32937,2.81023 -6.32937,-0.0937 0.55848,-3.87812 6.32937,-2.66035 6.32937,0.0937 z"
     id="path423-9-6-9-9"
     style="fill:#1c6f8f;fill-rule:evenodd"
     inkscape:connector-curvature="0"
     sodipodi:nodetypes="ccc" />
  <path
     d="m 117.52443,112.70788 c -0.93079,1.31145 -4.09547,-0.0937 -2.88545,-1.59246 1.30311,-1.44259 4.09547,0.0937 2.88545,1.59246 z"
     id="path427-8-6-4-1"
     style="fill:#33cfda;fill-rule:evenodd"
     inkscape:connector-curvature="0" />
  <path
     d="m 114.08051,112.33318 c -0.4654,-1.38638 0.27924,-2.32312 2.04773,-2.06084 0.27924,0.41217 -1.58234,2.43554 -2.04773,2.06084 z"
     id="path429-1-0-7-3"
     style="fill:#ffffff;fill-rule:evenodd"
     inkscape:connector-curvature="0" />
  <path
     d="m 127.04353,106.97197 c -0.93079,4.028 -6.32936,2.81023 -6.32936,-0.0937 0.55847,-3.87813 6.32936,-2.66036 6.32936,0.0937 z"
     id="path423-9-6-9-0"
     style="fill:#1c6f8f;fill-rule:evenodd"
     inkscape:connector-curvature="0"
     sodipodi:nodetypes="ccc" />
  <path
     d="m 125.36811,107.72136 c -0.93079,1.31145 -4.09547,-0.0937 -2.88545,-1.59247 1.30311,-1.44258 4.09548,0.0937 2.88545,1.59247 z"
     id="path427-8-6-4-16"
     style="fill:#33cfda;fill-rule:evenodd"
     inkscape:connector-curvature="0" />
  <path
     d="m 121.92419,107.34666 c -0.46539,-1.38638 0.27924,-2.32312 2.04774,-2.06084 0.27923,0.41217 -1.58234,2.43554 -2.04774,2.06084 z"
     id="path429-1-0-7-5"
     style="fill:#ffffff;fill-rule:evenodd"
     inkscape:connector-curvature="0" />
  <path
     d="m 135.94889,101.96358 c -0.93079,4.02801 -6.32937,2.81024 -6.32937,-0.0937 0.55848,-3.87813 6.32937,-2.66036 6.32937,0.0937 z"
     id="path423-9-6-9-4"
     style="fill:#1c6f8f;fill-rule:evenodd"
     inkscape:connector-curvature="0"
     sodipodi:nodetypes="ccc" />
  <path
     d="m 134.27347,102.71298 c -0.93079,1.31144 -4.09547,-0.0937 -2.88545,-1.59247 1.30311,-1.44259 4.09547,0.0937 2.88545,1.59247 z"
     id="path427-8-6-4-12"
     style="fill:#33cfda;fill-rule:evenodd"
     inkscape:connector-curvature="0" />
  <path
     d="m 130.82955,102.33828 c -0.46539,-1.38638 0.27924,-2.32313 2.04774,-2.06084 0.27923,0.41217 -1.58235,2.43554 -2.04774,2.06084 z"
     id="path429-1-0-7-0"
     style="fill:#ffffff;fill-rule:evenodd"
     inkscape:connector-curvature="0" />
  <path
     d="m 143.98223,98.11218 c -0.93079,4.02801 -6.32936,2.81024 -6.32936,-0.0937 0.55847,-3.87813 6.32936,-2.66036 6.32936,0.0937 z"
     id="path423-9-6-9-46"
     style="fill:#1c6f8f;fill-rule:evenodd"
     inkscape:connector-curvature="0"
     sodipodi:nodetypes="ccc" />
  <path
     d="m 142.30681,98.86158 c -0.93079,1.31144 -4.09547,-0.0937 -2.88545,-1.59247 1.30311,-1.44259 4.09547,0.0937 2.88545,1.59247 z"
     id="path427-8-6-4-0"
     style="fill:#33cfda;fill-rule:evenodd"
     inkscape:connector-curvature="0" />
  <path
     d="m 138.86289,98.48688 c -0.46539,-1.38639 0.27924,-2.32313 2.04774,-2.06084 0.27923,0.41217 -1.58235,2.43554 -2.04774,2.06084 z"
     id="path429-1-0-7-7"
     style="fill:#ffffff;fill-rule:evenodd"
     inkscape:connector-curvature="0" />
  <path
     d="m 151.77764,94.86283 c -0.93079,4.028 -6.32936,2.81023 -6.32936,-0.0937 0.55847,-3.87813 6.32936,-2.66036 6.32936,0.0937 z"
     id="path423-9-6-9-7"
     style="fill:#1c6f8f;fill-rule:evenodd"
     inkscape:connector-curvature="0"
     sodipodi:nodetypes="ccc" />
  <path
     d="m 150.10222,95.61222 c -0.93079,1.31145 -4.09547,-0.0937 -2.88544,-1.59247 1.3031,-1.44258 4.09547,0.0937 2.88544,1.59247 z"
     id="path427-8-6-4-7"
     style="fill:#33cfda;fill-rule:evenodd"
     inkscape:connector-curvature="0" />
  <path
     d="m 146.6583,95.23752 c -0.46539,-1.38638 0.27924,-2.32313 2.04774,-2.06084 0.27923,0.41217 -1.58234,2.43554 -2.04774,2.06084 z"
     id="path429-1-0-7-73"
     style="fill:#ffffff;fill-rule:evenodd"
     inkscape:connector-curvature="0" />
  <path
     d="m 129.83068,120.65469 c 3.59806,-5.9015 5.89615,1.1745 9.52545,-7.37328 6.2966,-1.39576 9.89466,-3.79382 11.69369,-6.68837 2.69854,3.59711 11.45776,10.16548 13.25679,8.29199 -6.71676,0.40095 -8.38879,-5.17923 -13.48184,-5.7739 -2.17865,-0.25439 -2.07968,2.8002 -3.57286,3.03951 -7.13258,1.14313 -2.92586,6.54633 -17.42123,8.50405 z"
     id="path16220-6-9"
     style="fill:#000000;fill-rule:evenodd;stroke:#000000;stroke-width:0.93376237"
     inkscape:connector-curvature="0"
     sodipodi:nodetypes="ccccssc" />
  <path
     d="m 163.70013,128.07674 c 0,0 -6.35822,-2.15452 -9.18408,0.65572 -0.70647,-2.06084 9.18408,-3.55963 9.18408,-0.65572 z"
     id="path16174-1-8"
     style="fill:#000000;fill-rule:evenodd;stroke:#000000;stroke-width:0.90005535"
     inkscape:connector-curvature="0" />
  <circle
     r="5.4759517"
     cy="208.71967"
     cx="119.0769"
     id="circle5042"
     style="opacity:1;fill:#ffffff;fill-opacity:1;stroke:#000000;stroke-width:1.5;stroke-miterlimit:4;stroke-dasharray:none;stroke-opacity:1" />
  <circle
     r="5.4759517"
     cy="200.71967"
     cx="167.0769"
     id="circle5048"
     style="opacity:1;fill:#ffffff;fill-opacity:1;stroke:#000000;stroke-width:1.5;stroke-miterlimit:4;stroke-dasharray:none;stroke-opacity:1" />
  <circle
     id="circle5054"
     style="opacity:1;fill:none;fill-opacity:1;stroke:#000000;stroke-width:4;stroke-miterlimit:4;stroke-dasharray:none;stroke-opacity:1"
     r="17.875"
     cy="229.5"
     cx="143.875" />
  <circle
     style="opacity:1;fill:#ffffff;fill-opacity:1;stroke:#000000;stroke-width:1.5;stroke-miterlimit:4;stroke-dasharray:none;stroke-opacity:1"
     id="circle5050"
     cx="159.0769"
     cy="204.71967"
     r="5.4759517" />
  <circle
     r="5.4759517"
     cy="208.71967"
     cx="149.0769"
     id="circle5052"
     style="opacity:1;fill:#ffffff;fill-opacity:1;stroke:#000000;stroke-width:1.5;stroke-miterlimit:4;stroke-dasharray:none;stroke-opacity:1" />
  <circle
     style="opacity:1;fill:#ffffff;fill-opacity:1;stroke:#000000;stroke-width:1.5;stroke-miterlimit:4;stroke-dasharray:none;stroke-opacity:1"
     id="circle5058"
     cx="129.0769"
     cy="210.71967"
     r="5.4759517" />
  <circle
     style="opacity:1;fill:#ffffff;fill-opacity:1;stroke:#000000;stroke-width:1.5;stroke-miterlimit:4;stroke-dasharray:none;stroke-opacity:1"
     id="circle5046"
     cx="139.0769"
     cy="210.71967"
     r="5.4759517" />
</svg>
