<?xml version="1.0" encoding="UTF-8" standalone="no"?>
<!-- Created with Inkscape (http://www.inkscape.org/) -->

<svg
   xmlns:dc="http://purl.org/dc/elements/1.1/"
   xmlns:cc="http://creativecommons.org/ns#"
   xmlns:rdf="http://www.w3.org/1999/02/22-rdf-syntax-ns#"
   xmlns:svg="http://www.w3.org/2000/svg"
   xmlns="http://www.w3.org/2000/svg"
   xmlns:sodipodi="http://sodipodi.sourceforge.net/DTD/sodipodi-0.dtd"
   xmlns:inkscape="http://www.inkscape.org/namespaces/inkscape"
   version="1.1"
   width="250"
   height="300"
   viewBox="0 0 250 300"
   id="cards"
   inkscape:version="0.91 r13725"
   sodipodi:docname="face_CQ.svg">
  <sodipodi:namedview
     pagecolor="#ffffff"
     bordercolor="#666666"
     objecttolerance="10"
     gridtolerance="10"
     guidetolerance="10"
     inkscape:pageopacity="0"
     inkscape:pageshadow="2"
     inkscape:window-width="1920"
     inkscape:window-height="978"
     id="namedview6787"
     showgrid="false"
     inkscape:zoom="2"
     inkscape:cx="261.29111"
     inkscape:cy="77.683879"
     inkscape:window-x="0"
     inkscape:window-y="1"
     inkscape:window-maximized="1"
     inkscape:current-layer="cards"
     showguides="true"
     inkscape:guide-bbox="true" />
  <defs
     id="defs2680" />
  <metadata
     id="metadata97">
    <rdf:RDF>
      <cc:Work
         rdf:about="">
        <dc:format>image/svg+xml</dc:format>
        <dc:type
           rdf:resource="http://purl.org/dc/dcmitype/StillImage" />
        <dc:title />
      </cc:Work>
    </rdf:RDF>
  </metadata>
  <path
     d="m 94.29627,299.1868 c 29.8714,-0.27713 55.42405,1.10853 88.89441,0.27713 C 296.55807,185.19314 -49.752278,141.77579 94.29627,299.1868 Z"
     id="path7505"
     style="fill:#d0c9ff;fill-rule:evenodd;stroke:#000000;stroke-width:1.90896297"
     inkscape:connector-curvature="0" />
  <path
     d="M 42.800677,298.90967 C 80.368192,265.59 92.210483,175.85169 40.640169,234.71239 c -9.960246,16.33796 -34.2541549,61.5764 -25.351282,63.74104 12.069046,0.68861 19.693325,0.37666 27.51179,0.45624 z"
     id="path7487"
     style="fill:#000000;fill-rule:evenodd;stroke:#000000;stroke-width:3.21406412"
     inkscape:connector-curvature="0"
     sodipodi:nodetypes="cccc" />
  <path
     d="m 154.12905,109.4437 c 49.03589,28.1751 -16.28531,75.1028 31.04107,109.65193 0,0 -32.03078,27.15894 -83.49597,-2.21705 6.29818,-4.71125 -3.868891,-96.07246 52.4549,-107.43488 z"
     id="path7127"
     style="fill:#fbddb9;fill-rule:evenodd"
     inkscape:connector-curvature="0" />
  <path
     d="m 89.077771,225.37729 0,0 0,0 z m 0,0 -0.899741,0 0.899741,0 0,0 0,0 z"
     id="path7115"
     style="fill:#000000;fill-rule:evenodd"
     inkscape:connector-curvature="0" />
  <path
     d="m 185.53002,219.55751 c 0,-0.27712 -33.74029,27.52846 -83.94585,-2.58656 -2.789195,1.2009 -4.138807,5.17313 -6.298186,5.35789 24.652906,17.82883 61.362346,23.74098 94.292866,3.78747 -1.97943,-5.45026 -3.95886,-6.46641 -4.04883,-6.5588 z"
     id="path7107"
     style="fill:#fede58;fill-rule:evenodd;stroke:#000000;stroke-width:2.00496244"
     inkscape:connector-curvature="0" />
  <path
     d="m 154.12905,206.9942 c 0,1.2009 2.15938,2.40181 2.15938,2.40181 0.98972,0 1.88945,-1.20091 1.88945,-2.40181 0,-1.20091 -0.89973,-2.30943 -1.88945,-2.30943 0,0 -2.15938,1.10852 -2.15938,2.30943 z m 0,0 c 0,-1.20091 2.15938,-2.30943 2.15938,-2.30943 0.98972,0 1.88945,1.10852 1.88945,2.30943 0,1.2009 -0.89973,2.40181 -1.88945,2.40181 0,0 -2.15938,-1.20091 -2.15938,-2.40181 z"
     id="path7153"
     style="fill:#000000;fill-rule:evenodd"
     inkscape:connector-curvature="0" />
  <path
     d="m 138.38358,135.86364 c 6.11824,-3.23322 13.40615,1.57041 15.74547,0.0924 -2.69922,-2.12468 -14.30588,-4.61887 -15.74547,-0.0924 z"
     id="path7383"
     style="fill:#000000;fill-rule:evenodd"
     inkscape:connector-curvature="0" />
  <path
     d="m 159.97736,161.35978 c 9.44729,-3.32558 -1.7095,-15.33464 1.79949,-23.55622 1.52956,-4.34174 3.50899,-1.47804 9.62723,-1.93992 -22.76345,-8.31397 -3.23907,21.89343 -11.42672,25.49614 z"
     id="path7385"
     style="fill:#000000;fill-rule:evenodd;stroke:#000000;stroke-width:0.25062031"
     inkscape:connector-curvature="0" />
  <path
     d="m 153.13934,157.75707 c 0,0 0,2.86369 0.98971,3.60271"
     id="path7389"
     style="fill:none"
     inkscape:connector-curvature="0" />
  <path
     d="m 151.8797,167.17956 c 0,0 2.24935,-0.18476 4.40873,-0.64665 0,0 0.98972,-1.2009 1.88945,-0.36951 0,0 0,0.27714 0,0.27714 0,0 3.23907,-1.01615 3.23907,0.0924 0,0 1.25964,0.73902 1.25964,1.10853"
     id="path7395"
     style="fill:none"
     inkscape:connector-curvature="0" />
  <path
     d="m 162.67659,167.64144 c -2.15937,-2.49419 -3.50899,0 -5.39844,-1.47804 -3.1491,1.01616 -5.39845,1.47804 -5.39845,1.01616 0,0 2.24935,-0.64665 5.39845,-1.6628 0.89973,0.0924 0.89973,0.92378 3.14909,0.36951 1.16966,-0.36951 1.70951,0.55427 2.24935,1.75517 z"
     id="path7397"
     style="fill:#000000;fill-rule:evenodd;stroke:#000000;stroke-width:0.25062031"
     inkscape:connector-curvature="0" />
  <path
     d="m 156.28843,171.61367 c 0,0 1.88945,0.83139 4.13881,0.0924"
     id="path7401"
     style="fill:none"
     inkscape:connector-curvature="0" />
  <path
     d="m 160.42724,171.70605 c -1.79948,0.73901 -3.05912,1.10852 -4.13881,-0.0924 1.25964,-0.0924 2.87917,0.0924 4.13881,0.0924 z"
     id="path7403"
     style="fill:#000000;fill-rule:evenodd;stroke:#000000;stroke-width:0.25062031"
     inkscape:connector-curvature="0" />
  <path
     d="m 154.12905,168.01096 c 0,0 4.04883,0.64663 7.2879,0.27712"
     id="path7407"
     style="fill:none"
     inkscape:connector-curvature="0" />
  <path
     d="m 161.41695,168.56522 c -2.60924,0.55426 -4.22878,0.36951 -7.2879,-0.27714 2.4293,-0.36951 5.03855,0 7.2879,0.27714 z"
     id="path7409"
     style="fill:#000000;fill-rule:evenodd;stroke:#000000;stroke-width:0.25062031"
     inkscape:connector-curvature="0" />
  <path
     d="m 156.28843,159.2351 c 0,0 0.98972,0.46189 0.98972,1.29328"
     id="path7413"
     style="fill:none"
     inkscape:connector-curvature="0" />
  <path
     d="m 157.27815,160.52838 c 0,0.0924 0,-0.36951 -0.98972,-0.64663 0,-0.0924 0,-0.27714 0,-0.64665 0,-0.0924 0,-0.0924 0,0.36951 0.98972,0.18475 0.98972,0.92377 0.98972,0.92377 z"
     id="path7415"
     style="fill:#000000;fill-rule:evenodd"
     inkscape:connector-curvature="0" />
  <path
     d="m 140.45298,142.14529 c 2.96915,4.61887 10.07711,4.80362 11.42672,0.36951 -2.69923,-4.15698 -7.91773,-3.41796 -11.42672,-0.36951 z m 11.42672,0.46188 c -1.97943,3.41797 -7.91773,3.69511 -9.08738,0 0,-1.01614 4.04883,-4.80361 9.08738,0 z"
     id="path7417"
     style="fill:#000000;fill-rule:evenodd"
     inkscape:connector-curvature="0" />
  <path
     d="m 150.35014,141.22151 c -3.05912,-1.66278 -5.57839,-1.10852 -6.56811,-0.18475 1.25964,5.26552 5.93829,3.04846 6.56811,0.18475 z"
     id="path7419"
     style="fill:#000000;fill-rule:evenodd"
     inkscape:connector-curvature="0" />
  <path
     d="m 139.91314,141.22151 c 2.51928,-3.97222 9.71721,-5.63501 12.68635,-0.3695 -2.87917,-6.5588 -10.88687,-4.24936 -12.68635,0.3695 z"
     id="path7421"
     style="fill:#000000;fill-rule:evenodd"
     inkscape:connector-curvature="0" />
  <path
     d="m 161.41695,143.71571 c 3.86889,2.77132 7.82776,2.03229 9.44729,-1.10854 -3.1491,-2.86369 -9.80718,-4.15698 -9.44729,1.10854 z m 8.27762,-0.8314 c -2.7892,3.23321 -4.67865,2.58657 -8.27762,0.27714 1.34962,-4.24937 7.10796,-1.29329 8.27762,-0.27714 z"
     id="path7423"
     style="fill:#000000;fill-rule:evenodd"
     inkscape:connector-curvature="0" />
  <path
     d="m 162.67659,139.00446 c 4.04884,-3.41796 8.18765,1.01615 8.18765,1.10853 -3.1491,-4.34174 -6.83803,-3.41797 -8.18765,-1.10853 z"
     id="path7427"
     style="fill:#000000;fill-rule:evenodd"
     inkscape:connector-curvature="0" />
  <path
     d="m 143.60208,180.57427 c 3.23907,2.58657 10.52697,3.60272 10.52697,3.60272 l 0,-0.8314 c 0,0 -6.38816,-0.83139 -9.44728,-3.23321 l -1.07969,0.46189 z"
     id="path7435"
     style="fill:#000000;fill-rule:evenodd"
     inkscape:connector-curvature="0" />
  <circle
     r="5.1875"
     cy="206.8125"
     cx="115.8125"
     id="circle6572"
     style="opacity:1;fill:#ffffff;fill-opacity:1;stroke:#000000;stroke-width:1.5;stroke-miterlimit:4;stroke-dasharray:none;stroke-opacity:1" />
  <circle
     style="opacity:1;fill:#ffffff;fill-opacity:1;stroke:#000000;stroke-width:1.5;stroke-miterlimit:4;stroke-dasharray:none;stroke-opacity:1"
     id="circle6578"
     cx="163.8125"
     cy="206.8125"
     r="5.1875" />
  <path
     d="m 100.23456,210.13503 c 5.39845,6.55879 17.27503,-3.97223 15.6555,-10.16151 13.67606,4.71125 14.75575,-9.792 15.20562,-13.76423 -1.34962,-8.1292 5.03855,-11.63955 2.0694,-18.47547 0.26993,-7.11306 0.7198,-15.98128 -2.0694,-20.96966 0.53985,-6.37403 -1.07969,-13.30234 3.23907,-15.8889 8.54754,-3.6951 5.30847,-9.42249 10.34702,-11.73193 0,0 7.19793,-1.10853 9.44728,-9.69963 0,0 4.04883,7.48258 8.54754,7.85209 3.41902,-2.77133 3.86889,9.60724 8.18765,13.94897 -1.25964,9.23774 1.52955,18.29072 0,26.69706 -3.23907,8.77585 -9.44729,26.78944 -16.73519,25.95804 0,0 -5.93829,11.91668 -3.1491,17.0898 4.58869,8.86823 13.76605,0.92378 27.08222,12.10144 1.61952,-1.84755 1.16966,-4.15698 0,-6.0969 -4.31876,-4.0646 -4.22879,-11.08529 -6.11825,-14.31849 -1.07968,-2.21706 1.97943,-2.95607 1.97943,-2.95607 4.40874,-6.28167 0.44987,-13.11759 4.13882,-19.67639 3.23906,-6.0969 0,-13.11758 0,-13.11758 2.24935,-3.23321 -3.05912,-15.24227 -3.05912,-15.24227 1.34961,-6.74354 -0.89975,-15.33463 -4.13881,-19.21449 -1.70951,-13.39472 -8.36759,-14.68799 -13.58609,-20.23064 -52.36494,-13.67185 -55.9639,108.72815 -57.04359,107.89676 z"
     id="path7431"
     style="fill:#000000;fill-rule:evenodd"
     inkscape:connector-curvature="0" />
  <path
     d="m 55.427455,242.00521 c 12.416426,-5.72739 -4.498705,-19.67637 -6.478137,-4.71124 -7.287901,-9.51486 -15.025675,8.68347 -2.519274,7.85208 -2.339327,5.91215 -9.177359,2.95608 -10.257048,8.86823 -11.458344,9.21564 -5.143244,17.93757 -0.179949,26.69705 3.778913,-12.10143 9.177359,-9.42249 6.658084,-13.85661 9.17736,-3.97222 2.519275,-9.05298 8.187644,-17.92121 2.519275,8.96061 19.074511,-2.12467 4.58868,-6.9283 z m -0.629819,56.90446 c 4.048835,-4.80363 8.09767,-10.99291 12.326452,-19.584 4.858603,-13.67185 26.542363,-61.15382 -3.059119,-63.74038 3.525066,1.8724 7.481675,5.51936 8.409645,10.36911 4.336576,22.66375 -17.32115,70.60336 -27.945541,72.9456 z"
     id="path7667"
     style="fill:#ffff00;fill-rule:evenodd;stroke:#000000;stroke-width:3.00771737"
     inkscape:connector-curvature="0"
     sodipodi:nodetypes="cccccccccccscc" />
  <path
     d="m 202.35517,237.66347 c 5.06814,24.03689 -4.1899,50.16111 -18.35471,61.80046 L 206.404,299.1868 c 0,-9.88437 4.13882,-21.6163 6.38817,-29.19124 -2.24935,-16.07367 -7.37788,-27.43608 -10.437,-32.33209 z m -8.90743,-4.4341 -4.40873,-7.7597 c -46.15672,27.3437 -85.29546,3.6951 -93.573077,-3.6951 -1.07969,2.40182 -3.05912,4.98838 -5.308472,4.98838 25.552649,37.13569 36.898899,31.74526 48.775479,71.46753 l 24.74288,0.0924 c 24.20303,-31.96256 12.04702,-44.03145 29.77192,-65.09348 z M 72.522536,267.40899 c -3.598965,11.36241 -10.347023,23.00196 -17.7249,31.77781 l 39.588607,0 C 85.028937,284.68355 79.990386,282.65125 72.522536,267.40899 Z"
     id="path7499"
     style="fill:#7e9eff;fill-rule:evenodd;stroke:#000000;stroke-width:3.00771737"
     inkscape:connector-curvature="0"
     sodipodi:nodetypes="ccccccccccccccccc" />
  <path
     d="m 88.987797,225.37729 c -1.377475,34.81795 13.500053,60.57298 29.331053,70.3686 5.88407,3.64084 17.38467,2.18219 20.33465,2.33238 -7.2879,-28.17509 -10.61694,-53.20936 -10.61694,-53.20936 -15.92541,-3.32558 -29.151611,-7.85207 -39.048763,-19.49162 z m 103.740153,7.66732 c -1.70951,1.84755 -12.95628,7.20543 -20.33416,9.792 5.39845,10.99291 -8.54336,50.89443 -10.70274,55.69806 2.81734,-0.38467 9.12621,1.0289 15.57984,-0.6005 14.46041,-3.65092 18.33508,-42.87829 16.07578,-64.93371 z"
     id="path7517"
     style="fill:#ffff00;fill-rule:evenodd;stroke:#000000;stroke-width:3.00771737"
     inkscape:connector-curvature="0"
     sodipodi:nodetypes="csccccccscc" />
  <path
     d="m 81.969817,221.77457 c 0,0 0,0 0,0 l 0,0 c 0.899741,0 0.899741,0 0.899741,0 l 1.079689,0 c -1.079689,0 -1.079689,-1.2009 -1.97943,0 z"
     id="path7525"
     style="fill:#000000;fill-rule:evenodd"
     inkscape:connector-curvature="0" />
  <path
     style="fill:#ffff00;fill-rule:evenodd;stroke:#000000;stroke-width:2.73503447;stroke-miterlimit:4;stroke-dasharray:none"
     d="m 141.65883,93.73955 c 4.27558,-10.55826 -10.87581,-5.64699 -3.87613,1.65752 -0.42469,7.08544 -0.79985,12.25409 -4.94655,3.27726 -0.98641,-11.36007 -14.95783,-2.38686 -3.42549,2.88236 1.35701,3.56771 5.35633,10.11547 -6.56841,3.57146 -2.32908,-10.75437 -12.47755,-0.35878 -3.71876,3.25478 2.99566,6.85122 0.55355,7.12082 -4.29155,4.90867 -4.26893,-10.09566 -13.81825,2.62206 -2.60053,3.34671 3.50187,3.59486 3.09777,-0.0372 2.59588,0.1607 18.42777,-16.35165 25.09987,-14.08464 38.80005,-20.87741 -1.46717,-4.43674 -1.132,-2.16161 -1.27028,-3.61925 6.79035,-11.1572 -10.85165,-8.52995 -4.2557,0.18186 2.04479,7.83662 -3.88556,7.84189 -6.44253,1.25534 z"
     id="path7537"
     inkscape:connector-curvature="0"
     sodipodi:nodetypes="ccccccccccccc" />
  <path
     d="m 206.49398,201.08205 c 0,0 8.81746,-3.87985 9.80718,2.40181 3.1491,-2.03231 6.56811,1.38566 4.76863,3.51034 0,0 4.8586,1.2009 4.8586,4.896 6.11824,3.41796 3.05912,21.15441 3.05912,30.5769 l 2.7892,13.67185 c -5.12852,4.80362 -13.85601,4.71125 -14.48583,-2.49419 l 0,-11.17766 c 0,0 -0.98972,-2.30943 -0.98972,-4.80363 -14.03596,-20.32301 -6.29819,-20.78489 -12.68635,-30.66927 0,0 -2.96915,-1.20091 0,-3.51034 0,0 0.80977,0 2.87917,0 0,0 -1.88946,-1.47804 0,-2.40181 z"
     id="path7543"
     style="fill:#fbddb9;fill-rule:evenodd;stroke:#000000;stroke-width:0.9204303"
     inkscape:connector-curvature="0" />
  <path
     d="m 216.48111,228.79525 c 0,0 0,4.80362 4.22878,9.792 2.06941,-5.17313 -3.77891,-5.45027 -4.22878,-9.792 z"
     id="path7547"
     style="fill:#000000;fill-rule:evenodd"
     inkscape:connector-curvature="0" />
  <path
     d="m 206.404,211.8902 c -0.17994,2.40181 2.33934,3.41796 4.13882,2.40181 l 0,0 c -1.79948,-0.0924 -3.05912,0.73901 -3.05912,-1.20091 -0.3599,-4.15698 5.48842,-7.48256 9.44728,-9.60724 l -0.98971,-1.29329 c 0,1.29329 -8.45757,6.00453 -9.53727,9.69963 z m 9.53727,4.98838 c 1.7095,-0.18476 6.47813,-2.77133 8.09766,-3.78748 l 0,0 c -18.26474,6.74355 -16.82515,0.27714 -1.88945,-6.0969 l -1.07969,0 c -8.09767,-0.0924 -17.54495,14.59562 -5.12852,9.88438 z m 3.05911,1.2009 c 0,1.20091 0,1.20091 0,2.49419 l 0,0 0,0 c 0,0 1.61953,3.78747 9.08739,0.18475 l -1.52956,-3.32558 c -13.31617,7.66732 -4.31876,-2.95608 0.71979,-5.08075 l -1.07968,-1.57042 c 0,1.10853 -6.2982,4.71124 -7.19794,7.29781 z"
     id="path7553"
     style="fill:#000000;fill-rule:evenodd"
     inkscape:connector-curvature="0" />
  <path
     d="m 208.65336,208.1951 c 0,-2.40181 -3.23907,-4.71124 -3.23907,-4.71124 0,0 3.23907,2.30943 7.37788,1.20091 l -4.13881,3.51033 z"
     id="path7557"
     style="fill:#000000;fill-rule:evenodd"
     inkscape:connector-curvature="0" />
  <path
     d="m 208.65336,157.66469 c -1.16966,0 -3.23907,1.38566 -5.39844,4.0646 -0.89975,-0.18476 -4.22879,-0.46188 -8.18765,0.92378 0.17995,3.51033 0.98972,6.00452 2.87918,7.94444 0,1.01616 -4.13882,4.5265 -4.13882,9.79201 1.43959,2.21706 7.73778,2.77132 9.44729,1.10852 0,1.29329 2.15937,3.6951 4.22878,6.18929 3.41901,-3.97223 2.60925,-4.43412 7.37787,-6.74355 2.51928,1.10853 3.50899,2.49419 6.20822,1.84755 -0.3599,-4.15698 0.80976,-8.5911 -1.16967,-12.47094 1.34962,-2.95608 2.06941,-3.14083 2.24936,-5.91215 0,-0.0924 -3.1491,-4.24937 -9.35731,-2.03231 0,-0.73902 -1.16967,-2.49418 -4.13881,-4.71124 z"
     id="path7589"
     style="fill:#ffff00;stroke:#000000;stroke-width:0.95452708"
     inkscape:connector-curvature="0" />
  <path
     d="m 232.4965,256.13895 c -6.38817,4.896 -15.11565,2.95608 -15.56552,-2.49419 l 0,0 c -10.34702,24.84951 22.85342,20.78491 15.56552,2.49419 z"
     id="path7593"
     style="fill:#ffffff;fill-rule:evenodd;stroke:#000000;stroke-width:0.95452708"
     inkscape:connector-curvature="0" />
  <path
     d="m 233.84611,261.49684 c -1.34961,6.28166 -11.42671,11.17766 -18.98454,4.34174 0,0 -8.36759,19.9535 -8.36759,33.34822 l 31.31099,-0.27713 c 0,0 2.15938,-25.12665 -3.95886,-37.41283 z"
     id="path7599"
     style="fill:#ffff00;fill-rule:evenodd;stroke:#000000;stroke-width:3.00771737"
     inkscape:connector-curvature="0" />
  <path
     d="m 207.03383,167.8262 c 0,0 -5.57839,9.97675 4.40873,7.85208 1.34961,0.0924 6.47814,-10.6234 -4.40873,-7.85208 z"
     id="path7611"
     style="fill:#7e9eff;fill-rule:evenodd;stroke:#000000;stroke-width:0.95452708"
     inkscape:connector-curvature="0" />
  <path
     d="m 197.94645,171.15179 c 1.07968,0 5.30847,0.18475 7.46784,1.29327 -0.80977,-1.29327 -7.46784,-3.60272 -7.46784,-1.29327 z"
     id="path7615"
     style="fill:#000000;fill-rule:evenodd"
     inkscape:connector-curvature="0" />
  <path
     d="m 203.25492,162.46831 c 0.89973,1.66279 2.87916,5.17313 3.14908,5.7274 0,-2.30944 -3.14908,-6.00453 -3.14908,-6.0969 z"
     id="path7617"
     style="fill:#000000;fill-rule:evenodd"
     inkscape:connector-curvature="0" />
  <path
     d="m 214.86157,169.58137 c 0.09,1.10852 2.60926,0.46188 4.13881,0.92377 0,-1.57041 -3.50898,-1.47804 -4.13881,-0.92377 z"
     id="path7621"
     style="fill:#000000;fill-rule:evenodd"
     inkscape:connector-curvature="0" />
  <path
     d="m 211.6225,175.67828 c 0,0.3695 1.16967,4.15698 3.23907,4.89599 -0.17994,-1.93992 -1.88945,-3.51033 -3.23907,-4.89599 z"
     id="path7623"
     style="fill:#000000;fill-rule:evenodd"
     inkscape:connector-curvature="0" />
  <path
     d="m 203.25492,181.22092 0,0 c 0,-1.6628 2.15937,-4.61887 3.14908,-5.81978 -0.98971,0.64664 -3.86888,3.87984 -3.14908,5.81978 z"
     id="path7625"
     style="fill:#000000;fill-rule:evenodd"
     inkscape:connector-curvature="0" />
  <path
     d="m 111.12143,204.68477 c -2.33933,-10.6234 5.84831,-22.07819 4.22878,-31.22355 -2.06941,-5.26551 2.60925,-4.34174 2.15938,-11.08529 -2.69922,-8.22158 4.31876,-8.31396 3.23906,-17.5517 -1.97943,-10.25388 6.2982,-20.78491 12.41643,-28.17509 7.2879,-13.85661 24.11307,-14.50325 24.11307,-14.50325 -33.63692,-20.83665 -45.34152,37.91093 -48.3161,48.77525 -5.2185,12.84045 -13.496117,33.71773 -13.496117,33.71773 -14.758272,10.35419 -50.137912,28.68631 -58.138732,46.53796 -11.504659,19.02774 -24.712397,52.38924 -22.945455,65.26099 11.550044,4.04344 20.769416,1.68274 22.754006,-5.57907 -12.062104,-27.52966 15.18321,-94.70968 39.435622,-66.68236 4.498706,4.34173 3.50899,-3.23321 6.298188,-2.40182 15.385572,16.44318 20.694038,-15.8889 28.251868,-17.0898 z"
     id="path7899"
     style="fill:#bee3ff;fill-rule:evenodd;stroke:#000000;stroke-width:3.00771737"
     inkscape:connector-curvature="0"
     sodipodi:nodetypes="cccccccccccccc" />
  <path
     d="m 153.28423,93.64805 c -20.20428,2.81312 -35.88254,19.64025 -39.63178,23.76798 0.18173,1.26973 5.73915,5.15602 6.20489,6.44336 6.52456,-5.27232 16.7689,-19.61282 36.73829,-21.82595 -2.5265,-8.37097 -2.3475,-5.40284 -3.3114,-8.38539 z"
     id="path7103"
     style="fill:#ffff00;fill-rule:evenodd;stroke:#000000;stroke-width:1.82335627"
     inkscape:connector-curvature="0"
     sodipodi:nodetypes="ccccc" />
  <path
     d="m 53.537998,211.8902 c 0,0 12.596376,-8.40634 21.953683,2.40181"
     id="path7635"
     style="fill:none"
     inkscape:connector-curvature="0" />
  <path
     d="m 75.491681,216.13956 c -1.349611,-7.20544 -20.424122,-9.05299 -22.763449,-2.40181 6.388161,-4.896 17.185054,-3.69511 22.763449,2.40181 z"
     id="path7637"
     style="fill:#000000;fill-rule:evenodd"
     inkscape:connector-curvature="0" />
  <path
     d="m 95.465933,184.63887 c 0,0 -11.516686,20.0459 -14.66578,23.55623"
     id="path7641"
     style="fill:none"
     inkscape:connector-curvature="0" />
  <path
     d="m 81.609921,208.1951 c 4.948575,-6.9283 9.177358,-15.42702 13.496115,-23.6486 6.388164,-3.97223 -12.146504,21.89343 -13.496115,23.6486 z"
     id="path7643"
     style="fill:#000000;fill-rule:evenodd"
     inkscape:connector-curvature="0" />
  <path
     d="m 108.96205,150.92114 c 0,0 3.1491,-8.22158 6.38816,-10.53101"
     id="path7647"
     style="fill:none"
     inkscape:connector-curvature="0" />
  <path
     d="m 140.72291,251.79722 c 0,9.69962 5.12852,19.584 11.33674,19.584 6.29818,0 11.60665,-9.88438 11.60665,-19.584 0,-11.08529 -5.30847,-18.47548 -11.60665,-18.47548 -6.20822,0 -11.33674,7.39019 -11.33674,18.47548 z"
     id="path7655"
     style="fill:#ffff00;fill-rule:evenodd;stroke:#000000;stroke-width:0.95452708"
     inkscape:connector-curvature="0" />
  <path
     d="m 150.88998,252.2591 c -7.55782,3.78747 -9.17736,-6.9283 -0.80976,-4.34174 -6.29819,-7.66732 10.34702,-8.40633 4.04883,0 8.3676,-3.51034 7.46785,7.39019 0,4.5265 0.35989,3.51034 0.35989,4.43411 2.4293,9.792 -12.23647,0.27713 -7.46785,2.12467 -5.66837,-9.97676 z"
     id="path7663"
     style="fill:#000000;fill-rule:evenodd"
     inkscape:connector-curvature="0" />
  <path
     d="m 100.05461,221.12793 2.69923,-1.47803 3.86888,1.93992 0.98972,3.51034 -2.87917,1.47804 -3.68894,-1.93993 z"
     id="polygon7677"
     style="fill:#c42540;fill-rule:evenodd"
     inkscape:connector-curvature="0" />
  <path
     d="m 102.75384,219.6499 0,0 1.97943,6.9283 2.87917,-1.47804 -0.98972,-3.51034 z"
     id="polygon7679"
     style="fill:#f1204e;fill-rule:evenodd"
     inkscape:connector-curvature="0" />
  <path
     d="m 101.22428,221.68219 1.97943,-1.01614 2.4293,1.29328 0.80976,2.49418 -1.97943,1.01616 -2.78919,-1.20091 z"
     id="polygon7681"
     style="fill:#a0203c;fill-rule:evenodd"
     inkscape:connector-curvature="0" />
  <path
     d="m 113.55073,227.77911 2.87917,-1.93994 3.86889,1.6628 1.16966,3.51034 -2.69923,1.66279 -3.95885,-1.57041 z"
     id="polygon7683"
     style="fill:#c42540;fill-rule:evenodd"
     inkscape:connector-curvature="0" />
  <path
     d="m 116.4299,225.83917 0,0 2.33932,6.83593 2.69923,-1.66279 -1.16966,-3.51034 z"
     id="polygon7685"
     style="fill:#f1204e;fill-rule:evenodd"
     inkscape:connector-curvature="0" />
  <path
     d="m 114.81037,228.24099 1.97942,-1.29328 2.51929,1.10852 0.98971,2.4942 -1.88946,1.20089 -2.87918,-1.10852 z"
     id="polygon7687"
     style="fill:#a0203c;fill-rule:evenodd"
     inkscape:connector-curvature="0" />
  <path
     d="m 127.22679,232.39797 2.51927,-2.21706 3.8689,0.92378 1.70951,3.14083 -2.42931,2.12468 -4.13881,-0.73902 z"
     id="polygon7689"
     style="fill:#c42540;fill-rule:evenodd"
     inkscape:connector-curvature="0" />
  <path
     d="m 129.74606,230.18091 0,0 3.1491,6.18929 2.42931,-2.12468 -1.70951,-3.14083 z"
     id="polygon7691"
     style="fill:#f1204e;fill-rule:evenodd"
     inkscape:connector-curvature="0" />
  <path
     d="m 128.39646,232.6751 1.70951,-1.57041 2.96914,0.64663 0.98972,2.12469 -1.79949,1.57042 -2.69922,-0.55427 z"
     id="polygon7693"
     style="fill:#a0203c;fill-rule:evenodd"
     inkscape:connector-curvature="0" />
  <path
     d="m 163.75628,233.13698 1.25964,-3.32558 4.04883,-1.10852 2.51928,2.12467 -1.34961,3.23321 -3.95886,1.10853 z"
     id="polygon7695"
     style="fill:#c42540;fill-rule:evenodd"
     inkscape:connector-curvature="0" />
  <path
     d="m 165.01592,229.8114 0,0.18476 5.2185,4.0646 1.34961,-3.23321 -2.51928,-2.12467 z"
     id="polygon7697"
     style="fill:#f1204e;fill-rule:evenodd"
     inkscape:connector-curvature="0" />
  <path
     d="m 164.746,232.76748 1.07969,-2.21705 2.69922,-0.8314 2.0694,1.66279 -1.16966,1.93992 -2.69922,0.92378 z"
     id="polygon7699"
     style="fill:#a0203c;fill-rule:evenodd"
     inkscape:connector-curvature="0" />
  <path
     d="m 176.98248,229.07238 0.89973,-3.60271 3.68895,-1.93993 2.96914,1.6628 -0.98971,3.51034 -3.68894,1.93992 z"
     id="polygon7701"
     style="fill:#c42540;fill-rule:evenodd"
     inkscape:connector-curvature="0" />
  <path
     d="m 177.88221,225.46967 0,0 5.66838,3.23321 0.98971,-3.51034 -2.96914,-1.6628 z"
     id="polygon7703"
     style="fill:#f1204e;fill-rule:evenodd"
     inkscape:connector-curvature="0" />
  <path
     d="m 177.97219,228.51812 0.80977,-2.49419 2.51927,-1.47804 2.06941,1.01616 -0.62982,2.67894 -2.51927,1.29328 z"
     id="polygon7705"
     style="fill:#a0203c;fill-rule:evenodd"
     inkscape:connector-curvature="0" />
  <path
     d="m 118.26974,118.72352 0.22091,-2.29828 2.15821,-1.79748 1.97086,0.41502 -0.18736,2.21256 -2.19177,1.88321 z"
     id="polygon7671"
     style="fill:#c42540;fill-rule:evenodd"
     inkscape:connector-curvature="0" />
  <path
     d="m 118.49066,116.42525 0,0 3.9417,0.83015 0.18736,-2.21256 -1.97085,-0.41503 z"
     id="polygon7673"
     style="fill:#f1204e;fill-rule:evenodd"
     inkscape:connector-curvature="0" />
  <path
     d="m 118.98915,118.12436 0.1195,-1.54365 1.35532,-1.23278 1.46996,0.20838 -0.1195,1.54365 -1.5894,1.33531 z"
     id="polygon7675"
     style="fill:#ff0000;fill-rule:evenodd"
     inkscape:connector-curvature="0" />
  <path
     d="m 125.16389,112.54939 0.43777,-2.1092 2.22452,-1.47147 1.75316,0.72347 -0.35433,2.14365 -2.14102,1.50591 z"
     id="polygon7707"
     style="fill:#007a00;fill-rule:evenodd"
     inkscape:connector-curvature="0" />
  <path
     d="m 125.6017,110.44019 0,0 3.62333,1.39565 0.38787,-2.22935 -1.75316,-0.72348 z"
     id="polygon7709"
     style="fill:#fff5ab;fill-rule:evenodd"
     inkscape:connector-curvature="0" />
  <path
     d="m 125.75993,112.0599 0.31997,-1.56047 1.68927,-1.09499 1.33572,0.55122 -0.40346,1.52602 -1.52228,1.16388 z"
     id="polygon7711"
     style="fill:#00cf00;fill-rule:evenodd"
     inkscape:connector-curvature="0" />
  <path
     d="m 135.27757,103.52642 1.853,0.96378 -0.55484,2.16047 -2.60839,1.21348 -1.68604,-0.89487 0.72182,-2.09157 z"
     id="polygon7713"
     style="fill:#c42540;fill-rule:evenodd"
     inkscape:connector-curvature="0" />
  <path
     d="m 136.57573,106.65067 0.55484,-2.16047 -1.853,-0.96378 -2.27445,1.35129 0,0 z"
     id="polygon7715"
     style="fill:#f1204e;fill-rule:evenodd"
     inkscape:connector-curvature="0" />
  <path
     d="m 135.09262,104.24658 1.30218,0.63691 -0.40346,1.52602 -1.78911,0.85466 -1.2187,-0.60246 0.5205,-1.57729 z"
     id="polygon7717"
     style="fill:#ff0000;fill-rule:evenodd"
     inkscape:connector-curvature="0" />
  <path
     d="m 148.86188,101.00129 -1.40123,-1.37472 1.13924,-1.91932 2.57402,-0.63032 1.51827,1.32346 -1.25628,1.97058 z"
     id="polygon7719"
     style="fill:#c42540;fill-rule:evenodd"
     inkscape:connector-curvature="0" />
  <path
     d="m 148.73199,97.64727 0,0 2.86957,2.57801 1.22273,-1.88487 -1.51827,-1.32346 z"
     id="polygon7721"
     style="fill:#f1204e;fill-rule:evenodd"
     inkscape:connector-curvature="0" />
  <path
     d="m 149.34591,100.29004 -1.11803,-0.8596 0.9379,-1.40504 1.65491,-0.51179 1.1344,1.06548 -0.90435,1.31932 z"
     id="polygon7723"
     style="fill:#ff0000;fill-rule:evenodd"
     inkscape:connector-curvature="0" />
  <path
     d="m 168.97478,141.22151 c -3.14909,-1.47803 -5.03855,-1.10852 -6.11824,-0.18475 1.34961,5.35789 5.30847,3.23321 6.11824,0.18475 z"
     id="path7419-1"
     style="fill:#000000;fill-rule:evenodd"
     inkscape:connector-curvature="0" />
  <path
     d="m 143.0052,99.48899 1.5019,1.11757 -0.83886,2.14284 -2.27363,0.85382 -1.53546,-1.03186 0.80531,-2.0571 z"
     id="polygon7725"
     style="fill:#007a00;fill-rule:evenodd"
     inkscape:connector-curvature="0" />
  <path
     d="m 144.5071,100.60656 -1.5019,-1.11757 -2.34074,1.02527 0,0 3.00378,2.23514 z"
     id="polygon7727"
     style="fill:#fff5ab;fill-rule:evenodd"
     inkscape:connector-curvature="0" />
  <path
     d="m 143.20089,102.45697 -1.60497,0.63198 -0.98462,-0.705 0.60398,-1.54284 1.52149,-0.66642 1.0681,0.73945 z"
     id="polygon7729"
     style="fill:#00cf00;fill-rule:evenodd"
     inkscape:connector-curvature="0" />
  <path
     d="m 216.39113,269.99556 c 0,0 -11.96655,7.39018 -20.78402,-0.92378"
     id="path8269"
     style="fill:none"
     inkscape:connector-curvature="0" />
  <path
     d="m 205.41429,203.48386 c -1.61953,-3.23321 -0.80977,-0.92378 0.98971,-3.51034 0,0 14.66579,-4.61887 18.89457,-18.7526 0,0 -5.39845,5.17312 -9.3573,5.35788 0,0 -5.39845,2.12468 -8.90744,11.45479 -0.35989,-4.0646 2.78919,-12.10143 -0.62983,-11.8243 l -1.25963,11.54717 c -2.69922,-9.23773 -11.15679,-5.63502 -17.54495,-9.88438 -0.35989,12.2862 13.04624,7.48257 14.75575,11.73192 0,0 -8.54754,-0.55426 -13.67606,7.3902 0,0 4.22878,-2.30943 6.38816,0 4.40874,-0.55427 3.68894,-4.0646 10.34702,-3.51034 z m 11.51669,13.8566 c 2.96914,6.46642 23.21332,29.28362 18.80459,32.05494 -12.23648,-21.52392 -25.82258,-36.76619 -18.80459,-32.05494 z"
     id="path7581"
     style="fill:#33a02b;fill-rule:evenodd;stroke:#000000;stroke-width:0.45583907"
     inkscape:connector-curvature="0" />
  <g
     id="g5595" />
  <circle
     style="opacity:1;fill:#ffffff;fill-opacity:1;stroke:#000000;stroke-width:1.5;stroke-miterlimit:4;stroke-dasharray:none;stroke-opacity:1"
     id="circle6570"
     cx="121.8125"
     cy="210.8125"
     r="5.1875" />
  <circle
     r="5.1875"
     cy="212.8125"
     cx="129.8125"
     id="circle6568"
     style="opacity:1;fill:#ffffff;fill-opacity:1;stroke:#000000;stroke-width:1.5;stroke-miterlimit:4;stroke-dasharray:none;stroke-opacity:1" />
  <circle
     r="5.1875"
     cy="212.8125"
     cx="157.8125"
     id="circle6576"
     style="opacity:1;fill:#ffffff;fill-opacity:1;stroke:#000000;stroke-width:1.5;stroke-miterlimit:4;stroke-dasharray:none;stroke-opacity:1" />
  <circle
     style="opacity:1;fill:#ffffff;fill-opacity:1;stroke:#000000;stroke-width:1.5;stroke-miterlimit:4;stroke-dasharray:none;stroke-opacity:1"
     id="circle6574"
     cx="137.8125"
     cy="214.8125"
     r="5.1875" />
  <circle
     style="opacity:1;fill:#ff0000;fill-opacity:1;stroke:#000000;stroke-width:1.5;stroke-miterlimit:4;stroke-dasharray:none;stroke-opacity:1"
     id="path6566"
     cx="147.8125"
     cy="216.8125"
     r="7.8036165" />
</svg>
