<?xml version="1.0" encoding="UTF-8" standalone="no"?>
<!-- Created with Inkscape (http://www.inkscape.org/) -->

<svg
   xmlns:dc="http://purl.org/dc/elements/1.1/"
   xmlns:cc="http://creativecommons.org/ns#"
   xmlns:rdf="http://www.w3.org/1999/02/22-rdf-syntax-ns#"
   xmlns:svg="http://www.w3.org/2000/svg"
   xmlns="http://www.w3.org/2000/svg"
   xmlns:sodipodi="http://sodipodi.sourceforge.net/DTD/sodipodi-0.dtd"
   xmlns:inkscape="http://www.inkscape.org/namespaces/inkscape"
   version="1.1"
   width="250"
   height="300"
   viewBox="0 0 250 300"
   id="cards"
   inkscape:version="0.91 r13725"
   sodipodi:docname="face_CK.svg">
  <sodipodi:namedview
     pagecolor="#ffffff"
     bordercolor="#666666"
     objecttolerance="10"
     gridtolerance="10"
     guidetolerance="10"
     inkscape:pageopacity="0"
     inkscape:pageshadow="2"
     inkscape:window-width="1920"
     inkscape:window-height="978"
     id="namedview6787"
     showgrid="false"
     inkscape:zoom="2.8284271"
     inkscape:cx="36.532203"
     inkscape:cy="128.56876"
     inkscape:window-x="0"
     inkscape:window-y="1"
     inkscape:window-maximized="1"
     inkscape:current-layer="cards"
     showguides="true"
     inkscape:guide-bbox="true" />
  <defs
     id="defs2680" />
  <metadata
     id="metadata97">
    <rdf:RDF>
      <cc:Work
         rdf:about="">
        <dc:format>image/svg+xml</dc:format>
        <dc:type
           rdf:resource="http://purl.org/dc/dcmitype/StillImage" />
        <dc:title />
      </cc:Work>
    </rdf:RDF>
  </metadata>
  <path
     d="m 110.3,97.3 c -6.4,70.4 14.7,60.5 47.3,61.4 6.9,-73.12 -16.8,-62.42 -47.3,-61.4 z"
     id="path125"
     style="fill:#fbddb9;fill-rule:evenodd"
     inkscape:connector-curvature="0" />
  <path
     d="M 179.3,161.2 C 142.44008,371.54987 81.349514,257.30081 80.26,160.7 Z"
     id="polygon21"
     style="fill:#ff0049;fill-rule:evenodd"
     inkscape:connector-curvature="0"
     sodipodi:nodetypes="ccc" />
  <path
     inkscape:connector-curvature="0"
     id="path4494"
     d="m 120.02712,194.03231 a 15.741964,15.741964 0 0 0 -15.74219,15.74218 15.741964,15.741964 0 0 0 15.74219,15.74219 15.741964,15.741964 0 0 0 15.74219,-15.74219 15.741964,15.741964 0 0 0 -15.74219,-15.74218 z m 0,8.04375 a 7.6986253,7.6986253 0 0 1 7.69844,7.69843 7.6986253,7.6986253 0 0 1 -7.69844,7.69844 7.6986253,7.6986253 0 0 1 -7.69844,-7.69844 7.6986253,7.6986253 0 0 1 7.69844,-7.69843 z"
     style="opacity:1;fill:#ffff00;fill-opacity:1;stroke:#000000;stroke-width:2.5999999;stroke-miterlimit:4;stroke-dasharray:none;stroke-dashoffset:0;stroke-opacity:1" />
  <path
     inkscape:connector-curvature="0"
     id="path4504"
     d="m 93.126056,178.62618 a 15.741964,15.741964 0 0 0 -15.742187,15.74218 15.741964,15.741964 0 0 0 15.742187,15.74219 15.741964,15.741964 0 0 0 15.742194,-15.74219 15.741964,15.741964 0 0 0 -15.742194,-15.74218 z m 0,8.04375 a 7.6986253,7.6986253 0 0 1 7.698444,7.69843 7.6986253,7.6986253 0 0 1 -7.698444,7.69844 7.6986253,7.6986253 0 0 1 -7.698437,-7.69844 7.6986253,7.6986253 0 0 1 7.698437,-7.69843 z"
     style="opacity:1;fill:#ffff00;fill-opacity:1;stroke:#000000;stroke-width:2.5999999;stroke-miterlimit:4;stroke-dasharray:none;stroke-dashoffset:0;stroke-opacity:1" />
  <path
     d="m 216.2,296.9 18.1,0 c -3.3,-12.9 -1,-29.6 -10.2,-32.2 -3.3,10.3 -4.4,19.3 -7.9,32.2 z"
     id="path29"
     style="fill:#ffffff;fill-rule:evenodd;stroke:#000000;stroke-width:1.7663"
     inkscape:connector-curvature="0" />
  <path
     d="m 96.556342,198.79657 16.189118,12.64738 c 3.99838,2.91277 8.71433,-3.30555 4.98077,-6.33818 l -16.25211,-12.3636 c -4.017319,-3.09562 -8.897194,3.32449 -4.917778,6.0544 z"
     id="path4506"
     style="fill:#ffff00;fill-rule:evenodd;stroke:#000000;stroke-width:2.5999999;stroke-miterlimit:4;stroke-dasharray:none;stroke-opacity:1"
     inkscape:connector-curvature="0" />
  <path
     inkscape:connector-curvature="0"
     id="path4502"
     d="m 176.92523,169.41117 a 15.741964,15.741964 0 0 0 -15.7422,15.74218 15.741964,15.741964 0 0 0 15.7422,15.74219 15.741964,15.741964 0 0 0 15.74218,-15.74219 15.741964,15.741964 0 0 0 -15.74218,-15.74218 z m 0,8.04375 a 7.6986253,7.6986253 0 0 1 7.69843,7.69843 7.6986253,7.6986253 0 0 1 -7.69843,7.69844 7.6986253,7.6986253 0 0 1 -7.69845,-7.69844 7.6986253,7.6986253 0 0 1 7.69845,-7.69843 z"
     style="opacity:1;fill:#ffff00;fill-opacity:1;stroke:#000000;stroke-width:2.5999999;stroke-miterlimit:4;stroke-dasharray:none;stroke-dashoffset:0;stroke-opacity:1" />
  <path
     d="m 44.07241,201.90382 c 9.6,40.4 57.29,96.05 57.29,96.05 l 86.5,0 c 25.8,-16.3 37.6,-139.9 -16.7,-118.6 -4.07959,29.84467 -2.66798,55.84505 -33.56967,81.83985 -25.11574,-17.04733 -40.48033,-47.48985 -48.32033,-83.88985 -23.6,-16.2 -48.4,5.6 -45.2,24.6 z"
     id="path33"
     style="fill:#ffffff;fill-rule:evenodd;stroke:#000000;stroke-width:4;stroke-miterlimit:4;stroke-dasharray:none"
     inkscape:connector-curvature="0"
     sodipodi:nodetypes="ccccccc" />
  <path
     inkscape:connector-curvature="0"
     id="path4496"
     d="m 152.67808,189.75155 a 15.741964,15.741964 0 0 0 -15.74219,15.74218 15.741964,15.741964 0 0 0 15.74219,15.7422 15.741964,15.741964 0 0 0 15.74218,-15.7422 15.741964,15.741964 0 0 0 -15.74218,-15.74218 z m 0,8.04375 a 7.6986253,7.6986253 0 0 1 7.69843,7.69843 7.6986253,7.6986253 0 0 1 -7.69843,7.69845 7.6986253,7.6986253 0 0 1 -7.69844,-7.69845 7.6986253,7.6986253 0 0 1 7.69844,-7.69843 z"
     style="opacity:1;fill:#ffff00;fill-opacity:1;stroke:#000000;stroke-width:2.5999999;stroke-miterlimit:4;stroke-dasharray:none;stroke-dashoffset:0;stroke-opacity:1" />
  <path
     inkscape:connector-curvature="0"
     style="fill:#ffff00;fill-rule:evenodd;stroke:#000000;stroke-width:2.5999999;stroke-miterlimit:4;stroke-dasharray:none;stroke-opacity:1"
     id="path4510"
     d="m 159.28134,206.1715 14.81908,-14.2281 c 3.4513,-3.54399 -2.03398,-9.09555 -5.56625,-5.83071 l -14.54713,14.33078 c -3.63497,3.53676 2.02677,9.27924 5.2943,5.72803 z" />
  <path
     d="m 13.185,297.8 92.89,0.125 C 96.132114,251.92612 37.407422,228.58434 52.01,185.6 c -30.5,26.7 -34.825,69 -38.825,112.2 z m 179.54,0.0625 42.8875,0 C 231.78021,266.64756 226.27725,226.16317 205,204.8 c -18.2,30.2 12.0302,77.51605 -12.275,93.0625 z"
     id="path37"
     style="fill:#7db0fb;fill-rule:evenodd;stroke:#000000;stroke-width:4.47069979"
     inkscape:connector-curvature="0"
     sodipodi:nodetypes="cccccccc" />
  <path
     d="m 216.825,237.65 c -13.7,15.3 -15.225,38.55 -17.425,59.25 l 19.88769,0 c 9.175,-19.7 2.38731,-52.6 -2.46269,-59.25 z"
     id="path41"
     style="fill:#ff0049;fill-rule:evenodd;stroke:#000000;stroke-width:1.76629996"
     inkscape:connector-curvature="0"
     sodipodi:nodetypes="cccc" />
  <path
     d="m 121.6,149.14075 c 5.6,-4.12476 11.2,-8.95374 19.2,-5.83502 -1.1,22.93769 5.5,2.7163 2.1,1.20724 22.5,12.97791 5.1,-34.60774 13.6,-34.80895 2.1,29.07453 19.8,38.93371 15.4,48.59169 38.3,24.64795 -5.3,17.40447 -10,22.43467 0,25.25158 -55.3,20.12078 -51.3,-4.22537 6.2,0.40242 -54.34,16.80086 -45.24,-9.05435 7.8,-2.31389 17.2,-16.39843 18,-24.64795 -1.2,-7.14288 13.4,-8.55133 13.4,-16.39844 19.14,-51.529319 7.84,28.57151 24.84,22.73648 z"
     id="path123"
     style="fill:#ffffff;fill-rule:evenodd"
     inkscape:connector-curvature="0" />
  <path
     d="m 72.26,174.9 c 0,0 -0.2,-2.3 -0.2,-6.1 -0.4,-3.8 0.2,-9.5 4.6,-12.8 4.2,-3.4 6.7,-8.7 7.8,-12.1 2.2,-3.4 4.4,-3.5 4.4,-3.6 -5.5,2.9 -4.4,11.6 -10.4,16.3 -4.2,3.4 -6.2,8.4 -6.2,12.2 0,3.7 0.1,6.1 0,6.1 z"
     id="path127"
     style="fill:#000000;fill-rule:evenodd"
     inkscape:connector-curvature="0" />
  <path
     d="m 114.9,169.4 c 7.5,-7.6 -0.4,1.7 7.5,-4.8 4.6,-3.6 22.8,-15.8 17.3,-22.4 2.2,7.5 -15.2,20.2 -24.8,27.2 z"
     id="path133"
     style="fill:#000000;fill-rule:evenodd"
     inkscape:connector-curvature="0" />
  <path
     d="m 156.5,173.2 c 0.9,-12.3 -11.3,-18.9 -13.6,-28.5 4,11.5 13.4,19.2 13.6,28.5 z"
     id="path135"
     style="fill:#000000;fill-rule:evenodd"
     inkscape:connector-curvature="0" />
  <path
     d="m 112.6,168.1 c 3.7,-6.2 7.2,-23.7 14.6,-23.1 -13.3,6.7 -7.4,14.6 -14.6,23.1 z"
     id="path137"
     style="fill:#000000;fill-rule:evenodd"
     inkscape:connector-curvature="0" />
  <path
     d="m 159.9,171.7 c -1.5,-10.9 -4.7,-21.5 -13.6,-28.5 8.7,7.6 10.1,16.8 13.6,28.5 z"
     id="path139"
     style="fill:#000000;fill-rule:evenodd"
     inkscape:connector-curvature="0" />
  <path
     d="m 181.4,168.4 c 0,-8.7 -9,-6.5 -11.3,-11.4 0,0 4.5,1.4 9.2,3 2.1,1 4.2,3.7 2.1,8.4 z"
     id="path149"
     style="fill:#000000;fill-rule:evenodd"
     inkscape:connector-curvature="0" />
  <path
     d="m 98.46,155.3 c 0.5,-14.5 10.54,-22.4 12.34,-31.7 -4.4,6.5 -10.2,21.9 -12.34,31.7 z"
     id="path161"
     style="fill:#000000;fill-rule:evenodd"
     inkscape:connector-curvature="0" />
  <path
     d="m 108,165.2 c -0.1,-9.5 4.6,-17.6 5.7,-26.9 1.2,4.7 -4.6,15 -5.7,26.9 z"
     id="path163"
     style="fill:#000000;fill-rule:evenodd"
     inkscape:connector-curvature="0" />
  <path
     d="m 86.66,180 c -5.5,0 -11.9,8.8 -15.5,4.5 -4.8,-11.7 -5.9,-5.1 -8.1,-13 -0.3,-7.8 7.8,-3.8 10.3,-8.8 0.3,0 -1.1,3.3 -5,3.9 -8.5,3.9 -0.6,9.3 1.1,13.1 4.3,9.1 5,-1.4 17.2,0.3 z"
     id="path165"
     style="fill:#000000;fill-rule:evenodd"
     inkscape:connector-curvature="0" />
  <path
     d="m 136.6,192.3 c -27.6,13.4 -24.2,-18 -31.8,-22.9 7.4,2.7 8.2,27.6 31.8,22.9 z"
     id="path167"
     style="fill:#000000;fill-rule:evenodd"
     inkscape:connector-curvature="0" />
  <path
     d="m 161.13744,171.56967 c 6.6,22.4 -5,28.5 -24.8,23.4 0,-0.1 2.3,0 6.9,0.8 10.3,-0.8 13.8,-4.5 14.3,-9.5 0.5,-4.8 5.9,-9.1 3.6,-14.7 z"
     id="path169"
     style="fill:#000000;fill-rule:evenodd"
     inkscape:connector-curvature="0" />
  <path
     d="M 88.86,181.1 C 107,177.9 100.9,165.2 106.9,161 c -4.9,7.6 -6.3,24.4 -18.04,20.1 z"
     id="path199"
     style="fill:#000000;fill-rule:evenodd"
     inkscape:connector-curvature="0" />
  <path
     d="m 164.5,181.6 c 5.6,1.9 7.9,-5.2 12.4,-5.2 13.5,4 13.5,-6.5 4.5,-6.7 -2.1,0.2 -2.1,-3.8 -5.6,-5.5 3.2,0.8 3.2,3.5 4.4,4.3 4.3,-1.3 10.2,2.9 9,7.6 0,2 -2.4,2.5 -4.7,2.9 -5.5,-0.4 -8.7,-2.6 -13.2,2.1 -4.6,3.6 -6.8,0.1 -6.8,0.5 z"
     id="path203"
     style="fill:#000000;fill-rule:evenodd"
     inkscape:connector-curvature="0" />
  <path
     d="m 126.5,125.4 c 0,4 5.6,2.5 5.6,0 0,-3.5 -5.6,-2.7 -5.6,0 z"
     id="path261"
     style="fill:#000000;fill-rule:evenodd"
     inkscape:connector-curvature="0" />
  <path
     d="m 146.1,124.9 c 0,4.2 5.6,3.2 5.6,0.1 0,-2.7 -6.7,-3.5 -5.6,-0.1 z"
     id="path263"
     style="fill:#000000;fill-rule:evenodd"
     inkscape:connector-curvature="0" />
  <path
     d="M 159.95273,98.120495 C 146.71574,84.730144 119.985,87.4 99.51,105.525 l 8.35,14.125 c 13.45085,-5.31202 28.94187,-10.02615 50.74,-7.05 z"
     id="path7106"
     style="fill:#ffff00;fill-rule:evenodd;stroke:#000000;stroke-width:2.81739998"
     inkscape:connector-curvature="0"
     sodipodi:nodetypes="ccccc" />
  <path
     d="M 109.6,78.38 108.1205,91.992253 93.41,92.15 l 7.04289,13.05901 c 18.49085,-9.083446 37.98998,-12.478692 58.36323,-7.849049 L 158.4,83.18 145.44106,89.715113 136.8,76.88 c -10.8896,12.866858 0,0 -10.8896,12.866858 z"
     id="path281"
     style="fill:#ffff00;fill-rule:evenodd;stroke:#000000;stroke-width:3.15879989"
     inkscape:connector-curvature="0"
     sodipodi:nodetypes="cccccccccc" />
  <path
     d="m 172.4,158.9 c 0,-12.4 -5.7,-13.1 -10.2,-22.3 -2,-6.9 -8.9,-19.5 -7.7,-24.8 l 1.1,0 c 0,6.8 5.2,20.6 8.9,24.6 6.8,8 10.1,11.6 7.9,22.5 z"
     id="path285"
     style="fill:#000000;fill-rule:evenodd"
     inkscape:connector-curvature="0"
     sodipodi:nodetypes="cccccc" />
  <path
     d="m 82.36,149 c -1.6,-5.5 0,-9.5 4.6,-12.5 5.5,-3.7 15.875,-14.2 17.875,-18.4 1.4,13.4 -23.975,18.8 -22.475,30.9 z"
     id="path287"
     style="fill:#000000;fill-rule:evenodd"
     inkscape:connector-curvature="0"
     sodipodi:nodetypes="cccc" />
  <path
     d="m 94.56,237.7 c -38.5,-24.3 -59.3,25.7 -54.7,59.2 9.4,0 18.6,0 27.9,0"
     id="path291"
     style="fill:#ffffff;fill-rule:evenodd;stroke:#000000;stroke-width:1.7663"
     inkscape:connector-curvature="0" />
  <path
     d="m 54.56,268 c 1.7,14.7 7.5,12.9 5.4,-1 6,21.6 -9,15 -5.4,1 z"
     id="path595"
     style="fill:#000000;fill-rule:evenodd"
     inkscape:connector-curvature="0" />
  <path
     d="M 70.86,281.5 92.26,243 c -28,-18.1 -32.4,21.7 -21.4,38.5 z"
     id="path295"
     style="fill:#ff0049;fill-rule:evenodd;stroke:#000000;stroke-width:1.7663"
     inkscape:connector-curvature="0" />
  <path
     sodipodi:nodetypes="cc"
     inkscape:connector-curvature="0"
     style="fill:#fbddb9;fill-rule:evenodd;stroke:#000000;stroke-width:1;stroke-miterlimit:4;stroke-dasharray:none"
     id="path6272"
     d="m 70.748841,272.18682 c -20.494454,-14.441 31.488839,-20.35166 0,0 z" />
  <path
     d="M 200.5,296.9 C 209,245 217.1,186.6 225.3,138.3 l -9.1,-1.8 c -7.8,53.3 -21.3,108.8 -30.5,160.4"
     id="path333"
     style="fill:#000000;fill-rule:evenodd;stroke:#ffff00;stroke-width:1.7663;stroke-opacity:1"
     inkscape:connector-curvature="0" />
  <path
     d="m 221.80016,97.958299 c -11.49509,-8.461175 -14.69869,13.437211 -1.29753,8.931761 0.1771,7.79799 -6.60979,8.45226 -2.91542,16.97057 -5.37294,0.55665 -5.68086,11.02868 -5.6241,13.52803 5.68491,-0.72926 5.22883,7.4983 8.76426,9.01841 4.33302,-2.99915 4.23538,-7.29804 8.88415,-5.20306 -1.16102,-2.67433 6.41445,-12.64891 -0.35194,-15.496 5.46005,-6.22558 -0.0112,-9.30215 1.02272,-16.62751 10.30175,8.76835 15.41168,-12.873253 1.8883,-9.345283 9.65638,-15.243186 -15.34663,-18.288186 -10.37044,-1.776918 z"
     id="path369"
     style="fill:#feff00;fill-rule:evenodd;stroke:#000000;stroke-width:3.15879989"
     inkscape:connector-curvature="0"
     sodipodi:nodetypes="cccccccccc" />
  <path
     d="m 187.3,230.25 c 0,0 0,9 4.5,9 2.2,-6.3 3.3,-11.6 3.3,-17.8 -5.7,-1.5 -10,1.2 -7.8,8.8 z"
     id="path373"
     style="fill:#fbddb9;fill-rule:evenodd;stroke:#000000;stroke-width:1.32439995"
     inkscape:connector-curvature="0" />
  <path
     d="m 193.5,219.45 c -2.2,1.2 -2.2,5 0,8.8 -2.2,1.5 -4.6,3.9 -2.2,7.7 -3.6,3.9 -3.6,6.5 -2.4,9 -6.7,6.5 6.46586,14.95876 8.66586,16.25876 1.1,7.7 16.4341,13.16624 24.33414,15.86624 5.675,-9.8 -4.2,-28.725 -6.2,-41.125 2.1,-7.7 -8.7,-15.3 -13.2,-15.3 -3.3,0 -5.6,-2.7 -9,-1.2 z"
     id="path377"
     style="fill:#fbddb9;fill-rule:evenodd;stroke:#000000;stroke-width:2.5;stroke-miterlimit:4;stroke-dasharray:none"
     inkscape:connector-curvature="0"
     sodipodi:nodetypes="cccccccsc" />
  <path
     style="opacity:1;fill:#000000;fill-opacity:1;stroke:#ffff00;stroke-width:4;stroke-miterlimit:4;stroke-dasharray:none;stroke-dashoffset:0;stroke-opacity:1"
     id="path6170"
     sodipodi:type="arc"
     sodipodi:cx="-87.247696"
     sodipodi:cy="-296.72275"
     sodipodi:rx="42.25"
     sodipodi:ry="42.25"
     sodipodi:start="0"
     sodipodi:end="3.1415927"
     sodipodi:open="true"
     d="m -44.997696,-296.72275 a 42.25,42.25 0 0 1 -21.125,36.58958 42.25,42.25 0 0 1 -42.250004,-10e-6 42.25,42.25 0 0 1 -21.125,-36.58957"
     transform="matrix(-1,-1.0400069e-5,1.0400069e-5,-1,0,0)" />
  <circle
     r="10"
     cy="287.72549"
     cx="86.856667"
     id="circle7773"
     style="opacity:1;fill:#1c6f8f;fill-opacity:1;stroke:#000000;stroke-width:3.75;stroke-miterlimit:0;stroke-dasharray:none;stroke-dashoffset:0;stroke-opacity:1" />
  <circle
     r="10"
     cy="287.72549"
     cx="112.85666"
     id="circle7767"
     style="opacity:1;fill:#1c6f8f;fill-opacity:1;stroke:#000000;stroke-width:3.75;stroke-miterlimit:0;stroke-dasharray:none;stroke-dashoffset:0;stroke-opacity:1" />
  <path
     d="m 97.81815,239.7314 c -11.688362,-4.3107 -34.638988,1.90211 -33.295259,23.55377 31.529312,-14.16625 20.469366,20.94788 29.555891,16.82082 1.2592,4.25962 4.64438,5.14876 5.609728,1.47342 5.11329,6.51262 9.83957,-6.52074 10.12206,-11.92631 10.35854,14.6878 10.30208,2.95121 0.58414,-18.18622 0,0 -9.34798,-14.81636 -12.57656,-11.73548 z"
     id="path387"
     style="fill:#fbddb9;fill-rule:evenodd;stroke:#000000;stroke-width:2.5;stroke-miterlimit:4;stroke-dasharray:none"
     inkscape:connector-curvature="0"
     sodipodi:nodetypes="ccccccc" />
  <circle
     r="6.1640234"
     cy="287.85049"
     cx="87.106667"
     id="circle7775"
     style="opacity:1;fill:#33cfda;fill-opacity:1;stroke:none;stroke-width:1.5;stroke-miterlimit:0;stroke-dasharray:none;stroke-dashoffset:0;stroke-opacity:1" />
  <path
     d="m 68.26,195.5 c 3.4,22 19.2,17.6 4.9,-1 6.1,10.8 5.7,24.8 -4.9,1 z"
     id="path587"
     style="fill:#000000;fill-rule:evenodd"
     inkscape:connector-curvature="0" />
  <path
     d="m 84.66,212.9 c 2.8,19.9 13.1,12.8 3.9,-1.8 4.9,16.2 -0.4,13.8 -3.9,1.8 z"
     id="path589"
     style="fill:#000000;fill-rule:evenodd"
     inkscape:connector-curvature="0" />
  <path
     d="m 57.36,244.2 c -7.5,16.7 3.2,18.2 4.1,3.8 -2.7,9.8 -7.4,9.2 -4.1,-3.8 z"
     id="path593"
     style="fill:#000000;fill-rule:evenodd"
     inkscape:connector-curvature="0" />
  <path
     d="m 178.23934,207.75876 c -7.3,34.1 8.6,24.3 4.2,-1.3 -0.9,28.7 -6.6,24.8 -4.2,1.3 z"
     id="path599"
     style="fill:#000000;fill-rule:evenodd"
     inkscape:connector-curvature="0" />
  <path
     d="m 176.66967,243.82652 c -1.7,1.6 -6.3,16.2 -2.2,12.8 3.8,-4 5,-8.2 6.8,-12.8 -4.6,9 -9.1,15.8 -4.6,0 z"
     id="path601"
     style="fill:#000000;fill-rule:evenodd"
     inkscape:connector-curvature="0" />
  <path
     d="m 165.93033,271.39239 c -8.1,16.4 -1,16.7 4.3,1.2 -5.8,9.9 -8.4,13 -4.3,-1.2 z"
     id="path603"
     style="fill:#000000;fill-rule:evenodd"
     inkscape:connector-curvature="0" />
  <path
     d="m 154.03483,111.71161 c 1.04968,9.19702 2.96391,32.91751 -1.93483,37.48839"
     id="path5415"
     style="fill:none;stroke:#000000;stroke-width:1.40869999;stroke-linecap:butt;stroke-linejoin:miter"
     inkscape:connector-curvature="0"
     sodipodi:nodetypes="cc" />
  <path
     d="m 137.4,152.7 c 3.4,1.6 3.4,-0.8 5.5,0 2.3,0.5 2.3,0 2.3,-0.1"
     id="path5413"
     style="fill:none;stroke:#000000;stroke-width:1.4087;stroke-linecap:butt;stroke-linejoin:miter"
     inkscape:connector-curvature="0" />
  <path
     d="m 129.6,144.3 c 2.2,-1.7 4.5,-2.8 5.6,-6.1"
     id="path5411"
     style="fill:none;stroke:#000000;stroke-width:1.4087;stroke-linecap:butt;stroke-linejoin:miter"
     inkscape:connector-curvature="0" />
  <path
     d="m 154.3,118.7 c -18.9,-2.1 -11.1,12.9 -6.3,20.5 -1.1,2.2 -2.2,4 -4.5,5 -1.1,0 -3.3,-5.4 -5.6,-2.8"
     id="path5409"
     style="fill:none;stroke:#000000;stroke-width:1.4087;stroke-linecap:butt;stroke-linejoin:miter"
     inkscape:connector-curvature="0" />
  <path
     d="m 118.1,119.2 c 6.9,0.4 19.3,-3.3 19.3,2.2"
     id="path5741"
     style="fill:none;stroke:#000000;stroke-width:1.4087;stroke-linecap:butt;stroke-linejoin:miter"
     inkscape:connector-curvature="0" />
  <path
     d="m 31.16,246.7 c 11.7,-14 17.7,-9 17.7,-9"
     id="path5761"
     style="fill:none;stroke:#000000;stroke-width:1.3244;stroke-linecap:butt;stroke-linejoin:miter"
     inkscape:connector-curvature="0" />
  <path
     d="m 25.56,276.2 c 6.9,-15.3 15.9,-21.7 20.9,-23"
     id="path5765"
     style="fill:none;stroke:#000000;stroke-width:1.3244;stroke-linecap:butt;stroke-linejoin:miter"
     inkscape:connector-curvature="0" />
  <path
     d="m 200.75,229.75 c 3.4,0 7.9,1.5 9,2.7"
     id="path5767"
     style="fill:none;stroke:#000000;stroke-width:0.66170001;stroke-linecap:butt;stroke-linejoin:miter"
     inkscape:connector-curvature="0" />
  <path
     d="m 199.4,239 c 1.1,0 6.8,2.6 9,4"
     id="path5769"
     style="fill:none;stroke:#000000;stroke-width:0.6617;stroke-linecap:butt;stroke-linejoin:miter"
     inkscape:connector-curvature="0" />
  <path
     d="m 198.3,248 c 5.6,2.7 6.7,2.7 6.7,2.7"
     id="path5773"
     style="fill:none;stroke:#000000;stroke-width:0.6617;stroke-linecap:butt;stroke-linejoin:miter"
     inkscape:connector-curvature="0" />
  <path
     d="m 90.980751,275.4022 c -0.266603,-4.10231 2.054663,-3.49262 2.666204,-1.88451"
     id="path5775"
     style="fill:none;stroke:#000000;stroke-width:1.01056862;stroke-linecap:butt;stroke-linejoin:miter;stroke-miterlimit:4;stroke-dasharray:none"
     inkscape:connector-curvature="0" />
  <path
     d="m 95.995472,277.96004 c 0.939943,-3.57862 3.06777,-3.01973 3.593307,-0.2969"
     id="path5775-4"
     style="fill:none;stroke:#000000;stroke-width:1.01056862;stroke-linecap:butt;stroke-linejoin:miter;stroke-miterlimit:4;stroke-dasharray:none"
     inkscape:connector-curvature="0" />
  <ellipse
     transform="matrix(0.99560704,0.09363021,-0.35417386,0.9351796,0,0)"
     ry="5.3992672"
     rx="2.4330194"
     cy="288.0173"
     cx="188.08612"
     id="ellipse7777"
     style="opacity:1;fill:#ffffff;fill-opacity:1;stroke:none;stroke-width:1.5;stroke-miterlimit:0;stroke-dasharray:none;stroke-dashoffset:0;stroke-opacity:1" />
  <circle
     r="6.1640234"
     cy="287.85049"
     cx="113.10666"
     id="circle7769"
     style="opacity:1;fill:#33cfda;fill-opacity:1;stroke:none;stroke-width:1.5;stroke-miterlimit:0;stroke-dasharray:none;stroke-dashoffset:0;stroke-opacity:1" />
  <path
     d="m 101.81333,278.24743 c 2.3341,-4.55653 3.82683,-1.57966 3.82683,-1.57966"
     id="path5775-4-3"
     style="fill:none;stroke:#000000;stroke-width:1.31387651;stroke-linecap:butt;stroke-linejoin:miter;stroke-miterlimit:4;stroke-dasharray:none"
     inkscape:connector-curvature="0" />
  <path
     d="m 114.47578,272.043 c -0.36297,-1.36315 1.07189,-3.51765 2.96144,-0.31708"
     id="path5775-4-1"
     style="fill:none;stroke:#000000;stroke-width:1.01056862;stroke-linecap:butt;stroke-linejoin:miter;stroke-miterlimit:4;stroke-dasharray:none"
     inkscape:connector-curvature="0"
     sodipodi:nodetypes="cc" />
  <path
     d="m 90.403314,255.39929 c 3.524282,8.78345 4.56464,13.08899 5.211101,24.01154"
     id="path5820"
     style="fill:none;stroke:#000000;stroke-width:0.66170001;stroke-linecap:butt;stroke-linejoin:miter"
     inkscape:connector-curvature="0" />
  <ellipse
     transform="matrix(0.99560704,0.09363021,-0.35417386,0.9351796,0,0)"
     ry="5.3992672"
     rx="2.4330194"
     cy="285.49271"
     cx="213.30267"
     id="ellipse7771"
     style="opacity:1;fill:#ffffff;fill-opacity:1;stroke:none;stroke-width:1.5;stroke-miterlimit:0;stroke-dasharray:none;stroke-dashoffset:0;stroke-opacity:1" />
  <path
     d="m 98.217798,252.17882 c 4.452792,9.02733 3.522362,22.01711 2.226772,26.9498"
     id="path5820-2"
     style="fill:none;stroke:#000000;stroke-width:0.66170001;stroke-linecap:butt;stroke-linejoin:miter"
     inkscape:connector-curvature="0" />
  <path
     d="m 101.96698,246.68668 c 5.07184,8.5557 6.58629,10.90941 6.20332,22.34209"
     id="path5820-2-3"
     style="fill:none;stroke:#000000;stroke-width:0.66170001;stroke-linecap:butt;stroke-linejoin:miter"
     inkscape:connector-curvature="0"
     sodipodi:nodetypes="cc" />
  <path
     d="m 207.129,164.81697 19.20698,3.75001 c 4.42177,-0.73568 4.71044,-4.55205 0.31038,-6.46152 l -18.53898,-3.62099 c -5.60192,0.30398 -5.29796,5.90589 -0.97838,6.3325 z"
     id="path365-4"
     style="fill:#ffff00;fill-rule:evenodd;stroke:#000000;stroke-width:2;stroke-miterlimit:4;stroke-dasharray:none"
     inkscape:connector-curvature="0" />
  <path
     d="m 143.3,125.8 c 5.3,6.3 9.2,1.9 11.9,-0.1 -5.7,-3.5 -9.1,-4.3 -11.9,0.1 z"
     id="path16112-1-1"
     style="fill:none;stroke:#000000;stroke-width:1.02999997"
     inkscape:connector-curvature="0"
     sodipodi:nodetypes="ccc" />
  <path
     d="m 134.8,125.9 c -5.3,6.3 -9.2,1.9 -11.9,-0.2 5.9,-3.4 9.2,-4.2 11.9,0.2 z"
     id="path16112-1-1-4"
     style="fill:none;stroke:#000000;stroke-width:1.03"
     inkscape:connector-curvature="0" />
  <g
     id="g5595" />
  <circle
     style="opacity:1;fill:#1c6f8f;fill-opacity:1;stroke:#000000;stroke-width:1.5;stroke-miterlimit:0;stroke-dasharray:none;stroke-dashoffset:0;stroke-opacity:1"
     id="path4451"
     cx="111.36695"
     cy="109.46873"
     r="4" />
  <circle
     style="opacity:1;fill:#33cfda;fill-opacity:1;stroke:none;stroke-width:1.5;stroke-miterlimit:0;stroke-dasharray:none;stroke-dashoffset:0;stroke-opacity:1"
     id="path4453"
     cx="111.61695"
     cy="109.59373"
     r="2.4656093" />
  <ellipse
     style="opacity:1;fill:#ffffff;fill-opacity:1;stroke:none;stroke-width:1.5;stroke-miterlimit:0;stroke-dasharray:none;stroke-dashoffset:0;stroke-opacity:1"
     id="path4455"
     cx="146.382"
     cy="101.58047"
     rx="0.97320777"
     ry="2.1597068"
     transform="matrix(0.99560704,0.09363021,-0.35417386,0.9351796,0,0)" />
  <circle
     r="4"
     cy="105.43687"
     cx="124.16695"
     id="circle4457"
     style="opacity:1;fill:#1c6f8f;fill-opacity:1;stroke:#000000;stroke-width:1.5;stroke-miterlimit:0;stroke-dasharray:none;stroke-dashoffset:0;stroke-opacity:1" />
  <circle
     r="2.4656093"
     cy="105.56187"
     cx="124.41695"
     id="circle4459"
     style="opacity:1;fill:#33cfda;fill-opacity:1;stroke:none;stroke-width:1.5;stroke-miterlimit:0;stroke-dasharray:none;stroke-dashoffset:0;stroke-opacity:1" />
  <ellipse
     transform="matrix(0.99560704,0.09363021,-0.35417386,0.9351796,0,0)"
     ry="2.1597068"
     rx="0.97320777"
     cy="96.174477"
     cx="157.31532"
     id="ellipse4461"
     style="opacity:1;fill:#ffffff;fill-opacity:1;stroke:none;stroke-width:1.5;stroke-miterlimit:0;stroke-dasharray:none;stroke-dashoffset:0;stroke-opacity:1" />
  <circle
     style="opacity:1;fill:#1c6f8f;fill-opacity:1;stroke:#000000;stroke-width:1.5;stroke-miterlimit:0;stroke-dasharray:none;stroke-dashoffset:0;stroke-opacity:1"
     id="circle4463"
     cx="137.92432"
     cy="103.43319"
     r="4" />
  <circle
     style="opacity:1;fill:#33cfda;fill-opacity:1;stroke:none;stroke-width:1.5;stroke-miterlimit:0;stroke-dasharray:none;stroke-dashoffset:0;stroke-opacity:1"
     id="circle4465"
     cx="138.17432"
     cy="103.55819"
     r="2.4656093" />
  <ellipse
     style="opacity:1;fill:#ffffff;fill-opacity:1;stroke:none;stroke-width:1.5;stroke-miterlimit:0;stroke-dasharray:none;stroke-dashoffset:0;stroke-opacity:1"
     id="ellipse4467"
     cx="169.92224"
     cy="92.769714"
     rx="0.97320777"
     ry="2.1597068"
     transform="matrix(0.99560704,0.09363021,-0.35417386,0.9351796,0,0)" />
  <circle
     r="4"
     cy="104.10997"
     cx="151.49969"
     id="circle4469"
     style="opacity:1;fill:#1c6f8f;fill-opacity:1;stroke:#000000;stroke-width:1.5;stroke-miterlimit:0;stroke-dasharray:none;stroke-dashoffset:0;stroke-opacity:1" />
  <circle
     r="2.4656093"
     cy="104.23497"
     cx="151.74969"
     id="circle4471"
     style="opacity:1;fill:#33cfda;fill-opacity:1;stroke:none;stroke-width:1.5;stroke-miterlimit:0;stroke-dasharray:none;stroke-dashoffset:0;stroke-opacity:1" />
  <ellipse
     transform="matrix(0.99560704,0.09363021,-0.35417386,0.9351796,0,0)"
     ry="2.1597068"
     rx="0.97320777"
     cy="92.150314"
     cx="183.33723"
     id="ellipse4473"
     style="opacity:1;fill:#ffffff;fill-opacity:1;stroke:none;stroke-width:1.5;stroke-miterlimit:0;stroke-dasharray:none;stroke-dashoffset:0;stroke-opacity:1" />
  <path
     d="m 146.34633,203.13193 -20.48784,1.51386 c -4.91836,0.53006 -4.23175,8.30413 0.57109,8.04081 l 20.3438,-1.76637 c 5.05527,-0.40742 4.35443,-8.44103 -0.42706,-7.7883 z"
     id="path4498"
     style="fill:#ffff00;fill-rule:evenodd;stroke:#000000;stroke-width:2.5999999;stroke-miterlimit:4;stroke-dasharray:none;stroke-opacity:1"
     inkscape:connector-curvature="0" />
  <path
     inkscape:connector-curvature="0"
     style="fill:#ffff00;fill-rule:evenodd;stroke:#000000;stroke-width:2.5999999;stroke-miterlimit:4;stroke-dasharray:none;stroke-opacity:1"
     id="path5844"
     d="m 132.01276,204.96424 1.69869,20.47333 c 0.57442,4.9134 8.34197,4.15666 8.03532,-0.64361 l -1.94988,-20.32703 c -0.45302,-5.0514 -8.47999,-4.27809 -7.78413,0.49732 z" />
  <path
     d="m 145.71058,242.38787 -1.4103,-20.49522 c -0.50519,-4.921 -8.28263,-4.27369 -8.04359,0.53042 l 1.66353,20.35247 c 0.38186,5.05727 8.41892,4.39704 7.79036,-0.38768 z"
     id="path4254"
     style="fill:#ffff00;fill-rule:evenodd;stroke:#000000;stroke-width:2.5999999;stroke-miterlimit:4;stroke-dasharray:none;stroke-opacity:1"
     inkscape:connector-curvature="0" />
  <ellipse
     style="opacity:1;fill:#ffff00;fill-opacity:1;stroke:#000000;stroke-width:2;stroke-miterlimit:4;stroke-dasharray:none;stroke-dashoffset:0;stroke-opacity:1"
     id="path5852"
     cx="141.55739"
     cy="254.38855"
     rx="16.883377"
     ry="25.204449" />
  <g
     transform="matrix(1.4421544,0,0,1.1090471,262.69005,-67.115984)"
     style="font-style:normal;font-weight:normal;font-size:40px;line-height:125%;font-family:sans-serif;letter-spacing:0px;word-spacing:0px;fill:#000000;fill-opacity:1;stroke:#000000;stroke-width:1px;stroke-linecap:butt;stroke-linejoin:miter;stroke-opacity:1"
     id="flowRoot5856">
    <path
       d="m -83.52,306.37667 c 0,-7.04 0.48,-13.68 1.64,-16.08 -1.68,-1.72 -1.68,-5.56 -1.68,-7.4 3.32,0.24 3.68,1.36 5.6,1.36 0,0 0,0 0,0 0.72,0 1.64,-0.36 1.64,-1.76 0,-1.24 -0.92,-1.72 -1.64,-1.72 -1.92,0 -2.28,1.32 -5.6,1.4 -0.04,-4.84 1.44,-5 1.44,-6.92 0,-0.48 -0.24,-0.96 -0.56,-1.32 0,0 0,0 0,0 -0.36,-0.36 -0.8,-0.56 -1.28,-0.56 -0.52,0 -1,0.2 -1.32,0.56 -0.36,0.36 -0.56,0.84 -0.56,1.32 0,1.92 1.48,2.08 1.44,6.92 -3.56,-0.08 -3.8,-1.4 -5.6,-1.4 -0.72,0 -1.64,0.48 -1.64,1.72 0,1.4 0.92,1.76 1.64,1.76 0,0 0,0 0,0 1.8,0 2.04,-1.12 5.6,-1.36 0,1.84 0,5.68 -1.68,7.4 0.68,1.56 1.6,6.24 1.68,11.16 0,1.64 0.04,3.28 0.04,4.92 l 0.84,0 z"
       style="fill:#000000;fill-opacity:1;stroke:#000000;stroke-opacity:1"
       id="path6166"
       inkscape:connector-curvature="0" />
  </g>
  <circle
     style="opacity:1;fill:#1c6f8f;fill-opacity:1;stroke:#000000;stroke-width:3.75;stroke-miterlimit:0;stroke-dasharray:none;stroke-dashoffset:0;stroke-opacity:1"
     id="circle7734"
     cx="62.856667"
     cy="283.72549"
     r="10" />
  <circle
     style="opacity:1;fill:#33cfda;fill-opacity:1;stroke:none;stroke-width:1.5;stroke-miterlimit:0;stroke-dasharray:none;stroke-dashoffset:0;stroke-opacity:1"
     id="circle7736"
     cx="63.106667"
     cy="283.85049"
     r="6.1640234" />
  <ellipse
     style="opacity:1;fill:#ffffff;fill-opacity:1;stroke:none;stroke-width:1.5;stroke-miterlimit:0;stroke-dasharray:none;stroke-dashoffset:0;stroke-opacity:1"
     id="ellipse7738"
     cx="163.33997"
     cy="286.21774"
     rx="2.4330194"
     ry="5.3992672"
     transform="matrix(0.99560704,0.09363021,-0.35417386,0.9351796,0,0)" />
  <circle
     style="opacity:1;fill:#1c6f8f;fill-opacity:1;stroke:#000000;stroke-width:2.26628375;stroke-miterlimit:0;stroke-dasharray:none;stroke-dashoffset:0;stroke-opacity:1"
     id="path4251"
     cx="213.29268"
     cy="182.39117"
     r="13.535813" />
  <circle
     style="opacity:1;fill:#33cfda;fill-opacity:1;stroke:none;stroke-width:1;stroke-miterlimit:0;stroke-dasharray:none;stroke-dashoffset:0;stroke-opacity:1"
     id="path4253"
     cx="213.29268"
     cy="182.39117"
     r="7.4649687" />
  <path
     inkscape:connector-curvature="0"
     style="fill:#ffffff;fill-rule:evenodd;stroke-width:1;stroke-miterlimit:0;stroke-dasharray:none"
     id="path4255"
     d="m 205.23679,185.4375 c -2.06413,-7.37188 1.1795,-12.38475 7.96163,-11.05781 0.88463,2.65388 -6.04494,12.67964 -7.96163,11.05781 z" />
  <path
     inkscape:connector-curvature="0"
     style="fill:#ffff00;fill-rule:evenodd;stroke:#000000;stroke-width:2;stroke-miterlimit:4;stroke-dasharray:none"
     id="path4247"
     d="m 198.69293,202.10081 17.7241,3.83046 c 7.37472,1.9133 6.82554,-5.16254 1.49949,-5.86504 l -16.37919,-3.40768 c -5.52656,-1.35262 -5.84588,4.94413 -2.8444,5.44226 z" />
  <path
     inkscape:connector-curvature="0"
     style="fill:#ffff00;fill-rule:evenodd;stroke:#000000;stroke-width:2;stroke-miterlimit:4;stroke-dasharray:none"
     id="path4249"
     d="m 198.72995,208.87395 19.20698,3.75001 c 4.42177,-0.73568 4.71044,-4.55205 0.31038,-6.46152 l -18.53898,-3.62099 c -5.60192,0.30398 -5.29796,5.90589 -0.97838,6.3325 z" />
</svg>
