<?xml version="1.0" encoding="UTF-8" standalone="no"?>
<!-- Created with Inkscape (http://www.inkscape.org/) -->

<svg
   xmlns:dc="http://purl.org/dc/elements/1.1/"
   xmlns:cc="http://creativecommons.org/ns#"
   xmlns:rdf="http://www.w3.org/1999/02/22-rdf-syntax-ns#"
   xmlns:svg="http://www.w3.org/2000/svg"
   xmlns="http://www.w3.org/2000/svg"
   xmlns:sodipodi="http://sodipodi.sourceforge.net/DTD/sodipodi-0.dtd"
   xmlns:inkscape="http://www.inkscape.org/namespaces/inkscape"
   version="1.1"
   width="250"
   height="300"
   viewBox="0 0 250 300"
   id="cards"
   inkscape:version="0.91 r13725"
   sodipodi:docname="face_DK.svg">
  <sodipodi:namedview
     pagecolor="#ffffff"
     bordercolor="#666666"
     objecttolerance="10"
     gridtolerance="10"
     guidetolerance="10"
     inkscape:pageopacity="0"
     inkscape:pageshadow="2"
     inkscape:window-width="1920"
     inkscape:window-height="978"
     id="namedview6787"
     showgrid="false"
     inkscape:zoom="1"
     inkscape:cx="-197.501"
     inkscape:cy="157.20321"
     inkscape:window-x="0"
     inkscape:window-y="1"
     inkscape:window-maximized="1"
     inkscape:current-layer="cards"
     showguides="true"
     inkscape:guide-bbox="true" />
  <defs
     id="defs2680" />
  <metadata
     id="metadata97">
    <rdf:RDF>
      <cc:Work
         rdf:about="">
        <dc:format>image/svg+xml</dc:format>
        <dc:type
           rdf:resource="http://purl.org/dc/dcmitype/StillImage" />
        <dc:title />
      </cc:Work>
    </rdf:RDF>
  </metadata>
  <path
     d="m 211.7,212 c -16.9,-0.1 -47.6,20.8 -47.6,20.8 -23.3,23.2 -68,10 -68,10 C 72.7,236.1 59.7,219.7 56,215.4 l -2,0.2 c 0,0 -10.2,10.7 -12.1,18.9 0,0 8.5,19.8 44.8,34.8 0,0 31.7,9.9 59.7,1.7 0,0 14,-5.1 25.2,-11.7 0,0 14.9,-8.3 15.8,-8.3 0,0 18.7,-13.1 28,-13.1 0,0 4.6,1.6 5.6,0 0,0 0,-13.3 -9.3,-25.9 z"
     id="path12935"
     style="fill:#900000;fill-rule:evenodd;fill-opacity:1"
     inkscape:connector-curvature="0" />
  <path
     style="fill:none;fill-rule:evenodd;stroke:#000000;stroke-width:2;stroke-linecap:butt;stroke-linejoin:miter;stroke-miterlimit:4;stroke-dasharray:none;stroke-opacity:1"
     d="m 211.89988,209.14102 c 8.09712,22.78751 8.09712,22.78751 8.09712,22.78751"
     id="path4585"
     inkscape:connector-curvature="0"
     sodipodi:nodetypes="cc" />
  <path
     sodipodi:nodetypes="cc"
     inkscape:connector-curvature="0"
     id="path4587"
     d="m 208.12532,210.46492 c 8.09712,22.7875 8.09712,22.7875 8.09712,22.7875"
     style="fill:none;fill-rule:evenodd;stroke:#000000;stroke-width:2;stroke-linecap:butt;stroke-linejoin:miter;stroke-miterlimit:4;stroke-dasharray:none;stroke-opacity:1" />
  <path
     style="fill:none;fill-rule:evenodd;stroke:#000000;stroke-width:2;stroke-linecap:butt;stroke-linejoin:miter;stroke-miterlimit:4;stroke-dasharray:none;stroke-opacity:1"
     d="m 204.35076,211.78881 c 8.09712,22.78751 8.09712,22.78751 8.09712,22.78751"
     id="path4589"
     inkscape:connector-curvature="0"
     sodipodi:nodetypes="cc" />
  <g
     id="g4964"
     transform="matrix(0.91539553,-0.40255562,0.40255562,0.91539553,-112.06972,-2.067387)">
    <path
       style="fill:none;fill-rule:evenodd;stroke:#000000;stroke-width:2;stroke-linecap:butt;stroke-linejoin:miter;stroke-miterlimit:4;stroke-dasharray:none;stroke-opacity:1"
       d="m 202.35677,322.55063 c 0.0987,24.18314 0.0987,24.18314 0.0987,24.18314"
       id="path4591"
       inkscape:connector-curvature="0"
       sodipodi:nodetypes="cc" />
    <path
       sodipodi:nodetypes="cc"
       inkscape:connector-curvature="0"
       id="path4593"
       d="m 198.35677,322.55063 c 0.0987,24.18314 0.0987,24.18314 0.0987,24.18314"
       style="fill:none;fill-rule:evenodd;stroke:#000000;stroke-width:2;stroke-linecap:butt;stroke-linejoin:miter;stroke-miterlimit:4;stroke-dasharray:none;stroke-opacity:1" />
    <path
       style="fill:none;fill-rule:evenodd;stroke:#000000;stroke-width:2;stroke-linecap:butt;stroke-linejoin:miter;stroke-miterlimit:4;stroke-dasharray:none;stroke-opacity:1"
       d="m 194.35677,322.55063 c 0.0987,24.18314 0.0987,24.18314 0.0987,24.18314"
       id="path4595"
       inkscape:connector-curvature="0"
       sodipodi:nodetypes="cc" />
    <path
       sodipodi:nodetypes="cc"
       inkscape:connector-curvature="0"
       id="path4597"
       d="m 190.35677,322.55063 c 0.0987,24.18314 0.0987,24.18314 0.0987,24.18314"
       style="fill:none;fill-rule:evenodd;stroke:#000000;stroke-width:2;stroke-linecap:butt;stroke-linejoin:miter;stroke-miterlimit:4;stroke-dasharray:none;stroke-opacity:1" />
    <path
       style="fill:none;fill-rule:evenodd;stroke:#000000;stroke-width:2;stroke-linecap:butt;stroke-linejoin:miter;stroke-miterlimit:4;stroke-dasharray:none;stroke-opacity:1"
       d="m 186.35677,322.55063 c 0.0987,24.18314 0.0987,24.18314 0.0987,24.18314"
       id="path4599"
       inkscape:connector-curvature="0"
       sodipodi:nodetypes="cc" />
    <path
       sodipodi:nodetypes="cc"
       inkscape:connector-curvature="0"
       id="path4601"
       d="m 182.35677,322.55063 c 0.0987,24.18314 0.0987,24.18314 0.0987,24.18314"
       style="fill:none;fill-rule:evenodd;stroke:#000000;stroke-width:2;stroke-linecap:butt;stroke-linejoin:miter;stroke-miterlimit:4;stroke-dasharray:none;stroke-opacity:1" />
  </g>
  <g
     id="g4956"
     transform="matrix(0.83775634,-0.54604424,0.54604424,0.83775634,-143.3858,47.609372)">
    <path
       style="fill:none;fill-rule:evenodd;stroke:#000000;stroke-width:2;stroke-linecap:butt;stroke-linejoin:miter;stroke-miterlimit:4;stroke-dasharray:none;stroke-opacity:1"
       d="m 178.35677,322.55063 c 0.0987,24.18314 0.0987,24.18314 0.0987,24.18314"
       id="path4603"
       inkscape:connector-curvature="0"
       sodipodi:nodetypes="cc" />
    <path
       sodipodi:nodetypes="cc"
       inkscape:connector-curvature="0"
       id="path4605"
       d="m 174.35677,322.55063 c 0.0987,24.18314 0.0987,24.18314 0.0987,24.18314"
       style="fill:none;fill-rule:evenodd;stroke:#000000;stroke-width:2;stroke-linecap:butt;stroke-linejoin:miter;stroke-miterlimit:4;stroke-dasharray:none;stroke-opacity:1" />
    <path
       style="fill:none;fill-rule:evenodd;stroke:#000000;stroke-width:2;stroke-linecap:butt;stroke-linejoin:miter;stroke-miterlimit:4;stroke-dasharray:none;stroke-opacity:1"
       d="m 170.35677,322.55063 c 0.0987,24.18314 0.0987,24.18314 0.0987,24.18314"
       id="path4607"
       inkscape:connector-curvature="0"
       sodipodi:nodetypes="cc" />
    <path
       sodipodi:nodetypes="cc"
       inkscape:connector-curvature="0"
       id="path4609"
       d="m 166.35677,322.55063 c 0.0987,24.18314 0.0987,24.18314 0.0987,24.18314"
       style="fill:none;fill-rule:evenodd;stroke:#000000;stroke-width:2;stroke-linecap:butt;stroke-linejoin:miter;stroke-miterlimit:4;stroke-dasharray:none;stroke-opacity:1" />
    <path
       style="fill:none;fill-rule:evenodd;stroke:#000000;stroke-width:2;stroke-linecap:butt;stroke-linejoin:miter;stroke-miterlimit:4;stroke-dasharray:none;stroke-opacity:1"
       d="m 162.35677,322.55063 c 0.0988,24.18314 0.0988,24.18314 0.0988,24.18314"
       id="path4611"
       inkscape:connector-curvature="0"
       sodipodi:nodetypes="cc" />
    <path
       sodipodi:nodetypes="cc"
       inkscape:connector-curvature="0"
       id="path4613"
       d="m 158.35677,322.55063 c 0.0988,24.18314 0.0988,24.18314 0.0988,24.18314"
       style="fill:none;fill-rule:evenodd;stroke:#000000;stroke-width:2;stroke-linecap:butt;stroke-linejoin:miter;stroke-miterlimit:4;stroke-dasharray:none;stroke-opacity:1" />
  </g>
  <g
     id="g4945"
     transform="matrix(0.91988689,-0.39218378,0.39218378,0.91988689,-100.89516,-6.4681969)">
    <path
       style="fill:none;fill-rule:evenodd;stroke:#000000;stroke-width:2;stroke-linecap:butt;stroke-linejoin:miter;stroke-miterlimit:4;stroke-dasharray:none;stroke-opacity:1"
       d="m 154.35677,322.55063 c 0.0988,24.18314 0.0988,24.18314 0.0988,24.18314"
       id="path4615"
       inkscape:connector-curvature="0"
       sodipodi:nodetypes="cc" />
    <path
       sodipodi:nodetypes="cc"
       inkscape:connector-curvature="0"
       id="path4617"
       d="m 150.35677,322.55063 c 0.0988,24.18314 0.0988,24.18314 0.0988,24.18314"
       style="fill:none;fill-rule:evenodd;stroke:#000000;stroke-width:2;stroke-linecap:butt;stroke-linejoin:miter;stroke-miterlimit:4;stroke-dasharray:none;stroke-opacity:1" />
    <path
       style="fill:none;fill-rule:evenodd;stroke:#000000;stroke-width:2;stroke-linecap:butt;stroke-linejoin:miter;stroke-miterlimit:4;stroke-dasharray:none;stroke-opacity:1"
       d="m 146.35677,322.55063 c 0.0988,24.18314 0.0988,24.18314 0.0988,24.18314"
       id="path4619"
       inkscape:connector-curvature="0"
       sodipodi:nodetypes="cc" />
    <path
       sodipodi:nodetypes="cc"
       inkscape:connector-curvature="0"
       id="path4621"
       d="m 142.35677,322.55063 c 0.0988,24.18314 0.0988,24.18314 0.0988,24.18314"
       style="fill:none;fill-rule:evenodd;stroke:#000000;stroke-width:2;stroke-linecap:butt;stroke-linejoin:miter;stroke-miterlimit:4;stroke-dasharray:none;stroke-opacity:1" />
    <path
       style="fill:none;fill-rule:evenodd;stroke:#000000;stroke-width:2;stroke-linecap:butt;stroke-linejoin:miter;stroke-miterlimit:4;stroke-dasharray:none;stroke-opacity:1"
       d="m 138.35677,322.55063 c 0.0988,24.18314 0.0988,24.18314 0.0988,24.18314"
       id="path4623"
       inkscape:connector-curvature="0"
       sodipodi:nodetypes="cc" />
    <path
       sodipodi:nodetypes="cc"
       inkscape:connector-curvature="0"
       id="path4625"
       d="m 134.35677,322.55063 c 0.0988,24.18314 0.0988,24.18314 0.0988,24.18314"
       style="fill:none;fill-rule:evenodd;stroke:#000000;stroke-width:2;stroke-linecap:butt;stroke-linejoin:miter;stroke-miterlimit:4;stroke-dasharray:none;stroke-opacity:1" />
    <path
       style="fill:none;fill-rule:evenodd;stroke:#000000;stroke-width:2;stroke-linecap:butt;stroke-linejoin:miter;stroke-miterlimit:4;stroke-dasharray:none;stroke-opacity:1"
       d="m 130.35677,322.55063 c 0.0988,24.18314 0.0988,24.18314 0.0988,24.18314"
       id="path4627"
       inkscape:connector-curvature="0"
       sodipodi:nodetypes="cc" />
    <path
       sodipodi:nodetypes="cc"
       inkscape:connector-curvature="0"
       id="path4629"
       d="m 126.35677,322.55063 c 0.0988,24.18314 0.0988,24.18314 0.0988,24.18314"
       style="fill:none;fill-rule:evenodd;stroke:#000000;stroke-width:2;stroke-linecap:butt;stroke-linejoin:miter;stroke-miterlimit:4;stroke-dasharray:none;stroke-opacity:1" />
    <path
       style="fill:none;fill-rule:evenodd;stroke:#000000;stroke-width:2;stroke-linecap:butt;stroke-linejoin:miter;stroke-miterlimit:4;stroke-dasharray:none;stroke-opacity:1"
       d="m 122.35677,322.55063 c 0.0988,24.18314 0.0988,24.18314 0.0988,24.18314"
       id="path4631"
       inkscape:connector-curvature="0"
       sodipodi:nodetypes="cc" />
  </g>
  <g
     id="g4936"
     transform="matrix(0.98870991,-0.14984233,0.14984233,0.98870991,-23.839939,-59.120116)">
    <path
       sodipodi:nodetypes="cc"
       inkscape:connector-curvature="0"
       id="path4633"
       d="m 118.35677,322.55063 c 0.0988,24.18314 0.0988,24.18314 0.0988,24.18314"
       style="fill:none;fill-rule:evenodd;stroke:#000000;stroke-width:2;stroke-linecap:butt;stroke-linejoin:miter;stroke-miterlimit:4;stroke-dasharray:none;stroke-opacity:1" />
    <path
       style="fill:none;fill-rule:evenodd;stroke:#000000;stroke-width:2;stroke-linecap:butt;stroke-linejoin:miter;stroke-miterlimit:4;stroke-dasharray:none;stroke-opacity:1"
       d="m 114.35677,322.55063 c 0.0988,24.18314 0.0988,24.18314 0.0988,24.18314"
       id="path4635"
       inkscape:connector-curvature="0"
       sodipodi:nodetypes="cc" />
    <path
       sodipodi:nodetypes="cc"
       inkscape:connector-curvature="0"
       id="path4637"
       d="m 110.35677,322.55063 c 0.0988,24.18314 0.0988,24.18314 0.0988,24.18314"
       style="fill:none;fill-rule:evenodd;stroke:#000000;stroke-width:2;stroke-linecap:butt;stroke-linejoin:miter;stroke-miterlimit:4;stroke-dasharray:none;stroke-opacity:1" />
    <path
       style="fill:none;fill-rule:evenodd;stroke:#000000;stroke-width:2;stroke-linecap:butt;stroke-linejoin:miter;stroke-miterlimit:4;stroke-dasharray:none;stroke-opacity:1"
       d="m 106.35677,322.55063 c 0.0988,24.18314 0.0988,24.18314 0.0988,24.18314"
       id="path4639"
       inkscape:connector-curvature="0"
       sodipodi:nodetypes="cc" />
    <path
       sodipodi:nodetypes="cc"
       inkscape:connector-curvature="0"
       id="path4641"
       d="m 102.35677,322.55063 c 0.0988,24.18314 0.0988,24.18314 0.0988,24.18314"
       style="fill:none;fill-rule:evenodd;stroke:#000000;stroke-width:2;stroke-linecap:butt;stroke-linejoin:miter;stroke-miterlimit:4;stroke-dasharray:none;stroke-opacity:1" />
    <path
       style="fill:none;fill-rule:evenodd;stroke:#000000;stroke-width:2;stroke-linecap:butt;stroke-linejoin:miter;stroke-miterlimit:4;stroke-dasharray:none;stroke-opacity:1"
       d="m 98.356772,322.55063 c 0.0988,24.18314 0.0988,24.18314 0.0988,24.18314"
       id="path4643"
       inkscape:connector-curvature="0"
       sodipodi:nodetypes="cc" />
    <path
       sodipodi:nodetypes="cc"
       inkscape:connector-curvature="0"
       id="path4645"
       d="m 94.356772,322.55063 c 0.0988,24.18314 0.0988,24.18314 0.0988,24.18314"
       style="fill:none;fill-rule:evenodd;stroke:#000000;stroke-width:2;stroke-linecap:butt;stroke-linejoin:miter;stroke-miterlimit:4;stroke-dasharray:none;stroke-opacity:1" />
  </g>
  <g
     id="g4928"
     transform="matrix(0.99379935,0.11118836,-0.11118836,0.99379935,67.051821,-85.00053)">
    <path
       style="fill:none;fill-rule:evenodd;stroke:#000000;stroke-width:2;stroke-linecap:butt;stroke-linejoin:miter;stroke-miterlimit:4;stroke-dasharray:none;stroke-opacity:1"
       d="m 90.356772,322.55063 c 0.0988,24.18314 0.0988,24.18314 0.0988,24.18314"
       id="path4647"
       inkscape:connector-curvature="0"
       sodipodi:nodetypes="cc" />
    <path
       sodipodi:nodetypes="cc"
       inkscape:connector-curvature="0"
       id="path4649"
       d="m 86.356772,322.55063 c 0.0988,24.18314 0.0988,24.18314 0.0988,24.18314"
       style="fill:none;fill-rule:evenodd;stroke:#000000;stroke-width:2;stroke-linecap:butt;stroke-linejoin:miter;stroke-miterlimit:4;stroke-dasharray:none;stroke-opacity:1" />
    <path
       style="fill:none;fill-rule:evenodd;stroke:#000000;stroke-width:2;stroke-linecap:butt;stroke-linejoin:miter;stroke-miterlimit:4;stroke-dasharray:none;stroke-opacity:1"
       d="m 82.356772,322.55063 c 0.0988,24.18314 0.0988,24.18314 0.0988,24.18314"
       id="path4651"
       inkscape:connector-curvature="0"
       sodipodi:nodetypes="cc" />
    <path
       sodipodi:nodetypes="cc"
       inkscape:connector-curvature="0"
       id="path4653"
       d="m 78.356772,322.55063 c 0.0988,24.18314 0.0988,24.18314 0.0988,24.18314"
       style="fill:none;fill-rule:evenodd;stroke:#000000;stroke-width:2;stroke-linecap:butt;stroke-linejoin:miter;stroke-miterlimit:4;stroke-dasharray:none;stroke-opacity:1" />
    <path
       style="fill:none;fill-rule:evenodd;stroke:#000000;stroke-width:2;stroke-linecap:butt;stroke-linejoin:miter;stroke-miterlimit:4;stroke-dasharray:none;stroke-opacity:1"
       d="m 74.356775,322.55063 c 0.0988,24.18314 0.0988,24.18314 0.0988,24.18314"
       id="path4655"
       inkscape:connector-curvature="0"
       sodipodi:nodetypes="cc" />
    <path
       sodipodi:nodetypes="cc"
       inkscape:connector-curvature="0"
       id="path4657"
       d="m 70.356775,322.55063 c 0.0988,24.18314 0.0988,24.18314 0.0988,24.18314"
       style="fill:none;fill-rule:evenodd;stroke:#000000;stroke-width:2;stroke-linecap:butt;stroke-linejoin:miter;stroke-miterlimit:4;stroke-dasharray:none;stroke-opacity:1" />
  </g>
  <g
     id="g4918"
     transform="matrix(0.93259381,0.36092767,-0.36092767,0.93259381,178.60209,-74.575711)">
    <path
       style="fill:none;fill-rule:evenodd;stroke:#000000;stroke-width:2;stroke-linecap:butt;stroke-linejoin:miter;stroke-miterlimit:4;stroke-dasharray:none;stroke-opacity:1"
       d="m 45.497125,325.0255 c 0.0988,24.18314 0.0988,24.18314 0.0988,24.18314"
       id="path4659"
       inkscape:connector-curvature="0"
       sodipodi:nodetypes="cc" />
    <path
       sodipodi:nodetypes="cc"
       inkscape:connector-curvature="0"
       id="path4661"
       d="m 41.497125,325.0255 c 0.0988,24.18314 0.0988,24.18314 0.0988,24.18314"
       style="fill:none;fill-rule:evenodd;stroke:#000000;stroke-width:2;stroke-linecap:butt;stroke-linejoin:miter;stroke-miterlimit:4;stroke-dasharray:none;stroke-opacity:1" />
    <path
       style="fill:none;fill-rule:evenodd;stroke:#000000;stroke-width:2;stroke-linecap:butt;stroke-linejoin:miter;stroke-miterlimit:4;stroke-dasharray:none;stroke-opacity:1"
       d="m 37.497125,325.0255 c 0.0988,24.18314 0.0988,24.18314 0.0988,24.18314"
       id="path4663"
       inkscape:connector-curvature="0"
       sodipodi:nodetypes="cc" />
    <path
       sodipodi:nodetypes="cc"
       inkscape:connector-curvature="0"
       id="path4665"
       d="m 33.497125,325.0255 c 0.0988,24.18314 0.0988,24.18314 0.0988,24.18314"
       style="fill:none;fill-rule:evenodd;stroke:#000000;stroke-width:2;stroke-linecap:butt;stroke-linejoin:miter;stroke-miterlimit:4;stroke-dasharray:none;stroke-opacity:1" />
    <path
       style="fill:none;fill-rule:evenodd;stroke:#000000;stroke-width:2;stroke-linecap:butt;stroke-linejoin:miter;stroke-miterlimit:4;stroke-dasharray:none;stroke-opacity:1"
       d="m 29.497125,325.0255 c 0.0988,24.18314 0.0988,24.18314 0.0988,24.18314"
       id="path4667"
       inkscape:connector-curvature="0"
       sodipodi:nodetypes="cc" />
    <path
       sodipodi:nodetypes="cc"
       inkscape:connector-curvature="0"
       id="path4669"
       d="m 25.497125,325.0255 c 0.0988,24.18314 0.0988,24.18314 0.0988,24.18314"
       style="fill:none;fill-rule:evenodd;stroke:#000000;stroke-width:2;stroke-linecap:butt;stroke-linejoin:miter;stroke-miterlimit:4;stroke-dasharray:none;stroke-opacity:1" />
    <path
       style="fill:none;fill-rule:evenodd;stroke:#000000;stroke-width:2;stroke-linecap:butt;stroke-linejoin:miter;stroke-miterlimit:4;stroke-dasharray:none;stroke-opacity:1"
       d="m 21.497125,325.0255 c 0.0988,24.18314 0.0988,24.18314 0.0988,24.18314"
       id="path4671"
       inkscape:connector-curvature="0"
       sodipodi:nodetypes="cc" />
    <path
       sodipodi:nodetypes="cc"
       inkscape:connector-curvature="0"
       id="path4673"
       d="m 17.497125,325.0255 c 0.0988,24.18314 0.0988,24.18314 0.0988,24.18314"
       style="fill:none;fill-rule:evenodd;stroke:#000000;stroke-width:2;stroke-linecap:butt;stroke-linejoin:miter;stroke-miterlimit:4;stroke-dasharray:none;stroke-opacity:1" />
  </g>
  <g
     id="g4909"
     transform="matrix(0.81431034,0.58042972,-0.58042972,0.81431034,258.57807,-37.372919)"
     inkscape:transform-center-x="46.306707"
     inkscape:transform-center-y="34.21898">
    <path
       style="fill:none;fill-rule:evenodd;stroke:#000000;stroke-width:2;stroke-linecap:butt;stroke-linejoin:miter;stroke-miterlimit:4;stroke-dasharray:none;stroke-opacity:1"
       d="m 2.356775,322.55063 c 0.0988,24.18314 0.0988,24.18314 0.0988,24.18314"
       id="path4675"
       inkscape:connector-curvature="0"
       sodipodi:nodetypes="cc" />
    <path
       sodipodi:nodetypes="cc"
       inkscape:connector-curvature="0"
       id="path4677"
       d="m -1.643225,322.55063 c 0.0988,24.18314 0.0988,24.18314 0.0988,24.18314"
       style="fill:none;fill-rule:evenodd;stroke:#000000;stroke-width:2;stroke-linecap:butt;stroke-linejoin:miter;stroke-miterlimit:4;stroke-dasharray:none;stroke-opacity:1" />
    <path
       style="fill:none;fill-rule:evenodd;stroke:#000000;stroke-width:2;stroke-linecap:butt;stroke-linejoin:miter;stroke-miterlimit:4;stroke-dasharray:none;stroke-opacity:1"
       d="m -5.643225,322.55063 c 0.0988,24.18314 0.0988,24.18314 0.0988,24.18314"
       id="path4679"
       inkscape:connector-curvature="0"
       sodipodi:nodetypes="cc" />
    <path
       sodipodi:nodetypes="cc"
       inkscape:connector-curvature="0"
       id="path4681"
       d="m -9.643225,322.55063 c 0.0988,24.18314 0.0988,24.18314 0.0988,24.18314"
       style="fill:none;fill-rule:evenodd;stroke:#000000;stroke-width:2;stroke-linecap:butt;stroke-linejoin:miter;stroke-miterlimit:4;stroke-dasharray:none;stroke-opacity:1" />
    <path
       style="fill:none;fill-rule:evenodd;stroke:#000000;stroke-width:2;stroke-linecap:butt;stroke-linejoin:miter;stroke-miterlimit:4;stroke-dasharray:none;stroke-opacity:1"
       d="m -13.643225,322.55063 c 0.0988,24.18314 0.0988,24.18314 0.0988,24.18314"
       id="path4683"
       inkscape:connector-curvature="0"
       sodipodi:nodetypes="cc" />
    <path
       sodipodi:nodetypes="cc"
       inkscape:connector-curvature="0"
       id="path4685"
       d="m -17.643225,322.55063 c 0.0988,24.18314 0.0988,24.18314 0.0988,24.18314"
       style="fill:none;fill-rule:evenodd;stroke:#000000;stroke-width:2;stroke-linecap:butt;stroke-linejoin:miter;stroke-miterlimit:4;stroke-dasharray:none;stroke-opacity:1" />
    <path
       style="fill:none;fill-rule:evenodd;stroke:#000000;stroke-width:2;stroke-linecap:butt;stroke-linejoin:miter;stroke-miterlimit:4;stroke-dasharray:none;stroke-opacity:1"
       d="m -21.643225,322.55063 c 0.0988,24.18314 0.0988,24.18314 0.0988,24.18314"
       id="path4687"
       inkscape:connector-curvature="0"
       sodipodi:nodetypes="cc" />
  </g>
  <path
     d="m 231.2,270.2 c -6.4,-10.8 -4.6,-23.5 -11.2,-33 -6.5,-16.7 -100.7,86 -176.2,-1.8 -1.9,1.8 -4.7,10 -3.7,14.9 -3.8,1.2 -15.9,4.1 -16.7,39.5 0,0 -1.0625,7.675 -1.0625,9.275 L 234.9,299.1375 c -0.8,-8.6 0,-22.9375 -3.7,-28.9375 z"
     id="path12939"
     style="fill:#ff0000;fill-rule:evenodd;stroke:#000000;stroke-width:2.00379992"
     inkscape:connector-curvature="0"
     sodipodi:nodetypes="cccccccc" />
  <path
     d="m 44.8,260.9 c -9.3,-2.1 -15,13.5 -21.4,29.7 0,0 -1.132583,7.01872 -1.132583,8.71872 5.844991,0 11.737264,0 17.7,0 C 37.167417,283.91872 41.9,274 44.8,260.9 Z"
     id="path12943"
     style="fill:#7e9eff;fill-opacity:1;fill-rule:evenodd;stroke:#000000;stroke-width:1.5029"
     inkscape:connector-curvature="0"
     sodipodi:nodetypes="ccccc" />
  <path
     d="m 206.375,298.95 c 0.9,-15.6 -11.37215,-26.28634 -39.35818,-25.12157 L 167,280.8 c 14.9,-1.7 10.075,8.15 10.075,18.15 z"
     id="path12947"
     style="fill:#7e9eff;fill-opacity:1;fill-rule:evenodd;stroke:#000000;stroke-width:1.5029"
     inkscape:connector-curvature="0"
     sodipodi:nodetypes="ccccc" />
  <path
     d="m 111.9,211.9 c 0,0 33.6,-11.7 43.8,-34.9 -21.4,7.9 -78.3,7.5 -43.8,34.9 z"
     id="path12953"
     style="fill:#e7eff9;fill-rule:evenodd"
     inkscape:connector-curvature="0" />
  <path
     d="m 111.9,191.4 c 6.5,10.3 25.1,6.7 30.7,2.1 -8.3,3.9 -23.3,6.2 -30.7,-2.1 z"
     id="path12955"
     style="fill:#000000;fill-rule:evenodd"
     inkscape:connector-curvature="0" />
  <path
     d="m 108.2,193.2 c 0,0.6 1.8,11.8 22.3,10.5 -11.2,-1 -18.6,-3.1 -22.3,-10.5 z"
     id="path12957"
     style="fill:#000000;fill-rule:evenodd"
     inkscape:connector-curvature="0" />
  <path
     d="m 104.4,193.9 c 0,0.2 1,13.8 18.7,13.7 -11.2,-1.2 -15.9,-6.1 -18.7,-13.7 z"
     id="path12959"
     style="fill:#000000;fill-rule:evenodd"
     inkscape:connector-curvature="0" />
  <path
     d="m 167.8,179.5 c 0,0.3 -0.8,0.5 -0.8,1 0,0 -13.1,32.3 -55.1,42.5 0,0 -2.8,0 -6.5,-1.7 0,0 -14,-15.1 -14.9,-30.8 l -2.9,0.1 c 0,0 -9.2,-0.7 -20.5,12.5 0,0 -9.3,9.8 -13.1,11 0,0 15,20.4 42.1,28.7 0,0 44.7,13.2 68,-10 0,0 31.7,-21.6 49.4,-20.8 0,0 -23.3,-27 -44.7,-31.6 0,0 -1,-1 -1,-0.9 z"
     id="path12961"
     style="fill:#7e9eff;fill-rule:evenodd;stroke:#000000;stroke-width:3.00589991"
     inkscape:connector-curvature="0" />
  <circle
     style="opacity:1;fill:#ffff00;fill-opacity:1;stroke:#000000;stroke-width:1.5;stroke-miterlimit:4;stroke-dasharray:none;stroke-dashoffset:0;stroke-opacity:1"
     id="circle5555"
     cx="73.298172"
     cy="230.47301"
     r="5.3916893" />
  <path
     d="m 90.5,190.5 c 4.6,64.7 61.4,20.9 76.5,-10 7.4,-3.3 -3.8,-6.9 -11.3,-4.1 -10.2,23.6 -43.8,35.5 -43.8,35.5 -8.4,-6.4 -8.4,-18.1 -8.4,-18.1 z"
     id="path12965"
     style="fill:#ff0000;fill-rule:evenodd;stroke:#000000;stroke-width:3.00589991"
     inkscape:connector-curvature="0" />
  <path
     d="m 159.5,239.5 c 0,1.6 -1.9,3.3 -3.8,3.3 0,0 -0.9,-1.7 -0.9,-3.3 0,0 0.9,-1.6 0.9,-1.6 1.9,0 3.8,1.6 3.8,1.6 z"
     id="path13073"
     style="fill:#ffffff;fill-rule:evenodd"
     inkscape:connector-curvature="0" />
  <path
     d="m 154.8,239.5 c 0,1.6 0,3.3 0.9,3.3 1.9,0 3.8,-1.7 3.8,-3.3 0,-1.6 -1.9,-1.6 -3.8,-1.6 -0.9,0 -0.9,0 -0.9,1.6 z m 0,0 c 0,0 0.9,-1.6 0.9,-1.6 1.9,0 1.9,1.6 1.9,1.6 0,1.6 0,1.6 -1.9,1.6 0,0 -0.9,0 -0.9,-1.6 z"
     id="path13075"
     style="fill:#000000;fill-rule:evenodd"
     inkscape:connector-curvature="0" />
  <path
     d="m 161.3,237.9 c 0,0 0,1.6 -0.9,1.6 -0.9,0 -2.8,-1.6 -2.8,-1.6 0,-1.8 1.9,-3.4 2.8,-3.4 0.9,0 0.9,1.6 0.9,3.4 z"
     id="path13077"
     style="fill:#ffffff;fill-rule:evenodd"
     inkscape:connector-curvature="0" />
  <path
     d="m 157.6,237.9 c 0,1.6 1.9,1.6 2.8,1.6 0.9,0 0.9,0 0.9,-1.6 0,-1.8 0,-3.4 -0.9,-3.4 -0.9,0 -2.8,1.6 -2.8,3.4 z m 1.9,0 c 0,-1.8 0,-1.8 0.9,-1.8 0,0 0.9,0 0.9,1.8 0,0 -0.9,1.6 -0.9,1.6 -0.9,0 -0.9,-1.6 -0.9,-1.6 z"
     id="path13079"
     style="fill:#000000;fill-rule:evenodd"
     inkscape:connector-curvature="0" />
  <path
     d="m 167,234.5 c 0,1.6 -2.9,3.4 -3.8,3.4 -1.9,0 -1.9,-1.8 -1.9,-3.4 0,-1.7 0,-1.7 1.9,-1.7 0.9,0 3.8,0 3.8,1.7 z"
     id="path13081"
     style="fill:#ffffff;fill-rule:evenodd"
     inkscape:connector-curvature="0" />
  <path
     d="m 161.3,234.5 c 0,1.6 0,3.4 1.9,3.4 0.9,0 3.8,-1.8 3.8,-3.4 0,-1.7 -2.9,-1.7 -3.8,-1.7 -1.9,0 -1.9,0 -1.9,1.7 z m 0,0 c 0,0 1.9,-1.7 1.9,-1.7 0.9,0 0.9,1.7 0.9,1.7 0,1.6 0,1.6 -0.9,1.6 0,0 -1.9,0 -1.9,-1.6 z"
     id="path13083"
     style="fill:#000000;fill-rule:evenodd"
     inkscape:connector-curvature="0" />
  <path
     d="m 168.8,232.8 c 0,0 -1,1.7 -1,1.7 -0.8,0 -3.7,-1.7 -3.7,-1.7 0,-1.6 2.9,-3.3 3.7,-3.3 0,0 1,1.7 1,3.3 z"
     id="path13085"
     style="fill:#ffffff;fill-rule:evenodd"
     inkscape:connector-curvature="0" />
  <path
     d="m 164.1,232.8 c 0,0 2.9,1.7 3.7,1.7 0,0 1,-1.7 1,-1.7 0,-1.6 -1,-3.3 -1,-3.3 -0.8,0 -3.7,1.7 -3.7,3.3 z m 0,0 c 0,-1.6 2.9,-3.3 3.7,-3.3 0,0 1,1.7 1,3.3 0,0 -1,1.7 -1,1.7 -0.8,0 -3.7,-1.7 -3.7,-1.7 z"
     id="path13087"
     style="fill:#000000;fill-rule:evenodd"
     inkscape:connector-curvature="0" />
  <path
     d="m 171.6,229.5 c 0,1.7 0,1.7 0,1.7 -2.8,0 -2.8,0 -2.8,-1.7 0,-1.6 0,-1.6 2.8,-1.6 0,0 0,0 0,1.6 z"
     id="path13089"
     style="fill:#ffffff;fill-rule:evenodd"
     inkscape:connector-curvature="0" />
  <path
     d="m 69,256 -5.6,11.6 c -0.9,1.7 0,1.7 0,3.4 0.9,0 1.9,0 1.9,-1.7 l 5.6,-11.7 c 0.9,0 0.9,0 0,-1.6 0,0 0,0 0,0 -1,0 -1.9,0 -1.9,0 z m -4.7,13.3 c -0.9,0 -0.9,0 -0.9,-1.7 L 69.9,256 c 0,0 0,0 1,0 0,0 0,0 0,1.6 0,0 0,0 0,0 0,0 0,0 0,0 l -6.6,11.7 c 0,0 0,0 0,0 z"
     id="path13135"
     style="fill:#000000;fill-rule:evenodd"
     inkscape:connector-curvature="0" />
  <path
     d="m 70.9,257.6 c 0,0 0,0 0,0 l -6.6,11.7 c 0,1.7 0,1.7 1,3.2 0,0 1.8,0 2.8,-1.5 l 4.6,-11.7 c 0,0 0,0 0,0 0,0 0,-1.7 0,-1.7 -0.9,0 -0.9,0 -1.8,0 z M 65.3,271 c 0,0 0,0 0,0 l 5.6,-11.7 c 0,0 0,-1.7 0.9,-1.7 0,0 0,0 0,0 0.9,1.7 0.9,1.7 0.9,1.7 L 67.1,271 c 0,0 -1.8,0 -1.8,0 l 0,0 z"
     id="path13139"
     style="fill:#000000;fill-rule:evenodd"
     inkscape:connector-curvature="0" />
  <path
     d="M 71.8,259.3 67.1,271 c 0,1.5 0,1.5 0,1.5 0,0 0,1.6 0,1.6 1,0 1.9,0 1.9,-1.6 l 5.6,-11.6 c 0,0 0,0 0,0 0,-1.6 -0.9,-1.6 -0.9,-1.6 -1,0 -1,0 -1.9,0 z m -3.7,13.2 c 0,0 -1,0 -1,0 0,0 0,0 1,0 l 4.6,-11.6 c 0,-1.6 0,-1.6 1,0 0,0 0,0 0,0 0,0 0,0 0,0 L 69,272.5 c -0.9,0 -0.9,0 -0.9,0 z"
     id="path13143"
     style="fill:#000000;fill-rule:evenodd"
     inkscape:connector-curvature="0" />
  <path
     d="M 138.17678,298.6955 128.7,283.8 c 0,0 -22.47227,-0.0929 -37.372272,14.80711 z"
     id="path13189"
     style="fill:#7e9eff;fill-rule:evenodd;stroke:#000000;stroke-width:1.00199997;fill-opacity:1"
     inkscape:connector-curvature="0"
     sodipodi:nodetypes="cccc" />
  <path
     d="m 96.1,297.3 c 3.7,-2.3 33.5,-13.4 32.6,-13.2 -19.6,4.9 -28.9,11.5 -32.6,13.2 z"
     id="path13193"
     style="fill:#000000;fill-rule:evenodd"
     inkscape:connector-curvature="0" />
  <path
     d="m 103.5,297.3 c 0,0 23.3,-10 28,-9.8 -14,1.5 -24.3,8.1 -28,9.8 z"
     id="path13195"
     style="fill:#000000;fill-rule:evenodd"
     inkscape:connector-curvature="0" />
  <path
     d="m 111.9,295.6 c 0,1.7 2.8,3.3 3.7,3.3 2.8,0 3.7,-1.6 3.7,-3.3 0,-1.6 -0.9,-3.3 -3.7,-3.3 -0.9,0 -3.7,1.7 -3.7,3.3 z m 3.7,-3.3 c 2.8,1.1 3.7,5 0,5 -3.7,0.5 -1.8,-4.9 0,-5 z"
     id="path13201"
     style="fill:#000000;fill-rule:evenodd"
     inkscape:connector-curvature="0" />
  <path
     d="m 159.5,262.6 c 3.7,3.4 9.3,12.9 9.3,24.9 l 2.8,0 c 0,4.7 0.44194,7.31421 -3.35806,11.21421 l -35.4,0 C 130.04194,296.31421 129.6,290.7 127.7,285.8 c -0.9,-2.8 1,-5 2.8,-3.4 -0.9,-3.9 -0.9,-8.9 1.9,-6.6 -1.9,-4.3 0.5625,-14.8375 4.3625,-10.3375 0.8,-6 5.0375,-13.5625 9.6375,-9.4625 -1.9,8.9 11.2,12.9 13.1,6.6 z"
     id="path13203"
     style="fill:#fbddb9;fill-rule:evenodd;stroke:#000000;stroke-width:1.5029"
     inkscape:connector-curvature="0"
     sodipodi:nodetypes="ccccccccccc" />
  <path
     d="m 136.2,265.9 c 0,0 4.6,8.2 5.6,9.9 2.7,0.8 -4.8,-12.7 -5.6,-9.9 z"
     id="path13207"
     style="fill:#000000;fill-rule:evenodd"
     inkscape:connector-curvature="0" />
  <path
     d="m 131.5,275.8 c 0,0 4.7,6.6 6.5,8.3 l 0,0 c -1.8,-1.7 -5.6,-8.3 -5.6,-8.3 l -0.9,0 z"
     id="path13209"
     style="fill:#000000;fill-rule:evenodd"
     inkscape:connector-curvature="0" />
  <polygon
     points="10583,13845 10543,13869 10811,14318 10851,14294 "
     transform="matrix(0.0145,0,0,0.0165,-23.706757,51.445786)"
     id="polygon13211"
     style="fill:#000000;fill-rule:evenodd" />
  <path
     d="m 63.4,275.8 c 0,6.5 -7.4,8.2 -13,6.6 -1,4.6 9.3,1.4 11.1,0 -0.9,5.6 -11.1,4.1 -14.9,3.4 0,5.4 13.1,1 14,-1.7 1.9,-1.4 6.5,-8.3 2.8,-8.3 z"
     id="path13233"
     style="fill:#000000;fill-rule:evenodd"
     inkscape:connector-curvature="0" />
  <rect
     transform="matrix(0.72928858,-0.68420623,0.68420623,0.72928858,0,0)"
     ry="0.66292256"
     rx="1.7235727"
     y="242.4742"
     x="-141.26265"
     height="6.3639503"
     width="12.285984"
     id="rect4330"
     style="opacity:1;fill:#ffff00;fill-opacity:1;stroke:#000000;stroke-width:2;stroke-miterlimit:4;stroke-dasharray:none;stroke-dashoffset:0;stroke-opacity:1" />
  <path
     d="m 48.5,251.5 c 0,0 0.9,-10 11.2,-15 0,0 8.4,0 10.2,0 7.5,4.4 16.8,15 8.5,18.1 0,0 2.8,5 -3.8,6.7 0,0 1.8,5 -1.9,6.6 0,0 1,5.1 -1.8,5.1 0,0 -8.4,4.8 -10.3,4.8 -6.6,7.3 -18.7,2.5 -16.8,-6.5 0,0 1,-5 1,-6.7 0,0 -1,-6.6 3.7,-13.1 z"
     id="path13213"
     style="fill:#fbddb9;fill-rule:evenodd;stroke:#000000;stroke-width:1.5029"
     inkscape:connector-curvature="0" />
  <path
     d="m 58.8,244.4 0,1.8 c 10.2,-1.8 19.6,6.4 19.6,6.4 l 0,0 c 0,0 -9.4,-9.8 -19.6,-8.2 z"
     id="path13217"
     style="fill:#000000;fill-rule:evenodd"
     inkscape:connector-curvature="0" />
  <path
     d="m 56,256 0,1.6 c 8.3,-1.6 18.6,1.7 18.6,3.3 l 0,-1.6 c 0,0 -10.3,-5 -18.6,-3.3 z"
     id="path13219"
     style="fill:#000000;fill-rule:evenodd"
     inkscape:connector-curvature="0" />
  <path
     d="m 55,267.6 c 6.5,-1.7 12.1,-1.6 17.7,-1.7 -13,0.7 -17.7,2.7 -17.7,1.7 z"
     id="path13221"
     style="fill:#000000;fill-rule:evenodd"
     inkscape:connector-curvature="0" />
  <path
     d="m 74.6,257.6 c 0,-2.3 0,-3.1 1.8,-5 -2.7,1.2 -2.7,3.5 -1.8,5 z"
     id="path13227"
     style="fill:#000000;fill-rule:evenodd"
     inkscape:connector-curvature="0" />
  <path
     d="m 77.4,244.2 c 0,-1.9 -2.8,3.7 1,5.3 -1,-2 -1,-7.7 -1,-5.3 z"
     id="path13229"
     style="fill:#000000;fill-rule:evenodd"
     inkscape:connector-curvature="0" />
  <polygon
     points="4811,11780 4781,11744 4441,12020 4470,12057 "
     transform="matrix(0.0145,0,0,0.0165,-24.9,52.86)"
     id="polygon13231"
     style="fill:#000000;fill-rule:evenodd" />
  <path
     d="m 181.9,271 c 13.9,-6.7 14.9,-4.8 26,-3.4 -27,-1.2 -1.8,-2.2 0,-1.7 -10.3,-5.4 -19.5,-1.3 -26,5.1 z"
     id="path13235"
     style="fill:#000000;fill-rule:evenodd"
     inkscape:connector-curvature="0" />
  <path
     d="m 183.7,272.5 0,0 c 0,0 11.1,-3.2 20.5,3.3 3.7,3.4 11.2,18.3 7.5,18.2 -3.8,-15.8 -14.9,-24.4 -28,-21.5 z"
     id="path13237"
     style="fill:#000000;fill-rule:evenodd"
     inkscape:connector-curvature="0" />
  <circle
     style="opacity:1;fill:#ffff00;fill-opacity:1;stroke:#000000;stroke-width:1.5;stroke-miterlimit:4;stroke-dasharray:none;stroke-dashoffset:0;stroke-opacity:1"
     id="circle5571"
     cx="144.71239"
     cy="242.87161"
     r="5.3916893" />
  <circle
     style="opacity:1;fill:#ffff00;fill-opacity:1;stroke:#000000;stroke-width:1.5;stroke-miterlimit:4;stroke-dasharray:none;stroke-dashoffset:0;stroke-opacity:1"
     id="circle5575"
     cx="178.18205"
     cy="227.20435"
     r="5.3916893" />
  <circle
     r="5.3916893"
     cy="231.20435"
     cx="168.18205"
     id="circle5573"
     style="opacity:1;fill:#ffff00;fill-opacity:1;stroke:#000000;stroke-width:1.5;stroke-miterlimit:4;stroke-dasharray:none;stroke-dashoffset:0;stroke-opacity:1" />
  <circle
     r="5.3916893"
     cy="238.87161"
     cx="154.71239"
     id="circle5585"
     style="opacity:1;fill:#ffff00;fill-opacity:1;stroke:#000000;stroke-width:1.5;stroke-miterlimit:4;stroke-dasharray:none;stroke-dashoffset:0;stroke-opacity:1" />
  <circle
     r="5.3916893"
     cy="221.20435"
     cx="188.18205"
     id="circle5577"
     style="opacity:1;fill:#ffff00;fill-opacity:1;stroke:#000000;stroke-width:1.5;stroke-miterlimit:4;stroke-dasharray:none;stroke-dashoffset:0;stroke-opacity:1" />
  <circle
     r="5.3916893"
     cy="215.20435"
     cx="208.18205"
     id="circle5581"
     style="opacity:1;fill:#ffff00;fill-opacity:1;stroke:#000000;stroke-width:1.5;stroke-miterlimit:4;stroke-dasharray:none;stroke-dashoffset:0;stroke-opacity:1" />
  <circle
     style="opacity:1;fill:#ffff00;fill-opacity:1;stroke:#000000;stroke-width:1.5;stroke-miterlimit:4;stroke-dasharray:none;stroke-dashoffset:0;stroke-opacity:1"
     id="circle5579"
     cx="198.18205"
     cy="217.20435"
     r="5.3916893" />
  <path
     d="M 188.1125,170.1375 196.3,174.025 155.7,265.8 c -5.6,1.1 -8.4,0 -9.3,-4.6 z"
     id="polygon13239"
     style="fill:#000000;fill-rule:evenodd;stroke:#000000;stroke-width:1.50300002;stroke-miterlimit:4;stroke-dasharray:none"
     inkscape:connector-curvature="0"
     sodipodi:nodetypes="ccccc" />
  <path
     d="m 191.15882,164.15789 c -0.14076,-0.24021 7.69564,4.97452 8.23366,3.08465 0,0 -2.14251,4.83298 -3.5749,7.65582 0,0 -4.68198,1.15666 -8.0055,-4.10744 0,0 2.15977,-4.84099 3.34674,-6.63303 z"
     id="path13251"
     style="fill:#ffff00;fill-rule:evenodd;stroke:#000000;stroke-width:2;stroke-miterlimit:4;stroke-dasharray:none"
     inkscape:connector-curvature="0"
     sodipodi:nodetypes="ccccc" />
  <path
     d="m 148.3245,255.2608 c 0,0 2.05953,7.95714 10.75717,4.54397 -0.80028,11.56831 -19.54978,5.76438 -10.75717,-4.54397 z"
     id="path13255"
     style="fill:#ffff00;fill-rule:evenodd;stroke:#000000;stroke-width:0.96570283"
     inkscape:connector-curvature="0"
     sodipodi:nodetypes="ccc" />
  <path
     style="fill:#ffff00;fill-rule:evenodd;stroke:#000000;stroke-width:2;stroke-miterlimit:4;stroke-dasharray:none"
     d="m 213.48468,126.28901 -11.94982,7.41568 2.23159,8.19313 c -1.91421,-0.46654 -3.7245,1.25277 -4.59771,3.25236 -5.73291,-5.79805 -5.43487,-9.6284 -5.24848,-17.2407 -7.1902,6.73135 -6.56493,23.14673 1.06763,27.20678 -3.22944,7.4275 0,0 -3.22944,7.4275 -3.53011,5.41464 6.01402,10.19759 8.43846,3.76012 3.80116,-6.81667 0,0 3.80116,-6.81667 14.39071,2.72524 19.36249,-9.7775 20.02631,-15.44384 -1.01046,1.21133 -8.44835,7.5007 -16.58736,5.76353 0.93516,-3.20872 1.94514,-4.95777 -0.005,-5.91549 l 7.37089,-3.80561 z"
     id="path5448"
     inkscape:connector-curvature="0"
     sodipodi:nodetypes="cccccccccccccc" />
  <path
     d="m 155.7,176.5 c 0,0 -17.7,20.2 -38.2,15 -8.4,-7.6 -12.1,-18.9 -20.6,-25.5 0,-0.4 2,-2.1 2.9,-2.1 -2.9,-6.4 3.7,-9 -5.7,-12.5 0,0 -1.8,-0.7 -1.8,-2.5 2.8,-3.8 6.6,-14.4 7.5,-15.1 1.8,-1.8 3.7,-5.1 3.7,-7.3 10.3,-40.57 66.2,-3.7 52.2,50 z"
     id="path13279"
     style="fill:#fbddb9;fill-rule:evenodd;stroke:#000000;stroke-width:1.00199997"
     inkscape:connector-curvature="0" />
  <path
     d="m 99.8,163.6 c 0,0 3.7,0.1 4.6,-1.4 l 2.8,1.5 0,2.6 c 0,0 0,-0.9 -1.8,-0.8 -1,0 -1.9,-0.4 -1.9,-1.2 0,-0.6 0,-0.1 -1.9,-0.1 -0.9,0 -0.9,0.1 -1.8,0 l 0,-0.6 z"
     id="path13283"
     style="fill:#000000;fill-rule:evenodd"
     inkscape:connector-curvature="0" />
  <path
     d="m 115.6,189.9 c 3.7,3.8 11.2,2.5 14.9,1.8 -6.4,-3 -3.7,-8.4 -3.7,-8.4 z"
     id="path13285"
     style="fill:#000000;fill-rule:evenodd"
     inkscape:connector-curvature="0" />
  <path
     d="m 141.8,143.1 c 0,0 0,1.1 0.8,-0.6 4.7,-3.7 4.7,-1.9 7.5,3.9 -4.6,-10.3 -7.5,-0.6 -4.6,-0.6 3.7,-1 0,9.2 -7.5,5.6 0,0 0,-1.9 2.8,-1.3 1.8,-1.6 3.7,-3.5 0,-2.4 0,0 -2.8,1.3 -2.8,-2.5 0,0 2.8,-6.3 8.4,-7.6 4.7,2.6 -4.6,0.1 -4.6,5.5 z"
     id="path13287"
     style="fill:#000000;fill-rule:evenodd"
     inkscape:connector-curvature="0" />
  <path
     d="m 104.4,149.8 c 1,4.7 0,3.6 -8.3,3 0,2 7.4,1.1 7.4,1.5 3.7,-0.6 3.7,-5.5 0.9,-6 -0.9,0.9 0,1.1 0,1.5 z"
     id="path13289"
     style="fill:#000000;fill-rule:evenodd"
     inkscape:connector-curvature="0" />
  <path
     d="m 105.4,152.3 c 0,0 2.8,2.2 3.7,3.7 0,-1.4 -1.9,-5.1 -3.7,-3.7 z"
     id="path13291"
     style="fill:#000000;fill-rule:evenodd"
     inkscape:connector-curvature="0" />
  <path
     d="m 117.5,137 c -6.5,2.8 -9.3,0.2 -9.3,0 0,4.2 11.1,1.9 9.3,0 z"
     id="path13293"
     style="fill:#000000;fill-rule:evenodd"
     inkscape:connector-curvature="0" />
  <path
     d="m 111,128.1 c -1,0 -1,0.5 -1,1.3 3.8,0.6 7.5,4.2 9.3,7.8 -3.7,-2.4 -10.2,-6.2 -10.2,-6.3 -3.7,0.7 8.4,5.3 11.2,8.2 1.8,-4.5 -5.6,-8.9 -9.3,-11 z"
     id="path13295"
     style="fill:#000000;fill-rule:evenodd"
     inkscape:connector-curvature="0" />
  <path
     d="m 126.8,132 c -4.7,-5.8 -12.1,-6.6 -18.6,-8.1 -2.8,2.3 5.6,0.8 18.6,8.1 z"
     id="path13297"
     style="fill:#000000;fill-rule:evenodd"
     inkscape:connector-curvature="0" />
  <path
     d="m 109.1,138.2 c 2.8,1.9 4.7,-1.3 4.7,-4.2 -4.7,-2.6 -4.7,1.8 -4.7,4.2 z"
     id="path13299"
     style="fill:#000000;fill-rule:evenodd"
     inkscape:connector-curvature="0" />
  <polygon
     points="9475,6973 9665,7378 9578,7402 "
     transform="matrix(0.0145,0,0,0.0165,-24.9,52.86)"
     id="polygon13301"
     style="fill:#000000;fill-rule:evenodd" />
  <polygon
     points="9598,6862 9813,7403 9726,7426 "
     transform="matrix(0.0145,0,0,0.0165,-24.9,52.86)"
     id="polygon13303"
     style="fill:#000000;fill-rule:evenodd" />
  <polygon
     points="9844,6930 10029,7335 9941,7358 "
     transform="matrix(0.0145,0,0,0.0165,-24.9,52.86)"
     id="polygon13307"
     style="fill:#000000;fill-rule:evenodd" />
  <polygon
     points="10060,6717 10292,7122 10207,7153 "
     transform="matrix(0.0145,0,0,0.0165,-24.9,52.86)"
     id="polygon13311"
     style="fill:#000000;fill-rule:evenodd" />
  <polygon
     points="12076,6810 11892,6944 12018,6740 "
     transform="matrix(0.0145,0,0,0.0165,-24.9,52.86)"
     id="polygon13315"
     style="fill:#000000;fill-rule:evenodd" />
  <polygon
     points="11891,7295 12084,7050 12140,7121 "
     transform="matrix(0.0145,0,0,0.0165,-24.9,52.86)"
     id="polygon13319"
     style="fill:#000000;fill-rule:evenodd" />
  <polygon
     points="10492,7911 10245,8174 10194,8099 "
     transform="matrix(0.0145,0,0,0.0165,-24.9,52.86)"
     id="polygon13323"
     style="fill:#000000;fill-rule:evenodd" />
  <polygon
     points="10350,8284 10299,8209 10497,8091 "
     transform="matrix(0.0145,0,0,0.0165,-24.1,53.53)"
     id="polygon13325"
     style="fill:#000000;fill-rule:evenodd" />
  <polygon
     points="10546,8412 10504,8332 10656,8269 "
     transform="matrix(0.0145,0,0,0.0165,-25.3,52.67)"
     id="polygon13329"
     style="fill:#000000;fill-rule:evenodd" />
  <path
     d="m 98.9,153.4 c 0,0 5.5,-3.3 4.6,0 z"
     id="path13331"
     style="fill:#000000;fill-rule:evenodd"
     inkscape:connector-curvature="0" />
  <path
     sodipodi:nodetypes="ccccccc"
     d="m 186.5,140.2 c -16.9,-89.62 -129,-69.81 -83,-18.9 0.9,-1.8 4.7,-4.2 10.3,-2.3 18.6,8.9 43.8,16.7 41,33.2 0,0 0,15.7 0,16.9 12.2,-2.2 16.8,6 25.1,-10.9 10.3,-6.9 6.6,-18 6.6,-18 z"
     id="path13333"
     style="fill:#ff0000;fill-rule:evenodd;stroke:#000000;stroke-width:3.00589991"
     inkscape:connector-curvature="0" />
  <path
     sodipodi:nodetypes="ccccccccccc"
     d="m 119.8,78.96 c -4.6,0.14 -8.8,1.27 -11.9,2.15 -4.4,1.23 -11,17.37 -11,17.37 -1.8,7.52 2,17.52 6.6,22.82 0.9,-2 -1.9,-10.2 8.4,-16.4 0,0 10.2,17.7 12.2,19.6 l 12.1,7.3 c 27.9,-12.6 44.7,1.2 43.7,26.3 6.6,-4.2 8.5,-11.3 6.6,-17.9 -14.9,-29 -40.1,-32.6 -40.1,-32.6 -17.7,-3.7 -4.2,-30.37 -26.6,-28.64 z"
     id="path13341"
     style="fill:#fffa5e;fill-rule:evenodd;stroke:#000000;stroke-width:1.00199997"
     inkscape:connector-curvature="0" />
  <path
     d="m 159.5,126 c 0,0 9.3,14.6 4.6,28.3 l -4.6,6.2 0.9,7.7 c 2.8,0.5 3.7,1.8 3.7,1.8 37.3,-11.4 14,-43.2 -4.6,-44 z"
     id="path13351"
     style="fill:#7e9eff;fill-rule:evenodd;stroke:#000000;stroke-width:1.00199997"
     inkscape:connector-curvature="0" />
  <path
     d="m 96.9,103.9 c 13.1,-13.46 23.4,23.4 29.9,21.5 -8.4,-8 -14.9,-38.42 -29.9,-21.5 z"
     id="path13355"
     style="fill:#000000;fill-rule:evenodd"
     inkscape:connector-curvature="0" />
  <path
     d="m 163.2,156.1 c 3.8,-5 0,-2.3 0,-2.3 -20.6,1.9 4.6,-16.8 -15.9,-15.9 7.5,4.7 7.5,12.8 1.9,17.8 -6.6,6.7 -17.7,10.9 -11.2,-0.7 -3.7,5.2 -7.5,4.4 -5.6,-1.6 1.9,-1.5 1.9,-7.9 1.9,-7.9 1.9,-4.6 6.5,-10.4 6.5,-10.4 -17.7,-3.5 -12.1,34.1 -23.3,39 -6.5,-2.1 0.9,-23.5 -18.6,-18.3 -2,3.7 0.9,5.9 0.9,5.9 5.6,-2.3 8.4,6.2 8.4,10.9 -1,5.5 -7.5,-5 -9.3,-5.9 0.9,9.6 -12.2,11.2 -12.2,20.7 8.4,15 33.6,4 42,-5.6 3.7,-20.2 8.3,-9.7 20.5,-19.6 4.7,3.3 0,18.5 0,21.4 4.7,-3.6 6.5,-7 6.5,-7 -4.6,-7.5 1.9,-10.8 8.4,-6.6 4.7,-0.3 7.5,-1.8 10.3,-3.3 -11.2,4.1 -16.8,-1.1 -11.2,-10.6 z"
     id="path13357"
     style="fill:#000000;fill-rule:evenodd"
     inkscape:connector-curvature="0" />
  <polygon
     points="12272,5970 12577,5483 12350,6016 "
     transform="matrix(0.0145,0,0,0.0165,-22.7,54.78)"
     id="polygon13359"
     style="fill:#000000;fill-rule:evenodd" />
  <polygon
     points="12947,5904 12740,6303 12669,6248 "
     transform="matrix(0.0145,0,0,0.0165,-24.9,52.86)"
     id="polygon13365"
     style="fill:#000000;fill-rule:evenodd" />
  <polygon
     points="13090,6714 12955,6981 12888,6922 "
     transform="matrix(0.0145,0,0,0.0165,-24.9,52.86)"
     id="polygon13371"
     style="fill:#000000;fill-rule:evenodd" />
  <polygon
     points="13347,6724 13147,7077 13079,7018 "
     transform="matrix(0.0145,0,0,0.0165,-24.9,52.86)"
     id="polygon13373"
     style="fill:#000000;fill-rule:evenodd" />
  <polygon
     points="13543,6715 13385,7031 13315,6974 "
     transform="matrix(0.0145,0,0,0.0165,-24.9,52.86)"
     id="polygon13375"
     style="fill:#000000;fill-rule:evenodd" />
  <path
     d="m 155.7,120.9 c -6.5,0 -13.1,-6.7 -13.1,-14.6 0,-0.2 0,-0.8 0,-1.1 -1.8,2.7 -4.6,6.9 -4.6,11.7 0,7.9 4.6,14.6 12.1,14.6 7.5,0 13.1,-5.9 13.1,-13.6 -1.9,1.8 -3.7,3 -7.5,3 z"
     id="path13381"
     style="fill:#000000;fill-rule:evenodd;stroke:#ffff00;stroke-width:2.00379992"
     inkscape:connector-curvature="0" />
  <polygon
     points="12776,3543 13088,3323 12809,3070 12809,2767 12447,2834 12152,2624 12051,3003 11629,3138 12000,3340 11975,3812 12363,3686 12734,3930 "
     transform="matrix(0.0145,0,0,0.0165,-24.9,52.86)"
     id="polygon13417"
     style="fill:#000000;fill-rule:evenodd;stroke:#ffff00;stroke-width:129.34759521" />
  <path
     sodipodi:nodetypes="ccccc"
     d="m 136.6,81.21 c -3.3,-1.12 -11.2,-2.61 -16.1,-2.06 12.1,13.23 9.1,37.95 15.7,52.55 4.6,2.2 9.3,7.2 13,5.9 -9.4,-15.6 -3.3,-48.24 -12.6,-56.39 z"
     id="path13339"
     style="fill:#7e9eff;fill-rule:evenodd;stroke:#000000;stroke-width:1.00199997"
     inkscape:connector-curvature="0" />
  <g
     id="g5595" />
  <circle
     r="5.3916893"
     cy="224.11946"
     cx="63.474945"
     id="circle5553"
     style="opacity:1;fill:#ffff00;fill-opacity:1;stroke:#000000;stroke-width:1.5;stroke-miterlimit:4;stroke-dasharray:none;stroke-dashoffset:0;stroke-opacity:1" />
  <circle
     style="opacity:1;fill:#ffff00;fill-opacity:1;stroke:#000000;stroke-width:1.5;stroke-miterlimit:4;stroke-dasharray:none;stroke-dashoffset:0;stroke-opacity:1"
     id="path5551"
     cx="55.773048"
     cy="217.18011"
     r="5.3916893" />
  <circle
     style="opacity:1;fill:#ffff00;fill-opacity:1;stroke:#000000;stroke-width:1.5;stroke-miterlimit:4;stroke-dasharray:none;stroke-dashoffset:0;stroke-opacity:1"
     id="circle5559"
     cx="82.656929"
     cy="236.47301"
     r="5.3916893" />
  <circle
     r="5.3916893"
     cy="241.76591"
     cx="92.480156"
     id="circle5561"
     style="opacity:1;fill:#ffff00;fill-opacity:1;stroke:#000000;stroke-width:1.5;stroke-miterlimit:4;stroke-dasharray:none;stroke-dashoffset:0;stroke-opacity:1" />
  <circle
     style="opacity:1;fill:#ffff00;fill-opacity:1;stroke:#000000;stroke-width:1.5;stroke-miterlimit:4;stroke-dasharray:none;stroke-dashoffset:0;stroke-opacity:1"
     id="circle5563"
     cx="102.71239"
     cy="244.87161"
     r="5.3916893" />
  <circle
     r="5.3916893"
     cy="246.87161"
     cx="112.71239"
     id="circle5565"
     style="opacity:1;fill:#ffff00;fill-opacity:1;stroke:#000000;stroke-width:1.5;stroke-miterlimit:4;stroke-dasharray:none;stroke-dashoffset:0;stroke-opacity:1" />
  <circle
     style="opacity:1;fill:#ffff00;fill-opacity:1;stroke:#000000;stroke-width:1.5;stroke-miterlimit:4;stroke-dasharray:none;stroke-dashoffset:0;stroke-opacity:1"
     id="circle5567"
     cx="123.59627"
     cy="246.69484"
     r="5.3916893" />
  <circle
     r="5.3916893"
     cy="244.87161"
     cx="134.71239"
     id="circle5569"
     style="opacity:1;fill:#ffff00;fill-opacity:1;stroke:#000000;stroke-width:1.5;stroke-miterlimit:4;stroke-dasharray:none;stroke-dashoffset:0;stroke-opacity:1" />
  <path
     inkscape:connector-curvature="0"
     style="fill:#000000;fill-opacity:1;fill-rule:evenodd;stroke:#000000;stroke-width:1.5029"
     id="path4316"
     d="m 70.193432,297.22915 c 9.425304,-0.68077 7.980096,1.7573 13.393498,-2.66617 1.975261,-1.61405 4.787056,-5.21433 9.482041,-8.69058 18.332979,-33.78867 7.688559,-14.92488 -7.995312,-0.82117 -9.422556,8.47322 -10.736958,9.3909 -14.880227,12.17792 z"
     sodipodi:nodetypes="cscsc" />
  <path
     sodipodi:nodetypes="ccccc"
     d="m 106.10376,298.79441 -9.253275,0.0844 -13.798505,-3.9478 10.251979,-9.9285 z"
     id="path4320"
     style="fill:#7c7f7f;fill-opacity:1;fill-rule:evenodd;stroke:#1c0000;stroke-width:1.5029;stroke-opacity:1"
     inkscape:connector-curvature="0" />
  <path
     inkscape:connector-curvature="0"
     style="fill:#595a59;fill-opacity:1;fill-rule:evenodd;stroke:#000000;stroke-width:1.5029"
     id="path4318"
     d="m 83.152918,294.67088 4.496972,4.39897 9.027144,-0.167 -8.332175,-8.85805 z"
     sodipodi:nodetypes="ccccc" />
  <rect
     style="opacity:1;fill:#ffff00;fill-opacity:1;stroke:#000000;stroke-width:2;stroke-miterlimit:4;stroke-dasharray:none;stroke-dashoffset:0;stroke-opacity:1"
     id="rect4328"
     width="12.285984"
     height="6.3639503"
     x="-141.08232"
     y="248.12816"
     rx="1.7235727"
     ry="0.66292256"
     transform="matrix(0.72928858,-0.68420623,0.68420623,0.72928858,0,0)" />
  <rect
     transform="matrix(0.72928858,-0.68420623,0.68420623,0.72928858,0,0)"
     ry="0.66292256"
     rx="1.7235727"
     y="253.78212"
     x="-140.90199"
     height="6.3639503"
     width="12.285984"
     id="rect4326"
     style="opacity:1;fill:#ffff00;fill-opacity:1;stroke:#000000;stroke-width:2;stroke-miterlimit:4;stroke-dasharray:none;stroke-dashoffset:0;stroke-opacity:1" />
  <rect
     style="opacity:1;fill:#ffff00;fill-opacity:1;stroke:#000000;stroke-width:2;stroke-miterlimit:4;stroke-dasharray:none;stroke-dashoffset:0;stroke-opacity:1"
     id="rect4324"
     width="12.285984"
     height="6.3639503"
     x="-140.72166"
     y="259.4361"
     rx="1.7235727"
     ry="0.66292256"
     transform="matrix(0.72928858,-0.68420623,0.68420623,0.72928858,0,0)" />
</svg>
