<?xml version="1.0" encoding="UTF-8" standalone="no"?>
<!-- Created with Inkscape (http://www.inkscape.org/) -->

<svg
   xmlns:dc="http://purl.org/dc/elements/1.1/"
   xmlns:cc="http://creativecommons.org/ns#"
   xmlns:rdf="http://www.w3.org/1999/02/22-rdf-syntax-ns#"
   xmlns:svg="http://www.w3.org/2000/svg"
   xmlns="http://www.w3.org/2000/svg"
   xmlns:sodipodi="http://sodipodi.sourceforge.net/DTD/sodipodi-0.dtd"
   xmlns:inkscape="http://www.inkscape.org/namespaces/inkscape"
   version="1.1"
   width="100"
   height="100"
   viewBox="0 0 100 100"
   id="cards"
   inkscape:version="0.91 r13725"
   sodipodi:docname="menu_auto.svg">
  <sodipodi:namedview
     pagecolor="#ffffff"
     bordercolor="#666666"
     
     objecttolerance="10"
     gridtolerance="10"
     guidetolerance="10"
     inkscape:pageopacity="0"
     inkscape:pageshadow="2"
     inkscape:window-width="1920"
     inkscape:window-height="978"
     id="namedview6787"
     showgrid="false"
     inkscape:zoom="2.828427"
     inkscape:cx="118.13255"
     inkscape:cy="23.348482"
     inkscape:window-x="0"
     inkscape:window-y="1"
     inkscape:window-maximized="1"
     inkscape:current-layer="cards"
     showguides="true"
     inkscape:guide-bbox="true" />
  <defs
     id="defs2680" />
  <metadata
     id="metadata97">
    <rdf:RDF>
      <cc:Work
         rdf:about="">
        <dc:format>image/svg+xml</dc:format>
        <dc:type
           rdf:resource="http://purl.org/dc/dcmitype/StillImage" />
        <dc:title></dc:title>
      </cc:Work>
    </rdf:RDF>
  </metadata>
  <g
     id="g6091"
     transform="translate(-153.6,-75.4)">
    <path
       style="fill:#ffffff;stroke:#ffffff;stroke-width:2"
       d="m 166.1,134.5 c 5.7,0 7.1,0 9,0 -4.8,5.3 -5.6,17.5 6.1,17.5 14.9,-1.9 7,-15 6,-17.7 0,0 5.1,-0.1 7.6,-0.1 -0.1,4.7 -0.1,7.4 -0.1,13 1.6,0 4.3,-0.1 5.9,-0.1 4,-5.2 9.8,-1.7 10.2,2.2 0.5,4.7 -6.3,6.9 -10,2.4 -1.6,0 -4.6,0.1 -6.2,0.1 0,4.4 0.1,7.6 0,11.6 -10.6,0 -15.8,-0.1 -28.5,-0.1 0,-10 -0.1,-18.8 0,-28.8 z"
       id="path6115"
       inkscape:connector-curvature="0" />
    <path
       style="fill:#000000;stroke:#000000;stroke-width:2"
       d="m 198.8,163.3 c 0,-0.4 -0.2,-7.6 -0.2,-8.2 5.9,4.7 15.7,4.4 16.4,-6.3 -1,-10.1 -12.1,-9.2 -16.3,-6.3 0,-3.8 0,-4.4 0,-8.3 4.6,0 6.3,-0.2 11.6,-0.2 0,-1.6 0,-5.2 0,-6.8 -4.7,-1.1 -2.4,-9.2 2.3,-9.1 4.2,0.1 7.6,7.6 2.5,9.2 -0.1,1.5 -0.2,5 -0.1,6.5 9.1,0 3.8,0 12.3,0 0,10 -0.4,19.5 -0.4,29.5 -9.9,0 -18.2,0 -28.1,0 z"
       id="path6113"
       inkscape:connector-curvature="0" />
    <path
       style="fill:#000000;stroke:#000000;stroke-width:2"
       d="m 178.6,138.1 c 0,-1.5 0.1,-5.8 0.1,-7.3 -4.8,0.1 -8.3,0.1 -12.4,0.1 0,-9.9 -0.2,-18.6 -0.2,-28.5 9.9,0 18.7,0.1 28.6,0.1 0.1,3.9 -0.1,4.3 0.1,8 -7.2,-6.3 -16.9,-2.5 -17.1,6.7 -0.3,11.1 12.1,10.6 16.7,6.4 0,3.8 0.1,3.3 0.1,7.1 -4.6,0.1 -7,0.1 -11.2,0.2 0,1.6 0.2,5.7 0.2,7.3 3.9,3 3.6,9.3 -2.5,9.7 -6.2,0.4 -6.9,-7.8 -2.4,-9.8 z"
       id="path6111"
       inkscape:connector-curvature="0" />
    <path
       style="fill:#ffffff;stroke:#ffffff;stroke-width:2"
       d="m 198.6,130.2 c -0.2,-4.6 -0.1,-6 -0.1,-10.9 -1.6,0 -4.3,0.2 -5.9,0.2 -4.2,5 -10.5,2.6 -10.5,-2.4 0,-5.6 6.5,-7.2 10.7,-2.6 1.6,0 4.1,0 5.7,0 0,-4.2 0.2,-7.7 0.3,-11.9 9.9,-0.1 18.3,-0.2 28.2,-0.2 0,9.9 0.1,17.7 0,27.6 -3.8,0 -4,0.2 -7.8,0.2 5,-3.8 3.1,-16.6 -7,-16.6 -9.3,0 -10,13.1 -6.1,16.6 -4.1,0 -3.2,0 -7.5,0 z"
       id="path6105"
       inkscape:connector-curvature="0" />
  </g>
  <path
     id="path9524"
     d="m 85.05,58.61 -4.9,-4.6 c -0.7,-0.6 -1.6,-0.9 -2.5,-0.9 -0.9,0 -1.8,0.3 -2.5,0.9 l -23.4,22 -10.5,-9.9 c -0.7,-0.6 -1.5,-0.9 -2.5,-0.9 -0.9,0 -1.7,0.3 -2.5,0.9 l -4.8,4.6 c -0.6,0.6 -1,1.3 -1,2.2 0,0.9 0.4,1.7 1,2.3 l 13,12.1 4.8,4.6 c 0.8,0.6 1.6,0.9 2.5,0.9 1,0 1.8,-0.3 2.4,-0.9 l 5,-4.6 25.9,-24.2 c 0.6,-0.6 0.9,-1.4 0.9,-2.3 0,-0.9 -0.3,-1.6 -0.9,-2.2 z"
     inkscape:connector-curvature="0"
     style="fill:#00ff00;stroke:#000000;stroke-width:3" />
</svg>
