<?xml version="1.0" encoding="UTF-8" standalone="no"?>
<!-- Created with Inkscape (http://www.inkscape.org/) -->

<svg
   xmlns:dc="http://purl.org/dc/elements/1.1/"
   xmlns:cc="http://creativecommons.org/ns#"
   xmlns:rdf="http://www.w3.org/1999/02/22-rdf-syntax-ns#"
   xmlns:svg="http://www.w3.org/2000/svg"
   xmlns="http://www.w3.org/2000/svg"
   xmlns:sodipodi="http://sodipodi.sourceforge.net/DTD/sodipodi-0.dtd"
   xmlns:inkscape="http://www.inkscape.org/namespaces/inkscape"
   version="1.1"
   width="100"
   height="100"
   viewBox="0 0 100 100"
   id="cards"
   inkscape:version="0.91 r13725"
   sodipodi:docname="menu_rule.svg">
  <sodipodi:namedview
     pagecolor="#ffffff"
     bordercolor="#666666"
     
     objecttolerance="10"
     gridtolerance="10"
     guidetolerance="10"
     inkscape:pageopacity="0"
     inkscape:pageshadow="2"
     inkscape:window-width="1920"
     inkscape:window-height="978"
     id="namedview6787"
     showgrid="false"
     inkscape:zoom="2.828427"
     inkscape:cx="118.13255"
     inkscape:cy="16.497102"
     inkscape:window-x="0"
     inkscape:window-y="1"
     inkscape:window-maximized="1"
     inkscape:current-layer="cards"
     showguides="true"
     inkscape:guide-bbox="true" />
  <defs
     id="defs2680" />
  <metadata
     id="metadata97">
    <rdf:RDF>
      <cc:Work
         rdf:about="">
        <dc:format>image/svg+xml</dc:format>
        <dc:type
           rdf:resource="http://purl.org/dc/dcmitype/StillImage" />
        <dc:title></dc:title>
      </cc:Work>
    </rdf:RDF>
  </metadata>
  <path
     style="fill:#ffffff;fill-rule:evenodd"
     d="m 17.4571,36.96 c 13.6,-3.6 25.4,-1.4 32.7,1.4 8.5,-4.1 22.8,-5.6 32.8,-1.4 l 1.1,44.8 c -14.8,-2.7 -24.7,-0.9 -34.1,1.3 -11.8,-3.8 -22.1,-2.6 -32.5,-1.3 z"
     id="rect9665-4"
     inkscape:connector-curvature="0"
     sodipodi:nodetypes="ccccccc" />
  <g
     id="g9580"
     transform="matrix(0.6045,0,0,0.6045,-43.0429,-83.55)">
    <path
       style="fill:#000000"
       d="m 149.4,277 c -2,-0.4 -5.3,-1.6 -7.4,-2.6 -3.5,-1.6 -5.7,-1.7 -20.9,-1.1 -9.4,0.4 -19.2,0.9 -21.85,1.2 l -4.75,0.6 0,-35.7 c 0,-34.8 0,-35.7 2,-36.2 1.1,-0.3 2,-1.3 2,-2.3 0,-3.2 10.6,-5.5 25.5,-5.5 11.6,0 13.9,0.3 21.8,2.9 l 8.7,2.8 5.8,-2.1 c 3.1,-1.1 7.6,-2.4 9.9,-2.7 6.2,-0.9 5.4,1.1 -1,2.6 -2.8,0.7 -7.4,2.1 -10,3.2 l -4.9,1.8 -6.7,-2.4 c -13.1,-4.7 -27.8,-5.5 -40.8,-2.2 l -4.8,1.2 -0.5,34 c -0.3,18.6 -0.4,34.1 -0.3,34.3 0.1,0.2 2.4,-0.5 5,-1.4 3.1,-1.1 9.1,-1.9 17.1,-2.2 10.2,-0.5 13.8,-0.2 21.7,1.7 l 9.5,2.1 8.2,-2 c 13.1,-3.4 29.6,-2.8 42.6,1.3 l 2.2,0.7 0,-34 c 0,-22.1 -0.4,-34.1 -1,-34.1 -0.5,0 -1,-0.7 -1,-1.5 0,-1.7 0.2,-1.7 2.4,-0.9 0.9,0.3 1.6,1.4 1.6,2.4 0,1 0.9,2 2,2.3 2,0.5 2,1.2 1.8,35.9 l -0.3,35.3 -7,-0.5 c -3.8,-0.3 -14.2,-0.5 -23,-0.5 -12.9,0 -16.6,0.3 -19,1.6 -3.8,2.1 -10,2.9 -14.6,2 z"
       id="path9618"
       inkscape:connector-curvature="0" />
    <path
       style="fill:#000000"
       d="m 153.4,257 c -0.1,-3.4 -0.1,-11.7 -0.1,-18.6 0,-23.9 0.2,-28.5 1.2,-28.5 0.6,0 1,9.3 1,25.9 0,16.3 -0.4,26.2 -1,26.6 -0.6,0.4 -1,-1.7 -1.1,-5.4 z"
       id="path9616"
       inkscape:connector-curvature="0" />
    <path
       style="fill:#000000;stroke:#000000;stroke-width:1.65429997"
       d="m 141.8,245.7 c -7.7,-3.4 -22.7,-3.8 -33.2,-0.9 -1.8,0.5 -2.3,0.4 -1.9,-0.7 1.9,-5.6 39.8,-4 39.8,1.7 0,1.7 -0.5,1.7 -4.7,-0.1 z"
       id="path9610"
       inkscape:connector-curvature="0" />
    <path
       style="fill:#000000;stroke:#000000;stroke-width:1.65429997"
       d="m 161.5,245.9 c 0,-1.5 7.6,-4.7 11.2,-4.7 3.6,0 1.7,1.9 -3.5,3.5 -2.8,0.9 -5.8,1.9 -6.5,2.1 -0.6,0.3 -1.2,-0.1 -1.2,-0.9 z"
       id="path9608"
       inkscape:connector-curvature="0" />
    <path
       style="fill:#ffff00;stroke:#000000;stroke-width:4.96280003"
       d="m 177.5,216 0,-21.4 10.3,0.6 c 16.3,1 14.7,-1.4 14.7,22 l 0,20.1 -6.5,-6.4 -6.6,-6.5 -5.9,6.5 -5.9,6.5 -0.1,-21.4 z"
       id="path9606"
       inkscape:connector-curvature="0" />
    <path
       style="fill:#000000;stroke:#000000;stroke-width:1.65429997"
       d="m 140,232.4 c -4.5,-1.7 -21.2,-2.2 -28.8,-0.8 -6.6,1.2 -6.2,-0.8 0.5,-2.5 11.3,-2.7 33.2,-0.2 34.6,3.9 0.5,1.5 -1.3,1.4 -6.3,-0.6 z"
       id="path9602"
       inkscape:connector-curvature="0" />
    <path
       style="fill:#000000;stroke:#000000;stroke-width:1.65429997"
       d="m 161.7,233.2 c 0.4,-1.3 4.2,-2.9 10,-4.4 2,-0.4 2.8,-0.3 2.8,0.7 0,0.8 -1.9,1.8 -4.3,2.5 -2.3,0.5 -5.3,1.4 -6.6,1.8 -1.7,0.5 -2.3,0.4 -1.9,-0.6 z"
       id="path9600"
       inkscape:connector-curvature="0" />
    <path
       style="fill:#000000;stroke:#000000;stroke-width:1.65429997"
       d="m 141.7,220.6 c -7.4,-3.2 -22,-3.6 -32.6,-0.9 -2.2,0.6 -2.8,0.5 -2.4,-0.6 1.9,-5.6 39.8,-4 39.8,1.7 0,1.7 -0.5,1.7 -4.8,-0.2 z"
       id="path9598"
       inkscape:connector-curvature="0" />
    <path
       style="fill:#000000;stroke:#000000;stroke-width:1.65429997"
       d="m 161.5,220.9 c 0,-1.5 7.6,-4.7 11.2,-4.7 3.6,0 1.7,1.9 -3.5,3.5 -2.8,0.9 -5.8,1.9 -6.5,2.1 -0.6,0.3 -1.2,-0.1 -1.2,-0.9 z"
       id="path9586"
       inkscape:connector-curvature="0" />
  </g>
</svg>
