<?xml version="1.0" encoding="UTF-8" standalone="no"?>
<!-- Created with Inkscape (http://www.inkscape.org/) -->

<svg
   xmlns:dc="http://purl.org/dc/elements/1.1/"
   xmlns:cc="http://creativecommons.org/ns#"
   xmlns:rdf="http://www.w3.org/1999/02/22-rdf-syntax-ns#"
   xmlns:svg="http://www.w3.org/2000/svg"
   xmlns="http://www.w3.org/2000/svg"
   xmlns:sodipodi="http://sodipodi.sourceforge.net/DTD/sodipodi-0.dtd"
   xmlns:inkscape="http://www.inkscape.org/namespaces/inkscape"
   version="1.1"
   width="100"
   height="100"
   viewBox="0 0 100 100"
   id="cards"
   inkscape:version="0.91 r13725"
   sodipodi:docname="menu_undo.svg">
  <sodipodi:namedview
     pagecolor="#ffffff"
     bordercolor="#666666"
     
     objecttolerance="10"
     gridtolerance="10"
     guidetolerance="10"
     inkscape:pageopacity="0"
     inkscape:pageshadow="2"
     inkscape:window-width="1920"
     inkscape:window-height="978"
     id="namedview6787"
     showgrid="false"
     inkscape:zoom="2.828427"
     inkscape:cx="121.79089"
     inkscape:cy="95.020958"
     inkscape:window-x="0"
     inkscape:window-y="1"
     inkscape:window-maximized="1"
     inkscape:current-layer="cards"
     showguides="true"
     inkscape:guide-bbox="true" />
  <defs
     id="defs2680" />
  <metadata
     id="metadata97">
    <rdf:RDF>
      <cc:Work
         rdf:about="">
        <dc:format>image/svg+xml</dc:format>
        <dc:type
           rdf:resource="http://purl.org/dc/dcmitype/StillImage" />
        <dc:title></dc:title>
      </cc:Work>
    </rdf:RDF>
  </metadata>
  <rect
     style="fill:#ffffaa;fill-rule:evenodd;stroke:#000000;stroke-width:1.8294102;stroke-linecap:butt;stroke-linejoin:miter;stroke-miterlimit:0;stroke-dasharray:1.82941035, 1.82941035;stroke-dashoffset:0"
     id="rect4646-1-9"
     width="34.840431"
     height="45.319946"
     x="60.524574"
     y="31.229752"
     rx="5.4280672"
     ry="5.5489936"
     transform="matrix(0.97278797,0.23169714,-0.24190028,0.97030112,0,0)" />
  <g
     transform="matrix(0.96890159,0.20030033,-0.21620035,0.98740162,0,-100)"
     style="fill:none;stroke:#000000;stroke-width:0.99999833;stroke-miterlimit:4;stroke-dasharray:0.99999836, 0.99999836;stroke-dashoffset:0"
     id="text4684-4">
    <path
       d="m 91.315249,139.10096 c 2.416873,3e-5 4.315853,1.39896 5.696944,4.19681 0.500029,1.10727 0.761957,1.95258 0.785785,2.53595 l 0.05358,0 c 0.416687,-1.92873 1.172707,-3.53006 2.268062,-4.80401 1.28581,-1.28581 2.73237,-1.92872 4.33968,-1.92875 2.48829,3e-5 4.48252,1.33348 5.98268,4.00037 0.38096,0.9882 0.57145,1.91686 0.57148,2.78596 -3e-5,2.97648 -1.23824,5.81602 -3.71462,8.51863 l -9.447282,11.34031 -0.107153,0 -10.036622,-12.30468 c -2.000185,-2.44069 -3.000275,-4.95877 -3.000272,-7.55426 -3e-6,-2.51211 1.184627,-4.50633 3.553893,-5.98268 1.000083,-0.53574 2.018031,-0.80362 3.053848,-0.80365"
       id="path6848"
       inkscape:connector-curvature="0" />
  </g>
  <rect
     style="fill:#ffffaa;fill-rule:evenodd;stroke:#000000;stroke-width:1.82913017;stroke-linecap:butt;stroke-linejoin:miter;stroke-miterlimit:0;stroke-dasharray:none;stroke-dashoffset:0"
     id="rect4646-1-7-4"
     width="34.790333"
     height="45.351063"
     x="25.955969"
     y="28.654787"
     rx="5.4210515"
     ry="5.5521302"
     transform="matrix(0.99039057,0.13829868,-0.13179691,0.99127674,0,0)" />
  <g
     id="g5559"
     transform="matrix(1.491,0.3652,-0.1647,0.6728,38.25,21.29)"
     style="fill:#00ff00">
    <g
       id="Layer_1"
       style="fill:#00ff00" />
    <g
       id="curved_x5F_arrow"
       style="fill:#00ff00">
      <path
         id="path5551"
         d="M 28,14 C 28,6.27 21.73,0 14,0 6.27,0 0,6.27 0,14 0,8.477 4.477,4 10,4 15.52,4 20,8.477 20,14 l 0,2 -4,0 8,8 8,-8 -4,0 0,-2 z"
         style="fill:#00ff00"
         inkscape:connector-curvature="0" />
    </g>
  </g>
  <g
     transform="matrix(0.97910652,0.14230095,-0.15710105,0.99850665,0,-100)"
     style="fill:#ff0000;stroke:#ff0000;stroke-width:0.99999332;stroke-miterlimit:4;stroke-dashoffset:0"
     id="text4684-4-8">
    <path
       d="m 54.092296,135.42309 c 2.416669,3e-5 4.315489,1.39885 5.696464,4.19646 0.499987,1.10717 0.761893,1.95241 0.785719,2.53573 l 0.05357,0 c 0.416652,-1.92856 1.172609,-3.52976 2.267871,-4.8036 1.285702,-1.2857 2.732139,-1.92856 4.339313,-1.92859 2.488085,3e-5 4.482143,1.33337 5.98218,4.00003 0.380925,0.98812 0.571402,1.9167 0.571432,2.78573 -3e-5,2.97623 -1.238131,5.81553 -3.714309,8.51791 l -9.446487,11.33936 -0.107144,0 -10.035776,-12.30365 c -2.000017,-2.44048 -3.000022,-4.95835 -3.000019,-7.55362 -3e-6,-2.5119 1.184527,-4.50596 3.553594,-5.98218 0.999998,-0.53569 2.017861,-0.80355 3.05359,-0.80358"
       style="fill:#ff0000;stroke:#ff0000"
       id="path6845"
       inkscape:connector-curvature="0" />
  </g>
</svg>
