<?xml version="1.0" encoding="UTF-8" standalone="no"?>
<!-- Created with Inkscape (http://www.inkscape.org/) -->

<svg
   xmlns:dc="http://purl.org/dc/elements/1.1/"
   xmlns:cc="http://creativecommons.org/ns#"
   xmlns:rdf="http://www.w3.org/1999/02/22-rdf-syntax-ns#"
   xmlns:svg="http://www.w3.org/2000/svg"
   xmlns="http://www.w3.org/2000/svg"
   xmlns:sodipodi="http://sodipodi.sourceforge.net/DTD/sodipodi-0.dtd"
   xmlns:inkscape="http://www.inkscape.org/namespaces/inkscape"
   version="1.1"
   width="100"
   height="100"
   viewBox="0 0 100 100"
   id="cards"
   inkscape:version="0.91 r13725"
   sodipodi:docname="menu_help.svg">
  <sodipodi:namedview
     pagecolor="#ffffff"
     bordercolor="#666666"
     objecttolerance="10"
     gridtolerance="10"
     guidetolerance="10"
     inkscape:pageopacity="0"
     inkscape:pageshadow="2"
     inkscape:window-width="1920"
     inkscape:window-height="978"
     id="namedview6787"
     showgrid="false"
     inkscape:zoom="11.313708"
     inkscape:cx="65.529802"
     inkscape:cy="43.945901"
     inkscape:window-x="0"
     inkscape:window-y="1"
     inkscape:window-maximized="1"
     inkscape:current-layer="cards"
     showguides="true"
     inkscape:guide-bbox="true" />
  <defs
     id="defs2680" />
  <metadata
     id="metadata97">
    <rdf:RDF>
      <cc:Work
         rdf:about="">
        <dc:format>image/svg+xml</dc:format>
        <dc:type
           rdf:resource="http://purl.org/dc/dcmitype/StillImage" />
        <dc:title />
      </cc:Work>
    </rdf:RDF>
  </metadata>
  <path
     style="fill:#ffffff;fill-opacity:1;fill-rule:evenodd"
     d="m 17.4571,37.49033 c 13.6,-3.6 25.311612,-1.223223 32.611612,1.576777 8.5,-4.1 22.711611,-5.776777 32.711611,-1.576777 L 84.0571,81.76 c -14.8,-2.7 -24.7,-0.9 -34.1,1.3 -11.8,-3.8 -22.1,-2.6 -32.5,-1.3 z"
     id="rect9665-4"
     inkscape:connector-curvature="0"
     sodipodi:nodetypes="ccccccc" />
  <path
     inkscape:connector-curvature="0"
     id="path9618"
     d="M 50.23145,39.70755 C 39.799685,35.893573 27.264353,35.565185 18.6161,37.65225 c 0.09884,13.753764 -0.839715,27.538987 -0.4836,41.28735 10.264114,-2.913042 22.384506,-2.025361 32.21985,0.1209 11.279688,-1.78714 22.210737,-3.127015 32.0385,0 L 82.567627,38.443345 C 73.69611,34.206088 61.811646,36.208985 50.23145,39.70755 Z m 32.4012,-3.2643 c 0.54405,0.18135 0.9672,0.8463 0.9672,1.4508 0,0.6045 0.54405,1.209 1.209,1.39035 0.427222,14.567638 0.02292,21.703562 0.90675,43.0404 -37.266816,-4.107713 -26.882657,3.647046 -38.4462,1.5717 -10.848059,-3.488943 -23.882244,-2.30541 -33.18705,-1.14855 0.540958,-22.307348 0.716114,-38.405288 1.209,-43.46355 2.593599,-5.92924 17.041337,-5.853796 35.061,-1.26945 11.358949,-3.201727 21.728397,-5.321544 32.2803,-1.5717 z"
     style="fill:#000000"
     sodipodi:nodetypes="ccccccccsccccccc" />
  <path
     inkscape:connector-curvature="0"
     id="path9616"
     d="m 49.6874,71.8065 c -0.06045,-2.0553 -0.06045,-7.07265 -0.06045,-11.2437 0,-14.44755 0.1209,-17.22825 0.7254,-17.22825 0.3627,0 0.6045,5.62185 0.6045,15.65655 0,9.85335 -0.2418,15.8379 -0.6045,16.0797 -0.3627,0.2418 -0.6045,-1.02765 -0.66495,-3.2643 z"
     style="fill:#000000" />
  <path
     sodipodi:nodetypes="cccscccccc"
     inkscape:connector-curvature="0"
     id="path9606"
     d="m 62.25585,47.022 0,-12.9363 6.22635,0.3627 c 9.85335,0.6045 8.88615,-0.8463 8.88615,13.299 l 0,24.150451 -3.92925,-3.8688 -3.9897,-3.92925 -3.56655,3.92925 -3.56655,3.92925 z"
     style="fill:#00ff00;stroke:#000000;stroke-width:3" />
  <path
     inkscape:connector-curvature="0"
     id="path9598"
     d="m 42.61475,53.8027 c -4.4733,-1.9344 -13.299,-2.1762 -19.7067,-0.54405 -1.3299,0.3627 -1.6926,0.30225 -1.4508,-0.3627 1.14855,-3.3852 24.0591,-2.418 24.0591,1.02765 0,1.02765 -0.30225,1.02765 -2.9016,-0.1209 z"
     style="fill:#000000;stroke:#000000" />
  <path
     inkscape:connector-curvature="0"
     id="path9586"
     d="m 54.58385,53.133099 c 0,-0.90675 4.5942,-2.84115 6.7704,-2.84115 2.1762,0 1.02765,1.14855 -2.11575,2.11575 -1.6926,0.54405 -3.5061,1.14855 -3.92925,1.26945 -0.3627,0.18135 -0.7254,-0.06045 -0.7254,-0.54405 z"
     style="fill:#000000;stroke:#000000" />
  <path
     style="fill:#000000;stroke:#000000"
     d="m 42.61475,45.8027 c -4.4733,-1.9344 -13.299,-2.1762 -19.7067,-0.54405 -1.3299,0.3627 -1.6926,0.30225 -1.4508,-0.3627 1.14855,-3.3852 24.0591,-2.418 24.0591,1.02765 0,1.02765 -0.30225,1.02765 -2.9016,-0.1209 z"
     id="path4190"
     inkscape:connector-curvature="0" />
  <path
     style="fill:#000000;stroke:#000000"
     d="m 42.61475,61.8027 c -4.4733,-1.9344 -13.299,-2.1762 -19.7067,-0.54405 -1.3299,0.3627 -1.6926,0.30225 -1.4508,-0.3627 1.14855,-3.3852 24.0591,-2.418 24.0591,1.02765 0,1.02765 -0.30225,1.02765 -2.9016,-0.1209 z"
     id="path4194"
     inkscape:connector-curvature="0" />
  <path
     inkscape:connector-curvature="0"
     id="path4196"
     d="m 42.61475,69.8027 c -4.4733,-1.9344 -13.299,-2.1762 -19.7067,-0.54405 -1.3299,0.3627 -1.6926,0.30225 -1.4508,-0.3627 1.14855,-3.3852 24.0591,-2.418 24.0591,1.02765 0,1.02765 -0.30225,1.02765 -2.9016,-0.1209 z"
     style="fill:#000000;stroke:#000000" />
  <path
     style="fill:#000000;stroke:#000000"
     d="m 54.58385,61.133099 c 0,-0.90675 4.5942,-2.84115 6.7704,-2.84115 2.1762,0 1.02765,1.14855 -2.11575,2.11575 -1.6926,0.54405 -3.5061,1.14855 -3.92925,1.26945 -0.3627,0.18135 -0.7254,-0.06045 -0.7254,-0.54405 z"
     id="path4198"
     inkscape:connector-curvature="0" />
  <path
     inkscape:connector-curvature="0"
     id="path4200"
     d="m 54.58385,69.133099 c 0,-0.90675 4.5942,-2.84115 6.7704,-2.84115 2.1762,0 1.02765,1.14855 -2.11575,2.11575 -1.6926,0.54405 -3.5061,1.14855 -3.92925,1.26945 -0.3627,0.18135 -0.7254,-0.06045 -0.7254,-0.54405 z"
     style="fill:#000000;stroke:#000000" />
  <path
     style="fill:#000000;stroke:#000000"
     d="m 54.58385,45.133099 c 0,-0.90675 4.5942,-2.84115 6.7704,-2.84115 2.1762,0 1.02765,1.14855 -2.11575,2.11575 -1.6926,0.54405 -3.5061,1.14855 -3.92925,1.26945 -0.3627,0.18135 -0.7254,-0.06045 -0.7254,-0.54405 z"
     id="path4202"
     inkscape:connector-curvature="0" />
</svg>
