<?xml version="1.0" encoding="UTF-8" standalone="no"?>
<!-- Created with Inkscape (http://www.inkscape.org/) -->

<svg
   xmlns:dc="http://purl.org/dc/elements/1.1/"
   xmlns:cc="http://creativecommons.org/ns#"
   xmlns:rdf="http://www.w3.org/1999/02/22-rdf-syntax-ns#"
   xmlns:svg="http://www.w3.org/2000/svg"
   xmlns="http://www.w3.org/2000/svg"
   xmlns:sodipodi="http://sodipodi.sourceforge.net/DTD/sodipodi-0.dtd"
   xmlns:inkscape="http://www.inkscape.org/namespaces/inkscape"
   version="1.1"
   width="100"
   height="100"
   viewBox="0 0 100 100"
   id="cards"
   inkscape:version="0.91 r13725"
   sodipodi:docname="menu_deal.svg">
  <sodipodi:namedview
     pagecolor="#ffffff"
     bordercolor="#666666"
     
     objecttolerance="10"
     gridtolerance="10"
     guidetolerance="10"
     inkscape:pageopacity="0"
     inkscape:pageshadow="2"
     inkscape:window-width="1920"
     inkscape:window-height="978"
     id="namedview6787"
     showgrid="false"
     inkscape:zoom="2.828427"
     inkscape:cx="118.13255"
     inkscape:cy="30.639238"
     inkscape:window-x="0"
     inkscape:window-y="1"
     inkscape:window-maximized="1"
     inkscape:current-layer="cards"
     showguides="true"
     inkscape:guide-bbox="true" />
  <defs
     id="defs2680" />
  <metadata
     id="metadata97">
    <rdf:RDF>
      <cc:Work
         rdf:about="">
        <dc:format>image/svg+xml</dc:format>
        <dc:type
           rdf:resource="http://purl.org/dc/dcmitype/StillImage" />
        <dc:title></dc:title>
      </cc:Work>
    </rdf:RDF>
  </metadata>
  <rect
     style="fill:#ffffaa;fill-rule:evenodd;stroke:#000000;stroke-width:1.82973015;stroke-linecap:butt;stroke-linejoin:miter;stroke-miterlimit:0;stroke-dasharray:none;stroke-dashoffset:0"
     id="rect4646-1-7"
     width="34.790333"
     height="45.371063"
     x="44.647739"
     y="21.087091"
     rx="5.4220514"
     ry="5.55513"
     transform="matrix(0.99039057,0.13829868,-0.13179691,0.99127674,0,0)" />
  <rect
     style="fill:#ffffaa;fill-rule:evenodd;stroke:#000000;stroke-width:1.82869995;stroke-linecap:butt;stroke-linejoin:miter;stroke-miterlimit:0;stroke-dasharray:none;stroke-dashoffset:0"
     id="rect4646"
     width="34.790001"
     height="45.360001"
     x="28.540009"
     y="37.529999"
     rx="5.4200001"
     ry="5.553" />
  <rect
     style="fill:#ffffaa;fill-rule:evenodd;stroke:#000000;stroke-width:1.82919693;stroke-linecap:butt;stroke-linejoin:miter;stroke-miterlimit:0;stroke-dasharray:none;stroke-dashoffset:0"
     id="rect4646-1"
     width="34.840359"
     height="45.30938"
     x="-0.83125311"
     y="51.828705"
     rx="5.4290557"
     ry="5.5479236"
     transform="matrix(0.97428997,-0.22529768,0.21500295,0.9766134,0,0)" />
  <g
     transform="matrix(0.95687227,-0.2516927,0.24559288,0.98047158,-200,0)"
     style="fill:#000000"
     id="text4684">
    <path
       d="m 210.09537,109.30898 0.80078,0 c 0.41665,0.37763 0.85285,0.91148 1.30859,1.60156 0.46874,0.80732 0.82681,1.40627 1.07422,1.79687 0.71613,1.02867 1.99868,2.32424 3.84766,3.88672 1.92706,1.64065 3.26169,2.90367 4.0039,3.78906 1.22394,1.56252 1.83592,3.22918 1.83594,5 -2e-5,1.52345 -0.49481,2.81902 -1.48437,3.88672 -0.97659,1.06772 -2.21357,1.60157 -3.71094,1.60157 -1.95314,0 -3.79559,-1.15885 -5.52735,-3.47657 0.33853,4.07553 1.32811,7.44792 2.96875,10.11719 l -9.45312,0 c 1.66666,-2.70833 2.65624,-6.08072 2.96875,-10.11719 -1.73178,2.31772 -3.57423,3.47657 -5.52734,3.47657 -1.54949,0 -2.79949,-0.53385 -3.75,-1.60157 -0.96355,-1.04165 -1.44532,-2.33723 -1.44532,-3.88672 0,-1.71873 0.61198,-3.35285 1.83594,-4.90234 0.71614,-0.96352 2.03776,-2.27212 3.96484,-3.92578 1.97916,-1.71873 3.27474,-3.00128 3.88672,-3.84766 l 2.40235,-3.39843"
       id="path6851"
       inkscape:connector-curvature="0" />
  </g>
  <path
     style="fill:#ffffff;fill-rule:evenodd"
     d="m 71.77,30.73 c 1.25,-0.3 15.29,6.1 15.64,10.9 -4.85,3.9 -11.07,2.7 -19.7,4.7 -2.04,0.4 -14.22,-7.5 -12.88,-12.4 12.66,-4.7 11.8,-1.9 16.94,-3.2 z"
     id="rect5653"
     inkscape:connector-curvature="0"
     sodipodi:nodetypes="ccccc" />
  <g
     id="g5583"
     transform="matrix(0.077,0,0,0.077,96.33,48.63)"
     style="fill:#ffffff;stroke:#000000">
    <path
       style="fill:#ffffff;stroke:#000000;stroke-width:25.97400093"
       d="m -360.6,-235.8 c -56.6,5.6 -108.1,11.8 -164.5,31.7 -10.7,5.4 -19.6,18.7 -23.5,33.6 -6.9,26.9 -16.1,100.2 -17.4,143.51 0,13.8 -2.2,35.131 -2.2,46.98 0,15.52 0,24.57 0,32.33 2.2,9.91 2.2,11.42 5.4,16.81 18.8,27.8 92.5,105.57 132.6,140.07 13.5,11.9 17,14.2 24.3,15.5 3.4,0 7.8,0 10.1,0 2.2,0 6.9,0 10.8,-2.1 23.1,-2.6 117.7,-38 162.9,-60.6 34.1,-17 40.1,-21.8 49.2,-43.7 7.9,-19.43 30.8,-86.24 41.8,-122.012 18.3,-60.128 23.4,-87.708 20.9,-105.788 -2.2,-8.2 -2.2,-8.6 -7.6,-14.7 -21.3,-22.8 -124.5,-89.8 -168.3,-109 -23.5,-9.6 -51.2,-4.6 -74.5,-2.6 z m 25.6,2.6 c 20.3,-2.2 30.2,0 40.9,4.1 75.3,33.4 133,70 181.3,123.2 0,2.2 0,2.2 -2.2,2.2 0,0 -3.2,-2.2 -4.1,-2.2 0,0 -15.3,3.9 -32.3,8.66 -46.5,13.79 -88.3,25.43 -134,38.58 -17.7,4.95 -38.6,9.26 -58.6,6.68 -27.2,-4.96 -49.2,-19.4 -117.9,-76.72 -23.7,-20 -47.9,-36.4 -68.8,-61.4 -2.1,-2.2 0,-2.4 2.2,-4.8 3.2,-3.4 8,-5.3 20.9,-9.2 57.5,-13 116.3,-25.1 172.6,-29.1 z"
       id="path5597"
       inkscape:connector-curvature="0"
       sodipodi:nodetypes="ccccsccccsccccccccccccccccccccc" />
  </g>
  <path
     style="fill:#000000;stroke:#000000;stroke-width:0.82969999"
     d="m 71.48,38.23 c -1.37,-0.3 -2.43,-1.2 -2.23,-1.8 0.2,-0.4 0.72,-0.6 1.69,-0.7 1.46,0 2.88,0.6 3.24,1.4 0.18,0.3 0.18,0.3 0,0.5 -0.25,0.6 -1.51,0.8 -2.7,0.6 z"
     id="path5593-5"
     inkscape:connector-curvature="0"
     sodipodi:nodetypes="cccccc" />
  <path
     style="fill:#000000"
     d="m 71.79,59.73 c -0.96,-0.4 -1.11,-1.8 -0.38,-3.2 0.8,-1.6 2.41,-2.5 3.5,-2 0.42,0.2 0.61,0.5 0.76,1.1 0.35,1.3 -0.71,3.3 -2.2,4.1 -0.58,0.2 -1.23,0.3 -1.68,0 z m -9.72,-0.4 c -1.35,-0.4 -2.33,-2.5 -1.88,-4 0.37,-1.2 1.54,-1.4 2.54,-0.4 0.85,0.8 1.28,2.5 0.93,3.5 -0.27,0.8 -0.91,1.1 -1.59,0.9 z m -2.63,-7.3 c -0.96,-0.4 -1.67,-1.9 -1.54,-3.2 0.18,-2.1 2.12,-2.3 3.1,-0.4 0.73,1.5 0.5,3.2 -0.48,3.7 -0.4,0.2 -0.59,0.2 -1.08,0 z m 19.74,-0.8 c -0.97,-0.3 -1.35,-1.5 -0.93,-2.8 0.21,-0.7 0.84,-1.6 1.41,-2.1 1.86,-1.5 3.66,-0.3 3.08,1.9 -0.48,1.8 -2.3,3.4 -3.56,3 z m -21.71,-6.1 c -0.37,-0.2 -0.93,-0.6 -1.18,-1.1 -0.3,-0.6 -0.4,-1.2 -0.36,-2 0.2,-2.3 2.04,-2.7 3,-0.7 0.7,1.5 0.3,3.6 -0.8,3.9 -0.31,0 -0.33,0 -0.66,0 z"
     id="path5593-51"
     inkscape:connector-curvature="0"
     sodipodi:nodetypes="ccccccccccscccscccccsccccscccc" />
  <path
     style="fill:none;stroke:#000000;stroke-width:1.92879999px;stroke-linecap:butt;stroke-linejoin:miter"
     d="m 69.97,44.73 c -4.24,20.8 -4.68,20.4 -4.42,20.8"
     id="path5656"
     inkscape:connector-curvature="0"
     sodipodi:nodetypes="cc" />
</svg>
