<?xml version="1.0" encoding="UTF-8" standalone="no"?>
<!-- Created with Inkscape (http://www.inkscape.org/) -->

<svg
   xmlns:dc="http://purl.org/dc/elements/1.1/"
   xmlns:cc="http://creativecommons.org/ns#"
   xmlns:rdf="http://www.w3.org/1999/02/22-rdf-syntax-ns#"
   xmlns:svg="http://www.w3.org/2000/svg"
   xmlns="http://www.w3.org/2000/svg"
   xmlns:sodipodi="http://sodipodi.sourceforge.net/DTD/sodipodi-0.dtd"
   xmlns:inkscape="http://www.inkscape.org/namespaces/inkscape"
   width="444.10803"
   height="324.71854"
   viewBox="0 0 444.10803 324.71854"
   id="rule"
   version="1.1"
   inkscape:version="0.91 r13725"
   sodipodi:docname="rule.svg">
  <defs
     id="defs4390" />
  <sodipodi:namedview
     id="base"
     pagecolor="#ffffff"
     bordercolor="#666666"
     borderopacity="1.0"
     inkscape:pageopacity="0.0"
     inkscape:pageshadow="2"
     inkscape:zoom="1.979899"
     inkscape:cx="262.73634"
     inkscape:cy="148.00536"
     inkscape:document-units="px"
     inkscape:current-layer="layer1"
     showgrid="false"
     showguides="true"
     inkscape:guide-bbox="true"
     inkscape:window-width="1920"
     inkscape:window-height="977"
     inkscape:window-x="0"
     inkscape:window-y="1"
     inkscape:window-maximized="1"
     fit-margin-top="0"
     fit-margin-left="0"
     fit-margin-right="0"
     fit-margin-bottom="0" />
  <metadata
     id="metadata7">
    <rdf:RDF>
      <cc:Work
         rdf:about="">
        <dc:format>image/svg+xml</dc:format>
        <dc:type
           rdf:resource="http://purl.org/dc/dcmitype/StillImage" />
        <dc:title></dc:title>
      </cc:Work>
    </rdf:RDF>
  </metadata>
  <g
     inkscape:label="Layer 1"
     inkscape:groupmode="layer"
     id="layer1"
     transform="translate(-148.00764,-90.31372)"
     style="opacity:1">
    <path
       style="fill:#ffff7f;stroke:#000000;stroke-width:4;stroke-miterlimit:4;stroke-dasharray:none;stroke-opacity:1"
       d="m 163.89121,226.3622 28.26044,0 c 7.69149,0 13.88356,6.19207 13.88356,13.88357 l 0,38.90293 c 0,7.69149 -6.19207,13.88356 -13.88356,13.88356 l -28.26044,0 c -7.69149,0 -13.88357,-6.19207 -13.88357,-13.88356 l 0,-38.90293 c 0,-7.6915 6.19208,-13.88357 13.88357,-13.88357 z"
       id="rect2985"
       inkscape:connector-curvature="0" />
    <path
       inkscape:connector-curvature="0"
       d="m 170.65819,253.53163 0,10.77985 6.59175,0 c 2.11337,3e-5 3.72357,-0.45767 4.8306,-1.37304 1.10699,-0.93482 1.6605,-2.27865 1.66052,-4.03149 -2e-5,-1.75282 -0.55353,-3.0869 -1.66052,-4.00228 -1.10703,-0.91535 -2.71723,-1.37303 -4.8306,-1.37304 l -6.59175,0 m 0,-13.35067 0,9.05625 6.08856,0 c 1.74438,2e-5 3.17007,-0.39924 4.2771,-1.19776 1.107,-0.81796 1.66049,-1.94756 1.66051,-3.3888 -2e-5,-1.44118 -0.55351,-2.54157 -1.66051,-3.30114 -1.10703,-0.77901 -2.53272,-1.16853 -4.2771,-1.16855 l -6.08856,0 m -4.62933,-4.29442 11.01981,0 c 3.30425,3e-5 5.84533,0.70116 7.62329,2.10339 1.7779,1.40229 2.66686,3.39855 2.66689,5.9888 -3e-5,2.00604 -0.45289,3.60305 -1.35862,4.79106 -0.90575,1.16857 -2.24759,1.8989 -4.02549,2.19103 2.13014,0.46743 3.78226,1.44121 4.95639,2.92138 1.17408,1.48017 1.76115,3.33037 1.76117,5.5506 -2e-5,2.92137 -0.97286,5.18057 -2.9185,6.77757 -1.9289,1.59702 -4.68805,2.39554 -8.27743,2.39554 l -11.44751,0 0,-32.71937"
       style="fill:#000000"
       id="path3115-0" />
    <path
       style="fill:#ffff7f;stroke:#000000;stroke-width:4;stroke-miterlimit:4;stroke-dasharray:none;stroke-opacity:1"
       d="m 163.89121,266.31372 28.26044,0 c 7.69149,0 13.88356,6.19207 13.88356,13.88357 l 0,38.90293 c 0,7.6915 -6.19207,13.88357 -13.88356,13.88357 l -28.26044,0 c -7.69149,0 -13.88357,-6.19207 -13.88357,-13.88357 l 0,-38.90293 c 0,-7.6915 6.19208,-13.88357 13.88357,-13.88357 z"
       id="rect2985-1"
       inkscape:connector-curvature="0" />
    <g
       transform="matrix(0.9969253,0,0,1.1598985,11.404179,-51.036049)"
       style="fill:#000000"
       id="text2987-7">
      <path
         d="m 153.60586,307.40777 6.19319,0 0,-21.37591 -4.63843,2.58526 -1.48876,-3.70743 c 4.09194,-0.54406 6.30695,-2.331 9.88065,-2.331 l 0,24.82908 3.34522,0 0.34521,3.19044 -13.63708,0 0,-3.19044"
         style="fill:#ff0000"
         id="path3292"
         inkscape:connector-curvature="0"
         sodipodi:nodetypes="ccccccccccc" />
    </g>
    <g
       transform="matrix(0.90422971,0,0,1.2788035,11.404179,-51.036049)"
       style="fill:#000000"
       id="text2987-7-6">
      <path
         d="m 193.57398,258.97055 c -1.72657,2e-5 -2.44053,0.85223 -3.31487,2.55664 -0.86328,1.69337 -1.71385,4.30371 -1.71385,7.71255 0,3.39779 0.85057,5.88965 1.71385,7.59407 0.87434,1.69336 1.5883,2.54004 3.31487,2.54003 1.73761,1e-5 2.70292,-0.84667 3.56622,-2.54003 0.87433,-1.70442 1.3115,-4.25552 1.31152,-7.65331 -2e-5,-3.40884 -0.43719,-5.95994 -1.31152,-7.65331 -0.8633,-1.70441 -1.82861,-2.55662 -3.56622,-2.55664 m 0,-2.65625 c 9.0003,-0.0331 8.53416,8.11309 8.56639,12.8662 -0.0515,8.14716 -0.21781,12.47765 -8.56639,12.49413 -9.00608,0.0211 -8.5344,-7.74782 -8.5664,-12.49413 0.79542,-8.81726 1.49011,-12.82526 8.5664,-12.8662"
         style="fill:#ff0000"
         id="path3194"
         inkscape:connector-curvature="0"
         sodipodi:nodetypes="ccscccsccccccc" />
    </g>
    <path
       style="fill:#ffff7f;stroke:#000000;stroke-width:4;stroke-miterlimit:4;stroke-dasharray:none;stroke-opacity:1"
       d="m 163.89121,306.36218 28.26044,0 c 7.69149,0 13.88356,6.19207 13.88356,13.88357 l 0,38.90293 c 0,7.6915 -6.19207,13.88357 -13.88356,13.88357 l -28.26044,0 c -7.69149,0 -13.88357,-6.19207 -13.88357,-13.88357 l 0,-38.90293 c 0,-7.6915 6.19208,-13.88357 13.88357,-13.88357 z"
       id="rect2985-1-8"
       inkscape:connector-curvature="0" />
    <path
       style="fill:#ffff7f;stroke:#000000;stroke-width:4;stroke-miterlimit:4;stroke-dasharray:none;stroke-opacity:1"
       d="m 291.88357,226.3622 28.26043,0 c 7.6915,0 13.88357,6.19207 13.88357,13.88357 l 0,38.90293 c 0,7.69149 -6.19207,13.88356 -13.88357,13.88356 l -28.26043,0 C 284.19207,293.03226 278,286.84019 278,279.1487 l 0,-38.90293 c 0,-7.6915 6.19207,-13.88357 13.88357,-13.88357 z"
       id="rect2985-7"
       inkscape:connector-curvature="0" />
    <g
       transform="scale(1.0766893,0.92877304)"
       style="fill:#000000"
       id="text2987-1" />
    <path
       inkscape:connector-curvature="0"
       d="m 295.3367,235.72548 4.60416,0 0,15.36641 13.05772,-15.36641 5.68601,0 -10.7682,12.64953 12.15197,20.06984 -5.18283,0 -9.98827,-16.50576 -4.9564,5.84275 0,10.66301 -4.60416,0 0,-32.71937"
       style="fill:#ff0000"
       id="path3119-0" />
    <path
       style="fill:#ffff7f;stroke:#000000;stroke-width:4;stroke-miterlimit:4;stroke-dasharray:none;stroke-opacity:1"
       d="m 291.88357,266.31372 28.26043,0 c 7.6915,0 13.88357,6.19207 13.88357,13.88357 l 0,38.90293 c 0,7.6915 -6.19207,13.88357 -13.88357,13.88357 l -28.26043,0 C 284.19207,332.98379 278,326.79172 278,319.10022 l 0,-38.90293 c 0,-7.6915 6.19207,-13.88357 13.88357,-13.88357 z"
       id="rect2985-1-6"
       inkscape:connector-curvature="0" />
    <path
       style="fill:#00c000;fill-opacity:1;fill-rule:nonzero;stroke:#000000;stroke-width:4;stroke-miterlimit:4;stroke-dasharray:none;stroke-opacity:1"
       d="m 227.88357,226.3622 28.26043,0 c 7.6915,0 13.88357,6.19207 13.88357,13.88357 l 0,38.90293 c 0,7.69149 -6.19207,13.88356 -13.88357,13.88356 l -28.26043,0 C 220.19207,293.03226 214,286.84019 214,279.1487 l 0,-38.90293 c 0,-7.6915 6.19207,-13.88357 13.88357,-13.88357 z"
       id="rect2985-7-1"
       inkscape:connector-curvature="0" />
    <path
       style="fill:#ffff7f;stroke:#000000;stroke-width:4;stroke-miterlimit:4;stroke-dasharray:none;stroke-opacity:1"
       d="m 227.88357,266.31372 28.26043,0 c 7.6915,0 13.88357,6.19207 13.88357,13.88357 l 0,38.90293 c 0,7.6915 -6.19207,13.88357 -13.88357,13.88357 l -28.26043,0 C 220.19207,332.98379 214,326.79172 214,319.10022 l 0,-38.90293 c 0,-7.6915 6.19207,-13.88357 13.88357,-13.88357 z"
       id="rect2985-1-6-5"
       inkscape:connector-curvature="0" />
    <g
       transform="matrix(1.2920272,0,0,1.1145276,-102.96208,-51.036049)"
       style="fill:#000000"
       id="text2987-7-1-4">
      <path
         d="m 269.24278,297.51953 -9.96093,15.56641 9.96093,0 0,-15.56641 m -1.03515,-3.4375 4.96093,0 0,19.00391 4.16016,0 0,3.28125 -4.16016,0 0,6.875 -3.92578,0 0,-6.875 -13.16406,0 0,-3.8086 12.12891,-18.47656"
         style="fill:#ff0000"
         id="path3275"
         inkscape:connector-curvature="0" />
    </g>
    <path
       style="fill:#ffff7f;stroke:#000000;stroke-width:4;stroke-miterlimit:4;stroke-dasharray:none;stroke-opacity:1"
       d="m 227.88357,306.36218 28.26043,0 c 7.6915,0 13.88357,6.19207 13.88357,13.88357 l 0,38.90293 c 0,7.6915 -6.19207,13.88357 -13.88357,13.88357 l -28.26043,0 C 220.19207,373.03225 214,366.84018 214,359.14868 l 0,-38.90293 c 0,-7.6915 6.19207,-13.88357 13.88357,-13.88357 z"
       id="rect2985-1-8-1-3"
       inkscape:connector-curvature="0" />
    <path
       style="fill:none;fill-opacity:1;stroke:#000000;stroke-width:4;stroke-miterlimit:4;stroke-dasharray:none;stroke-dashoffset:0;stroke-opacity:1"
       d="m 356.03905,226.3622 28.26044,0 c 7.69149,0 13.88357,6.19207 13.88357,13.88357 l 0,38.90293 c 0,7.69149 -6.19208,13.88356 -13.88357,13.88356 l -28.26044,0 c -7.69149,0 -13.88356,-6.19207 -13.88356,-13.88356 l 0,-38.90293 c 0,-7.6915 6.19207,-13.88357 13.88356,-13.88357 z"
       id="rect2985-7-1-7"
       inkscape:connector-curvature="0" />
    <path
       style="fill:#00c000;fill-opacity:1;stroke:#000000;stroke-width:4;stroke-miterlimit:4;stroke-dasharray:none;stroke-opacity:1"
       d="m 547.80245,226.36223 28.26044,0 c 7.69149,0 13.88356,6.19207 13.88356,13.88357 l 0,38.90293 c 0,7.69149 -6.19207,13.88357 -13.88356,13.88357 l -28.26044,0 c -7.69149,0 -13.88357,-6.19208 -13.88357,-13.88357 l 0,-38.90293 c 0,-7.6915 6.19208,-13.88357 13.88357,-13.88357 z"
       id="rect2985-7-1-7-4"
       inkscape:connector-curvature="0" />
    <path
       style="fill:#00c000;fill-opacity:1;stroke:#000000;stroke-width:4;stroke-miterlimit:4;stroke-dasharray:none;stroke-opacity:1"
       d="m 547.80245,266.31375 28.26044,0 c 7.69149,0 13.88356,6.19207 13.88356,13.88357 l 0,38.90293 c 0,7.6915 -6.19207,13.88357 -13.88356,13.88357 l -28.26044,0 c -7.69149,0 -13.88357,-6.19207 -13.88357,-13.88357 l 0,-38.90293 c 0,-7.6915 6.19208,-13.88357 13.88357,-13.88357 z"
       id="rect2985-1-6-5-3-0"
       inkscape:connector-curvature="0" />
    <path
       style="fill:#ffff7f;stroke:#000000;stroke-width:4;stroke-miterlimit:4;stroke-dasharray:none;stroke-opacity:1"
       d="m 547.80245,306.36218 28.26044,0 c 7.69149,0 13.88356,6.19207 13.88356,13.88357 l 0,38.90293 c 0,7.6915 -6.19207,13.88357 -13.88356,13.88357 l -28.26044,0 c -7.69149,0 -13.88357,-6.19207 -13.88357,-13.88357 l 0,-38.90293 c 0,-7.6915 6.19208,-13.88357 13.88357,-13.88357 z"
       id="rect2985-1-8-1-3-0-9"
       inkscape:connector-curvature="0" />
    <path
       style="fill:#ffff7f;stroke:#000000;stroke-width:4;stroke-miterlimit:4;stroke-dasharray:none;stroke-opacity:1"
       d="m 419.90652,226.3622 28.26043,0 c 7.6915,0 13.88357,6.19207 13.88357,13.88357 l 0,38.90293 c 0,7.69149 -6.19207,13.88356 -13.88357,13.88356 l -28.26043,0 c -7.6915,0 -13.88357,-6.19207 -13.88357,-13.88356 l 0,-38.90293 c 0,-7.6915 6.19207,-13.88357 13.88357,-13.88357 z"
       id="rect2985-7-1-7-4-6"
       inkscape:connector-curvature="0" />
    <path
       style="fill:#00c000;fill-opacity:1;stroke:#000000;stroke-width:4;stroke-miterlimit:4;stroke-dasharray:none;stroke-opacity:1"
       d="m 483.97167,226.41068 28.26044,0 c 7.69149,0 13.88356,6.19207 13.88356,13.88356 l 0,38.90293 c 0,7.6915 -6.19207,13.88357 -13.88356,13.88357 l -28.26044,0 c -7.69149,0 -13.88357,-6.19207 -13.88357,-13.88357 l 0,-38.90293 c 0,-7.69149 6.19208,-13.88356 13.88357,-13.88356 z"
       id="rect2985-7-1-7-4-6-4"
       inkscape:connector-curvature="0" />
    <path
       style="fill:#ffff7f;stroke:#000000;stroke-width:4;stroke-miterlimit:4;stroke-dasharray:none;stroke-opacity:1"
       d="m 483.97167,266.36218 28.26044,0 c 7.69149,0 13.88356,6.19207 13.88356,13.88357 l 0,38.90293 c 0,7.6915 -6.19207,13.88357 -13.88356,13.88357 l -28.26044,0 c -7.69149,0 -13.88357,-6.19207 -13.88357,-13.88357 l 0,-38.90293 c 0,-7.6915 6.19208,-13.88357 13.88357,-13.88357 z"
       id="rect2985-1-6-5-3-0-6-1"
       inkscape:connector-curvature="0" />
    <path
       style="fill:#00c000;fill-opacity:1;stroke:#000000;stroke-width:4;stroke-miterlimit:4;stroke-dasharray:none;stroke-dashoffset:0;stroke-opacity:1"
       d="m 163.89121,92.31372 28.26044,0 c 7.69149,0 13.88356,6.19207 13.88356,13.88357 l 0,38.90293 c 0,7.6915 -6.19207,13.88357 -13.88356,13.88357 l -28.26044,0 c -7.69149,0 -13.88357,-6.19207 -13.88357,-13.88357 l 0,-38.90293 c 0,-7.6915 6.19208,-13.88357 13.88357,-13.88357 z"
       id="rect2985-7-1-7-7"
       inkscape:connector-curvature="0" />
    <path
       style="fill:#ffff7f;stroke:#000000;stroke-width:4;stroke-miterlimit:4;stroke-dasharray:none;stroke-dashoffset:0;stroke-opacity:1"
       d="m 227.88357,92.31372 28.26043,0 c 7.6915,0 13.88357,6.19207 13.88357,13.88357 l 0,38.90293 c 0,7.6915 -6.19207,13.88357 -13.88357,13.88357 l -28.26043,0 C 220.19207,158.98379 214,152.79172 214,145.10022 l 0,-38.90293 c 0,-7.6915 6.19207,-13.88357 13.88357,-13.88357 z"
       id="rect2985-7-1-7-7-6"
       inkscape:connector-curvature="0" />
    <path
       style="fill:#ffff7f;stroke:#000000;stroke-width:4;stroke-miterlimit:4;stroke-dasharray:none;stroke-dashoffset:0;stroke-opacity:1"
       d="m 355.95092,92.31372 28.26043,0 c 7.6915,0 13.88357,6.19207 13.88357,13.88357 l 0,38.90293 c 0,7.6915 -6.19207,13.88357 -13.88357,13.88357 l -28.26043,0 c -7.6915,0 -13.88357,-6.19207 -13.88357,-13.88357 l 0,-38.90293 c 0,-7.6915 6.19207,-13.88357 13.88357,-13.88357 z"
       id="rect2985-7-1-7-7-7"
       inkscape:connector-curvature="0" />
    <path
       style="fill:#ffff7f;stroke:#000000;stroke-width:4;stroke-miterlimit:4;stroke-dasharray:none;stroke-dashoffset:0;stroke-opacity:1"
       d="m 419.94329,92.31372 28.26043,0 c 7.6915,0 13.88357,6.19207 13.88357,13.88357 l 0,38.90293 c 0,7.6915 -6.19207,13.88357 -13.88357,13.88357 l -28.26043,0 c -7.6915,0 -13.88357,-6.19207 -13.88357,-13.88357 l 0,-38.90293 c 0,-7.6915 6.19207,-13.88357 13.88357,-13.88357 z"
       id="rect2985-7-1-7-7-6-8"
       inkscape:connector-curvature="0" />
    <path
       style="fill:#ffff7f;stroke:#000000;stroke-width:4;stroke-miterlimit:4;stroke-dasharray:none;stroke-dashoffset:0;stroke-opacity:1"
       d="m 483.90652,92.31372 28.26043,0 c 7.6915,0 13.88357,6.19207 13.88357,13.88357 l 0,38.90293 c 0,7.6915 -6.19207,13.88357 -13.88357,13.88357 l -28.26043,0 c -7.6915,0 -13.88357,-6.19207 -13.88357,-13.88357 l 0,-38.90293 c 0,-7.6915 6.19207,-13.88357 13.88357,-13.88357 z"
       id="rect2985-7-1-7-7-7-3"
       inkscape:connector-curvature="0" />
    <path
       style="fill:#ffff7f;stroke:#000000;stroke-width:4;stroke-miterlimit:4;stroke-dasharray:none;stroke-dashoffset:0;stroke-opacity:1"
       d="m 547.89889,92.31372 28.26043,0 c 7.6915,0 13.88357,6.19207 13.88357,13.88357 l 0,38.90293 c 0,7.6915 -6.19207,13.88357 -13.88357,13.88357 l -28.26043,0 c -7.6915,0 -13.88357,-6.19207 -13.88357,-13.88357 l 0,-38.90293 c 0,-7.6915 6.19207,-13.88357 13.88357,-13.88357 z"
       id="rect2985-7-1-7-7-6-8-6"
       inkscape:connector-curvature="0" />
    <g
       transform="matrix(1.2920272,0,0,1.1145276,-20.96208,-59.036049)"
       style="fill:#000000"
       id="text2987-7-2">
      <path
         d="m 147.07443,365.7565 0,-3.59375 c 0.98958,0.46875 1.99218,0.82683 3.00781,1.07422 1.01562,0.2474 2.01171,0.3711 2.98829,0.37109 2.60415,10e-6 4.58982,-0.87239 5.95703,-2.61718 1.38019,-1.75781 2.16795,-4.42057 2.36328,-7.98829 -0.75523,1.11981 -1.71226,1.97918 -2.8711,2.57813 -1.15886,0.59897 -2.44141,0.89845 -3.84765,0.89844 -2.91668,1e-5 -5.22787,-0.8789 -6.9336,-2.63672 -1.69271,-1.77082 -2.53906,-4.18618 -2.53906,-7.2461 0,-2.99476 0.88542,-5.39711 2.65625,-7.20703 1.77083,-1.80986 4.1276,-2.71481 7.07031,-2.71484 3.37239,3e-5 5.944,1.2956 7.71485,3.88672 1.78383,2.57815 2.67576,6.32814 2.67578,11.25 -2e-5,4.59636 -1.09377,8.26823 -3.28125,11.01562 -2.1745,2.73438 -5.10418,4.10156 -8.78906,4.10157 -0.9896,-1e-5 -1.9922,-0.0977 -3.00782,-0.29297 -1.01563,-0.19532 -2.07031,-0.48828 -3.16406,-0.87891 m 7.85156,-12.36328 c 1.77082,1e-5 3.17056,-0.60546 4.19922,-1.81641 1.04165,-1.21092 1.56249,-2.87107 1.5625,-4.98047 -1e-5,-2.09633 -0.52085,-3.74997 -1.5625,-4.96093 -1.02866,-1.22394 -2.4284,-1.83591 -4.19922,-1.83594 -1.77084,3e-5 -3.17709,0.612 -4.21875,1.83594 -1.02865,1.21096 -1.54297,2.8646 -1.54296,4.96093 -1e-5,2.1094 0.51431,3.76955 1.54296,4.98047 1.04166,1.21095 2.44791,1.81642 4.21875,1.81641"
         style="fill:#000000"
         id="path3288"
         inkscape:connector-curvature="0" />
    </g>
    <path
       style="fill:#ffff7f;stroke:#000000;stroke-width:4;stroke-miterlimit:4;stroke-dasharray:none;stroke-opacity:1"
       d="m 163.89121,346.36218 28.26044,0 c 7.69149,0 13.88356,6.19207 13.88356,13.88357 l 0,38.90293 c 0,7.6915 -6.19207,13.88357 -13.88356,13.88357 l -28.26044,0 c -7.69149,0 -13.88357,-6.19207 -13.88357,-13.88357 l 0,-38.90293 c 0,-7.6915 6.19208,-13.88357 13.88357,-13.88357 z"
       id="rect2985-1-8-4"
       inkscape:connector-curvature="0" />
    <flowRoot
       xml:space="preserve"
       id="flowRoot3948"
       style="fill:#000000;stroke-width:1px;stroke-linecap:butt;stroke-linejoin:miter"><flowRegion
         id="flowRegion3950"><rect
           id="rect3952"
           width="123.74368"
           height="25.75889"
           x="3.0304575"
           y="72.007553" /></flowRegion><flowPara
         id="flowPara3954" /></flowRoot>    <path
       inkscape:connector-curvature="0"
       id="path3233"
       style="fill:#000000;fill-opacity:1;stroke:none;stroke-opacity:1"
       d="m 154.98527,169.02342 3.51313,0 0,10.50283 9.96345,-10.50283 4.33862,0 -8.21649,8.64587 9.27235,13.71759 -3.95467,0 -7.62137,-11.28157 -3.78189,3.99347 0,7.2881 -3.51313,0 0,-22.36346" />
    <path
       inkscape:connector-curvature="0"
       id="path3235"
       style="fill:#000000;fill-opacity:1;stroke:none;stroke-opacity:1"
       d="m 183.17933,171.59921 c -1.89416,1e-5 -3.39155,0.77209 -4.4922,2.31622 -1.10065,1.53084 -1.65098,3.63407 -1.65097,6.30969 -1e-5,2.67563 0.54392,4.78551 1.63178,6.32965 1.10064,1.53084 2.60443,2.29626 4.51139,2.29626 1.88133,0 3.37232,-0.77208 4.473,-2.31623 1.10063,-1.54414 1.65095,-3.64736 1.65097,-6.30968 -2e-5,-2.64899 -0.55034,-4.74556 -1.65097,-6.28973 -1.10068,-1.55743 -2.59167,-2.33617 -4.473,-2.33618 m 0,-3.11491 c 3.07157,2e-5 5.48404,1.03832 7.23742,3.11491 1.75334,2.07663 2.63002,4.95192 2.63004,8.62591 -2e-5,3.66069 -0.8767,6.53599 -2.63004,8.62591 -1.75338,2.0766 -4.16585,3.1149 -7.23742,3.1149 -3.08439,0 -5.50326,-1.0383 -7.25663,-3.1149 -1.74056,-2.08992 -2.61084,-4.96522 -2.61084,-8.62591 0,-3.67399 0.87028,-6.54928 2.61084,-8.62591 1.75337,-2.07659 4.17224,-3.11489 7.25663,-3.11491" />
    <path
       inkscape:connector-curvature="0"
       id="path3237"
       style="fill:#000000;fill-opacity:1;stroke:none;stroke-opacity:1"
       d="m 192.63671,191.38688 0,-3.05502 c 2.32928,-0.37272 3.85228,-1.3977 4.56899,-3.07497 0.87027,-2.35614 1.30541,-6.54928 1.30542,-12.57945 l 0,-3.65402 14.53244,0 0,22.36346 -3.53233,0 0,-19.42826 -7.46779,0 0,2.21637 c -1e-5,5.75062 -0.56313,9.91715 -1.68937,12.49959 -1.20304,2.75549 -3.7755,4.32626 -7.71736,4.7123" />
    <path
       inkscape:connector-curvature="0"
       id="path3239"
       style="fill:#000000;fill-opacity:1;stroke:none;stroke-opacity:1"
       d="m 224.3247,171.59921 c -1.89416,1e-5 -3.39156,0.77209 -4.49221,2.31622 -1.10065,1.53084 -1.65097,3.63407 -1.65096,6.30969 -1e-5,2.67563 0.54392,4.78551 1.63178,6.32965 1.10063,1.53084 2.60443,2.29626 4.51139,2.29626 1.88132,0 3.37232,-0.77208 4.47299,-2.31623 1.10064,-1.54414 1.65096,-3.64736 1.65098,-6.30968 -2e-5,-2.64899 -0.55034,-4.74556 -1.65098,-6.28973 -1.10067,-1.55743 -2.59167,-2.33617 -4.47299,-2.33618 m 0,-3.11491 c 3.07156,2e-5 5.48403,1.03832 7.23742,3.11491 1.75334,2.07663 2.63002,4.95192 2.63004,8.62591 -2e-5,3.66069 -0.8767,6.53599 -2.63004,8.62591 -1.75339,2.0766 -4.16586,3.1149 -7.23742,3.1149 -3.0844,0 -5.50327,-1.0383 -7.25663,-3.1149 -1.74057,-2.08992 -2.61085,-4.96522 -2.61085,-8.62591 0,-3.67399 0.87028,-6.54928 2.61085,-8.62591 1.75336,-2.07659 4.17223,-3.11489 7.25663,-3.11491" />
    <path
       inkscape:connector-curvature="0"
       id="path3241"
       style="fill:#000000;fill-opacity:1;stroke:none;stroke-opacity:1"
       d="m 240.82752,188.45167 10.25142,0 0,-16.49305 -7.42939,0 0,2.79543 c -2e-5,5.48438 -0.75512,9.69085 -2.2653,12.61938 l -0.55673,1.07824 m -5.12571,0 c 1.16465,-0.53245 2.00293,-1.36442 2.51487,-2.49592 1.25422,-2.80873 1.88134,-7.04181 1.88134,-12.69925 l 0,-4.23308 14.53245,0 0,19.42825 2.82201,0 0,8.58598 -2.82201,0 0,-5.65077 -17.43125,0 0,5.65077 -2.82203,0 0,-8.58598 1.32462,0" />
    <path
       inkscape:connector-curvature="0"
       id="path3243"
       style="fill:#000000;fill-opacity:1;stroke:none;stroke-opacity:1"
       d="m 268.98318,180.14524 c -2.85403,1e-5 -4.83135,0.33946 -5.932,1.01834 -1.10066,0.6789 -1.65098,1.837 -1.65098,3.47432 0,1.30454 0.40955,2.34285 1.22864,3.11492 0.83189,0.75876 1.95812,1.13813 3.37874,1.13813 1.95813,0 3.52592,-0.71882 4.70336,-2.15648 1.19023,-1.45094 1.78535,-3.37447 1.78537,-5.77056 l 0,-0.81867 -3.51313,0 m 7.04545,-1.51751 0,12.75915 -3.53232,0 0,-3.39445 c -0.80631,1.35778 -1.81098,2.36281 -3.014,3.01506 -1.20305,0.63896 -2.67484,0.95844 -4.41539,0.95844 -2.20132,0 -3.95468,-0.63896 -5.2601,-1.91687 -1.29263,-1.29121 -1.93894,-3.01507 -1.93894,-5.17155 0,-2.51588 0.80629,-4.41278 2.41887,-5.6907 1.62538,-1.27789 4.04425,-1.91685 7.25662,-1.91687 l 4.95294,0 0,-0.35941 c -2e-5,-1.69056 -0.53754,-2.99509 -1.61258,-3.91361 -1.06227,-0.93179 -2.55967,-1.3977 -4.49219,-1.39771 -1.22865,1e-5 -2.42528,0.1531 -3.58992,0.45924 -1.16466,0.30619 -2.28449,0.76545 -3.35956,1.37775 l 0,-3.39445 c 1.29263,-0.51913 2.54686,-0.90516 3.76271,-1.15811 1.21582,-0.2662 2.39965,-0.39932 3.55151,-0.39934 3.10996,2e-5 5.43285,0.83865 6.96866,2.51588 1.53577,1.67728 2.30367,4.21979 2.30369,7.62755" />
    <path
       inkscape:connector-curvature="0"
       id="path3224"
       style="fill:#000000;fill-opacity:1;stroke:none;stroke-opacity:1"
       d="m 507.50153,188.45167 10.25141,0 0,-16.49305 -7.4294,0 0,2.79543 c -10e-6,5.48438 -0.7551,9.69085 -2.2653,12.61938 l -0.55671,1.07824 m -5.12571,0 c 1.16463,-0.53245 2.00292,-1.36442 2.51485,-2.49592 1.25423,-2.80873 1.88134,-7.04181 1.88135,-12.69925 l 0,-4.23308 14.53244,0 0,19.42825 2.82201,0 0,8.58598 -2.82201,0 0,-5.65077 -17.43125,0 0,5.65077 -2.82201,0 0,-8.58598 1.32462,0" />
    <path
       inkscape:connector-curvature="0"
       id="path3226"
       style="fill:#000000;fill-opacity:1;stroke:none;stroke-opacity:1"
       d="m 534.21738,171.59921 c -1.89416,1e-5 -3.39156,0.77209 -4.49219,2.31622 -1.10066,1.53084 -1.65099,3.63407 -1.65098,6.30969 -10e-6,2.67563 0.54392,4.78551 1.63178,6.32965 1.10063,1.53084 2.60444,2.29626 4.51139,2.29626 1.88133,0 3.37233,-0.77208 4.47299,-2.31623 1.10064,-1.54414 1.65096,-3.64736 1.65098,-6.30968 -2e-5,-2.64899 -0.55034,-4.74556 -1.65098,-6.28973 -1.10066,-1.55743 -2.59166,-2.33617 -4.47299,-2.33618 m 0,-3.11491 c 3.07156,2e-5 5.48404,1.03832 7.23742,3.11491 1.75334,2.07663 2.63002,4.95192 2.63004,8.62591 -2e-5,3.66069 -0.8767,6.53599 -2.63004,8.62591 -1.75338,2.0766 -4.16586,3.1149 -7.23742,3.1149 -3.0844,0 -5.50327,-1.0383 -7.25662,-3.1149 -1.74058,-2.08992 -2.61085,-4.96522 -2.61085,-8.62591 0,-3.67399 0.87027,-6.54928 2.61085,-8.62591 1.75335,-2.07659 4.17222,-3.11489 7.25662,-3.11491" />
    <path
       inkscape:connector-curvature="0"
       id="path3228"
       style="fill:#000000;fill-opacity:1;stroke:none;stroke-opacity:1"
       d="m 545.78648,169.02342 5.16409,0 6.10479,14.97553 6.12397,-14.97553 5.12571,0 0,22.36346 -3.55152,0 0,-18.8492 -5.93201,14.55621 -3.53232,0 -5.9512,-14.55621 0,18.8492 -3.55151,0 0,-22.36346" />
    <path
       inkscape:connector-curvature="0"
       id="path3230"
       style="fill:#000000;fill-opacity:1;stroke:none;stroke-opacity:1"
       d="m 581.33314,180.14524 c -2.85404,1e-5 -4.83136,0.33946 -5.93201,1.01834 -1.10065,0.6789 -1.65098,1.837 -1.65097,3.47432 -1e-5,1.30454 0.40954,2.34285 1.22864,3.11492 0.83188,0.75876 1.95812,1.13813 3.37874,1.13813 1.95812,0 3.52591,-0.71882 4.70337,-2.15648 1.19022,-1.45094 1.78534,-3.37447 1.78535,-5.77056 l 0,-0.81867 -3.51312,0 m 7.04545,-1.51751 0,12.75915 -3.53233,0 0,-3.39445 c -0.8063,1.35778 -1.81097,2.36281 -3.01399,3.01506 -1.20306,0.63896 -2.67485,0.95844 -4.4154,0.95844 -2.20131,0 -3.95468,-0.63896 -5.2601,-1.91687 -1.29262,-1.29121 -1.93894,-3.01507 -1.93894,-5.17155 0,-2.51588 0.80629,-4.41278 2.41887,-5.6907 1.62538,-1.27789 4.04425,-1.91685 7.25663,-1.91687 l 4.95293,0 0,-0.35941 c -10e-6,-1.69056 -0.53754,-2.99509 -1.61258,-3.91361 -1.06227,-0.93179 -2.55967,-1.3977 -4.49219,-1.39771 -1.22865,1e-5 -2.42528,0.1531 -3.58992,0.45924 -1.16465,0.30619 -2.28449,0.76545 -3.35954,1.37775 l 0,-3.39445 c 1.29262,-0.51913 2.54684,-0.90516 3.76269,-1.15811 1.21582,-0.2662 2.39967,-0.39932 3.55151,-0.39934 3.10998,2e-5 5.43286,0.83865 6.96866,2.51588 1.53577,1.67728 2.30367,4.21979 2.3037,7.62755" />
    <path
       inkscape:connector-curvature="0"
       id="path3200"
       style="fill:#000000;fill-opacity:1;stroke:none;stroke-opacity:1"
       d="m 374.96337,383.88192 0,3.43439 c -0.99829,-0.57238 -2.00295,-0.99835 -3.014,-1.27791 -0.99828,-0.29283 -2.00935,-0.43926 -3.03319,-0.43929 -2.2909,3e-5 -4.06986,0.75879 -5.33688,2.27629 -1.26703,1.50422 -1.90055,3.62076 -1.90055,6.34962 0,2.72888 0.63352,4.85208 1.90055,6.36959 1.26702,1.50421 3.04598,2.25632 5.33688,2.25632 1.02384,0 2.03491,-0.13977 3.03319,-0.41932 1.01105,-0.29285 2.01571,-0.72548 3.014,-1.29788 l 0,3.39445 c -0.98549,0.47923 -2.00935,0.83864 -3.07159,1.07824 -1.04948,0.23961 -2.16932,0.35942 -3.35955,0.35942 -3.23797,0 -5.81042,-1.05827 -7.71735,-3.17481 -1.90695,-2.11654 -2.86042,-4.97187 -2.86042,-8.56601 0,-3.64735 0.95987,-6.516 2.87962,-8.60594 1.93252,-2.08989 4.57536,-3.13486 7.92852,-3.13488 1.08784,2e-5 2.1501,0.11983 3.18677,0.35942 1.03664,0.22632 2.0413,0.57242 3.014,1.0383" />
    <path
       inkscape:connector-curvature="0"
       id="path3202"
       style="fill:#000000;fill-opacity:1;stroke:none;stroke-opacity:1"
       d="m 374.59167,383.02332 20.59882,0 0,2.93521 -8.56204,0 0,19.42825 -3.47473,0 0,-19.42825 -8.56205,0 0,-2.93521" />
    <path
       inkscape:connector-curvature="0"
       id="path3204"
       style="fill:#000000;fill-opacity:1;stroke:none;stroke-opacity:1"
       d="m 404.35991,385.59911 c -1.89415,3e-5 -3.39154,0.7721 -4.49219,2.31622 -1.10066,1.53085 -1.65098,3.63407 -1.65098,6.30969 0,2.67564 0.54392,4.78553 1.63178,6.32966 1.10065,1.53084 2.60444,2.29625 4.51139,2.29625 1.88134,0 3.37233,-0.77207 4.473,-2.31622 1.10063,-1.54413 1.65096,-3.64736 1.65098,-6.30969 -2e-5,-2.64899 -0.55035,-4.74556 -1.65098,-6.28972 -1.10067,-1.55743 -2.59166,-2.33616 -4.473,-2.33619 m 0,-3.11491 c 3.07157,2e-5 5.48404,1.03834 7.23743,3.11491 1.75334,2.07663 2.63002,4.95193 2.63004,8.62591 -2e-5,3.66069 -0.8767,6.53599 -2.63004,8.62591 -1.75339,2.07661 -4.16586,3.11491 -7.23743,3.11491 -3.08439,0 -5.50325,-1.0383 -7.25662,-3.11491 -1.74056,-2.08992 -2.61084,-4.96522 -2.61084,-8.62591 0,-3.67398 0.87028,-6.54928 2.61084,-8.62591 1.75337,-2.07657 4.17223,-3.11489 7.25662,-3.11491" />
    <path
       inkscape:connector-curvature="0"
       id="path3206"
       style="fill:#000000;fill-opacity:1;stroke:none;stroke-opacity:1"
       d="m 434.4929,383.02332 0,22.36346 -3.55151,0 0,-19.42825 -11.46085,0 0,19.42825 -3.55153,0 0,-22.36346 18.56389,0" />
    <path
       inkscape:connector-curvature="0"
       id="path3208"
       style="fill:#000000;fill-opacity:1;stroke:none;stroke-opacity:1"
       d="m 437.65354,383.02332 3.51313,0 0,10.50285 9.96344,-10.50285 4.33862,0 -8.21649,8.64588 9.27235,13.71758 -3.95467,0 -7.62136,-11.28156 -3.78189,3.99348 0,7.28808 -3.51313,0 0,-22.36346" />
    <path
       inkscape:connector-curvature="0"
       id="path3210"
       style="fill:#000000;fill-opacity:1;stroke:none;stroke-opacity:1"
       d="m 475.79184,383.02332 0,22.36346 -3.51312,0 0,-17.95066 -10.3666,17.95066 -4.53059,0 0,-22.36346 3.51313,0 0,17.91074 10.3474,-17.91074 4.54978,0" />
    <path
       inkscape:connector-curvature="0"
       id="path3212"
       style="fill:#000000;fill-opacity:1;stroke:none;stroke-opacity:1"
       d="m 511.07669,383.88192 0,3.43439 c -0.99829,-0.57238 -2.00295,-0.99835 -3.014,-1.27791 -0.99828,-0.29283 -2.00934,-0.43926 -3.03319,-0.43929 -2.2909,3e-5 -4.06986,0.75879 -5.33688,2.27629 -1.26703,1.50422 -1.90055,3.62076 -1.90054,6.34962 -10e-6,2.72888 0.63351,4.85208 1.90054,6.36959 1.26702,1.50421 3.04598,2.25632 5.33688,2.25632 1.02385,0 2.03491,-0.13977 3.03319,-0.41932 1.01105,-0.29285 2.01571,-0.72548 3.014,-1.29788 l 0,3.39445 c -0.98549,0.47923 -2.00935,0.83864 -3.07159,1.07824 -1.04947,0.23961 -2.16932,0.35942 -3.35954,0.35942 -3.23799,0 -5.81043,-1.05827 -7.71737,-3.17481 -1.90695,-2.11654 -2.86041,-4.97187 -2.86041,-8.56601 0,-3.64735 0.95986,-6.516 2.87961,-8.60594 1.93253,-2.08989 4.57537,-3.13486 7.92853,-3.13488 1.08785,2e-5 2.15009,0.11983 3.18677,0.35942 1.03665,0.22632 2.04131,0.57242 3.014,1.0383" />
    <path
       inkscape:connector-curvature="0"
       id="path3214"
       style="fill:#000000;fill-opacity:1;stroke:none;stroke-opacity:1"
       d="m 510.70499,383.02332 20.59882,0 0,2.93521 -8.56204,0 0,19.42825 -3.47473,0 0,-19.42825 -8.56205,0 0,-2.93521" />
    <path
       inkscape:connector-curvature="0"
       id="path3216"
       style="fill:#000000;fill-opacity:1;stroke:none;stroke-opacity:1"
       d="m 540.47324,385.59911 c -1.89416,3e-5 -3.39156,0.7721 -4.4922,2.31622 -1.10065,1.53085 -1.65098,3.63407 -1.65097,6.30969 -10e-6,2.67564 0.54392,4.78553 1.63178,6.32966 1.10063,1.53084 2.60443,2.29625 4.51139,2.29625 1.88133,0 3.37232,-0.77207 4.47299,-2.31622 1.10064,-1.54413 1.65096,-3.64736 1.65098,-6.30969 -2e-5,-2.64899 -0.55034,-4.74556 -1.65098,-6.28972 -1.10067,-1.55743 -2.59166,-2.33616 -4.47299,-2.33619 m 0,-3.11491 c 3.07156,2e-5 5.48403,1.03834 7.23742,3.11491 1.75334,2.07663 2.63002,4.95193 2.63004,8.62591 -2e-5,3.66069 -0.8767,6.53599 -2.63004,8.62591 -1.75339,2.07661 -4.16586,3.11491 -7.23742,3.11491 -3.0844,0 -5.50327,-1.0383 -7.25663,-3.11491 -1.74057,-2.08992 -2.61084,-4.96522 -2.61084,-8.62591 0,-3.67398 0.87027,-6.54928 2.61084,-8.62591 1.75336,-2.07657 4.17223,-3.11489 7.25663,-3.11491" />
    <path
       inkscape:connector-curvature="0"
       id="path3218"
       style="fill:#000000;fill-opacity:1;stroke:none;stroke-opacity:1"
       d="m 547.93061,405.38678 0,-3.055 c 2.32929,-0.37272 3.85228,-1.39771 4.56899,-3.07498 0.87027,-2.35614 1.30541,-6.54928 1.30543,-12.57945 l 0,-3.65403 14.53243,0 0,22.36346 -3.53233,0 0,-19.42825 -7.46779,0 0,2.21638 c -1e-5,5.75061 -0.56313,9.91713 -1.68936,12.49958 -1.20305,2.7555 -3.7755,4.32626 -7.71737,4.71229" />
    <path
       inkscape:connector-curvature="0"
       id="path3221"
       style="fill:#000000;fill-opacity:1;stroke:none;stroke-opacity:1"
       d="m 581.05841,394.14515 c -2.85404,2e-5 -4.83136,0.33946 -5.93201,1.01834 -1.10065,0.6789 -1.65098,1.83701 -1.65097,3.47433 -10e-6,1.30453 0.40954,2.34283 1.22864,3.1149 0.83187,0.75877 1.95812,1.13815 3.37874,1.13815 1.95811,0 3.52591,-0.71883 4.70336,-2.15648 1.19023,-1.45096 1.78535,-3.37449 1.78536,-5.77058 l 0,-0.81866 -3.51312,0 m 7.04545,-1.51752 0,12.75915 -3.53233,0 0,-3.39445 c -0.8063,1.35779 -1.81097,2.36281 -3.01399,3.01508 -1.20306,0.63895 -2.67485,0.95843 -4.41541,0.95843 -2.2013,0 -3.95467,-0.63896 -5.26009,-1.91687 -1.29262,-1.29122 -1.93894,-3.01506 -1.93894,-5.17155 0,-2.51588 0.80629,-4.41278 2.41887,-5.6907 1.62538,-1.2779 4.04425,-1.91686 7.25663,-1.91687 l 4.95293,0 0,-0.35941 c -1e-5,-1.69055 -0.53754,-2.99509 -1.61258,-3.91361 -1.06227,-0.93179 -2.55967,-1.39769 -4.49219,-1.39772 -1.22865,3e-5 -2.42529,0.1531 -3.58992,0.45926 -1.16465,0.30619 -2.2845,0.76543 -3.35955,1.37775 l 0,-3.39446 c 1.29263,-0.51912 2.54685,-0.90517 3.76269,-1.1581 1.21583,-0.26622 2.39967,-0.39934 3.55152,-0.39936 3.10997,2e-5 5.43286,0.83865 6.96866,2.5159 1.53577,1.67728 2.30367,4.21979 2.3037,7.62753" />
    <path
       inkscape:connector-curvature="0"
       id="path3220"
       d="m 352.78918,277.80969 c -0.66708,-0.62151 -0.7412,-1.13944 -0.7412,-4.86852 l 0,-4.17794 -1.51946,-1.58831 c -6.41138,-6.69853 -4.2619,-17.26425 4.29896,-21.12798 3.26128,-1.46401 7.9679,-1.69535 11.30329,-0.55937 0.77826,0.26933 2.2236,-1.95776 2.2236,-3.43213 0,-1.17396 0,-1.18432 -1.6677,-1.18432 l -1.6677,0 0,-1.55379 0,-1.55378 1.6677,0 1.6677,0 0,-1.72642 0,-1.72643 1.853,0 1.853,0 0,1.72643 0,1.72642 1.6677,0 1.6677,0 0,1.55378 0,1.55379 -1.6677,0 c -1.6677,0 -1.6677,0 -1.6677,1.18432 0,1.47782 1.44534,3.70146 2.2236,3.42868 1.92712,-0.6733 5.26252,-0.92191 7.412,-0.549 11.26623,1.95086 15.82461,14.26372 8.19025,22.2398 l -1.51945,1.58831 0,4.10889 c 0,3.00397 -0.14824,4.28153 -0.51884,4.79945 -0.51884,0.62152 -1.18592,0.65605 -17.4182,0.75963 -16.52875,0.10359 -16.89935,0.0691 -17.64055,-0.62151 z m 32.16807,-4.93757 c 0.11118,-2.14077 0.0371,-2.34794 -0.5559,-2.1753 -2.29772,0.65604 -4.48426,0.89774 -8.19026,0.89774 l -4.15072,0 0,-8.07966 0,-8.1142 1.18592,-0.62151 c 1.81594,-0.89774 5.96666,-0.82868 7.93084,0.13811 4.22484,2.07171 6.00372,6.1806 4.74368,10.80742 -0.22236,0.82868 -0.1853,0.79415 1.1118,-0.34529 4.33601,-3.79813 4.41013,-10.53118 0.11118,-14.39837 -2.52008,-2.27888 -4.41014,-3.03851 -7.67142,-3.03851 -2.33478,0 -3.11304,0.17264 -5.0031,1.03585 l -2.2236,1.03586 -0.11118,2.34794 -0.11118,2.3134 -1.81594,0 -1.81594,0 -0.11118,-2.3134 -0.11118,-2.34794 -2.2236,-1.03586 c -1.89005,-0.86321 -2.66831,-1.03585 -5.00309,-1.03585 -3.26128,0 -5.15134,0.75963 -7.67142,3.03851 -4.29896,3.86719 -4.22484,10.60024 0.0741,14.39837 1.33416,1.13944 1.37122,1.17397 1.14886,0.34529 -1.26004,-4.62682 0.51884,-8.70118 4.74368,-10.80742 1.96418,-0.96679 6.11489,-1.03585 7.89377,-0.13811 l 1.22298,0.62151 0,8.1142 0,8.07966 -4.18777,0 c -3.63188,0 -5.85548,-0.2417 -8.1532,-0.89774 -0.5559,-0.17264 -0.63002,0.0691 -0.63002,2.03718 0,1.2085 0.11118,2.31341 0.25942,2.417 0.11118,0.13811 6.74492,0.20717 14.71281,0.17264 l 14.49046,-0.10359 0.11118,-2.34793 z"
       style="fill:#000000;fill-opacity:1" />
    <g
       transform="translate(174.55025,105.11199)"
       style="fill:#000000"
       id="flowRoot4512">
      <path
         d="m 260.19531,0.28145973 c 3.34373,3.497e-5 5.80466,1.77347067 7.38281,5.32031247 0.2031,0.8125289 0.3281,1.656278 0.375,2.53125 -2e-5,1.8281503 -0.93752,3.9922108 -2.8125,6.4921878 l -1.40625,1.40625 0.0703,0 c 1.15622,-0.437481 2.39059,-0.65623 3.70312,-0.65625 l 0.44531,0 c 3.71872,2e-5 6.32809,1.578143 7.82813,4.734375 0.35934,1.031264 0.53902,2.015638 0.53906,2.953125 -4e-5,3.203134 -1.63285,5.617194 -4.89844,7.242187 -0.62503,0.187505 -1.49221,0.32813 -2.60156,0.421875 -3.78127,5e-6 -6.46096,-2.140618 -8.03906,-6.421875 l -0.0703,0 0,0.210938 c -2e-5,5.35938 0.6406,8.890627 1.92187,10.59375 l 0,0.140625 -4.875,0 -0.14062,-0.140625 c 1.3281,-1.999998 1.99216,-5.601557 1.99218,-10.804688 l 0,-0.07031 -0.0703,0 c -1.56252,4.328131 -4.25783,6.492192 -8.08594,6.492187 -2.98438,5e-6 -5.27344,-1.570306 -6.86718,-4.710937 -0.39063,-1.06249 -0.58595,-2.046864 -0.58594,-2.953125 -1e-5,-3.640609 1.92187,-6.109357 5.76562,-7.40625 1.03124,-0.18748 1.9453,-0.28123 2.74219,-0.28125 l 0.21094,0 c 1.34373,2e-5 2.62498,0.218769 3.84375,0.65625 l 0.0703,0 0,-0.07031 c -1.31251,-1.109354 -2.19533,-2.203103 -2.64844,-3.28125 -0.93751,-1.718725 -1.40626,-3.2109115 -1.40625,-4.4765623 l 0,-0.328125 c -1e-5,-3.1405945 1.67968,-5.5234046 5.03907,-7.14843747 1.10935,-0.29684018 1.96873,-0.44527753 2.57812,-0.4453125"
         id="path3186"
         inkscape:connector-curvature="0" />
    </g>
    <g
       transform="matrix(0.98718411,0,0,0.87744159,189.51876,102.55143)"
       style="fill:#000000"
       id="flowRoot4520">
      <path
         d="m 378.40625,5.8439597 c 1.46873,2.6094074 3.8906,6.0703413 7.26562,10.3828123 3.7031,4.34377 5.60153,6.960955 5.69532,7.851563 0.60934,1.32814 0.91402,2.617201 0.91406,3.867187 l 0,0.9375 c -4e-5,2.609385 -1.26566,4.66407 -3.79688,6.164063 -0.82815,0.343755 -1.74221,0.51563 -2.74218,0.515625 -2.40628,5e-6 -4.35159,-1.726556 -5.83594,-5.179688 l -0.98438,0 0,0.28125 c -2e-5,4.421881 0.64842,7.80469 1.94532,10.148438 l -5.03907,0 0,-0.140625 c 1.32811,-2.359373 1.99217,-5.765619 1.99219,-10.21875 l -0.0703,-0.07031 -0.89063,0 -1.10156,2.0625 c -1.32814,2.078132 -2.98439,3.117193 -4.96875,3.117188 -2.92188,5e-6 -4.97657,-1.632806 -6.16406,-4.898438 l -0.21094,-1.710937 0,-1.078125 c -10e-6,-2.859359 1.46093,-5.874981 4.38281,-9.046875 4.92186,-6.031222 8.07811,-10.3359054 9.46875,-12.9140628 l 0.0703,-0.070312 0.0703,0"
         id="path3183"
         inkscape:connector-curvature="0" />
    </g>
    <g
       transform="translate(120.09598,99.54949)"
       style="fill:#000000"
       id="flowRoot4520-8">
      <path
         d="m 378.35937,5.8439597 11.78907,15.3046873 c 1.07809,1.328144 1.61715,2.093768 1.61718,2.296875 L 378.35937,40.81271 c -0.18752,-0.125 -4.67189,-5.914057 -13.45312,-17.367188 -10e-6,-0.218732 0.86718,-1.406231 2.60156,-3.5625 L 378.35937,5.8439597"
         style="fill:#ff0000"
         id="path3180"
         inkscape:connector-curvature="0" />
    </g>
    <g
       transform="matrix(0.74137653,0,0,0.81616239,178.52992,107.5923)"
       style="fill:#ff0000"
       id="flowRoot4512-1">
      <path
         d="m 251.59375,0.28145973 c 3.17186,3.497e-5 5.66404,1.83597067 7.47656,5.50781247 0.65623,1.453153 0.99998,2.5625269 1.03125,3.328125 l 0.0703,0 c 0.54686,-2.5312213 1.53904,-4.6327817 2.97657,-6.3046875 1.68747,-1.6874658 3.58591,-2.531215 5.69531,-2.53124997 3.26559,3.497e-5 5.88278,1.75003327 7.85156,5.24999997 0.49996,1.2969035 0.74996,2.5156522 0.75,3.65625 -4e-5,3.9062723 -1.62503,7.6328313 -4.875,11.1796873 l -12.39844,14.882813 -0.14062,0 -13.17188,-16.148438 c -2.625,-3.203105 -3.9375,-6.50779 -3.9375,-9.9140623 0,-3.2968456 1.55469,-5.9140305 4.66407,-7.8515625 1.31249,-0.70309035 2.64842,-1.0546525 4.00781,-1.05468747"
         style="fill:#ff0000"
         id="path3176"
         inkscape:connector-curvature="0" />
    </g>
    <flowRoot
       xml:space="preserve"
       id="flowRoot3100"
       style="fill:#000000;stroke-width:1px;stroke-linecap:butt;stroke-linejoin:miter"><flowRegion
         id="flowRegion3102"><rect
           id="rect3104"
           width="39.901024"
           height="46.467018"
           x="-81.317276"
           y="156.86037" /></flowRegion><flowPara
         id="flowPara3106" /></flowRoot>    <g
       transform="matrix(1.2920272,0,0,1.1145276,-102.96208,-59.036049)"
       style="fill:#000000"
       id="text2987-7-2-6-4">
      <path
         d="m 270.35609,350.63928 c 1.88801,0.40366 3.35936,1.24351 4.41407,2.51953 1.06768,1.27606 1.60154,2.85158 1.60156,4.72657 -2e-5,2.87761 -0.98961,5.10417 -2.96875,6.67968 -1.97918,1.57552 -4.79168,2.36328 -8.4375,2.36328 -1.22397,0 -2.48699,-0.12369 -3.78906,-0.37109 -1.28907,-0.23437 -2.62371,-0.59245 -4.00391,-1.07422 l 0,-3.80859 c 1.09375,0.63802 2.29166,1.11979 3.59375,1.44531 1.30208,0.32552 2.66275,0.48828 4.08203,0.48828 2.47395,0 4.35546,-0.48828 5.64453,-1.46484 1.30207,-0.97656 1.95311,-2.39583 1.95313,-4.25781 -2e-5,-1.71874 -0.60549,-3.05989 -1.81641,-4.02344 -1.19793,-0.97655 -2.87111,-1.46483 -5.01953,-1.46485 l -3.39844,0 0,-3.24218 3.55469,0 c 1.94009,1e-5 3.42446,-0.3841 4.45313,-1.15235 1.02862,-0.78123 1.54295,-1.90102 1.54296,-3.35937 -10e-6,-1.49737 -0.53387,-2.64321 -1.60156,-3.4375 -1.0547,-0.80727 -2.57163,-1.21091 -4.55078,-1.21094 -1.08074,3e-5 -2.23959,0.11721 -3.47656,0.35156 -1.23699,0.2344 -2.59766,0.59899 -4.08203,1.09375 l 0,-3.51562 c 1.49739,-0.41664 2.89713,-0.72914 4.19922,-0.9375 1.31509,-0.20831 2.55207,-0.31247 3.71093,-0.3125 2.99478,3e-5 5.36457,0.68362 7.10938,2.05078 1.74477,1.35419 2.61716,3.19013 2.61719,5.50781 -3e-5,1.61461 -0.46227,2.98179 -1.38672,4.10156 -0.9245,1.10679 -2.2396,1.87502 -3.94532,2.30469"
         style="fill:#000000"
         id="path3271"
         inkscape:connector-curvature="0" />
    </g>
    <g
       transform="matrix(1.2920272,0,0,1.1145276,73.03792,-59.036049)"
       style="fill:#000000"
       id="text2987-7-2-6-4-2-3">
      <path
         d="m 378.2179,352.51431 c -1.87502,2e-5 -3.35288,0.50132 -4.4336,1.50391 -1.06771,1.00261 -1.60157,2.38282 -1.60156,4.14062 -1e-5,1.75782 0.53385,3.13803 1.60156,4.14063 1.08072,1.00261 2.55858,1.50391 4.4336,1.50391 1.87498,0 3.35284,-0.5013 4.43359,-1.50391 1.08071,-1.01562 1.62107,-2.39583 1.62109,-4.14063 -2e-5,-1.7578 -0.54038,-3.13801 -1.62109,-4.14062 -1.06773,-1.00259 -2.54559,-1.50389 -4.43359,-1.50391 m -3.94532,-1.67968 c -1.69271,-0.41666 -3.01433,-1.20442 -3.96484,-2.36329 -0.9375,-1.15883 -1.40625,-2.57159 -1.40625,-4.23828 0,-2.3307 0.82682,-4.17315 2.48047,-5.52734 1.66666,-1.35414 3.9453,-2.03122 6.83594,-2.03125 2.90363,3e-5 5.18227,0.67711 6.83593,2.03125 1.65363,1.35419 2.48045,3.19664 2.48047,5.52734 -2e-5,1.66669 -0.47528,3.07945 -1.42578,4.23828 -0.93752,1.15887 -2.24611,1.94663 -3.92578,2.36329 1.90102,0.44272 3.37889,1.3086 4.43359,2.59765 1.06769,1.28908 1.60154,2.86459 1.60157,4.72656 -3e-5,2.82553 -0.86591,4.9935 -2.59766,6.50391 -1.71877,1.51042 -4.18621,2.26562 -7.40234,2.26563 -3.21616,-1e-5 -5.69012,-0.75521 -7.42188,-2.26563 -1.71875,-1.51041 -2.57813,-3.67838 -2.57812,-6.50391 -10e-6,-1.86197 0.53385,-3.43748 1.60156,-4.72656 1.0677,-1.28905 2.55207,-2.15493 4.45312,-2.59765 m -1.44531,-6.23047 c -10e-6,1.51043 0.46874,2.68882 1.40625,3.53515 0.95051,0.84637 2.27864,1.26955 3.98438,1.26953 1.69269,2e-5 3.0143,-0.42316 3.96484,-1.26953 0.96352,-0.84633 1.44529,-2.02472 1.44531,-3.53515 -2e-5,-1.5104 -0.48179,-2.68878 -1.44531,-3.53516 -0.95054,-0.84633 -2.27215,-1.2695 -3.96484,-1.26953 -1.70574,3e-5 -3.03387,0.4232 -3.98438,1.26953 -0.93751,0.84638 -1.40626,2.02476 -1.40625,3.53516"
         style="fill:#ff0000"
         id="path3264"
         inkscape:connector-curvature="0" />
    </g>
    <g
       transform="matrix(1.2920272,0,0,1.1145276,-22.96208,-65.036049)"
       style="fill:#000000"
       id="text2987-7-2-4">
      <path
         d="m 155.39473,395.58185 c -1.87501,1e-5 -3.35287,0.50131 -4.43359,1.5039 -1.06772,1.00262 -1.60157,2.38283 -1.60157,4.14063 0,1.75782 0.53385,3.13803 1.60157,4.14062 1.08072,1.00261 2.55858,1.50391 4.43359,1.50391 1.87499,0 3.35285,-0.5013 4.43359,-1.50391 1.08071,-1.01562 1.62108,-2.39582 1.6211,-4.14062 -2e-5,-1.7578 -0.54039,-3.13801 -1.6211,-4.14063 -1.06772,-1.00259 -2.54558,-1.50389 -4.43359,-1.5039 m -3.94531,-1.67969 c -1.69272,-0.41665 -3.01433,-1.20441 -3.96485,-2.36328 -0.9375,-1.15884 -1.40625,-2.57159 -1.40625,-4.23828 0,-2.33071 0.82682,-4.17315 2.48047,-5.52735 1.66666,-1.35413 3.9453,-2.03122 6.83594,-2.03125 2.90363,3e-5 5.18227,0.67712 6.83594,2.03125 1.65362,1.3542 2.48044,3.19664 2.48047,5.52735 -3e-5,1.66669 -0.47529,3.07944 -1.42579,4.23828 -0.93752,1.15887 -2.24611,1.94663 -3.92578,2.36328 1.90103,0.44272 3.37889,1.30861 4.4336,2.59766 1.06768,1.28907 1.60154,2.86459 1.60156,4.72656 -2e-5,2.82553 -0.86591,4.99349 -2.59766,6.50391 -1.71877,1.51041 -4.18621,2.26562 -7.40234,2.26562 -3.21616,0 -5.69011,-0.75521 -7.42188,-2.26562 -1.71875,-1.51042 -2.57812,-3.67838 -2.57812,-6.50391 0,-1.86197 0.53385,-3.43749 1.60156,-4.72656 1.06771,-1.28905 2.55208,-2.15494 4.45313,-2.59766 m -1.44532,-6.23047 c 0,1.51044 0.46875,2.68882 1.40625,3.53516 0.95052,0.84637 2.27864,1.26955 3.98438,1.26953 1.69269,2e-5 3.01431,-0.42316 3.96484,-1.26953 0.96353,-0.84634 1.4453,-2.02472 1.44532,-3.53516 -2e-5,-1.51039 -0.48179,-2.68878 -1.44532,-3.53515 -0.95053,-0.84633 -2.27215,-1.26951 -3.96484,-1.26954 -1.70574,3e-5 -3.03386,0.42321 -3.98438,1.26954 -0.9375,0.84637 -1.40625,2.02476 -1.40625,3.53515"
         style="fill:#ff0000"
         id="path3255"
         inkscape:connector-curvature="0" />
    </g>
    <g
       transform="matrix(1.2920272,0,0,1.1145276,-132.96208,-51.036049)"
       style="fill:#000000"
       id="text2987-7-1-4-3">
      <path
         d="m 484.70694,319.92187 13.76953,0 0,3.32032 -18.51562,0 0,-3.32032 c 1.49739,-1.54947 3.53515,-3.62629 6.11328,-6.23046 2.59113,-2.61718 4.21873,-4.30338 4.88281,-5.0586 1.26301,-1.41925 2.14191,-2.61717 2.63672,-3.59375 0.50779,-0.98956 0.7617,-1.95961 0.76172,-2.91015 -2e-5,-1.54946 -0.54689,-2.81248 -1.64063,-3.78907 -1.08074,-0.97653 -2.4935,-1.46481 -4.23828,-1.46484 -1.23699,3e-5 -2.54558,0.21487 -3.92578,0.64453 -1.36719,0.42971 -2.83204,1.08076 -4.39453,1.95313 l 0,-3.98438 c 1.58854,-0.63799 3.07291,-1.11976 4.45312,-1.44531 1.3802,-0.32549 2.64322,-0.48825 3.78907,-0.48828 3.02081,3e-5 5.42967,0.75523 7.22656,2.26562 1.79685,1.51045 2.69529,3.52867 2.69531,6.05469 -2e-5,1.19794 -0.22788,2.33726 -0.68359,3.41797 -0.44273,1.06772 -1.25653,2.33074 -2.44141,3.78906 -0.32554,0.37762 -1.36069,1.47137 -3.10547,3.28125 -1.7448,1.79689 -4.20574,4.31641 -7.38281,7.55859"
         style="fill:#ff0000"
         id="path3246"
         inkscape:connector-curvature="0" />
    </g>
    <g
       transform="matrix(1.2920272,0,0,1.1145276,-31.36208,-27.036049)"
       style="fill:#000000"
       id="text2987-7-2-6-4-1">
      <path
         d="m 204.74893,117.96999 15.48828,0 0,3.32031 -11.875,0 0,7.14844 c 0.57291,-0.1953 1.14583,-0.33853 1.71875,-0.42969 0.57291,-0.10415 1.14583,-0.15623 1.71875,-0.15625 3.2552,2e-5 5.83332,0.89194 7.73438,2.67578 1.90102,1.78387 2.85154,4.19923 2.85156,7.24609 -2e-5,3.13803 -0.97658,5.57943 -2.92969,7.32422 -1.95314,1.73177 -4.70704,2.59766 -8.26172,2.59766 -1.22396,0 -2.47396,-0.10417 -3.75,-0.3125 -1.26302,-0.20833 -2.57161,-0.52083 -3.92578,-0.9375 l 0,-3.96485 c 1.17187,0.63803 2.38281,1.11329 3.63282,1.42579 1.24999,0.3125 2.5716,0.46875 3.96484,0.46875 2.25259,0 4.03644,-0.59245 5.35156,-1.77735 1.31509,-1.18489 1.97264,-2.79296 1.97266,-4.82422 -2e-5,-2.03124 -0.65757,-3.63931 -1.97266,-4.82422 -1.31512,-1.18488 -3.09897,-1.77732 -5.35156,-1.77734 -1.0547,2e-5 -2.10938,0.1172 -3.16406,0.35156 -1.04168,0.23439 -2.10938,0.59898 -3.20313,1.09375 l 0,-14.64843"
         style="fill:#ff0000"
         id="path3197"
         inkscape:connector-curvature="0" />
    </g>
    <path
       inkscape:connector-curvature="0"
       d="m 297.57979,305.13511 13.43511,0 0,-24.13052 -9.73668,0 0,4.08992 c -2e-5,8.02405 -0.98962,14.1784 -2.9688,18.46308 l -0.72963,1.57752 m -6.71755,0 c 1.52633,-0.77903 2.62495,-1.99626 3.29588,-3.6517 1.64374,-4.1094 2.46561,-10.30269 2.46562,-18.57994 l 0,-6.1933 19.04563,0 0,28.42494 3.69843,0 0,12.56191 -3.69843,0 0,-8.26748 -22.8447,0 0,8.26748 -3.69842,0 0,-12.56191 1.73599,0"
       style="fill:#000000"
       id="path3117-5" />
    <path
       inkscape:connector-curvature="0"
       d="m 422.9367,237.72548 4.60416,0 0,15.36641 13.05772,-15.36641 5.68601,0 -10.7682,12.64953 12.15197,20.06984 -5.18283,0 -9.98827,-16.50576 -4.9564,5.84275 0,10.66301 -4.60416,0 0,-32.71937"
       style="fill:#000000"
       id="path3119-0-0" />
    <path
       inkscape:connector-curvature="0"
       id="path4843"
       d="m 419.88357,266.31372 28.26043,0 c 7.6915,0 13.88357,6.19207 13.88357,13.88357 l 0,38.90293 c 0,7.6915 -6.19207,13.88357 -13.88357,13.88357 l -28.26043,0 C 412.19207,332.98379 406,326.79172 406,319.10022 l 0,-38.90293 c 0,-7.6915 6.19207,-13.88357 13.88357,-13.88357 z"
       style="fill:#ffff7f;stroke:#000000;stroke-width:4;stroke-miterlimit:4;stroke-dasharray:none;stroke-opacity:1" />
    <path
       id="path4845"
       style="fill:#ff0000"
       d="m 425.57979,305.13511 13.43511,0 0,-24.13052 -9.73668,0 0,4.08992 c -2e-5,8.02405 -0.98962,14.1784 -2.9688,18.46308 l -0.72963,1.57752 m -6.71755,0 c 1.52633,-0.77903 2.62495,-1.99626 3.29588,-3.6517 1.64374,-4.1094 2.46561,-10.30269 2.46562,-18.57994 l 0,-6.1933 19.04563,0 0,28.42494 3.69843,0 0,12.56191 -3.69843,0 0,-8.26748 -22.8447,0 0,8.26748 -3.69842,0 0,-12.56191 1.73599,0"
       inkscape:connector-curvature="0" />
  </g>
</svg>
