<?xml version="1.0" encoding="UTF-8" standalone="no"?>
<!-- Created with Inkscape (http://www.inkscape.org/) -->

<svg
   xmlns:dc="http://purl.org/dc/elements/1.1/"
   xmlns:cc="http://creativecommons.org/ns#"
   xmlns:rdf="http://www.w3.org/1999/02/22-rdf-syntax-ns#"
   xmlns:svg="http://www.w3.org/2000/svg"
   xmlns="http://www.w3.org/2000/svg"
   xmlns:sodipodi="http://sodipodi.sourceforge.net/DTD/sodipodi-0.dtd"
   xmlns:inkscape="http://www.inkscape.org/namespaces/inkscape"
   width="420"
   height="320"
   viewBox="0 0 420 320"
   id="rule"
   version="1.1"
   inkscape:version="0.91 r13725"
   sodipodi:docname="rule.svg">
  <defs
     id="defs4390" />
  <sodipodi:namedview
     id="base"
     pagecolor="#ffffff"
     bordercolor="#666666"
     borderopacity="1.0"
     inkscape:pageopacity="0.0"
     inkscape:pageshadow="2"
     inkscape:zoom="1.4"
     inkscape:cx="273.59012"
     inkscape:cy="188.39363"
     inkscape:document-units="px"
     inkscape:current-layer="layer1"
     showgrid="false"
     showguides="true"
     inkscape:guide-bbox="true"
     inkscape:window-width="1920"
     inkscape:window-height="978"
     inkscape:window-x="0"
     inkscape:window-y="1"
     inkscape:window-maximized="1"
     fit-margin-top="0"
     fit-margin-left="0"
     fit-margin-right="0"
     fit-margin-bottom="0" />
  <metadata
     id="metadata7">
    <rdf:RDF>
      <cc:Work
         rdf:about="">
        <dc:format>image/svg+xml</dc:format>
        <dc:type
           rdf:resource="http://purl.org/dc/dcmitype/StillImage" />
        <dc:title />
      </cc:Work>
    </rdf:RDF>
  </metadata>
  <g
     inkscape:label="Layer 1"
     inkscape:groupmode="layer"
     id="layer1"
     transform="translate(-149.00764,-100.03226)"
     style="opacity:1">
    <path
       style="fill:#ffff7f;stroke:#000000;stroke-width:2"
       d="m 163.89121,226.3622 28.26044,0 c 7.69149,0 13.88356,6.19207 13.88356,13.88357 l 0,38.90293 c 0,7.69149 -6.19207,13.88356 -13.88356,13.88356 l -28.26044,0 c -7.69149,0 -13.88357,-6.19207 -13.88357,-13.88356 l 0,-38.90293 c 0,-7.6915 6.19208,-13.88357 13.88357,-13.88357 z"
       id="rect2985" />
    <path
       style="fill:#ffff7f;stroke:#ff0000;stroke-width:2"
       d="m 163.89121,266.31372 28.26044,0 c 7.69149,0 13.88356,6.19207 13.88356,13.88357 l 0,38.90293 c 0,7.6915 -6.19207,13.88357 -13.88356,13.88357 l -28.26044,0 c -7.69149,0 -13.88357,-6.19207 -13.88357,-13.88357 l 0,-38.90293 c 0,-7.6915 6.19208,-13.88357 13.88357,-13.88357 z"
       id="rect2985-1" />
    <g
       transform="matrix(0.83077108,0,0,0.96658205,27.305216,0)"
       style="fill:#000000"
       id="text2987-7">
      <path
         d="m 153.60586,307.40777 6.19319,0 0,-21.37591 -4.63843,2.58526 -1.48876,-3.70743 c 4.09194,-0.54406 6.30695,-2.331 9.88065,-2.331 l 0,24.82908 3.34522,0 0.34521,3.19044 -13.63708,0 0,-3.19044"
         style="fill:#ff0000"
         id="path3292"
         inkscape:connector-curvature="0"
         sodipodi:nodetypes="ccccccccccc" />
    </g>
    <path
       style="fill:#ffff7f;stroke:#000000;stroke-width:2"
       d="m 163.89121,306.36218 28.26044,0 c 7.69149,0 13.88356,6.19207 13.88356,13.88357 l 0,38.90293 c 0,7.6915 -6.19207,13.88357 -13.88356,13.88357 l -28.26044,0 c -7.69149,0 -13.88357,-6.19207 -13.88357,-13.88357 l 0,-38.90293 c 0,-7.6915 6.19208,-13.88357 13.88357,-13.88357 z"
       id="rect2985-1-8" />
    <g
       transform="scale(1.0766893,0.92877304)"
       style="fill:#000000"
       id="text2987-7-2">
      <path
         d="m 147.07443,365.7565 0,-3.59375 c 0.98958,0.46875 1.99218,0.82683 3.00781,1.07422 1.01562,0.2474 2.01171,0.3711 2.98829,0.37109 2.60415,10e-6 4.58982,-0.87239 5.95703,-2.61718 1.38019,-1.75781 2.16795,-4.42057 2.36328,-7.98829 -0.75523,1.11981 -1.71226,1.97918 -2.8711,2.57813 -1.15886,0.59897 -2.44141,0.89845 -3.84765,0.89844 -2.91668,1e-5 -5.22787,-0.8789 -6.9336,-2.63672 -1.69271,-1.77082 -2.53906,-4.18618 -2.53906,-7.2461 0,-2.99476 0.88542,-5.39711 2.65625,-7.20703 1.77083,-1.80986 4.1276,-2.71481 7.07031,-2.71484 3.37239,3e-5 5.944,1.2956 7.71485,3.88672 1.78383,2.57815 2.67576,6.32814 2.67578,11.25 -2e-5,4.59636 -1.09377,8.26823 -3.28125,11.01562 -2.1745,2.73438 -5.10418,4.10156 -8.78906,4.10157 -0.9896,-1e-5 -1.9922,-0.0977 -3.00782,-0.29297 -1.01563,-0.19532 -2.07031,-0.48828 -3.16406,-0.87891 m 7.85156,-12.36328 c 1.77082,1e-5 3.17056,-0.60546 4.19922,-1.81641 1.04165,-1.21092 1.56249,-2.87107 1.5625,-4.98047 -1e-5,-2.09633 -0.52085,-3.74997 -1.5625,-4.96093 -1.02866,-1.22394 -2.4284,-1.83591 -4.19922,-1.83594 -1.77084,3e-5 -3.17709,0.612 -4.21875,1.83594 -1.02865,1.21096 -1.54297,2.8646 -1.54296,4.96093 -1e-5,2.1094 0.51431,3.76955 1.54296,4.98047 1.04166,1.21095 2.44791,1.81642 4.21875,1.81641"
         style="fill:#000000"
         id="path3288" />
    </g>
    <path
       style="fill:#ffff7f;stroke:#ff0000;stroke-width:2"
       d="m 223.88357,226.3622 28.26043,0 c 7.6915,0 13.88357,6.19207 13.88357,13.88357 l 0,38.90293 c 0,7.69149 -6.19207,13.88356 -13.88357,13.88356 l -28.26043,0 C 216.19207,293.03226 210,286.84019 210,279.1487 l 0,-38.90293 c 0,-7.6915 6.19207,-13.88357 13.88357,-13.88357 z"
       id="rect2985-7" />
    <g
       transform="scale(1.0766893,0.92877304)"
       style="fill:#000000"
       id="text2987-1" />
    <path
       style="fill:#ffff7f;stroke:#000000;stroke-width:2"
       d="m 223.88357,266.31372 28.26043,0 c 7.6915,0 13.88357,6.19207 13.88357,13.88357 l 0,38.90293 c 0,7.6915 -6.19207,13.88357 -13.88357,13.88357 l -28.26043,0 C 216.19207,332.98379 210,326.79172 210,319.10022 l 0,-38.90293 c 0,-7.6915 6.19207,-13.88357 13.88357,-13.88357 z"
       id="rect2985-1-6" />
    <path
       style="fill:#000000;fill-rule:nonzero;stroke:#ffff7f;stroke-width:2"
       d="m 283.88357,226.3622 28.26043,0 c 7.6915,0 13.88357,6.19207 13.88357,13.88357 l 0,38.90293 c 0,7.69149 -6.19207,13.88356 -13.88357,13.88356 l -28.26043,0 C 276.19207,293.03226 270,286.84019 270,279.1487 l 0,-38.90293 c 0,-7.6915 6.19207,-13.88357 13.88357,-13.88357 z"
       id="rect2985-7-1" />
    <path
       style="fill:#ffff7f;stroke:#ff0000;stroke-width:2"
       d="m 283.88357,266.31372 28.26043,0 c 7.6915,0 13.88357,6.19207 13.88357,13.88357 l 0,38.90293 c 0,7.6915 -6.19207,13.88357 -13.88357,13.88357 l -28.26043,0 C 276.19207,332.98379 270,326.79172 270,319.10022 l 0,-38.90293 c 0,-7.6915 6.19207,-13.88357 13.88357,-13.88357 z"
       id="rect2985-1-6-5" />
    <g
       transform="scale(1.0766893,0.92877304)"
       style="fill:#000000"
       id="text2987-7-1-4">
      <path
         d="m 269.24278,297.51953 -9.96093,15.56641 9.96093,0 0,-15.56641 m -1.03515,-3.4375 4.96093,0 0,19.00391 4.16016,0 0,3.28125 -4.16016,0 0,6.875 -3.92578,0 0,-6.875 -13.16406,0 0,-3.8086 12.12891,-18.47656"
         style="fill:#ff0000"
         id="path3275" />
    </g>
    <path
       style="fill:#ffff7f;stroke:#000000;stroke-width:2"
       d="m 283.88357,306.36218 28.26043,0 c 7.6915,0 13.88357,6.19207 13.88357,13.88357 l 0,38.90293 c 0,7.6915 -6.19207,13.88357 -13.88357,13.88357 l -28.26043,0 C 276.19207,373.03225 270,366.84018 270,359.14868 l 0,-38.90293 c 0,-7.6915 6.19207,-13.88357 13.88357,-13.88357 z"
       id="rect2985-1-8-1-3" />
    <g
       transform="scale(1.0766893,0.92877304)"
       style="fill:#000000"
       id="text2987-7-2-6-4">
      <path
         d="m 270.35609,350.63928 c 1.88801,0.40366 3.35936,1.24351 4.41407,2.51953 1.06768,1.27606 1.60154,2.85158 1.60156,4.72657 -2e-5,2.87761 -0.98961,5.10417 -2.96875,6.67968 -1.97918,1.57552 -4.79168,2.36328 -8.4375,2.36328 -1.22397,0 -2.48699,-0.12369 -3.78906,-0.37109 -1.28907,-0.23437 -2.62371,-0.59245 -4.00391,-1.07422 l 0,-3.80859 c 1.09375,0.63802 2.29166,1.11979 3.59375,1.44531 1.30208,0.32552 2.66275,0.48828 4.08203,0.48828 2.47395,0 4.35546,-0.48828 5.64453,-1.46484 1.30207,-0.97656 1.95311,-2.39583 1.95313,-4.25781 -2e-5,-1.71874 -0.60549,-3.05989 -1.81641,-4.02344 -1.19793,-0.97655 -2.87111,-1.46483 -5.01953,-1.46485 l -3.39844,0 0,-3.24218 3.55469,0 c 1.94009,1e-5 3.42446,-0.3841 4.45313,-1.15235 1.02862,-0.78123 1.54295,-1.90102 1.54296,-3.35937 -10e-6,-1.49737 -0.53387,-2.64321 -1.60156,-3.4375 -1.0547,-0.80727 -2.57163,-1.21091 -4.55078,-1.21094 -1.08074,3e-5 -2.23959,0.11721 -3.47656,0.35156 -1.23699,0.2344 -2.59766,0.59899 -4.08203,1.09375 l 0,-3.51562 c 1.49739,-0.41664 2.89713,-0.72914 4.19922,-0.9375 1.31509,-0.20831 2.55207,-0.31247 3.71093,-0.3125 2.99478,3e-5 5.36457,0.68362 7.10938,2.05078 1.74477,1.35419 2.61716,3.19013 2.61719,5.50781 -3e-5,1.61461 -0.46227,2.98179 -1.38672,4.10156 -0.9245,1.10679 -2.2396,1.87502 -3.94532,2.30469"
         style="fill:#000000"
         id="path3271" />
    </g>
    <path
       style="fill:none;stroke:#ffff7f;stroke-width:2;stroke-miterlimit:4;stroke-dasharray:2, 2;stroke-dashoffset:0"
       d="m 344.03905,226.3622 28.26044,0 c 7.69149,0 13.88357,6.19207 13.88357,13.88357 l 0,38.90293 c 0,7.69149 -6.19208,13.88356 -13.88357,13.88356 l -28.26044,0 c -7.69149,0 -13.88356,-6.19207 -13.88356,-13.88356 l 0,-38.90293 c 0,-7.6915 6.19207,-13.88357 13.88356,-13.88357 z"
       id="rect2985-7-1-7" />
    <path
       style="fill:#000000;stroke:#ffff7f;stroke-width:2"
       d="m 403.80245,226.36223 28.26044,0 c 7.69149,0 13.88356,6.19207 13.88356,13.88357 l 0,38.90293 c 0,7.69149 -6.19207,13.88357 -13.88356,13.88357 l -28.26044,0 c -7.69149,0 -13.88357,-6.19208 -13.88357,-13.88357 l 0,-38.90293 c 0,-7.6915 6.19208,-13.88357 13.88357,-13.88357 z"
       id="rect2985-7-1-7-4" />
    <path
       style="fill:#000000;stroke:#ffff7f;stroke-width:2"
       d="m 403.80245,266.31375 28.26044,0 c 7.69149,0 13.88356,6.19207 13.88356,13.88357 l 0,38.90293 c 0,7.6915 -6.19207,13.88357 -13.88356,13.88357 l -28.26044,0 c -7.69149,0 -13.88357,-6.19207 -13.88357,-13.88357 l 0,-38.90293 c 0,-7.6915 6.19208,-13.88357 13.88357,-13.88357 z"
       id="rect2985-1-6-5-3-0" />
    <path
       style="fill:#ffff7f;stroke:#ff0000;stroke-width:2"
       d="m 403.80245,306.36218 28.26044,0 c 7.69149,0 13.88356,6.19207 13.88356,13.88357 l 0,38.90293 c 0,7.6915 -6.19207,13.88357 -13.88356,13.88357 l -28.26044,0 c -7.69149,0 -13.88357,-6.19207 -13.88357,-13.88357 l 0,-38.90293 c 0,-7.6915 6.19208,-13.88357 13.88357,-13.88357 z"
       id="rect2985-1-8-1-3-0-9" />
    <g
       transform="scale(1.0766893,0.92877304)"
       style="fill:#000000"
       id="text2987-7-2-6-4-2-3">
      <path
         d="m 378.2179,352.51431 c -1.87502,2e-5 -3.35288,0.50132 -4.4336,1.50391 -1.06771,1.00261 -1.60157,2.38282 -1.60156,4.14062 -1e-5,1.75782 0.53385,3.13803 1.60156,4.14063 1.08072,1.00261 2.55858,1.50391 4.4336,1.50391 1.87498,0 3.35284,-0.5013 4.43359,-1.50391 1.08071,-1.01562 1.62107,-2.39583 1.62109,-4.14063 -2e-5,-1.7578 -0.54038,-3.13801 -1.62109,-4.14062 -1.06773,-1.00259 -2.54559,-1.50389 -4.43359,-1.50391 m -3.94532,-1.67968 c -1.69271,-0.41666 -3.01433,-1.20442 -3.96484,-2.36329 -0.9375,-1.15883 -1.40625,-2.57159 -1.40625,-4.23828 0,-2.3307 0.82682,-4.17315 2.48047,-5.52734 1.66666,-1.35414 3.9453,-2.03122 6.83594,-2.03125 2.90363,3e-5 5.18227,0.67711 6.83593,2.03125 1.65363,1.35419 2.48045,3.19664 2.48047,5.52734 -2e-5,1.66669 -0.47528,3.07945 -1.42578,4.23828 -0.93752,1.15887 -2.24611,1.94663 -3.92578,2.36329 1.90102,0.44272 3.37889,1.3086 4.43359,2.59765 1.06769,1.28908 1.60154,2.86459 1.60157,4.72656 -3e-5,2.82553 -0.86591,4.9935 -2.59766,6.50391 -1.71877,1.51042 -4.18621,2.26562 -7.40234,2.26563 -3.21616,-1e-5 -5.69012,-0.75521 -7.42188,-2.26563 -1.71875,-1.51041 -2.57813,-3.67838 -2.57812,-6.50391 -10e-6,-1.86197 0.53385,-3.43748 1.60156,-4.72656 1.0677,-1.28905 2.55207,-2.15493 4.45312,-2.59765 m -1.44531,-6.23047 c -10e-6,1.51043 0.46874,2.68882 1.40625,3.53515 0.95051,0.84637 2.27864,1.26955 3.98438,1.26953 1.69269,2e-5 3.0143,-0.42316 3.96484,-1.26953 0.96352,-0.84633 1.44529,-2.02472 1.44531,-3.53515 -2e-5,-1.5104 -0.48179,-2.68878 -1.44531,-3.53516 -0.95054,-0.84633 -2.27215,-1.2695 -3.96484,-1.26953 -1.70574,3e-5 -3.03387,0.4232 -3.98438,1.26953 -0.93751,0.84638 -1.40626,2.02476 -1.40625,3.53516"
         style="fill:#ff0000"
         id="path3264" />
    </g>
    <path
       style="fill:#ffff7f;stroke:#000000;stroke-width:2"
       d="m 463.90652,226.3622 28.26043,0 c 7.6915,0 13.88357,6.19207 13.88357,13.88357 l 0,38.90293 c 0,7.69149 -6.19207,13.88356 -13.88357,13.88356 l -28.26043,0 c -7.6915,0 -13.88357,-6.19207 -13.88357,-13.88356 l 0,-38.90293 c 0,-7.6915 6.19207,-13.88357 13.88357,-13.88357 z"
       id="rect2985-7-1-7-4-6" />
    <path
       style="fill:#000000;stroke:#ffff7f;stroke-width:2"
       d="m 523.97167,226.41068 28.26044,0 c 7.69149,0 13.88356,6.19207 13.88356,13.88356 l 0,38.90293 c 0,7.6915 -6.19207,13.88357 -13.88356,13.88357 l -28.26044,0 c -7.69149,0 -13.88357,-6.19207 -13.88357,-13.88357 l 0,-38.90293 c 0,-7.69149 6.19208,-13.88356 13.88357,-13.88356 z"
       id="rect2985-7-1-7-4-6-4" />
    <path
       style="fill:#ffff7f;stroke:#ff0000;stroke-width:2"
       d="m 523.97167,266.36218 28.26044,0 c 7.69149,0 13.88356,6.19207 13.88356,13.88357 l 0,38.90293 c 0,7.6915 -6.19207,13.88357 -13.88356,13.88357 l -28.26044,0 c -7.69149,0 -13.88357,-6.19207 -13.88357,-13.88357 l 0,-38.90293 c 0,-7.6915 6.19208,-13.88357 13.88357,-13.88357 z"
       id="rect2985-1-6-5-3-0-6-1" />
    <path
       style="fill:#000000;stroke:#ffff7f;stroke-width:4;stroke-miterlimit:4;stroke-dasharray:8, 2;stroke-dashoffset:0"
       d="m 163.89121,102.31372 28.26044,0 c 7.69149,0 13.88356,6.19207 13.88356,13.88357 l 0,38.90293 c 0,7.6915 -6.19207,13.88357 -13.88356,13.88357 l -28.26044,0 c -7.69149,0 -13.88357,-6.19207 -13.88357,-13.88357 l 0,-38.90293 c 0,-7.6915 6.19208,-13.88357 13.88357,-13.88357 z"
       id="rect2985-7-1-7-7" />
    <path
       style="fill:#ffff7f;stroke:#ff0000;stroke-width:2;stroke-miterlimit:4;stroke-dashoffset:0"
       d="m 223.88357,102.31372 28.26043,0 c 7.6915,0 13.88357,6.19207 13.88357,13.88357 l 0,38.90293 c 0,7.6915 -6.19207,13.88357 -13.88357,13.88357 l -28.26043,0 C 216.19207,168.98379 210,162.79172 210,155.10022 l 0,-38.90293 c 0,-7.6915 6.19207,-13.88357 13.88357,-13.88357 z"
       id="rect2985-7-1-7-7-6" />
    <path
       style="fill:#ffff7f;stroke:#000000;stroke-width:2;stroke-miterlimit:4;stroke-dasharray:8, 2;stroke-dashoffset:0"
       d="m 343.95092,102.31372 28.26043,0 c 7.6915,0 13.88357,6.19207 13.88357,13.88357 l 0,38.90293 c 0,7.6915 -6.19207,13.88357 -13.88357,13.88357 l -28.26043,0 c -7.6915,0 -13.88357,-6.19207 -13.88357,-13.88357 l 0,-38.90293 c 0,-7.6915 6.19207,-13.88357 13.88357,-13.88357 z"
       id="rect2985-7-1-7-7-7" />
    <path
       style="fill:#ffff7f;stroke:#000000;stroke-width:2;stroke-miterlimit:4;stroke-dasharray:8, 2;stroke-dashoffset:0"
       d="m 403.94329,102.31372 28.26043,0 c 7.6915,0 13.88357,6.19207 13.88357,13.88357 l 0,38.90293 c 0,7.6915 -6.19207,13.88357 -13.88357,13.88357 l -28.26043,0 c -7.6915,0 -13.88357,-6.19207 -13.88357,-13.88357 l 0,-38.90293 c 0,-7.6915 6.19207,-13.88357 13.88357,-13.88357 z"
       id="rect2985-7-1-7-7-6-8" />
    <path
       style="fill:#ffff7f;stroke:#000000;stroke-width:2;stroke-miterlimit:4;stroke-dasharray:8, 2;stroke-dashoffset:0"
       d="m 463.90652,102.31372 28.26043,0 c 7.6915,0 13.88357,6.19207 13.88357,13.88357 l 0,38.90293 c 0,7.6915 -6.19207,13.88357 -13.88357,13.88357 l -28.26043,0 c -7.6915,0 -13.88357,-6.19207 -13.88357,-13.88357 l 0,-38.90293 c 0,-7.6915 6.19207,-13.88357 13.88357,-13.88357 z"
       id="rect2985-7-1-7-7-7-3" />
    <path
       style="fill:#ffff7f;stroke:#000000;stroke-width:2;stroke-miterlimit:4;stroke-dasharray:8, 2;stroke-dashoffset:0"
       d="m 523.89889,102.31372 28.26043,0 c 7.6915,0 13.88357,6.19207 13.88357,13.88357 l 0,38.90293 c 0,7.6915 -6.19207,13.88357 -13.88357,13.88357 l -28.26043,0 c -7.6915,0 -13.88357,-6.19207 -13.88357,-13.88357 l 0,-38.90293 c 0,-7.6915 6.19207,-13.88357 13.88357,-13.88357 z"
       id="rect2985-7-1-7-7-6-8-6" />
    <path
       style="fill:#ffff7f;stroke:#ff0000;stroke-width:2"
       d="m 163.89121,346.36218 28.26044,0 c 7.69149,0 13.88356,6.19207 13.88356,13.88357 l 0,38.90293 c 0,7.6915 -6.19207,13.88357 -13.88356,13.88357 l -28.26044,0 c -7.69149,0 -13.88357,-6.19207 -13.88357,-13.88357 l 0,-38.90293 c 0,-7.6915 6.19208,-13.88357 13.88357,-13.88357 z"
       id="rect2985-1-8-4" />
    <g
       transform="scale(1.0766893,0.92877304)"
       style="fill:#000000"
       id="text2987-7-2-4">
      <path
         d="m 155.39473,395.58185 c -1.87501,1e-5 -3.35287,0.50131 -4.43359,1.5039 -1.06772,1.00262 -1.60157,2.38283 -1.60157,4.14063 0,1.75782 0.53385,3.13803 1.60157,4.14062 1.08072,1.00261 2.55858,1.50391 4.43359,1.50391 1.87499,0 3.35285,-0.5013 4.43359,-1.50391 1.08071,-1.01562 1.62108,-2.39582 1.6211,-4.14062 -2e-5,-1.7578 -0.54039,-3.13801 -1.6211,-4.14063 -1.06772,-1.00259 -2.54558,-1.50389 -4.43359,-1.5039 m -3.94531,-1.67969 c -1.69272,-0.41665 -3.01433,-1.20441 -3.96485,-2.36328 -0.9375,-1.15884 -1.40625,-2.57159 -1.40625,-4.23828 0,-2.33071 0.82682,-4.17315 2.48047,-5.52735 1.66666,-1.35413 3.9453,-2.03122 6.83594,-2.03125 2.90363,3e-5 5.18227,0.67712 6.83594,2.03125 1.65362,1.3542 2.48044,3.19664 2.48047,5.52735 -3e-5,1.66669 -0.47529,3.07944 -1.42579,4.23828 -0.93752,1.15887 -2.24611,1.94663 -3.92578,2.36328 1.90103,0.44272 3.37889,1.30861 4.4336,2.59766 1.06768,1.28907 1.60154,2.86459 1.60156,4.72656 -2e-5,2.82553 -0.86591,4.99349 -2.59766,6.50391 -1.71877,1.51041 -4.18621,2.26562 -7.40234,2.26562 -3.21616,0 -5.69011,-0.75521 -7.42188,-2.26562 -1.71875,-1.51042 -2.57812,-3.67838 -2.57812,-6.50391 0,-1.86197 0.53385,-3.43749 1.60156,-4.72656 1.06771,-1.28905 2.55208,-2.15494 4.45313,-2.59766 m -1.44532,-6.23047 c 0,1.51044 0.46875,2.68882 1.40625,3.53516 0.95052,0.84637 2.27864,1.26955 3.98438,1.26953 1.69269,2e-5 3.01431,-0.42316 3.96484,-1.26953 0.96353,-0.84634 1.4453,-2.02472 1.44532,-3.53516 -2e-5,-1.51039 -0.48179,-2.68878 -1.44532,-3.53515 -0.95053,-0.84633 -2.27215,-1.26951 -3.96484,-1.26954 -1.70574,3e-5 -3.03386,0.42321 -3.98438,1.26954 -0.9375,0.84637 -1.40625,2.02476 -1.40625,3.53515"
         style="fill:#ff0000"
         id="path3255" />
    </g>
    <g
       transform="scale(1.0766893,0.92877304)"
       style="fill:#000000"
       id="text2987-7-1-4-3">
      <path
         d="m 484.70694,319.92187 13.76953,0 0,3.32032 -18.51562,0 0,-3.32032 c 1.49739,-1.54947 3.53515,-3.62629 6.11328,-6.23046 2.59113,-2.61718 4.21873,-4.30338 4.88281,-5.0586 1.26301,-1.41925 2.14191,-2.61717 2.63672,-3.59375 0.50779,-0.98956 0.7617,-1.95961 0.76172,-2.91015 -2e-5,-1.54946 -0.54689,-2.81248 -1.64063,-3.78907 -1.08074,-0.97653 -2.4935,-1.46481 -4.23828,-1.46484 -1.23699,3e-5 -2.54558,0.21487 -3.92578,0.64453 -1.36719,0.42971 -2.83204,1.08076 -4.39453,1.95313 l 0,-3.98438 c 1.58854,-0.63799 3.07291,-1.11976 4.45312,-1.44531 1.3802,-0.32549 2.64322,-0.48825 3.78907,-0.48828 3.02081,3e-5 5.42967,0.75523 7.22656,2.26562 1.79685,1.51045 2.69529,3.52867 2.69531,6.05469 -2e-5,1.19794 -0.22788,2.33726 -0.68359,3.41797 -0.44273,1.06772 -1.25653,2.33074 -2.44141,3.78906 -0.32554,0.37762 -1.36069,1.47137 -3.10547,3.28125 -1.7448,1.79689 -4.20574,4.31641 -7.38281,7.55859"
         style="fill:#ff0000"
         id="path3246" />
    </g>
    <flowRoot
       xml:space="preserve"
       id="flowRoot3948"
       style="fill:black;stroke-width:1px;stroke-linejoin:miter;stroke-linecap:butt"><flowRegion
         id="flowRegion3950"><rect
           id="rect3952"
           width="123.74368"
           height="25.75889"
           x="3.0304575"
           y="72.007553" /></flowRegion><flowPara
         id="flowPara3954" /></flowRoot>    <g
       style="fill:#000000"
       id="text3956">
      <path
         d="m 154.98529,178.95891 3.2168,0 0,9.24609 9.12304,-9.24609 3.97266,0 -7.52344,7.61133 8.49024,12.07617 -3.6211,0 -6.97851,-9.93164 -3.46289,3.51562 0,6.41602 -3.2168,0 0,-19.6875"
         style="fill:#ffff00"
         id="path3233" />
      <path
         d="m 184.46381,181.22649 c -1.73439,10e-6 -3.10548,0.6797 -4.11329,2.03906 -1.00781,1.34767 -1.51172,3.19923 -1.51171,5.55469 -1e-5,2.35547 0.49804,4.21289 1.49414,5.57226 1.0078,1.34766 2.38475,2.02149 4.13086,2.02149 1.72264,0 3.08787,-0.67969 4.0957,-2.03907 1.0078,-1.35937 1.5117,-3.21093 1.51172,-5.55468 -2e-5,-2.33202 -0.50392,-4.17772 -1.51172,-5.53711 -1.00783,-1.37108 -2.37306,-2.05663 -4.0957,-2.05664 m 0,-2.74219 c 2.81248,2e-5 5.02146,0.91408 6.62695,2.74219 1.60545,1.82814 2.40818,4.35938 2.4082,7.59375 -2e-5,3.22266 -0.80275,5.75391 -2.4082,7.59375 -1.60549,1.82812 -3.81447,2.74218 -6.62695,2.74218 -2.82423,0 -5.03907,-0.91406 -6.64454,-2.74218 -1.59375,-1.83984 -2.39062,-4.37109 -2.39062,-7.59375 0,-3.23437 0.79687,-5.76561 2.39062,-7.59375 1.60547,-1.82811 3.82031,-2.74217 6.64454,-2.74219"
         style="fill:#ffff00"
         id="path3235" />
      <path
         d="m 196.78607,198.64641 0,-2.68946 c 2.13281,-0.32812 3.52734,-1.23046 4.1836,-2.70703 0.79686,-2.07421 1.1953,-5.76561 1.19531,-11.07422 l 0,-3.21679 13.30664,0 0,19.6875 -3.23438,0 0,-17.10352 -6.83789,0 0,1.95117 c -1e-5,5.06251 -0.51563,8.73048 -1.54687,11.00391 -1.10157,2.42578 -3.45704,3.80859 -7.06641,4.14844"
         style="fill:#ffff00"
         id="path3237" />
      <path
         d="m 229.46381,181.22649 c -1.73439,10e-6 -3.10548,0.6797 -4.11329,2.03906 -1.00781,1.34767 -1.51172,3.19923 -1.51171,5.55469 -1e-5,2.35547 0.49804,4.21289 1.49414,5.57226 1.0078,1.34766 2.38475,2.02149 4.13086,2.02149 1.72264,0 3.08787,-0.67969 4.0957,-2.03907 1.0078,-1.35937 1.5117,-3.21093 1.51172,-5.55468 -2e-5,-2.33202 -0.50392,-4.17772 -1.51172,-5.53711 -1.00783,-1.37108 -2.37306,-2.05663 -4.0957,-2.05664 m 0,-2.74219 c 2.81248,2e-5 5.02146,0.91408 6.62695,2.74219 1.60545,1.82814 2.40818,4.35938 2.4082,7.59375 -2e-5,3.22266 -0.80275,5.75391 -2.4082,7.59375 -1.60549,1.82812 -3.81447,2.74218 -6.62695,2.74218 -2.82423,0 -5.03907,-0.91406 -6.64454,-2.74218 -1.59375,-1.83984 -2.39062,-4.37109 -2.39062,-7.59375 0,-3.23437 0.79687,-5.76561 2.39062,-7.59375 1.60547,-1.82811 3.82031,-2.74217 6.64454,-2.74219"
         style="fill:#ffff00"
         id="path3239" />
      <path
         d="m 248.23724,196.06242 9.38672,0 0,-14.51953 -6.80273,0 0,2.46094 c -1e-5,4.82813 -0.69142,8.53126 -2.07422,11.10937 l -0.50977,0.94922 m -4.69336,0 c 1.06641,-0.46874 1.83398,-1.20116 2.30274,-2.19726 1.14843,-2.47265 1.72265,-6.19921 1.72265,-11.17969 l 0,-3.72656 13.30665,0 0,17.10351 2.58398,0 0,7.5586 -2.58398,0 0,-4.97461 -15.96094,0 0,4.97461 -2.58399,0 0,-7.5586 1.21289,0"
         style="fill:#ffff00"
         id="path3241" />
      <path
         d="m 277.6806,188.74992 c -2.61329,1e-5 -4.42383,0.29884 -5.43164,0.89649 -1.00782,0.59766 -1.51172,1.61719 -1.51172,3.05859 0,1.14844 0.375,2.06251 1.125,2.74219 0.76172,0.66797 1.79296,1.00195 3.09375,1.00195 1.79296,0 3.22851,-0.63281 4.30664,-1.89844 1.08983,-1.27733 1.63475,-2.97069 1.63477,-5.08007 l 0,-0.72071 -3.2168,0 m 6.45117,-1.33593 0,11.23242 -3.23437,0 0,-2.98828 c -0.7383,1.19531 -1.65822,2.08008 -2.75977,2.65429 -1.10157,0.5625 -2.44922,0.84375 -4.04296,0.84375 -2.01564,0 -3.6211,-0.5625 -4.81641,-1.6875 -1.1836,-1.13671 -1.77539,-2.65429 -1.77539,-4.55273 0,-2.21484 0.73828,-3.88476 2.21484,-5.00977 1.48828,-1.12498 3.70312,-1.68748 6.64453,-1.6875 l 4.53516,0 0,-0.3164 c -2e-5,-1.48827 -0.4922,-2.63671 -1.47656,-3.44532 -0.97267,-0.82029 -2.34376,-1.23045 -4.11328,-1.23046 -1.12501,10e-6 -2.22071,0.13478 -3.28711,0.40429 -1.06642,0.26955 -2.0918,0.67385 -3.07618,1.21289 l 0,-2.98828 c 1.18359,-0.45701 2.33203,-0.79685 3.44532,-1.01953 1.11327,-0.23435 2.19725,-0.35154 3.25195,-0.35156 2.84764,2e-5 4.97459,0.7383 6.38086,2.21484 1.40623,1.47658 2.10936,3.71486 2.10937,6.71485"
         style="fill:#ffff00"
         id="path3243" />
    </g>
    <g
       style="fill:#000000"
       id="text3956-5">
      <path
         d="m 415.50287,196.06242 9.38672,0 0,-14.51953 -6.80274,0 0,2.46094 c -1e-5,4.82813 -0.69141,8.53126 -2.07422,11.10937 l -0.50976,0.94922 m -4.69336,0 c 1.0664,-0.46874 1.83398,-1.20116 2.30273,-2.19726 1.14843,-2.47265 1.72265,-6.19921 1.72266,-11.17969 l 0,-3.72656 13.30664,0 0,17.10351 2.58398,0 0,7.5586 -2.58398,0 0,-4.97461 -15.96094,0 0,4.97461 -2.58398,0 0,-7.5586 1.21289,0"
         style="fill:#ffff00"
         id="path3224" />
      <path
         d="m 443.62787,181.22649 c -1.73439,10e-6 -3.10548,0.6797 -4.11328,2.03906 -1.00782,1.34767 -1.51173,3.19923 -1.51172,5.55469 -10e-6,2.35547 0.49804,4.21289 1.49414,5.57226 1.0078,1.34766 2.38476,2.02149 4.13086,2.02149 1.72264,0 3.08788,-0.67969 4.0957,-2.03907 1.0078,-1.35937 1.5117,-3.21093 1.51172,-5.55468 -2e-5,-2.33202 -0.50392,-4.17772 -1.51172,-5.53711 -1.00782,-1.37108 -2.37306,-2.05663 -4.0957,-2.05664 m 0,-2.74219 c 2.81248,2e-5 5.02147,0.91408 6.62695,2.74219 1.60545,1.82814 2.40818,4.35938 2.4082,7.59375 -2e-5,3.22266 -0.80275,5.75391 -2.4082,7.59375 -1.60548,1.82812 -3.81447,2.74218 -6.62695,2.74218 -2.82423,0 -5.03907,-0.91406 -6.64453,-2.74218 -1.59376,-1.83984 -2.39063,-4.37109 -2.39063,-7.59375 0,-3.23437 0.79687,-5.76561 2.39063,-7.59375 1.60546,-1.82811 3.8203,-2.74217 6.64453,-2.74219"
         style="fill:#ffff00"
         id="path3226" />
      <path
         d="m 457.88373,178.95891 4.72851,0 5.58985,13.18359 5.60742,-13.18359 4.69336,0 0,19.6875 -3.25195,0 0,-16.59375 -5.43165,12.81445 -3.23437,0 -5.44922,-12.81445 0,16.59375 -3.25195,0 0,-19.6875"
         style="fill:#ffff00"
         id="path3228" />
      <path
         d="m 494.09467,188.74992 c -2.6133,1e-5 -4.42384,0.29884 -5.43165,0.89649 -1.00781,0.59766 -1.51172,1.61719 -1.51171,3.05859 -1e-5,1.14844 0.37499,2.06251 1.125,2.74219 0.76171,0.66797 1.79296,1.00195 3.09375,1.00195 1.79295,0 3.2285,-0.63281 4.30664,-1.89844 1.08983,-1.27733 1.63475,-2.97069 1.63476,-5.08007 l 0,-0.72071 -3.21679,0 m 6.45117,-1.33593 0,11.23242 -3.23438,0 0,-2.98828 c -0.73829,1.19531 -1.65821,2.08008 -2.75976,2.65429 -1.10158,0.5625 -2.44923,0.84375 -4.04297,0.84375 -2.01563,0 -3.6211,-0.5625 -4.81641,-1.6875 -1.18359,-1.13671 -1.77539,-2.65429 -1.77539,-4.55273 0,-2.21484 0.73828,-3.88476 2.21484,-5.00977 1.48828,-1.12498 3.70312,-1.68748 6.64454,-1.6875 l 4.53515,0 0,-0.3164 c -1e-5,-1.48827 -0.4922,-2.63671 -1.47656,-3.44532 -0.97267,-0.82029 -2.34376,-1.23045 -4.11328,-1.23046 -1.12501,10e-6 -2.22071,0.13478 -3.28711,0.40429 -1.06641,0.26955 -2.0918,0.67385 -3.07617,1.21289 l 0,-2.98828 c 1.18359,-0.45701 2.33202,-0.79685 3.44531,-1.01953 1.11327,-0.23435 2.19726,-0.35154 3.25195,-0.35156 2.84765,2e-5 4.9746,0.7383 6.38086,2.21484 1.40623,1.47658 2.10936,3.71486 2.10938,6.71485"
         style="fill:#ffff00"
         id="path3230" />
    </g>
    <g
       style="fill:#000000"
       id="text3956-5-3">
      <path
         d="m 325.27631,385.71478 0,3.02344 c -0.91408,-0.50389 -1.834,-0.87889 -2.75977,-1.125 -0.91408,-0.25779 -1.83986,-0.3867 -2.77734,-0.38672 -2.09767,2e-5 -3.72657,0.66799 -4.88672,2.00391 -1.16016,1.32423 -1.74024,3.18751 -1.74024,5.58984 0,2.40235 0.58008,4.27149 1.74024,5.60742 1.16015,1.32422 2.78905,1.98633 4.88672,1.98633 0.93748,0 1.86326,-0.12304 2.77734,-0.36914 0.92577,-0.25781 1.84569,-0.63867 2.75977,-1.14258 l 0,2.98828 c -0.90236,0.42188 -1.83986,0.73829 -2.8125,0.94922 -0.96096,0.21094 -1.98634,0.31641 -3.07618,0.31641 -2.96485,0 -5.32031,-0.93164 -7.0664,-2.79492 -1.7461,-1.86328 -2.61914,-4.37695 -2.61914,-7.54102 0,-3.21092 0.8789,-5.73631 2.63672,-7.57617 1.76952,-1.83982 4.18944,-2.75975 7.25976,-2.75977 0.99608,2e-5 1.96874,0.10549 2.91797,0.31641 0.9492,0.19924 1.86912,0.50393 2.75977,0.91406"
         style="fill:#ffff00"
         id="path3200" />
      <path
         d="m 328.59857,384.95892 18.86133,0 0,2.58399 -7.83984,0 0,17.10351 -3.18164,0 0,-17.10351 -7.83985,0 0,-2.58399"
         style="fill:#ffff00"
         id="path3202" />
      <path
         d="m 359.51849,387.2265 c -1.73438,2e-5 -3.10547,0.67971 -4.11328,2.03906 -1.00782,1.34767 -1.51172,3.19923 -1.51172,5.55469 0,2.35548 0.49804,4.2129 1.49414,5.57227 1.00781,1.34766 2.38476,2.02148 4.13086,2.02148 1.72265,0 3.08788,-0.67968 4.09571,-2.03906 1.00779,-1.35937 1.5117,-3.21093 1.51172,-5.55469 -2e-5,-2.33202 -0.50393,-4.17772 -1.51172,-5.53711 -1.00783,-1.37107 -2.37306,-2.05662 -4.09571,-2.05664 m 0,-2.74219 c 2.81249,2e-5 5.02147,0.91409 6.62696,2.74219 1.60545,1.82814 2.40818,4.35939 2.4082,7.59375 -2e-5,3.22266 -0.80275,5.75391 -2.4082,7.59375 -1.60549,1.82813 -3.81447,2.74219 -6.62696,2.74219 -2.82422,0 -5.03906,-0.91406 -6.64453,-2.74219 -1.59375,-1.83984 -2.39062,-4.37109 -2.39062,-7.59375 0,-3.23436 0.79687,-5.76561 2.39062,-7.59375 1.60547,-1.8281 3.82031,-2.74217 6.64453,-2.74219"
         style="fill:#ffff00"
         id="path3204" />
      <path
         d="m 390.7724,384.95892 0,19.6875 -3.25195,0 0,-17.10351 -10.49414,0 0,17.10351 -3.25196,0 0,-19.6875 16.99805,0"
         style="fill:#ffff00"
         id="path3206" />
      <path
         d="m 397.32904,384.95892 3.2168,0 0,9.2461 9.12304,-9.2461 3.97266,0 -7.52344,7.61133 8.49024,12.07617 -3.6211,0 -6.97851,-9.93164 -3.46289,3.51563 0,6.41601 -3.2168,0 0,-19.6875"
         style="fill:#ffff00"
         id="path3208" />
      <path
         d="m 435.91302,384.95892 0,19.6875 -3.21679,0 0,-15.80273 -9.49219,15.80273 -4.14844,0 0,-19.6875 3.2168,0 0,15.76758 9.47461,-15.76758 4.16601,0"
         style="fill:#ffff00"
         id="path3210" />
      <path
         d="m 468.22162,385.71478 0,3.02344 c -0.91408,-0.50389 -1.834,-0.87889 -2.75977,-1.125 -0.91407,-0.25779 -1.83985,-0.3867 -2.77734,-0.38672 -2.09767,2e-5 -3.72657,0.66799 -4.88672,2.00391 -1.16016,1.32423 -1.74024,3.18751 -1.74023,5.58984 -1e-5,2.40235 0.58007,4.27149 1.74023,5.60742 1.16015,1.32422 2.78905,1.98633 4.88672,1.98633 0.93749,0 1.86327,-0.12304 2.77734,-0.36914 0.92577,-0.25781 1.84569,-0.63867 2.75977,-1.14258 l 0,2.98828 c -0.90236,0.42188 -1.83986,0.73829 -2.8125,0.94922 -0.96095,0.21094 -1.98634,0.31641 -3.07617,0.31641 -2.96486,0 -5.32032,-0.93164 -7.06641,-2.79492 -1.7461,-1.86328 -2.61914,-4.37695 -2.61914,-7.54102 0,-3.21092 0.8789,-5.73631 2.63672,-7.57617 1.76952,-1.83982 4.18944,-2.75975 7.25976,-2.75977 0.99609,2e-5 1.96874,0.10549 2.91797,0.31641 0.94921,0.19924 1.86913,0.50393 2.75977,0.91406"
         style="fill:#ffff00"
         id="path3212" />
      <path
         d="m 471.54388,384.95892 18.86133,0 0,2.58399 -7.83984,0 0,17.10351 -3.18164,0 0,-17.10351 -7.83985,0 0,-2.58399"
         style="fill:#ffff00"
         id="path3214" />
      <path
         d="m 502.46381,387.2265 c -1.73439,2e-5 -3.10548,0.67971 -4.11329,2.03906 -1.00781,1.34767 -1.51172,3.19923 -1.51171,5.55469 -1e-5,2.35548 0.49804,4.2129 1.49414,5.57227 1.0078,1.34766 2.38475,2.02148 4.13086,2.02148 1.72264,0 3.08787,-0.67968 4.0957,-2.03906 1.0078,-1.35937 1.5117,-3.21093 1.51172,-5.55469 -2e-5,-2.33202 -0.50392,-4.17772 -1.51172,-5.53711 -1.00783,-1.37107 -2.37306,-2.05662 -4.0957,-2.05664 m 0,-2.74219 c 2.81248,2e-5 5.02146,0.91409 6.62695,2.74219 1.60545,1.82814 2.40818,4.35939 2.4082,7.59375 -2e-5,3.22266 -0.80275,5.75391 -2.4082,7.59375 -1.60549,1.82813 -3.81447,2.74219 -6.62695,2.74219 -2.82423,0 -5.03907,-0.91406 -6.64454,-2.74219 -1.59375,-1.83984 -2.39062,-4.37109 -2.39062,-7.59375 0,-3.23436 0.79687,-5.76561 2.39062,-7.59375 1.60547,-1.8281 3.82031,-2.74217 6.64454,-2.74219"
         style="fill:#ffff00"
         id="path3216" />
      <path
         d="m 514.78607,404.64642 0,-2.68945 c 2.13281,-0.32812 3.52734,-1.23046 4.1836,-2.70703 0.79686,-2.07421 1.1953,-5.76561 1.19531,-11.07422 l 0,-3.2168 13.30664,0 0,19.6875 -3.23438,0 0,-17.10351 -6.83789,0 0,1.95117 c -10e-6,5.06251 -0.51563,8.73047 -1.54687,11.00391 -1.10157,2.42578 -3.45704,3.80859 -7.06641,4.14843"
         style="fill:#ffff00"
         id="path3218" />
      <path
         d="m 548.78217,394.74994 c -2.6133,1e-5 -4.42384,0.29884 -5.43165,0.89648 -1.00781,0.59767 -1.51172,1.6172 -1.51171,3.0586 -10e-6,1.14844 0.37499,2.0625 1.125,2.74218 0.76171,0.66798 1.79296,1.00196 3.09375,1.00196 1.79295,0 3.2285,-0.63281 4.30664,-1.89844 1.08983,-1.27734 1.63475,-2.9707 1.63476,-5.08008 l 0,-0.7207 -3.21679,0 m 6.45117,-1.33594 0,11.23242 -3.23438,0 0,-2.98828 c -0.73829,1.19532 -1.65821,2.08008 -2.75976,2.6543 -1.10158,0.5625 -2.44923,0.84375 -4.04297,0.84375 -2.01563,0 -3.6211,-0.5625 -4.81641,-1.6875 -1.18359,-1.13672 -1.77539,-2.65429 -1.77539,-4.55274 0,-2.21483 0.73828,-3.88475 2.21484,-5.00976 1.48828,-1.12499 3.70312,-1.68749 6.64454,-1.6875 l 4.53515,0 0,-0.31641 c -10e-6,-1.48826 -0.4922,-2.6367 -1.47656,-3.44531 -0.97267,-0.8203 -2.34376,-1.23045 -4.11328,-1.23047 -1.12501,2e-5 -2.22071,0.13478 -3.28711,0.4043 -1.06641,0.26955 -2.0918,0.67384 -3.07617,1.21289 l 0,-2.98828 c 1.18359,-0.45701 2.33202,-0.79686 3.44531,-1.01953 1.11327,-0.23436 2.19726,-0.35155 3.25195,-0.35157 2.84765,2e-5 4.9746,0.7383 6.38086,2.21485 1.40623,1.47658 2.10936,3.71486 2.10938,6.71484"
         style="fill:#ffff00"
         id="path3221" />
    </g>
    <path
       inkscape:connector-curvature="0"
       id="path3220"
       d="m 340.78918,277.80969 c -0.66708,-0.62151 -0.7412,-1.13944 -0.7412,-4.86852 l 0,-4.17794 -1.51946,-1.58831 c -6.41138,-6.69853 -4.2619,-17.26425 4.29896,-21.12798 3.26128,-1.46401 7.9679,-1.69535 11.30329,-0.55937 0.77826,0.26933 2.2236,-1.95776 2.2236,-3.43213 0,-1.17396 0,-1.18432 -1.6677,-1.18432 l -1.6677,0 0,-1.55379 0,-1.55378 1.6677,0 1.6677,0 0,-1.72642 0,-1.72643 1.853,0 1.853,0 0,1.72643 0,1.72642 1.6677,0 1.6677,0 0,1.55378 0,1.55379 -1.6677,0 c -1.6677,0 -1.6677,0 -1.6677,1.18432 0,1.47782 1.44534,3.70146 2.2236,3.42868 1.92712,-0.6733 5.26252,-0.92191 7.412,-0.549 11.26623,1.95086 15.82461,14.26372 8.19025,22.2398 l -1.51945,1.58831 0,4.10889 c 0,3.00397 -0.14824,4.28153 -0.51884,4.79945 -0.51884,0.62152 -1.18592,0.65605 -17.4182,0.75963 -16.52875,0.10359 -16.89935,0.0691 -17.64055,-0.62151 z m 32.16807,-4.93757 c 0.11118,-2.14077 0.0371,-2.34794 -0.5559,-2.1753 -2.29772,0.65604 -4.48426,0.89774 -8.19026,0.89774 l -4.15072,0 0,-8.07966 0,-8.1142 1.18592,-0.62151 c 1.81594,-0.89774 5.96666,-0.82868 7.93084,0.13811 4.22484,2.07171 6.00372,6.1806 4.74368,10.80742 -0.22236,0.82868 -0.1853,0.79415 1.1118,-0.34529 4.33601,-3.79813 4.41013,-10.53118 0.11118,-14.39837 -2.52008,-2.27888 -4.41014,-3.03851 -7.67142,-3.03851 -2.33478,0 -3.11304,0.17264 -5.0031,1.03585 l -2.2236,1.03586 -0.11118,2.34794 -0.11118,2.3134 -1.81594,0 -1.81594,0 -0.11118,-2.3134 -0.11118,-2.34794 -2.2236,-1.03586 c -1.89005,-0.86321 -2.66831,-1.03585 -5.00309,-1.03585 -3.26128,0 -5.15134,0.75963 -7.67142,3.03851 -4.29896,3.86719 -4.22484,10.60024 0.0741,14.39837 1.33416,1.13944 1.37122,1.17397 1.14886,0.34529 -1.26004,-4.62682 0.51884,-8.70118 4.74368,-10.80742 1.96418,-0.96679 6.11489,-1.03585 7.89377,-0.13811 l 1.22298,0.62151 0,8.1142 0,8.07966 -4.18777,0 c -3.63188,0 -5.85548,-0.2417 -8.1532,-0.89774 -0.5559,-0.17264 -0.63002,0.0691 -0.63002,2.03718 0,1.2085 0.11118,2.31341 0.25942,2.417 0.11118,0.13811 6.74492,0.20717 14.71281,0.17264 l 14.49046,-0.10359 0.11118,-2.34793 z"
       style="fill:#ffff7f" />
    <g
       transform="translate(158.55025,117.11199)"
       style="fill:#000000"
       id="flowRoot4512">
      <path
         d="m 260.19531,0.28145973 c 3.34373,3.497e-5 5.80466,1.77347067 7.38281,5.32031247 0.2031,0.8125289 0.3281,1.656278 0.375,2.53125 -2e-5,1.8281503 -0.93752,3.9922108 -2.8125,6.4921878 l -1.40625,1.40625 0.0703,0 c 1.15622,-0.437481 2.39059,-0.65623 3.70312,-0.65625 l 0.44531,0 c 3.71872,2e-5 6.32809,1.578143 7.82813,4.734375 0.35934,1.031264 0.53902,2.015638 0.53906,2.953125 -4e-5,3.203134 -1.63285,5.617194 -4.89844,7.242187 -0.62503,0.187505 -1.49221,0.32813 -2.60156,0.421875 -3.78127,5e-6 -6.46096,-2.140618 -8.03906,-6.421875 l -0.0703,0 0,0.210938 c -2e-5,5.35938 0.6406,8.890627 1.92187,10.59375 l 0,0.140625 -4.875,0 -0.14062,-0.140625 c 1.3281,-1.999998 1.99216,-5.601557 1.99218,-10.804688 l 0,-0.07031 -0.0703,0 c -1.56252,4.328131 -4.25783,6.492192 -8.08594,6.492187 -2.98438,5e-6 -5.27344,-1.570306 -6.86718,-4.710937 -0.39063,-1.06249 -0.58595,-2.046864 -0.58594,-2.953125 -1e-5,-3.640609 1.92187,-6.109357 5.76562,-7.40625 1.03124,-0.18748 1.9453,-0.28123 2.74219,-0.28125 l 0.21094,0 c 1.34373,2e-5 2.62498,0.218769 3.84375,0.65625 l 0.0703,0 0,-0.07031 c -1.31251,-1.109354 -2.19533,-2.203103 -2.64844,-3.28125 -0.93751,-1.718725 -1.40626,-3.2109115 -1.40625,-4.4765623 l 0,-0.328125 c -1e-5,-3.1405945 1.67968,-5.5234046 5.03907,-7.14843747 1.10935,-0.29684018 1.96873,-0.44527753 2.57812,-0.4453125"
         style=""
         id="path3186" />
    </g>
    <g
       transform="matrix(0.98718411,0,0,0.87744159,165.51876,116.55143)"
       style="fill:#000000"
       id="flowRoot4520">
      <path
         d="m 378.40625,5.8439597 c 1.46873,2.6094074 3.8906,6.0703413 7.26562,10.3828123 3.7031,4.34377 5.60153,6.960955 5.69532,7.851563 0.60934,1.32814 0.91402,2.617201 0.91406,3.867187 l 0,0.9375 c -4e-5,2.609385 -1.26566,4.66407 -3.79688,6.164063 -0.82815,0.343755 -1.74221,0.51563 -2.74218,0.515625 -2.40628,5e-6 -4.35159,-1.726556 -5.83594,-5.179688 l -0.98438,0 0,0.28125 c -2e-5,4.421881 0.64842,7.80469 1.94532,10.148438 l -5.03907,0 0,-0.140625 c 1.32811,-2.359373 1.99217,-5.765619 1.99219,-10.21875 l -0.0703,-0.07031 -0.89063,0 -1.10156,2.0625 c -1.32814,2.078132 -2.98439,3.117193 -4.96875,3.117188 -2.92188,5e-6 -4.97657,-1.632806 -6.16406,-4.898438 l -0.21094,-1.710937 0,-1.078125 c -1e-5,-2.859359 1.46093,-5.874981 4.38281,-9.046875 4.92186,-6.031222 8.07811,-10.3359054 9.46875,-12.9140628 l 0.0703,-0.070312 0.0703,0"
         style=""
         id="path3183" />
    </g>
    <g
       transform="scale(1.0766893,0.92877304)"
       style="fill:#000000"
       id="text2987-7-2-6-4-1">
      <path
         d="m 204.74893,117.96999 15.48828,0 0,3.32031 -11.875,0 0,7.14844 c 0.57291,-0.1953 1.14583,-0.33853 1.71875,-0.42969 0.57291,-0.10415 1.14583,-0.15623 1.71875,-0.15625 3.2552,2e-5 5.83332,0.89194 7.73438,2.67578 1.90102,1.78387 2.85154,4.19923 2.85156,7.24609 -2e-5,3.13803 -0.97658,5.57943 -2.92969,7.32422 -1.95314,1.73177 -4.70704,2.59766 -8.26172,2.59766 -1.22396,0 -2.47396,-0.10417 -3.75,-0.3125 -1.26302,-0.20833 -2.57161,-0.52083 -3.92578,-0.9375 l 0,-3.96485 c 1.17187,0.63803 2.38281,1.11329 3.63282,1.42579 1.24999,0.3125 2.5716,0.46875 3.96484,0.46875 2.25259,0 4.03644,-0.59245 5.35156,-1.77735 1.31509,-1.18489 1.97264,-2.79296 1.97266,-4.82422 -2e-5,-2.03124 -0.65757,-3.63931 -1.97266,-4.82422 -1.31512,-1.18488 -3.09897,-1.77732 -5.35156,-1.77734 -1.0547,2e-5 -2.10938,0.1172 -3.16406,0.35156 -1.04168,0.23439 -2.10938,0.59898 -3.20313,1.09375 l 0,-14.64843"
         style="fill:#ff0000"
         id="path3197" />
    </g>
    <g
       transform="matrix(0.75352476,0,0,1.0656696,27.305216,0)"
       style="fill:#000000"
       id="text2987-7-6">
      <path
         d="m 193.57398,258.97055 c -1.72657,2e-5 -2.44053,0.85223 -3.31487,2.55664 -0.86328,1.69337 -1.71385,4.30371 -1.71385,7.71255 0,3.39779 0.85057,5.88965 1.71385,7.59407 0.87434,1.69336 1.5883,2.54004 3.31487,2.54003 1.73761,1e-5 2.70292,-0.84667 3.56622,-2.54003 0.87433,-1.70442 1.3115,-4.25552 1.31152,-7.65331 -2e-5,-3.40884 -0.43719,-5.95994 -1.31152,-7.65331 -0.8633,-1.70441 -1.82861,-2.55662 -3.56622,-2.55664 m 0,-2.65625 c 9.0003,-0.0331 8.53416,8.11309 8.56639,12.8662 -0.0515,8.14716 -0.21781,12.47765 -8.56639,12.49413 -9.00608,0.0211 -8.5344,-7.74782 -8.5664,-12.49413 0.79542,-8.81726 1.49011,-12.82526 8.5664,-12.8662"
         style="fill:#ff0000"
         id="path3194"
         inkscape:connector-curvature="0"
         sodipodi:nodetypes="ccscccsccccccc" />
    </g>
    <g
       transform="translate(100.09598,111.54949)"
       style="fill:#000000"
       id="flowRoot4520-8">
      <path
         d="m 378.35937,5.8439597 11.78907,15.3046873 c 1.07809,1.328144 1.61715,2.093768 1.61718,2.296875 L 378.35937,40.81271 c -0.18752,-0.125 -4.67189,-5.914057 -13.45312,-17.367188 -10e-6,-0.218732 0.86718,-1.406231 2.60156,-3.5625 L 378.35937,5.8439597"
         style="fill:#ff0000"
         id="path3180" />
    </g>
    <g
       transform="matrix(0.74137653,0,0,0.81616239,164.52992,123.5923)"
       style="fill:#ff0000"
       id="flowRoot4512-1">
      <path
         d="m 251.59375,0.28145973 c 3.17186,3.497e-5 5.66404,1.83597067 7.47656,5.50781247 0.65623,1.453153 0.99998,2.5625269 1.03125,3.328125 l 0.0703,0 c 0.54686,-2.5312213 1.53904,-4.6327817 2.97657,-6.3046875 1.68747,-1.6874658 3.58591,-2.531215 5.69531,-2.53124997 3.26559,3.497e-5 5.88278,1.75003327 7.85156,5.24999997 0.49996,1.2969035 0.74996,2.5156522 0.75,3.65625 -4e-5,3.9062723 -1.62503,7.6328313 -4.875,11.1796873 l -12.39844,14.882813 -0.14062,0 -13.17188,-16.148438 c -2.625,-3.203105 -3.9375,-6.50779 -3.9375,-9.9140623 0,-3.2968456 1.55469,-5.9140305 4.66407,-7.8515625 1.31249,-0.70309035 2.64842,-1.0546525 4.00781,-1.05468747"
         style="fill:#ff0000"
         id="path3176" />
    </g>
    <path
       inkscape:connector-curvature="0"
       d="m 163.01689,248.8064 0,8.98321 5.49313,0 c 1.76114,2e-5 3.10297,-0.38139 4.0255,-1.1442 0.92249,-0.77902 1.38375,-1.89888 1.38376,-3.35958 -10e-6,-1.46068 -0.46127,-2.57241 -1.38376,-3.33523 -0.92253,-0.76279 -2.26436,-1.14419 -4.0255,-1.1442 l -5.49313,0 m 0,-11.12556 0,7.54688 5.0738,0 c 1.45365,1e-5 2.64173,-0.3327 3.56425,-0.99814 0.9225,-0.68163 1.38374,-1.62296 1.38376,-2.824 -2e-5,-1.20098 -0.46126,-2.11797 -1.38376,-2.75095 -0.92252,-0.64917 -2.1106,-0.97377 -3.56425,-0.97379 l -5.0738,0 m -3.85777,-3.57868 9.18317,0 c 2.75354,2e-5 4.87111,0.5843 6.35274,1.75282 1.48159,1.16858 2.22239,2.83213 2.22241,4.99067 -2e-5,1.6717 -0.37741,3.00254 -1.13218,3.99255 -0.75479,0.97381 -1.87299,1.58242 -3.35458,1.82586 1.77512,0.38952 3.15189,1.20101 4.13033,2.43448 0.9784,1.23348 1.46762,2.77531 1.46764,4.6255 -2e-5,2.43448 -0.81072,4.31714 -2.43208,5.64798 -1.60742,1.33085 -3.90671,1.99628 -6.89786,1.99628 l -9.53959,0 0,-27.26614"
       style="fill:#000000"
       id="path3115-0" />
    <path
       inkscape:connector-curvature="0"
       d="m 222.45156,296.8093 11.19592,0 0,-20.10877 -8.1139,0 0,3.40827 c -1e-5,6.68671 -0.82468,11.81533 -2.474,15.3859 l -0.60802,1.3146 m -5.59796,0 c 1.27194,-0.64919 2.18746,-1.66355 2.74657,-3.04308 1.36978,-3.4245 2.05467,-8.58558 2.05468,-15.48329 l 0,-5.16108 15.87136,0 0,23.68745 3.08202,0 0,10.46826 -3.08202,0 0,-6.88957 -19.03725,0 0,6.88957 -3.08202,0 0,-10.46826 1.44666,0"
       style="fill:#000000"
       id="path3117-5" />
    <path
       inkscape:connector-curvature="0"
       d="m 218.58232,233.96794 3.8368,0 0,12.80534 10.88143,-12.80534 4.73834,0 -8.9735,10.54128 10.12664,16.72486 -4.31902,0 -8.32356,-13.7548 -4.13033,4.86896 0,8.88584 -3.8368,0 0,-27.26614"
       style="fill:#ff0000"
       id="path3119-0" />
    <path
       inkscape:connector-curvature="0"
       d="m 458.58232,233.96794 3.8368,0 0,12.80534 10.88143,-12.80534 4.73834,0 -8.9735,10.54128 10.12664,16.72486 -4.31902,0 -8.32356,-13.7548 -4.13033,4.86896 0,8.88584 -3.8368,0 0,-27.26614"
       style="fill:#000000"
       id="path3119-0-0" />
    <flowRoot
       xml:space="preserve"
       id="flowRoot3100"
       style="fill:black;stroke-width:1px;stroke-linejoin:miter;stroke-linecap:butt"><flowRegion
         id="flowRegion3102"><rect
           id="rect3104"
           width="39.901024"
           height="46.467018"
           x="-81.317276"
           y="156.86037" /></flowRegion><flowPara
         id="flowPara3106" /></flowRoot>  </g>
</svg>
